<svg version="1.1" id="Layer_1" xmlns="http://www.w3.org/2000/svg" x="0" y="0" viewBox="0 0 500 500" xml:space="preserve"><style type="text/css">.st1{fill:#fff}</style><circle cx="250" cy="250" r="249" fill="#223b4f"/><path class="st1" d="M357 179.1c-10.4-33.6-37.8-61-71.4-71.4-35.6-11-73.5-4.9-102.4 16.4-28.7 21.1-45.8 55-45.8 90.6 0 24.6 7.8 47.9 22.5 67.5L250 397.7l90.1-115.5c22-29.3 28.2-66.9 16.9-103.1zm-107 96.2c-33.4 0-60.6-27.2-60.6-60.6s27.2-60.6 60.6-60.6 60.6 27.2 60.6 60.6-27.2 60.6-60.6 60.6z"/><path class="st1" d="M250 171.6c-23.9 0-43.3 19.3-43.3 43.2S226.1 258 250 258s43.3-19.4 43.3-43.3c0-23.8-19.4-43.1-43.3-43.1z"/></svg>