<svg version="1.1" id="Layer_1" xmlns="http://www.w3.org/2000/svg" x="0" y="0" viewBox="0 0 500 500" xml:space="preserve"><style type="text/css">.st2{fill:#3fc5af}</style><circle cx="249.6" cy="248.6" r="164.5" fill="none" stroke="#3fc5af" stroke-width="5" stroke-miterlimit="10" stroke-dasharray="5.0184,5.0184"/><circle cx="250" cy="249.5" r="246" fill="none" stroke="#3fc5af" stroke-width="5" stroke-miterlimit="10"/><path class="st2" d="M60.9 174.3c1.1 2.7.9 6-.4 9.9l-2.5 7.5 13 4.3-2.5 7.5-36.1-12 5.1-15.5c1.2-3.6 3.1-6.1 5.6-7.6 2.6-1.5 5.8-1.6 9.7-.3 4.3 1.5 7 3.5 8.1 6.2zm-15 1.5c-1.1.7-2 1.9-2.5 3.6l-2.3 6.8 10.6 3.5 2.3-6.8c.6-1.7.6-3.2 0-4.5-.5-1.2-1.8-2.2-3.6-2.8-1.9-.5-3.4-.5-4.5.2zm13-43.2c1.2-.9 2.6-1.5 4.1-1.8 1.2-.2 2.5-.3 3.7-.1 1.3.2 2.5.6 3.8 1.3 1.6.9 2.9 2.1 4 3.8 1.1 1.6 1.4 3.6 1 5.8 1.5-1.2 3-1.8 4.4-1.8 1.5 0 3.4.6 5.7 1.9l2.2 1.2c1.5.8 2.6 1.4 3.2 1.5 1 .3 1.8.2 2.6-.2l.8.5-4.3 7.7c-.9-.2-1.5-.4-2-.5-1-.3-2-.8-3-1.3l-3.1-1.7c-2.1-1.2-3.8-1.6-4.9-1.3-1.1.3-2.2 1.4-3.3 3.4l-3.8 6.8 13.1 7.2-3.8 6.8L46 153.3l8.8-15.9c1.6-2.3 2.9-3.8 4.1-4.8zm-3 17.1l8.9 5 4.2-7.5c.8-1.5 1.3-2.7 1.3-3.6.1-1.7-.8-3-2.7-4.1-2-1.1-3.7-1.2-5.1-.3-.8.5-1.6 1.5-2.4 2.9l-4.2 7.6zm58.2-33.9c.4 4.1-1.2 8.2-4.7 12.4s-7.4 6.3-11.5 6.6c-5.3.6-10.5-1.4-15.7-5.8-5.3-4.5-8-9.4-8.2-14.6-.4-4.1 1.2-8.2 4.7-12.4s7.4-6.3 11.5-6.6c5.2-.6 10.4 1.3 15.7 5.8 5.2 4.5 8 9.4 8.2 14.6zm-7.6.1c-.6-2.9-2.5-5.8-5.7-8.6s-6.4-4.2-9.3-4.3c-3-.1-5.5 1-7.5 3.4s-2.8 5.1-2.3 8c.5 2.9 2.5 5.8 5.7 8.6 3.3 2.8 6.4 4.2 9.4 4.3 3 .1 5.5-1.1 7.6-3.5s2.7-5 2.1-7.9zm-6.1-35l6.4-5 14.4 18.4c1.6 2.1 3 3.4 4.3 3.9 2.1 1.1 4.4.6 6.9-1.3 2.5-2 3.5-4.1 3-6.4-.3-1.3-1.2-3-2.8-5.1L118.1 67l6.4-5 14.4 18.4c2.5 3.2 3.9 6.1 4.3 8.6.7 4.7-1.5 9.1-6.7 13.1-5.2 4.1-10 5.2-14.4 3.4-2.4-1-4.8-3.1-7.3-6.3l-14.4-18.3zM156 45.6c2.8-.4 5.4 0 8 1.4 2 1.1 3.8 2.5 5.2 4.3 1.4 1.7 2.6 3.5 3.5 5.3 2.3 4.5 3.3 8.8 3.1 12.9-.3 5.5-3 9.5-8.2 12.1L153 88.9 135.8 55l14.6-7.4c2.1-1.2 4-1.8 5.6-2zm-10.4 11.7l11.3 22.2 6.6-3.3c3.4-1.7 4.9-4.5 4.5-8.5-.2-2.2-.9-4.5-2.2-7-1.8-3.5-3.6-5.8-5.7-7.1-2-1.3-4.7-1.1-7.9.5l-6.6 3.2zm29.5-20.7l7.6-2.3 8.9 29.9 18.2-5.4 2 6.6L186 73l-10.9-36.4zm52.1-11.8l8.9-1.3-9.2 25.4 2 14.1-7.9 1.1-2-14.1-16.4-21.7 9.3-1.3 10.2 15.3 5.1-17.5zm62.5 5.7c1 1.7 1.3 3.7 1.1 6-.3 2.3-1 4.1-2.4 5.4-.7.7-1.8 1.3-3.1 1.8 1.9.9 3.2 2.2 4 3.8.8 1.6 1.1 3.5.9 5.7-.2 2.2-1 4.2-2.4 5.8-.8 1.1-1.8 2-3 2.7-1.3.8-2.8 1.3-4.5 1.4-1.7.2-3.5.1-5.4-.1l-17.1-1.9 4.2-37.8 18.3 2c4.6.7 7.7 2.4 9.4 5.2zm-22.5 14.9l-1.1 10.1 9.2 1c1.6.2 2.9.1 3.9-.2 1.7-.6 2.8-2.1 3-4.4.2-2-.4-3.4-2-4.3-.9-.5-2.1-.9-3.7-1.1l-9.3-1.1zm1.6-14.6l-.9 8.3 9.2 1c1.6.2 3 0 4.1-.5 1.1-.5 1.7-1.6 1.9-3.2.2-1.8-.4-3-1.6-3.7-1.1-.5-2.6-.9-4.4-1.1l-8.3-.8zm59.5 7c1.2 1 2 2.2 2.6 3.6.5 1.2.8 2.4.9 3.6.1 1.3-.1 2.6-.5 4-.5 1.7-1.5 3.3-2.9 4.7s-3.2 2.1-5.4 2.2c1.5 1.2 2.3 2.5 2.7 4 .3 1.5.1 3.5-.7 6l-.8 2.4c-.5 1.7-.8 2.8-.9 3.4-.1 1 .2 1.8.8 2.5l-.3.9-8.4-2.6c0-.9.1-1.6.1-2.1.1-1.1.3-2.2.7-3.2l1-3.4c.7-2.3.8-4 .3-5s-1.8-1.9-4-2.5L306 54l-4.5 14.2-7.4-2.3 11.4-36.3 17.4 5.5c2.4.8 4.3 1.7 5.4 2.7zm-17.4.4l-3.1 9.8 8.2 2.6c1.6.5 2.9.7 3.8.6 1.7-.2 2.8-1.4 3.4-3.4.7-2.2.5-3.9-.7-5.1-.6-.7-1.7-1.3-3.3-1.7l-8.3-2.8zm45.5 11l7.9 4.3-6.4 39.9-7.6-4.1 1.5-8.1-12.3-6.7-6 5.6-7.3-4 30.2-26.9zm-11.9 20.5l8.6 4.7 3-15.5-11.6 10.8zm40-3.6l6.4 5.3-5.3 30.1 17-20.4 5.7 4.7-24.3 29.3-6.1-5.1 5.3-30.7-17.3 20.8-5.7-4.7 24.3-29.3zm46.5 46.8c1 2.6 1.1 5.3.4 8.1-.6 2.2-1.6 4.2-3 6s-2.9 3.3-4.4 4.6c-3.9 3.2-7.9 5.1-11.9 5.8-5.4.9-9.9-.9-13.6-5.4L388 119.2l29.5-24.1 10.4 12.7c1.5 1.9 2.5 3.6 3.1 5.1zm-13.7-7.6L398 121l4.7 5.7c2.4 2.9 5.5 3.8 9.3 2.6 2.1-.7 4.2-1.9 6.4-3.7 3-2.5 4.9-4.8 5.8-7.1.8-2.3.1-4.8-2.2-7.6l-4.7-5.6zm34.3 52.4L442 140l-7.1 3.9 8.9 16.2-5.8 3.2-8.9-16.2-8.6 4.7 10.1 18.5-6 3.3-13.8-25.3 33.4-18.3 13.4 24.5-6 3.2zm17.1 29.8c0 2.8-.9 5.4-2.6 7.7-1.4 1.8-3.1 3.3-5 4.5-1.9 1.1-3.9 2-5.8 2.6-4.8 1.6-9.2 1.9-13.2 1.1-5.4-1.2-8.9-4.5-10.7-10l-5.1-15.6 36.2-11.7 5 15.6c.8 2.2 1.2 4.2 1.2 5.8zm-10-12.1l-23.6 7.6 2.3 7c1.2 3.6 3.7 5.5 7.7 5.8 2.2.1 4.6-.2 7.3-1.1 3.7-1.2 6.3-2.7 7.9-4.5 1.6-1.8 1.8-4.4.7-7.9l-2.3-6.9zM29.4 299.1l-1.6-7.7 37.3-7.8 1.6 7.7-37.3 7.8zm38-2.4l2.8 7.9-20.1 23 25.1-8.8 2.4 7-35.9 12.6-2.6-7.5 20.4-23.6-25.5 8.9-2.4-7 35.8-12.5zm34 68.6l-5.6 3.7-6.3-9.5-26.2 17.3-4.4-6.7 26.2-17.3-6.3-9.6 5.6-3.7 17 25.8zM75 393l27.7-26.1 5.4 5.8-10.6 10 10.2 10.8 10.6-10 5.4 5.8-27.7 26-5.4-5.8 12.4-11.7L92.8 387l-12.4 11.7L75 393zm71.2 21.5l-16.2-12-4.8 6.5 14.9 11-3.9 5.3-14.9-11-5.8 7.9 17 12.5-4.1 5.5-23.2-17.1 22.6-30.6 22.5 16.6-4.1 5.4zM166 418l7.5 3-8.7 21.7c-1 2.4-1.4 4.3-1.3 5.7.1 2.3 1.6 4.1 4.6 5.3 3 1.2 5.3 1 7-.6 1-.9 2-2.5 3-5l8.7-21.7 7.5 3-8.7 21.7c-1.5 3.8-3.3 6.4-5.3 8.1-3.7 3-8.6 3.2-14.7.8-6.1-2.5-9.5-6-10.1-10.8-.3-2.6.3-5.7 1.8-9.5L166 418zm25.7 41.6l7.6 1.9-1.9 7.5-7.6-1.9 1.9-7.5zm23 1.1c0 1.8.3 3.1.9 4.1 1.1 1.7 3.2 2.8 6.4 3.2 1.9.2 3.5.2 4.7 0 2.4-.5 3.7-1.8 3.9-3.9.2-1.2-.3-2.3-1.3-3.1-1-.8-2.7-1.6-5-2.4l-4-1.4c-3.9-1.4-6.5-2.7-7.9-4-2.3-2.1-3.2-5-2.8-8.7.4-3.4 2-6 4.8-7.9 2.8-1.9 6.6-2.6 11.4-1.9 4 .5 7.3 2 9.9 4.5 2.6 2.5 3.7 5.7 3.3 9.8l-7.6-1c.2-2.3-.7-4-2.4-5.2-1.2-.8-2.7-1.3-4.6-1.6-2.1-.3-3.8-.1-5.1.6-1.3.7-2.1 1.7-2.3 3.2-.2 1.3.3 2.4 1.5 3.3.7.5 2.3 1.3 4.8 2.2l6.4 2.4c2.8 1.1 4.9 2.2 6.2 3.6 2 2.1 2.8 4.8 2.4 8.1-.4 3.5-2.1 6.1-5.1 8.1s-6.9 2.6-11.7 2c-5-.6-8.7-2.3-11.3-4.9-2.6-2.6-3.6-5.9-3.1-9.8l7.6.7zm30.4 6.7l7.8.1-.1 7.7-7.8-.1.1-7.7zm24-31.2l8.9-1.1 18 36.2-8.6 1-3.4-7.5-13.9 1.7-1.6 8.1-8.3 1 8.9-39.4zm2.4 23.6l9.7-1.2-6.6-14.3-3.1 15.5zm33.5-30.3l25.4-9.5 2.4 6.3-18 6.8 3.1 8.2 15.8-5.9 2.3 6.2-15.8 5.9 5.6 14.9-7.4 2.8-13.4-35.7zm70.7 4.1c-.9 4-3.7 7.4-8.4 10.2-4.7 2.8-9 3.7-13 2.6-5.2-1.1-9.5-4.6-13-10.5-3.6-6-4.6-11.5-3.1-16.4.9-4 3.7-7.4 8.4-10.2 4.7-2.8 9-3.7 13-2.6 5.1 1 9.4 4.5 13 10.5 3.5 5.8 4.5 11.3 3.1 16.4zm-7.2-2.4c.4-2.9-.5-6.3-2.7-9.9-2.2-3.7-4.7-6-7.5-7.1-2.8-1-5.5-.8-8.2.9s-4.3 3.9-4.7 6.9c-.4 3 .5 6.3 2.7 10s4.7 6 7.5 7.1c2.8 1 5.6.7 8.3-.9s4.2-4.1 4.6-7zm15.4-48.2c1.4-.5 2.9-.6 4.4-.4 1.2.2 2.4.5 3.6 1.1 1.1.6 2.2 1.4 3.2 2.5 1.2 1.3 2.1 3 2.6 4.9s.2 3.8-.9 5.8c1.8-.7 3.4-.7 4.8-.3s3 1.7 4.8 3.7l1.7 1.9c1.2 1.3 2 2.1 2.5 2.5.8.6 1.7.8 2.5.6l.6.7-6.5 5.9c-.7-.5-1.3-.9-1.8-1.2-.9-.7-1.7-1.4-2.4-2.2l-2.4-2.6c-1.7-1.8-3-2.7-4.2-2.8-1.1-.1-2.5.7-4.2 2.1l-5.8 5.2 10 11.1-5.8 5.2-25.5-28.2 13.5-12.2c2.2-1.7 3.9-2.8 5.3-3.3zm-8.4 15.2l6.9 7.6 6.4-5.7c1.3-1.1 2.1-2.1 2.4-3 .6-1.5.2-3.1-1.2-4.7-1.5-1.7-3.1-2.4-4.7-2-.9.2-2 .9-3.2 2l-6.6 5.8zm35.9-51.7l5-7.5 12.7 23.8 11.9 7.9-4.4 6.6-11.9-7.9-27.1-2.3 5.2-7.8 18.2 2.6-9.6-15.4zm49.1-22.6c1.6 3.8 1.3 8.2-.8 13.2s-5.1 8.3-9 9.8c-4.8 2.1-10.4 1.9-16.7-.8-6.4-2.7-10.5-6.5-12.2-11.5-1.6-3.8-1.3-8.2.8-13.2s5.1-8.3 9-9.8c4.7-2.2 10.3-1.9 16.7.8 6.3 2.8 10.4 6.6 12.2 11.5zm-7.2 2.3c-1.4-2.6-4.1-4.8-8.1-6.4-3.9-1.7-7.3-2.1-10.2-1.3s-4.9 2.6-6.1 5.5c-1.2 2.9-1.1 5.7.3 8.3s4.1 4.8 8 6.5c3.9 1.7 7.4 2.1 10.2 1.3 2.9-.8 4.9-2.7 6.2-5.6s1.1-5.6-.3-8.3zm-21.8-24.3l1.6-7.9 22.9 4.7c2.6.5 4.5.6 5.8.3 2.3-.5 3.8-2.3 4.4-5.5.6-3.1 0-5.4-1.9-6.8-1.1-.8-2.9-1.5-5.4-2.1l-22.9-4.7 1.6-7.9 22.9 4.7c4 .8 6.9 2.1 8.9 3.8 3.6 3.1 4.7 7.9 3.4 14.4s-4.3 10.4-8.8 11.9c-2.5.8-5.7.7-9.6-.1l-22.9-4.8z"/><circle class="st2" cx="46" cy="241.1" r="10.3"/><circle class="st2" cx="456" cy="241.1" r="10.3"/><path class="st2" d="M376.6 192.9c-50.7-11.4-101.3-1.7-152 3.7-1.7.2-3 1.7-3 3.3v5.4c0 1.7 1.3 2.9 3 2.7 50.7-5.4 101.3-15.1 152-3.7 1.7.4 3-.6 3-2.3v-5.4c0-1.7-1.3-3.3-3-3.7zm0 25.1c-50.7-11.4-101.3-1.7-152 3.7-1.7.2-3 1.7-3 3.3v5.4c0 1.7 1.3 2.9 3 2.7 50.7-5.4 101.3-15.1 152-3.7 1.7.4 3-.6 3-2.3v-5.4c0-1.6-1.3-3.3-3-3.7zm0 25.1c-50.7-11.4-101.3-1.7-152 3.7-1.7.2-3 1.7-3 3.3v5.4c0 1.7 1.3 2.9 3 2.7 50.7-5.4 101.3-15.1 152-3.7 1.7.4 3-.6 3-2.3v-5.4c0-1.6-1.3-3.3-3-3.7zm0 29.3c-84-18.9-168.1 20.3-252.1 1.4-1.7-.4-3 .6-3 2.3v5.4c0 1.7 1.3 3.3 3 3.7 84 18.9 168.1-20.3 252.1-1.4 1.7.4 3-.6 3-2.3v-5.4c0-1.6-1.3-3.3-3-3.7zm0 24.5c-84-18.9-168.1 20.3-252.1 1.4-1.7-.4-3 .6-3 2.3v5.4c0 1.7 1.3 3.3 3 3.7 84 18.9 168.1-20.3 252.1-1.4 1.7.4 3-.6 3-2.3v-5.4c0-1.6-1.3-3.3-3-3.7zm-172-97.8c-26.6 2-53.3 1.8-79.9-4.1-1.7-.4-3 .6-3 2.3v55c0 1.7 1.3 3.3 3 3.7 26.6 6 53.3 6.1 79.9 4.1 1.7-.1 3-1.6 3-3.2v-55c0-1.6-1.4-2.9-3-2.8z"/></svg>