<svg version="1.1" id="Layer_1" xmlns="http://www.w3.org/2000/svg" x="0" y="0" viewBox="0 0 500 500" xml:space="preserve"><path d="M159.6 388.8c-28.8 0-52.2 23.4-52.2 52.2 0 28.8 23.4 52.2 52.2 52.2 28.8 0 52.2-23.4 52.2-52.2-.1-28.8-23.4-52.2-52.2-52.2zm0 81.2c-16 0-29-13-29-29s13-29 29-29 29 13 29 29c-.1 16-13 29-29 29zm220.2-81.2c-28.8 0-52.2 23.4-52.2 52.2 0 28.8 23.4 52.2 52.2 52.2S432 469.8 432 441c0-28.8-23.4-52.2-52.2-52.2zm0 81.2c-16 0-29-13-29-29s13-29 29-29 29 13 29 29-13 29-29 29zM497.5 84.5c-2.4-2.6-5.7-4.3-9.3-4.6l-377.3-5.2-10.4-31.9C93.1 21.5 73.1 7.1 50.6 6.9H11.8C5.4 6.9.2 12 .2 18.5S5.4 30 11.8 30h38.8c12.6.3 23.7 8.4 27.8 20.3l73.6 222-5.8 13.3c-6.5 16.7-4.5 35.4 5.2 50.4 9.6 14.7 25.9 23.8 43.5 24.3h225.5c6.4 0 11.6-5.2 11.6-11.6s-5.2-11.6-11.6-11.6H194.9c-9.9-.2-19.1-5.5-24.3-13.9-5.2-8.3-6.3-18.6-2.9-27.8l4.6-10.4 244-25.5c26.8-3 48.9-22.4 55.1-48.7l27.8-116.5c1.3-3.3.6-7.1-1.7-9.8zm-48.7 121.2c-3.8 16.9-18.1 29.4-35.4 30.7l-241.1 24.9-53.9-163.4 355.3 5.2-24.9 102.6z"/></svg>