<svg version="1.1" id="Layer_1" xmlns="http://www.w3.org/2000/svg" x="0" y="0" viewBox="0 0 500 500" xml:space="preserve"><style type="text/css">.st0{fill:#4b5964}</style><path d="M-210 297c-8.3 0-15 6.7-15 15s6.7 15 15 15 15-6.7 15-15-6.7-15-15-15z"/><g id="Free_delivery"><path class="st0" d="M491.7 345.8h-8.3v-91.7c0-41.4-33.6-75-75-75H350V87.5c0-4.6-3.7-8.3-8.3-8.3H8.3c-4.6 0-8.3 3.7-8.3 8.3v266.7c0 4.6 3.7 8.3 8.3 8.3h8.3v8.3c0 13.8 11.2 25 25 25h40.1c13.7 23.9 44.2 32.1 68.1 18.3 7.6-4.4 14-10.7 18.3-18.3H365c13.7 23.9 44.2 32.1 68.1 18.3 7.6-4.4 14-10.7 18.3-18.3H475c13.8 0 25-11.2 25-25v-16.7c0-4.5-3.7-8.3-8.3-8.3zm-25-91.6v16.7h-75c-4.6 0-8.3-3.7-8.3-8.3v-66.7h25c32.1 0 58.2 26.1 58.3 58.3zm-100-58.4v66.7c0 13.8 11.2 25 25 25h75v58.3h-15.1c-13.7-23.9-44.2-32.1-68.1-18.3-7.6 4.4-14 10.7-18.3 18.3H350v-150h16.7zm-198.5 150c-13.7-23.9-44.2-32.1-68.1-18.3-7.6 4.4-14 10.7-18.3 18.3H16.7v-33.3h316.7v33.3H168.2zM16.7 95.8h316.7v200H16.7v-200zm25 283.4c-4.6 0-8.3-3.7-8.3-8.3v-8.3h42.4c-1 5.5-1 11.2 0 16.7H41.7zm83.3 25c-18.4 0-33.3-14.9-33.3-33.3s14.9-33.3 33.3-33.3 33.3 14.9 33.3 33.3-14.9 33.3-33.3 33.3zm49.2-25c1-5.5 1-11.2 0-16.7H359c-1 5.5-1 11.2 0 16.7H174.2zm234.1 25c-18.4 0-33.3-14.9-33.3-33.3s14.9-33.3 33.3-33.3 33.3 14.9 33.3 33.3-14.9 33.3-33.3 33.3zm75-33.4c0 4.6-3.7 8.3-8.3 8.3h-17.4c1-5.5 1-11.2 0-16.7h25.8v8.4z"/><path class="st0" d="M66.7 220.8c4.6 0 8.3-3.7 8.3-8.3v-25h16.7c4.6 0 8.3-3.7 8.3-8.3 0-4.6-3.7-8.3-8.3-8.3H75v-16.7h25c4.6 0 8.3-3.7 8.3-8.3s-3.7-8.3-8.3-8.3H66.7c-4.6 0-8.3 3.7-8.3 8.3v66.7c-.1 4.5 3.7 8.2 8.3 8.2zm58.3 0c4.6 0 8.3-3.7 8.3-8.3v-19.4l18.3 24.4c2.8 3.7 8 4.4 11.7 1.7s4.4-8 1.7-11.7l-15.9-21.2c13.2-4.1 20.5-18 16.5-31.2-3.2-10.5-12.9-17.6-23.9-17.6H125c-4.6 0-8.3 3.7-8.3 8.3v66.7c0 4.6 3.7 8.3 8.3 8.3zm25-58.3c0 4.6-3.7 8.3-8.3 8.3h-8.3v-16.7h8.3c4.6.1 8.3 3.8 8.3 8.4zm41.7 58.3H225c4.6 0 8.3-3.7 8.3-8.3s-3.7-8.3-8.3-8.3h-25v-16.7h16.7c4.6 0 8.3-3.7 8.3-8.3 0-4.6-3.7-8.3-8.3-8.3H200v-16.7h25c4.6 0 8.3-3.7 8.3-8.3s-3.7-8.3-8.3-8.3h-33.3c-4.6 0-8.3 3.7-8.3 8.3v66.7c-.1 4.5 3.7 8.2 8.3 8.2zm58.3 0h33.3c4.6 0 8.3-3.7 8.3-8.3s-3.7-8.3-8.3-8.3h-25v-16.7H275c4.6 0 8.3-3.7 8.3-8.3 0-4.6-3.7-8.3-8.3-8.3h-16.7v-16.7h25c4.6 0 8.3-3.7 8.3-8.3s-3.7-8.3-8.3-8.3H250c-4.6 0-8.3 3.7-8.3 8.3v66.7c0 4.5 3.7 8.2 8.3 8.2zm58.3 16.7H41.7c-4.6 0-8.3 3.7-8.3 8.3s3.7 8.3 8.3 8.3h266.7c4.6 0 8.3-3.7 8.3-8.3s-3.8-8.3-8.4-8.3z"/></g></svg>