<svg version="1.1" id="Layer_1" xmlns="http://www.w3.org/2000/svg" x="0" y="0" viewBox="0 0 500 500" xml:space="preserve"><style type="text/css">.st0{fill:#333}</style><path class="st0" d="M208.2 43.8C155.6 48 108.3 65.3 57.8 98.6c-18.1 12-36.2 25.7-43.8 33.3-4.7 4.7-5.7 7-5.4 12.9.3 4.3 1.5 7.5 3.9 10.6 3.4 4.2 7 5.1 21.5 5.2 5.3.1 12.7.2 16.4.4l6.8.3-7.2 7.6c-14.7 15.3-22.7 26.4-30.6 42.1C9.9 230.1 4.7 250 3 274.5c-1.1 15.1-.2 27.5 2.4 31.4 1.1 1.6 3.7 2.7 6.4 2.7 1.9 0 2.7-.4 4.9-2 1.5-1.1 13.2-12.4 26.1-25 12.9-12.7 24.1-23.4 24.9-23.8 1.8-1 1.6-1.6 3.3 10.4 11 77.6 36.7 134.1 74.8 164.5 15.3 12.2 35.7 21 53.9 23.3 8.1 1 9.7.8 12.5-2.2 1.9-2 2.1-2.5 2.1-4.8 0-2.9-1-5-4.8-10.6-10.6-15.2-17.9-38-21.2-66.4-.9-7.8-2.1-29.4-1.6-29.9.2-.2 5.5 4.7 11.7 10.8 21.7 21.3 37.5 33.7 53.4 41.8 6.5 3.3 15.5 6.4 18.6 6.5 4.6.1 9-3.9 9.1-8.1 0-.9-1.2-4.6-2.7-8.3-6.8-16.6-8.9-27.2-8.9-44.6 0-16 2.4-27.9 7.9-38.9 2.3-4.6 5.2-7.5 15.8-16.4 16.7-13.9 31-24.8 45.5-34.4 12.3-8.2 12-8.1 21.7-8.6 9.2-.5 20.6-1.8 34.4-4 39.1-6.2 54.6-4.4 66.4 7.3 4.4 4.4 6.5 8.3 9.3 17.3 1.8 5.8 2.4 7 4.1 8.7 1.8 1.8 2.3 2 4.4 2 3.5-.1 6.4-1.5 8.1-4.3 3-4.7 9.3-26.4 11-37.9 1.3-8.7 1.3-35.1-.1-42.4-1.1-6.3-4.6-17.1-7.7-23.4-8.2-17.3-23.4-32.6-42.8-43.2-15.4-8.4-36.3-13.4-61.8-14.9l-7.7-.5-4.7-4.2c-24.2-21.9-52.4-38.3-82.5-47.9-14.5-4.6-31.7-8.3-46.8-9.9-8.8-1-27-1.4-34.2-.8zm57.6 42.4c19.2 4.2 33.6 18.3 39 37.8 1.6 5.9 1.6 18.4 0 24.4-8.2 30.1-40.1 46.1-68.7 34.6-11.7-4.7-20.9-13.3-26.4-24.8-5.8-11.9-6.9-24.3-3.3-36.8 5.1-17.6 20-31.4 38.4-35.4 4.7-1.1 15.8-.9 21 .2zm136.9 39.7c29.5 5.2 51.6 17.9 64.4 37.1 6.3 9.4 10.2 19 12.2 30.1 1.1 6 1.3 25.7.3 33.6-.7 5.4-1.6 10.2-2 10.7-.2.2-2.5-1.6-5.2-4-7.4-6.7-15.6-11.2-25.5-13.8-7.5-2-36.8-1.9-50.4.3-2.5.4-9.1 1.5-14.7 2.3-21.4 3.4-54.2 3-81.1-1-10.2-1.5-18.7-3.2-18.7-3.6 0-.2 3.1-2.3 7-4.5 9.1-5.4 12-7.4 17.8-12 22-17.6 37.3-40.9 43.6-66.7l1.2-4.7 3-1c4.9-1.6 11.4-3.1 14.9-3.5 5.5-.8 27.8-.2 33.2.7z"/><path d="M250.6 102.4c-8.3 1.1-15.6 5.2-21.1 11.8-3.1 3.7-6.5 10.9-7.5 16-3.3 16.7 7.7 33.7 24.8 38.1 3.1.8 11.9 1.7 11.9 1.2 0-.2-1.3-2.2-2.8-4.6-3.6-5.5-6-10.7-7.4-15.7-1-3.4-1.1-5.5-1.2-13.4-.1-12.6.7-15.1 8.2-28.5 1.4-2.5 2.4-4.7 2.3-5-.2-.5-3.2-.5-7.2.1zm22.6 10.5c-6 6.9-8.4 12.7-8.8 21.9-.3 6.7.4 10.2 2.9 15.3 2.9 5.9 7.4 11.5 9 11.5 2.1 0 8.3-8.4 10.5-14.2 2.1-5.5 2.4-14.1.8-19.9-.8-2.7-2.6-6.8-4.1-9.3-2-3.1-6.6-8.1-7.4-8.1-.2-.1-1.6 1.2-2.9 2.8z" fill="#3fc5af"/><path class="st0" d="M389.6 136.1c-1 .5-6.1 5.2-11.4 10.5-10.4 10.4-11.2 11.5-10.7 15.7.3 2.8 2 5.2 4.6 6.4 4.8 2.2 6.9 1 18.2-10.4 5.3-5.3 9.5-9.9 10.1-11.1 3.2-6.9-4-14.3-10.8-11.1z"/></svg>