<svg version="1.1" id="Layer_1" xmlns="http://www.w3.org/2000/svg" x="0" y="0" viewBox="0 0 500 500" xml:space="preserve"><style type="text/css">.st1{fill:#fff}</style><circle cx="250" cy="250" r="249" fill="#223b4f"/><path class="st1" d="M378.8 176.6c0-.3.2-.6.2-.9l-78.7 75.9 78.6 73.4c0-.5-.1-1.1-.1-1.6V176.6zm-90.6 86.6l-32.1 30.9c-1.6 1.6-3.7 2.3-5.8 2.3-2.1 0-4.1-.8-5.7-2.3l-32.1-29.9-79.2 76.3c1.9.7 4 1.2 6.2 1.2h221.6c3.2 0 6.2-1 8.8-2.4l-81.7-76.1z"/><path class="st1" d="M250.2 276.5l120.2-115.7c-2.7-1.6-5.9-2.7-9.3-2.7H139.5c-4.4 0-8.5 1.7-11.6 4.3l122.3 114.1zM121 179.4v144c0 1.7.4 3.2.8 4.8l78.2-75.3-79-73.5z"/></svg>