<svg version="1.1" id="Layer_1" xmlns="http://www.w3.org/2000/svg" x="0" y="0" viewBox="0 0 500 500" xml:space="preserve"><style type="text/css">.st1{fill:#fff}</style><path transform="rotate(-45.001 249.995 250.004)" fill="#223b4f" d="M73.2 73.2h353.6v353.6H73.2z"/><path class="st1" d="M2724.1 7513.2c-66.2-9.3-128.4-48.3-162.8-102.2-16.4-25.6-34.1-64.9-38.7-86.4-5.2-25.1-3.3-90 3.5-116.7 11.7-45.5 36.5-82.6 81.2-122.1 46.6-40.9 100.1-57.8 169.3-54.3 16.6 1.1 39.8 4.4 51.8 7.4 28.6 7.4 66.8 26.2 88.1 43.9 37.3 30.3 77.2 93.8 82.3 130.6 3.3 22.9 3.3 88.3 0 114-8.7 67.3-71.7 142-143.7 170.9-33.1 13.3-93.7 20.1-131 14.9zm106.9-114.5c1.4-1.4-6.8-33.5-19.9-76.6-16.6-56.2-21.3-75-18.5-76.6 1.6-1.1 10.6-2.2 19.6-2.2 21.5-.3 35.4-5.2 35.4-12.3 0-6.5-13.4-12-30-12-6-.3-15.8-1.6-21.8-3.3-9.8-2.7-10.4-3.3-5.7-6.5 2.7-2.2 13.1-4.6 22.9-5.5 25.6-2.5 36-6 36-12.5 0-6.8-8.5-9.8-34.1-12.3-23.4-2.2-28.6-5.5-28.6-18.5 0-12.5-4.4-15.3-23.2-15.3s-23.2 2.7-23.2 15c0 13.6-3 15.5-31.1 19.1-27.3 3.5-34.4 6.8-34.4 15.3 0 7.4 10.4 10.6 32.7 10.6 21 0 36.5 4.1 30 8.2-1.9 1.4-14.2 3-27 4.1-35.2 2.5-35.7 2.7-35.7 13.4 0 11.7 2.2 12.5 35.7 12.5 14.7 0 27 1.1 27 2.2 0 1.4-7.9 28.4-17.7 60-21.5 70.3-26.7 90-24.5 93.2 2.2 3.5 23.4 3.5 32.2.3 7.9-3 11.2-11.5 23.7-57.5 13.1-49.1 14.7-49.3 27.3-3.5 16.6 61.9 16.4 60.8 22.6 63.5 6.5 2.9 26.4 1 30.3-2.8zm-735.8-97c-54-7.4-84.8-16.1-119.7-33.8-49.9-25.6-96.5-66.8-126-111.2-59.4-89.1-66.2-213.7-17.4-316.2 41.4-87 118.3-148.3 212.6-169.8 33.3-7.6 84.8-9.5 118.6-4.4 88.1 13.6 164.9 60.5 215.4 131.4 19.6 27.5 28.6 45.3 39.3 77.7 22.1 67.9 22.6 143.4 1.4 210.5-33 103.9-129 187.6-242.1 210.5-20.5 3.9-68.2 7.2-82.1 5.3zm98.1-179.4c7.4-4.9 7.6-5.2 5.7-25.6-.8-11.2-2.2-21.3-3-21.8-.8-.8-15.8 0-33.5 1.6-17.4 1.6-35.4 2.2-39.8 1.4-5.2-1.1-15-8.7-26.7-20.7-10.4-10.4-18.3-19.4-17.7-19.9.3-.5 22.4-1.9 49.1-3.3 31.1-1.6 49.6-3.8 52.3-6 4.9-4.1 5.5-20.2.8-24-1.9-1.4-25.6-3.5-52.6-4.6-47.4-1.9-55.9-3.5-55.9-10.9 0-6.3 8.7-7.6 55.9-9 25.6-.5 48.5-2.2 51.3-3.5 3.3-1.9 4.6-6 4.6-13.6 0-14.7-4.6-16.1-58.9-16.1-24.5 0-44.7-.5-44.7-1.4 0-4.1 11.2-22.6 16.9-27.8 12.8-12.3 25.9-15.5 59.4-15 17.2 0 33.5-.3 36-1.1 5.2-1.6 10.4-16.6 10.4-30 0-11.5-6.5-16.4-27.3-21.3-34.1-8.2-74.2-4.4-101.4 9.5-16.9 8.7-40.6 34.1-51.8 55.6-10.6 20.4-17.7 28.4-30.8 34.4-9.3 4.4-15 16.6-10.6 23.4 1.4 2.2 6.8 5.7 12 7.4 7.4 2.5 9.5 4.4 9.5 9.8s-1.9 7.1-10.9 9.8c-11.5 3-13.9 7.4-11.2 19.1 1.4 4.6 5.5 8.5 13.6 12 12.8 5.5 20.7 14.4 33 37.6 12.8 23.7 47.2 52.1 70.3 58.1 4.9 1.1 26.7 1.9 48.5 1.6 33.3-.8 41.2-1.6 47.5-5.7z" transform="matrix(.1 0 0 -.1 0 882)"/><path class="st1" d="M2455 6860c-5.7-15-12-30.8-13.6-35.4l-3.5-8.5 45-1.9c112.6-4.6 193.3-36.5 270.7-107.1 29.7-27.3 64.9-65.4 81-88.1 25.6-36.3 48.8-93.5 61.3-150.8 5.2-24 6.3-36 6.3-87.8 0-52.9-.8-63.2-6.3-88.1-18-80.7-51.3-144.5-104.4-200.7-88.3-93.5-195.2-140.4-318.7-140.7-64.9 0-109.6 8.7-164.9 32.7-98.7 42.3-175.3 114-222.2 207.2-31.9 63.8-45 121-45 196.3 0 69.2 12.5 120 46.3 190.6 9.8 19.9 17.7 37.9 17.7 39.5 0 2.2-10.4 4.4-31.1 6.5-17.2 1.9-34.6 4.1-39 4.9l-8.2 1.6-16.9-44.4c-31.1-82.1-42-134.4-42-204.2 0-81.2 16.1-147.2 56.7-230.4 21.8-45 38.7-68.7 77.2-108.2 75.2-77.2 123.2-109.3 206.1-138.2 124.9-43.6 261.2-36.5 377.9 19.1 147.2 70.3 247 194.1 279.7 347.3 28.4 132.5 4.1 273.7-65.4 381.4-31.6 48.8-98.7 118.9-140.7 146.7-24.8 16.4-65.7 37.3-96.8 49.9-10.4 4.1-24.8 9.8-31.6 12.5-6.8 2.7-18 6.3-24.5 7.9s-14.2 3.5-16.6 4.1c-4.6 1.4-7.1 1.9-24 5.5-3.8.8-9.8 2.2-13.6 3s-24.8 2.2-46.6 3l-39.8 1.6-10.5-26.8zm-1191.1-84c-22.9-8.7-46.9-41.7-54.5-75.5-11.5-50.7-31.6-303.4-31.6-393.7.3-53.4 6.8-79.9 42.5-170.1 53.4-134.4 142.6-321.2 178.8-374.6 40.6-59.7 105.8-106.9 359.9-259.8 135.2-81.2 137.4-83.2 165.5-124.6l13.9-20.7v-232h528.8v55.3c0 67.6 4.4 175 8.5 206.4 14.2 114-16.9 230.4-91.6 342.1-30.3 45.5-52.9 72.2-99.2 118.6-87 86.7-139.6 116.4-255.2 144.8-57.3 13.9-96 20.2-152.7 25.4l-46.3 4.1-43.6 44.4c-24 24.5-59.7 63.5-79.3 86.7-83.7 99.2-170.7 164.1-247 184.6-55.1 14.7-116.4-4.1-135.5-41.4-9.3-17.4-10.9-45.8-4.4-68.4 3.8-12.8 7.1-18 19.6-29.4 32.7-30 52.6-51.5 75.8-83.7 49.1-66.8 164.4-211 173.4-216.7 1.6-.8 8.2 3.3 14.2 9.3 24.3 23.7 54.3 28.4 99 15.5 104.1-30.3 279.2-175 391.2-323.6 27-36 54-80.2 63-103.1 6.8-17.7 9.3-42 5.2-52.3-16.1-41.7-126.2-3.3-300.2 105-91.1 56.7-254.6 168.5-324.4 221.6l-36.8 28.1-39.5 81.2c-110.4 228.7-164.4 343-172 364.8-10.1 29.2-.5 367.2 10.9 387.9 4.9 9 8.5-9.5 20.7-108.5 15.5-125.1 22.6-166.3 28.4-166.3 7.4 0 78.8 22.9 82.6 26.4 9.5 8.7 10.9 22.6 6.3 67.1-19.9 194.1-34.4 254.9-69.8 292.3-28 29.3-74.6 44-104.6 32.8zm2427.5.9c-27.5-5.5-60-29.7-75-55.6-16.9-28.9-28.9-81-40.9-177.2-15.5-124-16.4-148.6-4.9-159.8 5.2-5.2 79.1-27.8 84.2-25.9 5.2 1.9 13.9 57.3 28.4 178.8 9.5 80.4 12.8 99 17.2 97.3 4.4-1.4 6.8-14.7 8.7-49.6 1.1-16.4 2.5-33.5 3-38.2 2.7-23.7 5.2-123.2 4.9-208.6v-96.8l-56.2-115.9c-30.8-63.8-80.2-164.9-109.6-225.2l-53.7-109-76.9-54.8c-295.3-210.2-497.3-322.2-556.7-308.9-12.8 3-25.4 14.7-27.5 25.9-4.9 26.2 32.4 96.2 87.5 164.9 96.8 120.2 233.4 239.4 326.3 284.1 42.3 20.4 59.4 25.4 90.8 25.4 30.8 0 41.4-3.8 58.3-21.5 5.2-5.5 10.4-9.8 11.5-9.8 5.2 0 121.9 144.2 163.3 201.7 32.7 45.3 55.1 71.2 78 89.7 28.1 23.2 32.4 32.2 32.4 68.4 0 25.4-.8 30-6.8 40.9-8.2 14.4-28.6 30.5-49.1 38.7-18 7.1-60.8 8.2-84.5 2.5-79.1-19.4-167.7-87-262.5-200.7-48.5-58.1-85.3-95.4-104.4-105.5-14.7-7.9-26.7-10.4-116.7-22.9-154.3-21.3-244-63.8-342.4-161.9-90.8-90.5-150.2-187.6-181.8-295.8-6.5-22.9-7.1-29.2-8.2-92.7-.8-37.3.5-122.1 3-188.4 2.5-66 4.4-126 4.4-132.8V5125h528.8v99c0 54.3 1.4 107.1 2.7 117.5 7.9 53.2 32.7 76.1 167.7 155.7 129.5 76.3 292 182.9 329.1 215.6 13.6 12 30.5 34.1 45.5 59.4 54.5 92.4 125.4 242.6 184.3 390.1l28.6 71.7v57c0 130.9-12.5 309.4-27.3 392.9-4.9 27.5-15.3 54.8-27.3 71.4-11.9 16.7-49 27.3-76.2 21.6z" transform="matrix(.1 0 0 -.1 0 882)"/><path class="st1" d="M2449.8 6622.8c-.8-2.5-1.6-7.6-1.6-11.5-.3-10.1-3.8-13.9-26.7-28.6-32.4-21-45-47.2-44.7-93.5 0-27 5.2-50.4 15-66.5 3-5.2 27.3-31.6 53.7-58.6 26.7-27 50.4-53.2 52.9-58.1s5.7-15.5 7.4-23.7c3.5-19.6-.3-34.1-11.7-43.6-7.9-6.5-10.4-7.4-25.9-6.3-27 1.6-33.3 12-33.5 53.4v19.9l-33.3-.8-33.5-.8.8-9.5c2.7-31.1 9.5-60 18.5-78.5 9.8-20.2 16.1-26.2 45.3-44.2 10.1-6.3 13.4-10.1 15.8-18.5 3.3-12.8 6-14.2 28.1-14.2 19.9 0 22.6 1.4 25.1 12.3 1.1 4.6 2.5 10.4 3 12.8.8 2.5 6 7.4 11.5 10.6 23.2 13.6 31.4 20.4 37.6 31.1 10.1 17.2 17.4 41.4 19.4 63 3.5 42.8-15 76.1-79.6 142.6-22.6 23.4-43.3 45.5-45.8 49.3-3.3 4.9-4.6 12.5-4.6 28.1 0 24 4.6 37.9 14.2 43.1 7.9 4.4 29.2 4.1 37.3-.3 8.7-4.6 13.9-18.8 13.9-38.2V6477l33.5.8c20.2.5 33 1.9 32.7 3.5 0 1.6-1.1 9.3-2.2 17.2-4.6 38.4-14.2 58.3-34.4 74.4-18 14.4-33.3 30.3-38.4 40.1-5.7 10.6-14.2 14.2-33.5 14.2-10.8 0-14.9-1.1-16.3-4.4z" transform="matrix(.1 0 0 -.1 0 882)"/></svg>