<svg version="1.1" id="Layer_1" xmlns="http://www.w3.org/2000/svg" x="0" y="0" viewBox="0 0 500 500" xml:space="preserve"><style type="text/css">.st0{fill:#223b4f}.st1{fill:#fff}</style><path transform="rotate(-45.001 249.995 250.004)" class="st0" d="M73.2 73.2h353.6v353.6H73.2z"/><path class="st1" d="M250 371.4c-12.7 0-23.1-10.3-23.1-23.1s10.4-23.1 23.2-23.1c38.6 0 73.2-24.5 86-61v-.1c5.2-14.3 6.6-30.1 4.1-45.6-.7-5.2-2.1-10.3-3.9-15.2l-.1-.2c-11.5-32.2-40.5-55.9-74-60.2-4.1-.5-8.2-.8-12.2-.8-27.4 0-53.1 12.1-70.6 33.2-20.6 24.9-26.5 57.3-16.1 89.1l2.9 8.8h-31.6c-12.7 0-23.1-10.3-23.1-23.1v-32.8c0-12.7 10.3-23.1 23.1-23.1h17.9l.4-.9c4-9.5 9.4-18.5 16.2-26.6 20-24.2 49.5-38 80.7-38 4.7 0 9.4.3 14.1.9 36.3 4.7 67.9 29.1 82.5 63.7l.4.9h18.1c12.7 0 23.1 10.3 23.1 23.1V250c0 12.7-10.3 23.1-23.1 23.1h-18.3l-.4.9c-12.9 31-39.9 54.1-72.3 61.8l-1.2.3v12.2c.4 12.7-10 23.1-22.7 23.1z"/><path class="st0" d="M250 130.1c4.6 0 9.3.3 13.9.9 17.5 2.3 34.4 9.4 48.8 20.5 14.3 11.1 25.5 25.7 32.5 42.3l.8 1.8h19.2c11.9 0 21.6 9.7 21.6 21.6V250c0 11.9-9.7 21.6-21.6 21.6h-19.3l-.8 1.8c-12.7 30.5-39.4 53.3-71.3 60.9l-2.3.5v13.4c0 11.9-9.7 21.6-21.6 21.6s-21.6-9.7-21.6-21.6 9.7-21.6 21.7-21.6c39.2 0 74.4-24.9 87.4-62v-.1c5.3-14.5 6.7-30.6 4.2-46.3-.8-5.3-2.1-10.6-4-15.6l-.1-.1c-11.7-32.8-41.2-56.8-75.2-61.2-4.1-.5-8.3-.8-12.4-.8-27.8 0-54 12.3-71.7 33.7-21 25.3-26.9 58.3-16.4 90.5l2.2 6.8h-29.5c-11.9 0-21.6-9.7-21.6-21.6v-32.8c0-11.9 9.7-21.6 21.6-21.6h18.9l.8-1.8c3.9-9.4 9.3-18.2 16-26.3 20-23.6 49-37.3 79.8-37.3m0-3c-31.5 0-61.4 13.9-81.9 38.6-6.9 8.3-12.4 17.4-16.4 27h-16.9c-13.5 0-24.6 11-24.6 24.6V250c0 13.5 11 24.6 24.6 24.6h33.6l-3.5-10.7c-10.2-31.3-4.5-63.2 15.8-87.7 17.3-20.9 42.7-32.6 69.4-32.6 4 0 8 .3 12 .8 32.9 4.3 61.4 27.5 72.7 59.3l.1.2c1.8 4.8 3.1 9.8 3.8 15 2.5 15.3 1.1 30.8-4 44.9v.1c-12.6 35.9-46.6 60-84.6 60-13.6 0-24.7 11-24.7 24.6 0 13.5 11 24.6 24.6 24.6 13.5 0 24.6-11 24.6-24.6v-11c32.7-7.8 60.2-30.9 73.4-62.7h17.3c13.5 0 24.6-11 24.6-24.6v-32.8c0-13.5-11-24.6-24.6-24.6H348c-14.6-34.6-46.7-59.8-83.7-64.6-4.8-.7-9.5-1.1-14.3-1.1z"/><path class="st1" d="M177.8 305.9v-13.4c7.4-.6 13.6-5.6 15.7-12.8l.2-.7-.5-.6c-9.9-12.7-15.4-28.5-15.4-44.6 0-39.8 32.4-72.2 72.2-72.2 39.8 0 72.2 32.4 72.2 72.2S289.8 306 250 306h-72.2zm95.3-62.6h19.4V224h-19.4v19.3zm-32.8 0h19.4V224h-19.4v19.3zm-32.7 0H227V224h-19.4v19.3z"/><path class="st0" d="M250 163c39 0 70.7 31.7 70.7 70.7S289 304.4 250 304.4h-70.7v-10.6c7.4-1.1 13.5-6.4 15.6-13.7l.4-1.5-.9-1.2c-9.7-12.4-15.1-27.9-15.1-43.7 0-39 31.7-70.7 70.7-70.7m21.6 81.8H294v-22.4h-22.4v22.4m-32.8 0h22.4v-22.4h-22.4v22.4m-32.7 0h22.4v-22.4h-22.4v22.4M250 160c-40.6 0-73.7 33.1-73.7 73.7 0 16.6 5.6 32.6 15.7 45.5-2 6.9-8.3 11.8-15.7 11.8v16.4H250c40.6 0 73.7-33.1 73.7-73.7S290.6 160 250 160zm24.6 81.8v-16.4H291v16.4h-16.4zm-32.8 0v-16.4h16.4v16.4h-16.4zm-32.7 0v-16.4h16.4v16.4h-16.4z"/></svg>