<svg version="1.1" id="Layer_1" xmlns="http://www.w3.org/2000/svg" x="0" y="0" viewBox="0 0 500 500" xml:space="preserve"><style type="text/css">.st0{fill:#333}.st1{fill:#3fc5af}</style><path class="st0" d="M431.7 289.9c0-2.8-.2-5.5-.4-8.3-22.8-.1-41.2-18.7-41.1-41.5.1-14.8 8.1-28.4 20.9-35.7a187.55 187.55 0 00-54.1-65.5v117.9c0 4.6-3.7 8.3-8.3 8.3h-33.1c-4.6 0-8.3-3.7-8.3-8.3V111.4c-14-5.2-28.5-8.8-43.4-10.6-2.1-.3-4.2-.4-6.3-.6V116c-9.1 0-16.6 7.4-16.6 16.6s7.4 16.6 16.6 16.6c9.1 0 16.6-7.4 16.6-16.6h16.6c.1 18.3-14.7 33.2-33 33.3-18.3.1-33.2-14.7-33.3-33-.1-16.7 12.3-30.8 28.8-33-11.7-.8-23.4-.5-35.1 1-82.8 10-149.4 72.6-164.5 154.6 5.3-7.4 15.7-9.1 23.1-3.8 7.4 5.3 9.1 15.7 3.8 23.1s-15.7 9.1-23.1 3.8c-2.7-2-4.8-4.7-5.9-7.9-.7 6.4-1 12.8-1 19.3 0 23.7 4.4 47.2 13.1 69.3 16.6-15.7 42.7-15 58.4 1.6 7.3 7.7 11.3 17.9 11.3 28.5-.1 16.3-9.7 31-24.5 37.7 19 18.3 41.5 32.5 66.3 41.6 1.7-22.7 21.5-39.8 44.3-38.1 22.7 1.7 39.8 21.5 38.1 44.3-.1 1.6-.3 3.3-.7 4.9 28.1-2.4 55.2-11 79.5-25.2-40.7 7.1-79.5-20.3-86.6-61-7.1-40.7 20.3-79.5 61-86.6 40.7-7.1 79.5 20.3 86.6 61 1.9 10.8 1.3 21.9-1.5 32.4 23.3-32.2 35.8-70.8 35.8-110.5zm-323-91.1c0-27.4 22.3-49.7 49.7-49.7s49.7 22.3 49.7 49.7-22.3 49.7-49.7 49.7c-27.5 0-49.7-22.3-49.7-49.7zm58 132.5v-16.6c4.6 0 8.3-3.7 8.3-8.3 0-4.6-3.7-8.3-8.3-8.3s-8.3 3.7-8.3 8.3h-16.6c0-13.7 11.1-24.9 24.8-24.9 13.7 0 24.9 11.1 24.9 24.9s-11.1 24.9-24.8 24.9zm33.1 58c-9.1 0-16.6-7.4-16.6-16.6s7.4-16.6 16.6-16.6c9.1 0 16.6 7.4 16.6 16.6s-7.5 16.6-16.6 16.6zm66.3-115.9c-9.1 0-16.6-7.4-16.6-16.6 0-9.1 7.4-16.6 16.6-16.6s16.6 7.4 16.6 16.6c-.1 9.1-7.5 16.6-16.6 16.6z"/><circle class="st0" cx="158.4" cy="198.8" r="33.1"/><path class="st1" d="M441.4 62.6c-1.9-2.8-1.9-6.4 0-9.2L466 16.6H357.2v82.8H466l-24.6-36.8z"/><circle class="st0" cx="324" cy="381" r="58"/><path class="st0" d="M429.9 264.9c-2-15.6-6-30.8-11.9-45.4-11.4 7.5-14.6 22.8-7.1 34.3 4.3 6.4 11.3 10.5 19 11.1zM191.5 472.1c0 .6.2 1 .2 1.6 15.6 4.3 31.7 6.5 47.9 6.6 4.6-12.9-2.1-27.1-15-31.6-12.9-4.6-27.1 2.1-31.6 15-1 2.8-1.5 5.6-1.5 8.4z"/><path class="st1" d="M324 16.6h16.6v231.9H324V16.6z"/><path class="st0" d="M92.1 364.5c-8.4 0-16.3 4.3-20.8 11.4 6.9 13.6 15.3 26.3 25.2 37.8 13.5-2.4 22.4-15.3 20-28.8-2.1-11.9-12.4-20.5-24.4-20.4z"/><path class="st1" d="M464.9 422.5h-16.6V439h-16.6v16.6h16.6v16.6h16.6v-16.6h16.6V439h-16.6v-16.5zm-99.4 57.9H382V497h-16.6v-16.6z"/><path class="st0" d="M34.1 49.7V33.1h16.6V16.6H34.1V0H17.6v16.6H1v16.6h16.6v16.6h16.5zM117 16.6h16.6v16.6H117V16.6zM50.7 99.4h16.6V116H50.7V99.4zm140.8-49.7h16.6v16.6h-16.6V49.7z"/><path class="st1" d="M1 422.5h16.6V439H1v-16.5zm49.7 41.4h16.6v16.6H50.7v-16.6z"/><path class="st0" d="M464.9 173.9h16.6v16.6h-16.6v-16.6zm16.5 116H498v16.6h-16.6v-16.6z"/></svg>