<svg version="1.1" id="Layer_1" xmlns="http://www.w3.org/2000/svg" x="0" y="0" viewBox="0 0 500 500" xml:space="preserve"><style type="text/css">.st0{fill:#fff}</style><path class="st0" d="M475.9 229.9H20.1C9 229.9 0 238.9 0 250s9 20.1 20.1 20.1h455.8c11.1 0 20.1-9 20.1-20.1s-9-20.1-20.1-20.1z"/><path class="st0" d="M494.1 235.8l-197-197.1c-7.9-7.8-20.6-7.8-28.4 0-7.9 7.9-7.9 20.6 0 28.4L451.5 250 268.6 432.8c-7.9 7.8-7.9 20.6 0 28.4 3.9 3.9 9.1 5.9 14.2 5.9s10.3-2 14.2-5.9l197-197.1c8-7.7 8-20.5.1-28.3z"/></svg>