<svg version="1.1" id="Layer_1" xmlns="http://www.w3.org/2000/svg" x="0" y="0" viewBox="0 0 500 500" xml:space="preserve"><style type="text/css">.st1{fill:#fff}</style><path transform="rotate(-45.001 249.995 250.004)" fill="#223b4f" d="M73.2 73.2h353.6v353.6H73.2z"/><path class="st1" d="M1550.2 2402.5c-81.7-20.4-144.7-85.6-162.4-167.9-8.3-38.7-8.3-1466.7 0-1502.6 14.9-65.7 60.7-123.1 120.9-151.9l35.9-17.1 303.7-2.8 303.7-2.8 1.7-87.3 1.7-86.7h-72.3c-69.6 0-72.9-.6-85.6-13.8-20.4-19.9-18.8-47.5 3.3-65.7l17.1-14.4h969.8l17.1 14.4c22.1 18.2 23.7 45.8 3.3 65.7-12.7 13.3-16 13.8-85.6 13.8h-72.3l1.7 87.3 1.7 86.7 303.7 2.8L3461 563l32 14.9c41.4 19.3 86.1 62.4 106.6 102.2l16 32 1.7 767 1.1 767.6-16 34.8c-29.3 61.8-87.8 108.2-154.1 122.6-44.2 9.4-1860 7.7-1898.1-1.6zM3461 2301.4c25.4-13.3 41.4-29.8 55.8-56.9 9.9-18.2 10.5-46.4 12.1-652.7l1.1-634H1475.7l1.1 634 1.7 633.4 12.1 22.1c14.9 28.2 31.5 43.6 62.4 57.4 24.9 11.6 28.2 11.6 955.4 9.9l930.5-1.1 22.1-12.1zM1673.4 792.2c16.6-16 19.9-34.2 9.9-54.1-11-21-16-24.3-40.3-24.9-39.8-1.1-60.2 48-32 76.2 16.5 17.1 45.3 18.2 62.4 2.8zm175-2.8c29.3-28.7 7.7-77.3-33.7-76.2-23.2.6-46.4 21-46.4 40.9 0 14.4 14.4 42 23.2 45.3 18.8 7.7 44.2 3.2 56.9-10zm170.7 2.2c37-29.3 0-93.3-44.7-76.2-20.4 7.7-28.7 21-29.3 44.7 0 23.7 19.9 43.1 44.2 43.1 8.2 0 21.5-5 29.8-11.6zm1027.1 0c37-29.3 0-93.3-44.7-76.2-20.4 7.7-28.7 21-29.3 44.7 0 23.7 19.9 43.1 44.2 43.1 8.3 0 21.5-5 29.8-11.6zm173.4.6c26.5-24.9 20.4-61.3-12.7-74.6-46.4-19.9-85.6 36.4-49.7 71.8 16.6 17.1 45.3 18.2 62.4 2.8zm175.1-2.8c28.7-28.2 7.7-77.3-32.6-76.2-61.8 1.7-60.7 89.5 1.1 90 12.2 0 22.6-4.4 31.5-13.8z" transform="matrix(.1 0 0 -.1 0 385)"/><path class="st1" d="M1585.6 2206.4l-16-16V1083.8l16-16 16-16h164c171.2 0 189.4 2.2 198.3 24.9 1.7 5 3.3 259 3.3 563.8v555l-13.8 13.3-13.3 13.8h-338.5l-16-16.2zm287.7-166.2v-88.4l-104.9.6-104.9 1.1v175.1h209.8v-88.4zm0-267.8v-91.1h-209.8v182.2h209.8v-91.1zm0-270.6v-91.1l-103.3 1.1-103.8 1.7-1.7 82.8c-.6 45.3 0 85.6 1.1 89.5 2.2 5.5 26.5 7.2 105.5 7.2h102.2v-91.2zm0-268.4v-87.8h-209.8v84.5c0 46.9 1.1 86.1 2.8 87.8 1.7 1.7 48.6 2.8 104.9 2.8h102.2v-87.3zm561.6 711.8c-5-3.9-89.5-132.5-188.9-286.1-123.7-192.2-179.5-283.3-179.5-293.8 0-8.3 5.5-21.5 12.7-29.8l12.7-14.4h1291.2l12.7 14.9c22.6 25.4 17.7 37.6-58 149.7-38.7 57.4-119.8 177.8-180 267.3s-115.4 168.4-123.1 175.6c-18.8 17.1-41.4 15.5-60.7-3.9-8.3-8.8-75.1-93.9-148-190-72.9-95.5-134.2-172.3-135.8-170.6-1.7 2.2-44.7 86.1-95.5 186.1-50.8 100.5-96.6 186.7-101.1 192.2-10.7 11.1-44.9 12.7-58.7 2.8z" transform="matrix(.1 0 0 -.1 0 385)"/></svg>