<svg version="1.1" id="Layer_1" xmlns="http://www.w3.org/2000/svg" x="0" y="0" viewBox="0 0 500 500" xml:space="preserve"><path d="M326.3 424.3l-46.4-46.4c-7.7-7.7-20.2-7.7-27.8 0l-27.8 27.8c-57-27-102.9-72.9-129.9-129.9l27.8-27.8c7.7-7.7 7.7-20.2 0-27.8l-46.4-46.4c-7.7-7.7-20.2-7.7-27.8 0l-37.1 37.1c-30.8 30.8 6.6 118 83.5 194.9s164 114.2 194.7 83.4l37.1-37.1c7.8-7.7 7.8-20.1.1-27.8zM454.8 37.8C426.4 13.4 388.6 0 348.6 0s-77.7 13.4-106.2 37.8c-29.1 25-45.2 58.3-45.2 94s16 69 45.2 94c5.2 4.5 10.8 8.6 16.5 12.3-10.7 16.1-23.2 31-37.3 44.1 30.7-2.5 59.8-10.7 86.3-23.4 13.1 3.1 26.7 4.8 40.6 4.8 40 0 77.7-13.4 106.2-37.8 29.1-25 45.2-58.3 45.2-94s-15.9-69-45.1-94zM280.3 151.4c-10.8 0-19.5-8.7-19.5-19.5s8.7-19.5 19.5-19.5 19.5 8.7 19.5 19.5-8.7 19.5-19.5 19.5zm68.3 0c-10.8 0-19.5-8.7-19.5-19.5s8.7-19.5 19.5-19.5 19.5 8.7 19.5 19.5-8.7 19.5-19.5 19.5zm68.4 0c-10.8 0-19.5-8.7-19.5-19.5s8.7-19.5 19.5-19.5 19.5 8.7 19.5 19.5-8.7 19.5-19.5 19.5z" fill="#3fc5af"/></svg>