<svg version="1.1" id="Layer_1" xmlns="http://www.w3.org/2000/svg" x="0" y="0" viewBox="0 0 500 500" xml:space="preserve"><path d="M496.8 144.8l-.4-.4-103.1-91.5c-.9-.9-2-1.5-3.2-2l-74.6-26.7c-5.1-1.8-10.7.8-12.6 5.9-.3.9-.5 1.9-.6 2.9 0 2.2-3.2 51.8-52.9 52.6-50-.8-53.1-50.5-53.2-52.6-.3-5.4-4.9-9.6-10.3-9.3-.9.1-1.8.2-2.7.5l-74.5 27c-1.2.4-2.3 1.1-3.2 2L3.1 144.5c-3.9 3.7-4.1 9.9-.4 13.9l.4.4 81.5 82.4v225.4c0 5.4 4.4 9.8 9.8 9.8h310.7c5.4 0 9.8-4.4 9.8-9.8V241.1l81.5-82.4c4-3.7 4.1-9.9.4-13.9zm-82.2 68.4v-45.5c0-5.4-4.4-9.8-9.8-9.8s-9.8 4.4-9.8 9.8v288.5H103.8V167.7c0-5.4-4.4-9.8-9.8-9.8s-9.8 4.4-9.8 9.8v45.6l-60.3-61.1 93.3-83.5 61.4-22.2c7.6 39.2 45.5 64.7 84.7 57.1 28.9-5.6 51.5-28.2 57.1-57.1l61.4 22.2 93 83.5-60.2 61z" fill="#fff"/></svg>