<svg version="1.1" id="Layer_1" xmlns="http://www.w3.org/2000/svg" x="0" y="0" viewBox="0 0 500 500" xml:space="preserve"><style type="text/css">.st0{fill:#454545}</style><path class="st0" d="M416.2 183.8C393.2 91.9 299.9 36 207.9 59.1 136 77.2 83.8 139.3 78.4 213.2c-51 8.4-85.6 56.6-77.2 107.7C8.7 366.3 48 399.5 94 399.3h78.1V368H94c-34.5 0-62.4-28-62.4-62.4s28-62.4 62.4-62.4c8.6 0 15.6-7 15.6-15.6C109.6 150 172.4 87 250 86.9c67.2-.1 125 47.4 138 113.3 1.3 6.6 6.6 11.6 13.3 12.5 42.7 6.1 72.3 45.6 66.3 88.3-5.5 38.3-38.2 66.9-76.9 67h-62.4v31.2h62.4c60.3-.2 109.1-49.3 108.9-109.6-.2-50.2-34.6-93.8-83.4-105.8z"/><path class="st0" d="M239.1 247.7l-62.4 62.4 22 22 35.9-35.7v149.7h31.2V296.4l35.7 35.7 22-22-62.4-62.4c-6.1-6.1-15.9-6.1-22 0z"/></svg>