<svg id="Layer_1" data-name="Layer 1" xmlns="http://www.w3.org/2000/svg" viewBox="0 0 129.98 39.17"><defs><style>.cls-1{fill:#666;}.cls-2{fill:#fff;}</style></defs><title>amazon</title><path id="path8" class="cls-1" d="M125.65,51c-7.55,5.57-18.5,8.54-27.93,8.54a50.54,50.54,0,0,1-34.12-13c-.71-.64-.07-1.51.78-1a68.67,68.67,0,0,0,34.13,9.05,67.88,67.88,0,0,0,26-5.32c1.28-.54,2.35.84,1.1,1.77" transform="translate(-45.01 -20.41)"/><path id="path10" class="cls-1" d="M128.79,47.45c-1-1.23-6.38-.58-8.82-.29-.74.09-.85-.55-.19-1C124.1,43.1,131.19,44,132,45s-.22,8.12-4.27,11.51c-.62.52-1.22.24-.94-.45.91-2.27,3-7.37,2-8.61" transform="translate(-45.01 -20.41)"/><path id="path12" class="cls-1" d="M120.14,24.69v-3a.73.73,0,0,1,.75-.75h13.22a.74.74,0,0,1,.76.75v2.53a4.16,4.16,0,0,1-1,1.86L127,35.91a14.6,14.6,0,0,1,7.54,1.62,1.35,1.35,0,0,1,.7,1.15v3.15c0,.43-.48.93-1,.67a15.23,15.23,0,0,0-14,0c-.46.25-.94-.25-.94-.68v-3a3.57,3.57,0,0,1,.49-2l7.94-11.38h-6.91a.73.73,0,0,1-.76-.74" transform="translate(-45.01 -20.41)"/><path id="path14" class="cls-1" d="M71.91,43.12h-4a.76.76,0,0,1-.72-.68V21.79a.76.76,0,0,1,.78-.74h3.75a.76.76,0,0,1,.73.69v2.7h.07a5.31,5.31,0,0,1,5.3-3.82c2.52,0,4.09,1.22,5.22,3.82a5.94,5.94,0,0,1,10.21-1.57c1.27,1.74,1,4.26,1,6.47v13a.76.76,0,0,1-.78.75h-4a.76.76,0,0,1-.72-.75V31.43a25.84,25.84,0,0,0-.11-3.87,2.09,2.09,0,0,0-2.37-1.78,2.67,2.67,0,0,0-2.4,1.69,12.5,12.5,0,0,0-.37,4V42.37a.76.76,0,0,1-.78.75h-4a.76.76,0,0,1-.72-.75V31.43c0-2.3.38-5.69-2.48-5.69s-2.78,3.3-2.78,5.69V42.37a.76.76,0,0,1-.78.75" transform="translate(-45.01 -20.41)"/><path id="path16" class="cls-1" d="M146.26,20.61c6,0,9.2,5.13,9.2,11.64,0,6.3-3.57,11.29-9.2,11.29-5.86,0-9.05-5.13-9.05-11.51s3.23-11.42,9.05-11.42m0,4.22c-3,0-3.15,4-3.15,6.56s0,7.91,3.12,7.91,3.26-4.35,3.26-7a19.09,19.09,0,0,0-.6-5.48,2.52,2.52,0,0,0-2.63-2" transform="translate(-45.01 -20.41)"/><path id="path18" class="cls-1" d="M163.2,43.12h-4a.76.76,0,0,1-.72-.75V21.72a.76.76,0,0,1,.78-.67H163a.77.77,0,0,1,.72.58v3.16h.07c1.13-2.82,2.7-4.17,5.48-4.17a5.28,5.28,0,0,1,4.7,2.43C175,24.7,175,27.48,175,29.47v13a.77.77,0,0,1-.78.65h-4a.76.76,0,0,1-.71-.65V31.26c0-2.26.26-5.56-2.52-5.56a2.63,2.63,0,0,0-2.33,1.65,9.14,9.14,0,0,0-.64,3.91V42.37a.77.77,0,0,1-.79.75" transform="translate(-45.01 -20.41)"/><path class="cls-2" d="M109.6,32.39c-2.91,0-6,.62-6,4.05,0,1.74.91,2.91,2.45,2.91a3.27,3.27,0,0,0,2.78-1.83,7.87,7.87,0,0,0,.75-4.27Z" transform="translate(-45.01 -20.41)"/><polygon class="cls-1" points="68.65 22.65 68.65 22.65 68.65 22.65 68.65 22.65"/><path class="cls-1" d="M116.76,39.34a5.5,5.5,0,0,1-1.52-3.73V29.34c0-2.65.19-5.09-1.77-6.92a9.12,9.12,0,0,0-6.06-2c-3.82,0-8.1,1.43-9,6.16a.71.71,0,0,0,.6.84l3.9.42a.84.84,0,0,0,.7-.74,3.06,3.06,0,0,1,3.23-2.42,2.68,2.68,0,0,1,2.26,1,5.13,5.13,0,0,1,.49,2.91v.52c-2.33.27-5.38.44-7.56,1.4a6.83,6.83,0,0,0-4.29,6.57c0,4.18,2.63,6.27,6,6.27,2.86,0,4.42-.67,6.63-2.93a9.8,9.8,0,0,0,2.31,2.68.84.84,0,0,0,1-.1h0c.8-.71,2.26-2,3.08-2.67A.76.76,0,0,0,116.76,39.34Zm-7.92-1.81a3.27,3.27,0,0,1-2.78,1.83c-1.54,0-2.45-1.18-2.45-2.91,0-3.43,3.07-4.05,6-4.05v.87A7.87,7.87,0,0,1,108.85,37.52Z" transform="translate(-45.01 -20.41)"/><path class="cls-2" d="M56.86,32.39c-2.91,0-6,.62-6,4.05,0,1.74.9,2.91,2.44,2.91a3.26,3.26,0,0,0,2.78-1.83,7.87,7.87,0,0,0,.75-4.27Z" transform="translate(-45.01 -20.41)"/><path class="cls-1" d="M64,39.34a5.5,5.5,0,0,1-1.52-3.73V29.34c0-2.65.19-5.09-1.77-6.92a9.12,9.12,0,0,0-6.06-2c-3.82,0-8.1,1.43-9,6.16a.71.71,0,0,0,.6.84l3.9.42a.84.84,0,0,0,.7-.74,3.07,3.07,0,0,1,3.24-2.42,2.69,2.69,0,0,1,2.26,1,5.18,5.18,0,0,1,.49,2.91v.52c-2.33.27-5.38.44-7.56,1.4A6.84,6.84,0,0,0,45,37.13c0,4.18,2.64,6.27,6,6.27,2.86,0,4.42-.67,6.63-2.93A9.9,9.9,0,0,0,60,43.16a.84.84,0,0,0,1-.1h0c.8-.71,2.26-2,3.08-2.67A.76.76,0,0,0,64,39.34Zm-7.92-1.81a3.26,3.26,0,0,1-2.78,1.83c-1.54,0-2.44-1.18-2.44-2.91,0-3.43,3.07-4.05,6-4.05v.87A7.87,7.87,0,0,1,56.11,37.52Z" transform="translate(-45.01 -20.41)"/></svg>