<?xml version="1.0" encoding="utf-8"?>
<!-- Generator: Adobe Illustrator 21.0.0, SVG Export Plug-In . SVG Version: 6.00 Build 0)  -->
<svg version="1.1" id="Layer_1" xmlns="http://www.w3.org/2000/svg" xmlns:xlink="http://www.w3.org/1999/xlink" x="0px" y="0px"
	 viewBox="0 0 220 80" style="enable-background:new 0 0 220 80;" xml:space="preserve">
<style type="text/css">
	.st0{fill:#666666;}
</style>
<g>
	<path id="path268" class="st0" d="M92.9,48.5h-4.3v17.1h4.3V48.5z"/>
	<g id="use360" transform="translate(32.9532)">
		<path id="path284" class="st0" d="M127.8,53.5c-0.2-0.1-1.6-0.9-3.6-0.9c-2.8,0-4.7,1.9-4.7,4.6c0,2.5,1.9,4.6,4.7,4.6
			c2,0,3.4-0.8,3.6-0.9v4.6c-0.5,0.2-2,0.6-3.9,0.6c-4.9,0-9.1-3.4-9.1-8.9c0-5.1,3.9-8.9,9.1-8.9c2,0,3.5,0.5,3.9,0.6V53.5z"/>
	</g>
	<path id="path284_1_" class="st0" d="M82.6,53.5c-0.2-0.1-1.6-0.9-3.6-0.9c-2.8,0-4.7,1.9-4.7,4.6c0,2.5,1.9,4.6,4.7,4.6
		c2,0,3.4-0.8,3.6-0.9v4.6c-0.5,0.2-2,0.6-3.9,0.6c-4.9,0-9.1-3.4-9.1-8.9c0-5.1,3.9-8.9,9.1-8.9c2,0,3.5,0.5,3.9,0.6V53.5z"/>
	<path id="path288" class="st0" d="M141.4,52.6c-2.6,0-4.5,2-4.5,4.5c0,2.5,1.9,4.5,4.5,4.5c2.6,0,4.5-2,4.5-4.5
		C145.9,54.6,143.9,52.6,141.4,52.6 M150.4,57.1c0,4.9-3.8,8.9-9.1,8.9c-5.3,0-9-4-9-8.9c0-4.9,3.8-8.9,9-8.9
		C146.6,48.2,150.4,52.2,150.4,57.1"/>
	<path id="path292" class="st0" d="M109.3,52.4c-0.1,0-1.9-0.5-3.4-0.5c-1.7,0-2.7,0.6-2.7,1.4c0,1,1.3,1.4,2,1.6l1.2,0.4
		c2.8,0.9,4.1,2.8,4.1,4.9c0,4.3-3.8,5.8-7.1,5.8c-2.3,0-4.5-0.4-4.7-0.5v-3.9c0.4,0.1,2.2,0.6,4.1,0.6c2.2,0,3.1-0.6,3.1-1.6
		c0-0.9-0.9-1.4-1.9-1.7c-0.3-0.1-0.7-0.2-0.9-0.3c-2.4-0.8-4.4-2.2-4.4-5c0-3.2,2.4-5.4,6.4-5.4c2.1,0,4.1,0.5,4.2,0.5V52.4z"/>
	<g id="g383">
		<path id="path296" class="st0" d="M65,30.1c0-1.2-1-2.1-2.1-2.1c-1.2,0-2.1,1-2.1,2.1v4.5c0,1.2,1,2.1,2.1,2.1
			c1.2,0,2.1-1,2.1-2.1V30.1z"/>
		<path id="path300" class="st0" d="M76.8,24.2c0-1.2-1-2.1-2.1-2.1c-1.2,0-2.1,1-2.1,2.1v10.4c0,1.2,1,2.1,2.1,2.1
			c1.2,0,2.1-1,2.1-2.1V24.2z"/>
		<path id="path304" class="st0" d="M88.6,16.2c0-1.2-1-2.1-2.1-2.1c-1.2,0-2.1,1-2.1,2.1v22.8c0,1.2,1,2.1,2.1,2.1
			c1.2,0,2.1-1,2.1-2.1V16.2z"/>
		<path id="path308" class="st0" d="M100.4,24.2c0-1.2-1-2.1-2.1-2.1c-1.2,0-2.1,1-2.1,2.1v10.4c0,1.2,1,2.1,2.1,2.1
			c1.2,0,2.1-1,2.1-2.1V24.2z"/>
		<path id="path312" class="st0" d="M112.1,30.1c0-1.2-1-2.1-2.1-2.1c-1.2,0-2.1,1-2.1,2.1v4.5c0,1.2,1,2.1,2.1,2.1
			c1.2,0,2.1-1,2.1-2.1V30.1z"/>
	</g>
	<g id="use385" transform="translate(34.4317)">
		<g id="g383_1_">
			<path id="path296_1_" class="st0" d="M112.1,30.1c0-1.2-1-2.1-2.1-2.1s-2.1,1-2.1,2.1v4.5c0,1.2,1,2.1,2.1,2.1s2.1-1,2.1-2.1
				V30.1z"/>
			<path id="path300_1_" class="st0" d="M123.9,24.2c0-1.2-1-2.1-2.1-2.1c-1.2,0-2.1,1-2.1,2.1v10.4c0,1.2,1,2.1,2.1,2.1
				c1.2,0,2.1-1,2.1-2.1V24.2z"/>
			<path id="path304_1_" class="st0" d="M135.7,16.2c0-1.2-1-2.1-2.1-2.1c-1.2,0-2.1,1-2.1,2.1v22.8c0,1.2,1,2.1,2.1,2.1
				c1.2,0,2.1-1,2.1-2.1V16.2z"/>
			<path id="path308_1_" class="st0" d="M147.5,24.2c0-1.2-1-2.1-2.1-2.1c-1.2,0-2.1,1-2.1,2.1v10.4c0,1.2,1,2.1,2.1,2.1
				c1.2,0,2.1-1,2.1-2.1V24.2z"/>
			<path id="path312_1_" class="st0" d="M159.3,30.1c0-1.2-1-2.1-2.1-2.1c-1.2,0-2.1,1-2.1,2.1v4.5c0,1.2,1,2.1,2.1,2.1
				c1.2,0,2.1-1,2.1-2.1V30.1z"/>
		</g>
	</g>
	<path id="path332" class="st0" d="M156.8,63.4v0.3h-0.8v2h-0.3v-2H155v-0.3H156.8z"/>
	<path id="path336" class="st0" d="M157,63.4h0.5l0.7,1.9h0l0.7-1.9h0.5v2.3H159v-1.8h0l-0.7,1.8H158l-0.7-1.8h0v1.8H157L157,63.4z"
		/>
</g>
</svg>
