<?xml version="1.0" encoding="utf-8"?>
<!-- Generator: Adobe Illustrator 21.0.0, SVG Export Plug-In . SVG Version: 6.00 Build 0)  -->
<svg version="1.1" id="Layer_1" xmlns="http://www.w3.org/2000/svg" xmlns:xlink="http://www.w3.org/1999/xlink" x="0px" y="0px"
	 viewBox="0 0 220 80" style="enable-background:new 0 0 220 80;" xml:space="preserve">
<style type="text/css">
	.st0{fill:#666666;}
</style>
<g id="Layer_x0020_1">
	<g id="_111644264">
		<g id="g11">
			<path id="_134052944" class="st0" d="M130.2,46.8c3.5,0,6.3-2.8,6.3-6.3c0-3.5-2.8-6.3-6.3-6.3c-3.5,0-6.3,2.8-6.3,6.3
				C123.9,44,126.7,46.8,130.2,46.8z"/>
			<g id="g14">
				<polygon id="_134045216" class="st0" points="83.7,44.6 83.7,56 92.2,56 92.2,25.3 83.7,25.3 83.7,36.9 78.3,36.9 78.3,25.3 
					69.9,25.3 69.9,56 78.3,56 78.3,44.6 				"/>
				<path id="_121531200" class="st0" d="M114.5,40.6c0-8.3,6.5-15.2,14.8-15.6h1.8c8.2,0.5,14.8,7.3,14.8,15.6
					c0,8.6-7,15.6-15.6,15.6C121.5,56.2,114.5,49.2,114.5,40.6L114.5,40.6z M130.2,48.4c4.3,0,7.8-3.5,7.8-7.8
					c0-4.3-3.5-7.8-7.8-7.8c-4.3,0-7.8,3.5-7.8,7.8C122.3,44.9,125.8,48.4,130.2,48.4z"/>
				<path id="_134053168" class="st0" d="M107,25.3c2.3,0,8.9,1.3,8.9,7.8c0,5.3-2.5,6.8-4.5,7.2c-1.4,0.3,4.2,0,4.2,6.6
					c0,9.4-8.2,9.1-8.2,9.1H94V25.3L107,25.3L107,25.3z M101.6,32.8v4.6h4.5c0,0,1.8-0.2,1.8-2.4c0-2.2-1.9-2.2-1.9-2.2
					S101.6,32.8,101.6,32.8z M101.6,44.1v4.6h4.5c0,0,1.8-0.2,1.8-2.4c0-2.2-1.9-2.2-1.9-2.2H101.6z"/>
			</g>
		</g>
		<path id="_128645496" class="st0" d="M146.1,29.1h-0.8v-3.8h1.4c1,0,1.5,0.3,1.5,1.1c0,0.7-0.4,0.9-0.9,1l1,1.6h-1l-0.9-1.6h-0.4
			C146.1,27.5,146.1,29.1,146.1,29.1z M146.8,26.9c0.4,0,0.6-0.1,0.6-0.5c0-0.4-0.4-0.4-0.7-0.4h-0.6v0.9
			C146.1,26.9,146.8,26.9,146.8,26.9z M146.7,30.7c-1.9,0-3.5-1.3-3.5-3.5c0-2.2,1.6-3.5,3.5-3.5c1.9,0,3.5,1.3,3.5,3.5
			C150.1,29.5,148.5,30.7,146.7,30.7z M146.7,24.6c-1.4,0-2.5,1.1-2.5,2.7c0,1.6,1.1,2.7,2.5,2.7v0c1.3,0,2.5-1.1,2.5-2.7
			C149.1,25.7,148,24.6,146.7,24.6z"/>
	</g>
</g>
</svg>
