<?xml version="1.0" encoding="utf-8"?>
<!-- Generator: Adobe Illustrator 21.0.0, SVG Export Plug-In . SVG Version: 6.00 Build 0)  -->
<svg version="1.1" id="Layer_1" xmlns="http://www.w3.org/2000/svg" xmlns:xlink="http://www.w3.org/1999/xlink" x="0px" y="0px"
	 viewBox="0 0 220 80" style="enable-background:new 0 0 220 80;" xml:space="preserve">
<style type="text/css">
	.st0{fill:#FFFFFF;}
	.st1{fill:#666666;}
</style>
<g>
	<polygon class="st0" points="82,12 138,12 138,68 82,68 82,12 	"/>
	<path class="st1" d="M83.3,13.3c11.2,0,22.3,0,33.5,0c2.7,0,5.4,0,8.1,0c-0.7,0.8-1.5,1.5-2.3,2.3c0.3,0.3,0.6,0.6,0.9,0.9
		c0.7-0.5,1.5-0.8,2.3-0.9c0.8-0.1,1.5,0.1,2.2,0.4c0.3,0.1,0.5,0.3,0.8,0.3c0.3,0,0.5-0.3,0.6-0.5c0.1-0.2,0-0.4-0.1-0.5
		c-0.6-0.7-1.3-1.3-1.9-2c3.1,0,6.2,0,9.3,0c0,3,0,6.1,0,9.1c-0.6-0.6-1.3-1.3-1.9-1.9c-0.2-0.2-0.4-0.3-0.7-0.2
		c-0.2,0.1-0.3,0.2-0.4,0.4c-0.1,0.3,0.1,0.6,0.2,0.9c0.4,0.8,0.6,1.8,0.4,2.7c-0.1,0.6-0.3,1.2-0.6,1.8c-0.1,0.1-0.2,0.3-0.3,0.4
		c0.3,0.3,0.6,0.6,0.9,0.9c0.7-0.8,1.5-1.5,2.3-2.3c0,5.1,0,10.1,0,15.2c-0.1,0.1-0.3,0.2-0.5,0.1c-0.2-0.1-0.4-0.3-0.5-0.5
		c-1.8-1.8-3.6-3.6-5.4-5.4c-0.7,0.7-1.4,1.5-2.2,2.2c0.4,0.4,0.8,0.8,1.2,1.2c1.5,1.5,2.9,2.9,4.4,4.4c0.1,0.1,0.3,0.2,0.3,0.4
		c0,0.2-0.1,0.3-0.2,0.5c-0.1,0.2,0.1,0.4,0.3,0.4c0.2,0,0.3-0.1,0.5-0.2c0.7-0.7,1.4-1.4,2.1-2.1c0,8.4,0,16.9,0,25.3
		c-8.4,0-16.9,0-25.3,0c0.6-0.6,1.3-1.3,1.9-1.9c-2.2-2.2-4.4-4.4-6.6-6.6c-0.7,0.7-1.4,1.4-2.1,2.1c-0.2,0.2-0.3,0.3-0.4,0.5
		c0,0.2,0.2,0.4,0.4,0.4c0.2,0,0.3-0.1,0.5-0.2c0.2,0,0.3,0.1,0.4,0.2c1.3,1.3,2.6,2.6,3.9,3.9c0.3,0.3,0.7,0.7,1,1
		c0.1,0.2,0,0.4,0,0.5c-5.1,0-10.1,0-15.2,0c1.2-1.2,2.4-2.4,3.6-3.6c0.2-0.2,0.5-0.5,0.5-0.8c0.1-0.4-0.3-0.8-0.7-0.7
		c-0.3,0.1-0.6,0.3-0.9,0.3c-0.2,0-0.4-0.2-0.5-0.3c-2.9-2.8-5.7-5.7-8.5-8.5c-0.2-0.2-0.4-0.4-0.5-0.6c0-0.3,0.2-0.6,0.3-0.9
		c0.1-0.4-0.2-0.8-0.6-0.8c-0.3,0-0.5,0.2-0.7,0.4c-1.2,1.2-2.5,2.5-3.7,3.7C83.3,41,83.3,27.2,83.3,13.3L83.3,13.3z"/>
	<path class="st0" d="M121.8,16.4c0.1-0.1,0.1-0.1,0.2,0c3.9,3.9,7.8,7.8,11.7,11.7c-1.4,1.4-2.7,2.7-4.1,4.1
		c-0.2,0.2-0.4,0.3-0.6,0.3c-0.3,0-0.7-0.3-0.7-0.6c0-0.3,0.3-0.6,0.3-1c0-0.2-0.2-0.4-0.3-0.5c-2.9-2.9-5.8-5.8-8.7-8.7
		c-0.2-0.2-0.3-0.4-0.6-0.3c-0.4,0-0.6,0.3-1,0.3c-0.2,0-0.4-0.2-0.5-0.3c-0.1-0.3,0-0.7,0.2-0.9C119.1,19.1,120.4,17.7,121.8,16.4
		L121.8,16.4z"/>
	<path class="st0" d="M127.4,17.5c0.1-0.2,0.3-0.4,0.6-0.4c0.3,0,0.5,0.3,0.7,0.4c1.1,1.1,2.2,2.2,3.4,3.4c0.2,0.2,0.5,0.4,0.5,0.7
		c0,0.3-0.3,0.6-0.6,0.6c-0.3,0-0.5-0.1-0.7-0.3c-0.5-0.3-1-0.5-1.6-0.5c-0.3,0-0.6,0.1-0.8,0.2c-0.3-0.3-0.7-0.6-1-1
		c0.1-0.3,0.2-0.5,0.2-0.8c0-0.6-0.2-1.2-0.5-1.7C127.4,18.1,127.3,17.8,127.4,17.5L127.4,17.5z"/>
	<path class="st0" d="M102.7,20.5c0.6-0.6,1.2-1.2,1.8-1.9c0.6,0.6,1.1,1.1,1.7,1.7c0.2,0.2,0,0.5-0.2,0.6c-0.2,0-0.3-0.1-0.5-0.2
		c-0.6-0.3-1.4-0.3-2,0c-0.2,0.1-0.3,0.2-0.5,0.2C103,20.8,102.9,20.6,102.7,20.5L102.7,20.5z"/>
	<path class="st0" d="M102.3,20.9c0.8,0.8,1.6,1.6,2.4,2.4c1.3,1.3,2.5,2.5,3.8,3.8c-0.7,0.7-1.5,1.5-2.2,2.2
		c-0.2,0.2-0.5,0.2-0.6,0c-0.2-0.2,0-0.4,0.1-0.6c0.1-0.1-0.1-0.3-0.1-0.4c-1.5-1.5-2.9-2.9-4.4-4.4c-0.1-0.1-0.2-0.3-0.4-0.4
		c-0.2-0.1-0.4,0.2-0.6,0.2c-0.2,0-0.3-0.2-0.3-0.4c0-0.1,0.1-0.3,0.2-0.3C100.9,22.3,101.6,21.6,102.3,20.9L102.3,20.9z"/>
	<path class="st0" d="M105.3,21.7c-0.1-0.2,0.1-0.4,0.3-0.4c0.1,0,0.3,0.1,0.4,0.2c0.6,0.6,1.2,1.2,1.8,1.8c0.1,0.1,0.3,0.2,0.3,0.4
		c0,0.2-0.1,0.3-0.3,0.3c-0.2,0-0.4-0.2-0.6-0.3c-0.3-0.1-0.7-0.2-1,0c-0.2-0.2-0.3-0.3-0.5-0.5c0.1-0.2,0.1-0.5,0.1-0.8
		C105.6,22.2,105.4,22,105.3,21.7L105.3,21.7z"/>
	<path class="st0" d="M116,22.2c0.2-0.2,0.3-0.3,0.6-0.3c0.4-0.1,0.8,0.3,0.7,0.7c-0.1,0.3-0.3,0.6-0.3,1c0.1,0.2,0.3,0.4,0.4,0.6
		c2.9,2.9,5.7,5.7,8.6,8.6c0.2,0.1,0.3,0.3,0.5,0.3c0.3,0,0.6-0.3,0.9-0.3c0.4-0.1,0.7,0.3,0.7,0.7c0,0.3-0.2,0.5-0.3,0.6
		c-1.4,1.4-2.9,2.9-4.3,4.3c-0.2,0.2-0.4,0.4-0.7,0.4c-0.3,0-0.6-0.2-0.6-0.5c0-0.4,0.3-0.7,0.3-1.1c0-0.2-0.1-0.3-0.3-0.5
		c-2.5-2.5-5-5-7.5-7.5c2.1,3.9,4.2,7.7,6.2,11.6c0,0.1,0.1,0.1,0.1,0.2c-0.2,0.1-0.3,0.3-0.4,0.4c-4.2-2-8.3-4.1-12.5-6.2
		c-0.7-0.3-1.3-0.7-2-0.8c-0.2,0-0.4,0.2-0.6,0.3c-0.2,0.1-0.4,0.2-0.7,0.2c-0.3-0.1-0.5-0.4-0.4-0.7c0.1-0.2,0.2-0.4,0.3-0.5
		c1.3-1.3,2.7-2.7,4-4c2.1,1,4.2,2,6.3,3.1c0.1,0.1,0.1,0.1,0.2,0.2c0,0,0.1-0.1,0.1-0.1l-0.1,0c-1.1-2.1-2.3-4.2-3.4-6.3
		C113.2,24.9,114.6,23.6,116,22.2L116,22.2z"/>
	<path class="st0" d="M108.6,23.1c0.1-0.2,0.4-0.2,0.5-0.1c0.6,0.6,1.1,1.1,1.7,1.7c-0.6,0.6-1.3,1.3-1.9,1.9
		c-0.1-0.2-0.3-0.3-0.5-0.5c0.2-0.3,0.4-0.6,0.4-1c0.1-0.5,0-1-0.2-1.5C108.7,23.5,108.5,23.3,108.6,23.1L108.6,23.1z"/>
	<path class="st0" d="M99.2,24c0.1-0.1,0.2-0.2,0.4-0.3c0.2,0,0.4,0.1,0.4,0.2c0,0.2-0.1,0.4-0.1,0.5c0,0.2,0.1,0.3,0.2,0.4
		c1.5,1.5,3,3,4.5,4.5c0.1,0.1,0.2,0.2,0.4,0.2c0.2,0,0.3-0.1,0.5-0.2c0.2,0,0.4,0.2,0.3,0.4c0,0.2-0.1,0.3-0.2,0.4
		c-0.7,0.7-1.5,1.5-2.2,2.2c-0.1,0.1-0.3,0.3-0.5,0.2c-0.1,0-0.2-0.1-0.2-0.2c-0.1-0.2,0.2-0.4,0.1-0.7c-0.1-0.1-0.1-0.2-0.2-0.2
		c-0.7-0.7-1.4-1.4-2-2c-0.2,0.2-0.5,0.5-0.7,0.7c-0.2-0.2-0.3-0.3-0.5-0.5c0.2-0.2,0.5-0.5,0.7-0.7c-0.6-0.6-1.2-1.2-1.8-1.8
		c-0.1-0.1-0.2-0.3-0.4-0.3c-0.3-0.1-0.5,0.3-0.8,0.1c-0.2-0.2-0.1-0.5,0-0.6C97.8,25.4,98.5,24.7,99.2,24L99.2,24z"/>
	<path class="st0" d="M96.4,26.9c0.2-0.1,0.4,0,0.5,0.2c0.1,0.2-0.1,0.4-0.1,0.6c0,0.1,0.1,0.2,0.2,0.3c1.6,1.6,3.1,3.1,4.6,4.6
		c0.3,0.3,0.6-0.2,0.9,0c0.2,0.2,0.1,0.5,0,0.6c-0.7,0.7-1.5,1.5-2.2,2.2c-0.1,0.1-0.2,0.2-0.4,0.3c-0.2,0.1-0.4-0.1-0.4-0.3
		c0-0.2,0.2-0.4,0.2-0.6c0-0.1-0.1-0.2-0.2-0.2c-1.5-1.5-2.9-2.9-4.4-4.4c-0.1-0.1-0.3-0.3-0.4-0.4c-0.2,0-0.4,0.1-0.6,0.2
		c-0.2,0-0.3-0.1-0.3-0.3c0-0.2,0.1-0.3,0.2-0.4c0.7-0.7,1.5-1.5,2.2-2.2C96.2,27,96.3,26.9,96.4,26.9L96.4,26.9z"/>
	<path class="st0" d="M92.3,30.9c0.3-0.3,0.7-0.7,1-1c0.6,0.6,1.2,1.2,1.8,1.7c0.1,0.1,0.2,0.2,0.3,0.4c0.1,0.3-0.2,0.6-0.5,0.5
		c-0.3-0.1-0.5-0.3-0.8-0.5c-0.4-0.3-1-0.4-1.5-0.4c-0.2-0.2-0.3-0.3-0.5-0.5C92.2,31,92.3,31,92.3,30.9L92.3,30.9z"/>
	<path class="st0" d="M89.9,33.3c0.6-0.6,1.2-1.2,1.9-1.9c1.2,1.2,2.4,2.4,3.5,3.5c0.6,0.6,1.3,1.3,1.9,1.9c0.2,0.2,0.4,0,0.6,0
		c0.2-0.1,0.4,0.1,0.4,0.3c0,0.1-0.1,0.3-0.2,0.4c-0.8,0.8-1.5,1.5-2.3,2.3c-0.1,0.1-0.2,0.2-0.4,0.2c-0.2,0-0.3-0.2-0.3-0.3
		c0-0.2,0.2-0.3,0.2-0.5c0-0.2-0.1-0.2-0.2-0.3c-1.8-1.8-3.6-3.6-5.3-5.3C89.8,33.5,89.8,33.4,89.9,33.3L89.9,33.3z"/>
	<path class="st0" d="M131.9,32.8c0.7,0.7,1.4,1.4,2.1,2.1c0.2,0.2,0.1,0.6-0.2,0.7c-0.3,0-0.5-0.2-0.7-0.3
		c-0.6-0.4-1.2-0.7-1.9-0.6c-0.2-0.2-0.4-0.3-0.5-0.5C131.1,33.6,131.5,33.2,131.9,32.8L131.9,32.8z"/>
	<path class="st0" d="M89.3,33.9c0.2,0.1,0.3,0.3,0.5,0.5c-0.1,0.6,0.2,1.3,0.6,1.8c0.1,0.2,0.2,0.3,0.3,0.5
		c0.1,0.2-0.2,0.5-0.4,0.5c-0.1,0-0.2-0.1-0.3-0.2c-0.6-0.6-1.2-1.2-1.8-1.8C88.5,34.7,88.9,34.3,89.3,33.9L89.3,33.9z"/>
	<path class="st0" d="M101.8,37.1c1.1-0.4,2.3-0.4,3.5-0.2c1.9,0.4,3.7,1.6,5.1,3c1.3,1.4,2.4,3.1,2.8,5c0.2,1,0.2,2.1-0.1,3.2
		c-0.3,1-0.8,1.9-1.5,2.8c-0.3-0.3-0.6-0.6-0.9-0.9c0-0.2,0.1-0.3,0.1-0.4c0.2-0.5,0-1-0.4-1.4c-2.8-2.8-5.5-5.5-8.3-8.3
		c-0.3-0.3-0.6-0.5-0.9-0.5c-0.3,0-0.6,0.1-0.9,0.2c-0.1,0.1-0.2-0.1-0.3-0.1c-0.2-0.2-0.5-0.5-0.7-0.7c0,0,0-0.1,0-0.1
		C100,37.9,100.8,37.4,101.8,37.1L101.8,37.1z"/>
	<path class="st0" d="M109.3,36.8c0.3,0.1,0.5,0.2,0.7,0.3c0.9,0.4,1.8,0.9,2.7,1.3c0.1,0,0.2,0.1,0.2,0.2c0.8,0.8,1.5,1.5,2.3,2.3
		c0.4,0.4,0.9,0.8,1.5,1c0.4,0.2,0.8,0.2,1.2,0c0.2-0.1,0.4-0.1,0.6-0.1c0.2,0.1,0.4,0.3,0.4,0.5c0,0.3-0.2,0.6-0.4,0.8
		c-0.7,0.7-1.4,1.4-2.1,2.1c-0.2,0.2-0.4,0.3-0.7,0.4c-0.4,0.1-0.7-0.3-0.6-0.7c0.1-0.4,0.3-0.7,0.2-1.1c-0.1-0.6-0.5-1.2-0.9-1.7
		c-1.5-1.5-3-3-4.6-4.6C109.8,37.3,109.5,37,109.3,36.8L109.3,36.8z"/>
	<path class="st0" d="M126.4,38.3c0.4-0.4,0.8-0.8,1.3-1.3c0.2,0.2,0.3,0.3,0.5,0.5c-0.1,0.6,0.1,1.1,0.4,1.6
		c0.2,0.3,0.4,0.5,0.5,0.8c0.1,0.1,0,0.3,0,0.4c0.7,0.5,1.3,1.1,1.8,1.8c0.6,0.8,1,1.8,0.9,2.7c0,0.9-0.4,1.9-1,2.6
		c-0.2-0.2-0.4-0.3-0.5-0.5c0-0.2,0.1-0.4,0.1-0.6c-0.1-0.3-0.3-0.5-0.4-0.6c-1.5-1.5-3-2.9-4.4-4.4c-0.1-0.1-0.3-0.3-0.5-0.3
		c-0.2,0-0.4,0-0.6,0.1c-0.2-0.2-0.3-0.3-0.5-0.5c0.7-0.6,1.7-1,2.7-1c0.4,0,0.8,0.1,1.1,0.2C127.3,39.2,126.8,38.8,126.4,38.3
		L126.4,38.3z"/>
	<path class="st0" d="M97.1,41.6c0.3-0.9,0.8-1.6,1.4-2.3c0.3,0.3,0.6,0.6,0.9,0.9c0.1,0.2-0.1,0.3-0.1,0.5c-0.1,0.5,0,1,0.4,1.4
		c2.7,2.7,5.4,5.4,8.2,8.2c0.3,0.3,0.6,0.6,1,0.6c0.4,0.1,0.7-0.1,1-0.2c0.3,0.3,0.6,0.6,0.9,0.9c-0.7,0.6-1.4,1-2.2,1.3
		c-1.2,0.5-2.6,0.6-3.9,0.3c-2-0.4-3.7-1.6-5.1-3.1c-1.3-1.3-2.3-3-2.7-4.8C96.6,44,96.7,42.7,97.1,41.6L97.1,41.6z"/>
	<path class="st0" d="M122.5,43.2c0.1-0.9,0.4-1.7,1-2.3c0.2,0.2,0.3,0.3,0.5,0.5c-0.1,0.2-0.2,0.4-0.1,0.6c0,0.2,0.2,0.3,0.3,0.5
		c1.5,1.5,2.9,3,4.4,4.4c0.2,0.2,0.3,0.4,0.6,0.4c0.2,0.1,0.5,0,0.7-0.1c0.2,0.2,0.3,0.3,0.5,0.5c-0.7,0.6-1.6,1-2.5,1
		c-0.9,0-1.8-0.3-2.5-0.8c-0.5-0.3-1-0.8-1.5-1.3c0.2,0.7,0.2,1.4-0.2,2c-0.3,0.6-0.8,1.1-1.2,1.6c-0.2-0.2-0.3-0.3-0.5-0.5
		c0.1-0.2,0.2-0.5,0.2-0.8c-0.1-0.3-0.3-0.5-0.5-0.7c-0.4-0.4-0.8-0.8-1.3-1.3c-0.2-0.2-0.5-0.5-0.9-0.5c-0.2,0-0.4,0.1-0.6,0.2
		c-0.2-0.2-0.3-0.3-0.5-0.5c0.7-0.7,1.4-1.4,2.4-1.5c0.8-0.1,1.6,0.2,2.2,0.8C122.7,44.8,122.5,44,122.5,43.2L122.5,43.2z"/>
	<path class="st0" d="M93,45.1c0.2-0.2,0.4-0.3,0.6-0.3c0.4,0,0.7,0.4,0.6,0.8c-0.1,0.3-0.3,0.5-0.3,0.8c0,0.3,0.2,0.5,0.4,0.6
		c2.9,2.9,5.8,5.8,8.6,8.6c0.1,0.1,0.3,0.3,0.5,0.3c0.3,0,0.6-0.2,0.9-0.3c0.4-0.1,0.7,0.3,0.7,0.6c0,0.3-0.2,0.5-0.3,0.7
		c-1.4,1.4-2.9,2.9-4.3,4.3c-0.2,0.2-0.4,0.3-0.7,0.3c-0.3,0-0.6-0.3-0.6-0.6c0-0.3,0.3-0.6,0.3-1c0-0.2-0.2-0.4-0.3-0.5
		c-1.3-1.3-2.6-2.6-3.9-3.9c-0.1,0-0.1-0.2-0.2-0.1c-0.4,0.4-0.9,0.9-1.3,1.3c-0.3-0.3-0.6-0.6-0.9-0.9c0.4-0.5,0.9-0.9,1.3-1.3
		c0,0,0-0.1,0-0.1c-1.2-1.2-2.4-2.4-3.6-3.6c-0.2-0.2-0.4-0.4-0.6-0.5c-0.4,0-0.6,0.3-1,0.3c-0.4,0.1-0.8-0.4-0.7-0.8
		c0.1-0.3,0.3-0.5,0.5-0.7C90.2,47.9,91.6,46.6,93,45.1L93,45.1z"/>
	<path class="st0" d="M118,46.7c0.7,0.6,1.3,1.3,2,1.9c1.3,1.3,2.5,2.5,3.8,3.8c0.1,0.1,0.2,0.2,0.3,0.2c0.2,0,0.4-0.2,0.7-0.2
		c0.1,0.1,0.3,0.2,0.3,0.4c0,0.2-0.2,0.4-0.3,0.5c-0.8,0.8-1.6,1.6-2.4,2.3c-0.2,0.2-0.5,0.1-0.6-0.1c-0.2-0.3,0.3-0.5,0-0.8
		c-1.6-1.6-3.2-3.2-4.9-4.9c-0.1-0.1-0.2-0.2-0.4-0.3c-0.2-0.1-0.4,0.1-0.7,0.2c-0.2,0-0.3-0.2-0.3-0.3c0-0.2,0.1-0.3,0.3-0.5
		C116.5,48.1,117.3,47.4,118,46.7L118,46.7z"/>
	<path class="st0" d="M113,51.6c0.7-0.7,1.3-1.3,2-2c0.6,0.6,1.2,1.2,1.8,1.8c0.2,0.2,0,0.5-0.2,0.6c-0.1,0-0.3-0.1-0.4-0.1
		c-0.5-0.3-1.1-0.4-1.7-0.2c-0.4,0.1-0.7,0.3-1,0.5C113.4,52,113.2,51.8,113,51.6L113,51.6z"/>
	<path class="st0" d="M110.3,54.4c0.8-0.8,1.6-1.6,2.3-2.3c1.3,1.2,2.5,2.5,3.8,3.7c1,1,1.9,1.9,2.9,2.9c-0.8,0.8-1.5,1.5-2.3,2.3
		c-0.1,0.1-0.3,0.2-0.4,0.2c-0.1-0.1-0.3-0.1-0.4-0.3c-0.1-0.3,0.2-0.5,0.2-0.7c-0.1-0.2-0.3-0.4-0.5-0.5c-1.4-1.4-2.7-2.7-4.1-4.1
		c-0.2-0.2-0.4-0.5-0.7-0.7c-0.3-0.1-0.5,0.3-0.8,0.1C110.1,54.9,110.1,54.5,110.3,54.4L110.3,54.4z"/>
	<path class="st0" d="M115.7,53c-0.1-0.2,0.1-0.5,0.4-0.5c0.1,0,0.2,0.1,0.3,0.2c0.6,0.6,1.2,1.2,1.8,1.8c0.2,0.2,0.4,0.4,0.5,0.6
		c-0.1,0.1-0.2,0.3-0.3,0.3c-0.3,0-0.5-0.2-0.7-0.3c-0.3-0.2-0.7-0.2-1.1,0c-0.2-0.2-0.4-0.4-0.5-0.5c0.1-0.3,0.2-0.6,0.1-0.8
		C116,53.5,115.8,53.3,115.7,53L115.7,53z"/>
	<path class="st0" d="M119.3,54.4c0.1-0.2,0.4-0.2,0.5,0c0.6,0.6,1.2,1.2,1.8,1.8c-0.7,0.7-1.3,1.4-2.1,2c-0.2-0.2-0.3-0.3-0.5-0.5
		c0.6-0.7,0.7-1.8,0.3-2.7C119.4,54.9,119.2,54.6,119.3,54.4L119.3,54.4z"/>
	<path class="st1" d="M83.3,56.7c0.2-0.1,0.4-0.2,0.7-0.2c0.3,0.1,0.5,0.3,0.7,0.5c2.8,2.8,5.6,5.6,8.4,8.4c0.2,0.2,0.4,0.3,0.4,0.6
		c0,0.2-0.1,0.5-0.2,0.7c-3.3,0-6.6,0-10,0C83.3,63.3,83.3,60,83.3,56.7L83.3,56.7z"/>
	<path class="st0" d="M109.4,56.5c1-0.1,2,0.3,2.8,0.8c0.6,0.4,1.2,0.9,1.7,1.6c0.5,0.7,0.9,1.6,0.9,2.6c0,1.1-0.4,2.1-1.1,2.9
		c-0.2-0.2-0.3-0.3-0.5-0.5c0.1-0.2,0.2-0.4,0.2-0.6c-0.1-0.3-0.3-0.6-0.5-0.8c-1.3-1.3-2.5-2.5-3.8-3.8c-0.3-0.3-0.5-0.5-0.9-0.6
		c-0.2,0-0.4,0.1-0.6,0.2c-0.2-0.2-0.4-0.3-0.5-0.5C107.7,57,108.5,56.6,109.4,56.5L109.4,56.5z"/>
	<g>
		<path class="st0" d="M132,63.5c0-1,0.8-1.7,1.8-1.7c1,0,1.8,0.7,1.8,1.7c0,1-0.8,1.8-1.8,1.8C132.8,65.2,132,64.5,132,63.5z
			 M133.8,64.9c0.8,0,1.4-0.6,1.4-1.5c0-0.8-0.6-1.5-1.4-1.5c-0.8,0-1.4,0.6-1.4,1.5C132.4,64.3,133,64.9,133.8,64.9z M133.4,64.5
			h-0.3v-2h0.8c0.5,0,0.7,0.2,0.7,0.6c0,0.4-0.2,0.5-0.5,0.6l0.6,0.9h-0.3l-0.5-0.9h-0.4V64.5z M133.8,63.4c0.3,0,0.5,0,0.5-0.3
			c0-0.3-0.2-0.3-0.4-0.3h-0.4v0.6H133.8z"/>
	</g>
</g>
</svg>
