<?xml version="1.0" encoding="utf-8"?>
<!-- Generator: Adobe Illustrator 21.0.0, SVG Export Plug-In . SVG Version: 6.00 Build 0)  -->
<svg version="1.1" id="Layer_1" xmlns="http://www.w3.org/2000/svg" xmlns:xlink="http://www.w3.org/1999/xlink" x="0px" y="0px"
	 viewBox="0 0 220 80" style="enable-background:new 0 0 220 80;" xml:space="preserve">
<style type="text/css">
	.st0{fill:#666666;}
</style>
<g>
	<path class="st0" d="M87.7,42.5L86.8,45h-0.1c-0.2-0.6-0.4-1.5-0.9-2.5l-4.9-12.2h-4.8v19.5h3.1v-12c0-0.8,0-1.6,0-2.7
		c0-0.5-0.1-0.9-0.1-1.2h0.1c0.2,0.8,0.3,1.3,0.5,1.7l5.8,14.2h2.2l5.8-14.3c0.1-0.3,0.3-1,0.4-1.5H94c-0.1,1.4-0.1,2.7-0.2,3.5
		v12.3h3.3V30.3h-4.6L87.7,42.5z M100.4,35.7h3.3v13.9h-3.3V35.7z M102.1,29.9c-0.6,0-1,0.2-1.4,0.6c-0.4,0.4-0.6,0.8-0.6,1.4
		c0,0.5,0.2,1,0.6,1.3c0.4,0.4,0.8,0.5,1.4,0.5c0.6,0,1-0.2,1.4-0.5c0.4-0.4,0.6-0.8,0.6-1.3c0-0.5-0.2-1-0.6-1.4
		C103.1,30.1,102.6,29.9,102.1,29.9 M115.3,35.6c-0.6-0.1-1.2-0.2-1.8-0.2c-1.5,0-2.8,0.3-4,1c-1.1,0.7-2,1.6-2.6,2.7
		c-0.6,1.2-0.9,2.5-0.9,4c0,1.3,0.3,2.5,0.9,3.6c0.6,1.1,1.4,1.9,2.5,2.5c1,0.6,2.2,0.9,3.6,0.9c1.6,0,2.9-0.3,4-0.9l0,0v-3
		l-0.1,0.1c-0.5,0.4-1,0.7-1.6,0.8c-0.6,0.2-1.1,0.3-1.6,0.3c-1.3,0-2.3-0.4-3.1-1.2c-0.8-0.8-1.1-1.9-1.1-3.3
		c0-1.4,0.4-2.6,1.2-3.4c0.8-0.8,1.8-1.3,3.1-1.3c1.1,0,2.1,0.4,3.1,1.1l0.1,0.1v-3.2l0,0C116.4,35.9,115.9,35.7,115.3,35.6
		 M126.1,35.5c-0.8,0-1.6,0.3-2.2,0.8c-0.6,0.5-0.9,1.1-1.3,1.9h0v-2.4h-3.3v13.9h3.3v-7.1c0-1.2,0.3-2.2,0.8-2.9
		c0.6-0.8,1.3-1.1,2.1-1.1c0.3,0,0.6,0.1,1,0.1c0.4,0.1,0.6,0.2,0.8,0.3l0.1,0.1v-3.3l-0.1,0C127.1,35.6,126.6,35.5,126.1,35.5
		 M135,35.4c-2.3,0-4.1,0.7-5.4,2c-1.3,1.3-1.9,3.2-1.9,5.5c0,2.2,0.7,3.9,1.9,5.2c1.3,1.3,3,1.9,5.1,1.9c2.2,0,4-0.7,5.3-2
		c1.3-1.4,1.9-3.2,1.9-5.4c0-2.2-0.6-4-1.8-5.3C138.9,36.1,137.1,35.4,135,35.4 M137.6,46.2c-0.6,0.8-1.6,1.2-2.7,1.2
		c-1.2,0-2.1-0.4-2.8-1.2c-0.7-0.8-1-1.9-1-3.3c0-1.5,0.4-2.6,1-3.4c0.7-0.8,1.6-1.2,2.8-1.2c1.2,0,2.1,0.4,2.7,1.2
		c0.7,0.8,1,1.9,1,3.4C138.5,44.2,138.2,45.4,137.6,46.2 M149.2,41.5c-1-0.4-1.7-0.8-2-1c-0.3-0.3-0.4-0.6-0.4-1.1
		c0-0.4,0.2-0.8,0.5-1c0.4-0.3,0.8-0.4,1.4-0.4c0.6,0,1.1,0.1,1.7,0.3c0.6,0.2,1.1,0.4,1.5,0.7l0.1,0.1V36l-0.1,0
		c-0.4-0.2-0.9-0.3-1.5-0.4c-0.6-0.1-1.2-0.2-1.6-0.2c-1.6,0-2.8,0.4-3.9,1.2c-1,0.8-1.5,1.8-1.5,3.1c0,0.7,0.1,1.2,0.3,1.7
		c0.2,0.5,0.6,0.9,1,1.3c0.5,0.4,1.1,0.8,2,1.1c0.8,0.3,1.3,0.6,1.7,0.8c0.4,0.2,0.6,0.4,0.8,0.6c0.1,0.2,0.2,0.5,0.2,0.8
		c0,0.9-0.7,1.4-2.1,1.4c-0.6,0-1.1-0.1-1.8-0.3c-0.7-0.2-1.3-0.6-1.8-0.9l-0.1-0.1v3.2l0.1,0c0.5,0.2,1.1,0.4,1.8,0.6
		c0.7,0.1,1.3,0.2,1.9,0.2c1.7,0,3.1-0.4,4.1-1.2c1-0.8,1.5-1.8,1.5-3.2c0-0.9-0.3-1.8-0.8-2.4C151.4,42.7,150.5,42,149.2,41.5
		 M161.6,35.4c-2.3,0-4.1,0.7-5.4,2c-1.3,1.3-1.9,3.2-1.9,5.5c0,2.2,0.7,3.9,1.9,5.2c1.3,1.3,3,1.9,5.1,1.9c2.2,0,4-0.7,5.3-2
		c1.3-1.4,1.9-3.2,1.9-5.4c0-2.2-0.6-4-1.8-5.3C165.5,36.1,163.7,35.4,161.6,35.4 M164.2,46.2c-0.6,0.8-1.6,1.2-2.7,1.2
		c-1.2,0-2.1-0.4-2.8-1.2c-0.7-0.8-1-1.9-1-3.3c0-1.5,0.4-2.6,1-3.4c0.7-0.8,1.6-1.2,2.8-1.2c1.1,0,2.1,0.4,2.7,1.2
		c0.7,0.8,1,1.9,1,3.4C165.1,44.2,164.8,45.4,164.2,46.2 M186,38.4v-2.7h-3.3v-4.1l-0.1,0l-3.1,0.9l-0.1,0v3.1h-4.9V34
		c0-0.8,0.2-1.4,0.6-1.8c0.4-0.4,0.9-0.6,1.5-0.6c0.5,0,0.9,0.1,1.5,0.3l0.1,0.1v-2.8l-0.1,0c-0.5-0.2-1.1-0.3-1.8-0.3
		c-1,0-1.8,0.2-2.6,0.6c-0.8,0.4-1.4,1-1.8,1.8c-0.4,0.8-0.7,1.6-0.7,2.6v1.9h-2.3v2.7h2.3v11.3h3.3V38.4h4.9v7.2
		c0,2.9,1.4,4.4,4.2,4.4c0.5,0,0.9-0.1,1.4-0.2c0.5-0.1,0.8-0.2,1-0.3l0,0v-2.7l-0.1,0.1c-0.2,0.1-0.4,0.2-0.7,0.3
		c-0.3,0.1-0.5,0.1-0.7,0.1c-0.7,0-1.1-0.2-1.4-0.5c-0.3-0.4-0.5-0.9-0.5-1.8v-6.6L186,38.4L186,38.4z"/>
	<path class="st0" d="M34,23.8h15.4v15.4H34V23.8z"/>
	<path class="st0" d="M51,23.8h15.4v15.4H51V23.8z"/>
	<path class="st0" d="M34,40.8h15.4v15.4H34V40.8z"/>
	<path class="st0" d="M51,40.8h15.4v15.4H51V40.8z"/>
</g>
</svg>
