<?xml version="1.0" encoding="utf-8"?>
<!-- Generator: Adobe Illustrator 21.0.0, SVG Export Plug-In . SVG Version: 6.00 Build 0)  -->
<svg version="1.1" id="Layer_1" xmlns="http://www.w3.org/2000/svg" xmlns:xlink="http://www.w3.org/1999/xlink" x="0px" y="0px"
	 viewBox="0 0 220 80" style="enable-background:new 0 0 220 80;" xml:space="preserve">
<style type="text/css">
	.st0{fill:#666666;}
	.st1{fill:#FFFFFF;}
	.st2{fill:#888888;}
</style>
<g>
	<circle class="st0" cx="110" cy="40" r="30.1"/>
	<circle class="st1" cx="105.6" cy="15.9" r="0.3"/>
	<circle class="st1" cx="109.1" cy="16.4" r="0.3"/>
	<circle class="st1" cx="113.6" cy="22.5" r="0.3"/>
	<circle class="st1" cx="88.7" cy="54" r="0.3"/>
	<circle class="st1" cx="89.6" cy="56.7" r="0.3"/>
	<circle class="st1" cx="85.4" cy="54.4" r="0.3"/>
	<circle class="st1" cx="99.1" cy="59.7" r="0.3"/>
	<circle class="st1" cx="120.7" cy="55.2" r="0.3"/>
	<circle class="st1" cx="126.9" cy="48.4" r="0.3"/>
	<circle class="st1" cx="96.3" cy="24.4" r="0.3"/>
	<circle class="st1" cx="103.1" cy="19.4" r="0.3"/>
	<circle class="st1" cx="102.4" cy="18.9" r="0.3"/>
	<circle class="st1" cx="101.7" cy="18.4" r="0.3"/>
	<circle class="st1" cx="97.3" cy="25.7" r="0.3"/>
	<circle class="st1" cx="107.5" cy="12.6" r="0.3"/>
	<circle class="st1" cx="109.1" cy="19.9" r="0.3"/>
	<circle class="st1" cx="106.5" cy="18.5" r="0.3"/>
	<circle class="st1" cx="102" cy="20.4" r="0.3"/>
	<circle class="st1" cx="121.9" cy="61.9" r="0.3"/>
	<circle class="st1" cx="88.3" cy="55.7" r="0.3"/>
	<circle class="st1" cx="105.9" cy="58.9" r="0.3"/>
	<circle class="st1" cx="93.5" cy="55.5" r="0.3"/>
	<circle class="st1" cx="95.7" cy="59" r="0.3"/>
	<circle class="st1" cx="111.8" cy="56.8" r="0.3"/>
	<circle class="st1" cx="120.7" cy="51.8" r="0.3"/>
	<circle class="st1" cx="127.4" cy="54.9" r="0.3"/>
	<circle class="st1" cx="129.7" cy="56.3" r="0.3"/>
	<circle class="st1" cx="130.1" cy="52.3" r="0.3"/>
	<circle class="st1" cx="96.6" cy="46.6" r="0.3"/>
	<circle class="st1" cx="96.7" cy="52.5" r="0.3"/>
	<circle class="st1" cx="98.8" cy="56.7" r="0.3"/>
	<circle class="st1" cx="123" cy="52.3" r="0.3"/>
	<circle class="st1" cx="131.7" cy="51.8" r="0.3"/>
	<circle class="st1" cx="127.4" cy="49.9" r="0.3"/>
	<circle class="st1" cx="123" cy="50.1" r="0.3"/>
	<path class="st1" d="M113.9,15.7l0.8-0.1l-0.8,0c0-0.2-0.2-0.3-0.3-0.3l-0.1-0.8l0,0.8c-0.2,0-0.3,0.2-0.3,0.3l-0.9,0.1l0.9,0
		c0,0.1,0.1,0.3,0.3,0.3l0.1,0.9l0-0.9C113.8,16,113.9,15.8,113.9,15.7z"/>
	<path class="st1" d="M99.7,25l0.8-0.1l-0.8,0c0-0.2-0.2-0.3-0.3-0.3l-0.1-0.8l0,0.8c-0.2,0-0.3,0.2-0.3,0.3L98.2,25l0.9,0
		c0,0.1,0.1,0.3,0.3,0.3l0.1,0.9l0-0.9C99.6,25.3,99.7,25.2,99.7,25z"/>
	<path class="st1" d="M131.1,49.7l0.8-0.1l-0.8,0c0-0.2-0.2-0.3-0.3-0.3l-0.1-0.8l0,0.8c-0.2,0-0.3,0.2-0.3,0.3l-0.9,0.1l0.9,0
		c0,0.1,0.1,0.3,0.3,0.3l0.1,0.9l0-0.9C131,50,131.1,49.9,131.1,49.7z"/>
	<path class="st1" d="M96.9,62.6l0.8-0.1l-0.8,0c0-0.2-0.2-0.3-0.3-0.3l-0.1-0.8l0,0.8c-0.2,0-0.3,0.2-0.3,0.3l-0.9,0.1l0.9,0
		c0,0.1,0.1,0.3,0.3,0.3l0.1,0.9l0-0.9C96.8,62.9,96.9,62.8,96.9,62.6z"/>
	<path class="st1" d="M128.4,56.3l0.8-0.1l-0.8,0c0-0.2-0.2-0.3-0.3-0.3l-0.1-0.8l0,0.8c-0.2,0-0.3,0.2-0.3,0.3l-0.9,0.1l0.9,0
		c0,0.1,0.1,0.3,0.3,0.3l0.1,0.9l0-0.9C128.3,56.6,128.4,56.5,128.4,56.3z"/>
	<path class="st2" d="M114.6,33c-3.5,1.4-6.9,2.6-9.8,3.5c-5.9,1.8-21.9,6.8-31.5,13l0.8,0.3c5.9-3.3,9.7-4.4,13.4-5.5
		c4-1.3,16.9-4.3,22.8-5.9c2-0.6,4.3-1.3,6.8-2.2c-0.6-0.8-1.2-1.6-1.8-2.4C115,33.5,114.8,33.3,114.6,33z M118.8,38.9
		c-0.8,0.6-1.6,1-2.1,1.3c-2.9,1.7-16.9,11.2-20.1,13.5c-3.2,2.2-12.1,10.6-14.7,13l-0.1,1c8.4-7.6,11.1-9.4,14.4-12
		c4.1-3.1,12.7-9,15.6-10.8c2.8-1.8,5.3-3.4,7.5-4.9c0-0.1-0.1-0.1-0.1-0.2C119.2,39.5,119,39.2,118.8,38.9z M132,25
		c-4.1,2.4-10.6,5.3-16.8,7.8c0.1,0.2,0.3,0.4,0.4,0.6c0.7,0.9,1.4,1.8,2,2.7c4.9-1.8,10.3-4.2,14.6-7.2c-2,1.9-8.8,7-12.9,9.8
		c0.2,0.3,0.4,0.7,0.6,1c6.2-4.2,10.4-7.2,12.9-9.3c3.4-2.8,11.1-9.2,14-17.7C141.6,19.2,135.6,22.9,132,25z"/>
	<path class="st1" d="M103.5,47.7c-0.7-0.8-1.6-2-2.3-2.8c-0.9-1.2-1.8-2.3-2.6-3.5c-0.3,0.1-0.5,0.1-0.8,0.2c0.9,1.5,2,2.9,3.1,4.4
		c0.8,1,1.6,1.9,2,2.4c0.1,0.1,0.2,0.3,0.4,0.7c0.2-0.2,0.5-0.3,0.7-0.5C104,48.2,103.8,48,103.5,47.7z M108.4,52.1
		c-0.5-0.5-1.9-1.4-3.2-2.7c-0.3,0.2-0.6,0.4-0.9,0.6c0.9,1.3,2.1,2.8,3,3.2C108.7,53.9,109.1,52.7,108.4,52.1z M115.6,33.3
		c-7.9-9.9-17.5-15.3-21.6-12c-3.2,2.6-1.9,10,2.5,17.9c0.2-0.1,0.5-0.2,0.7-0.2c-4.5-7.6-5.7-14.8-2.7-17.2c3.8-3,13,2.4,20.7,12
		c1.6,2,3,4,4.1,5.9c4.5,7.5,5.9,14.2,2.8,17c-1,0.8-3.9,1.2-7.7-0.5c-0.1,0.1,0,0.2,0.1,0.3c3.3,1.3,6.4,1.8,8,0.6
		C126.4,54,123.5,43.2,115.6,33.3z"/>
	<path class="st1" d="M81.9,34.5h5l4.2,7.2c0,0,0-5.2,0-5.6c0-0.6-0.8-1.5-1.1-1.6c0.3,0,3.3,0,3.5,0c-0.2,0.1-0.9,0.9-0.9,1.6
		c0,0.3,0,7.9,0,8.2c0,0.5,0.7,1.2,1.1,1.5h-4.9l-4.3-7.2c0,0,0,5.4,0,5.7c0,0.6,0.6,1.1,1.1,1.6H82c0.5-0.2,1-0.9,1.1-1.5
		c0-0.6,0-7.8,0-8.1C83.1,35.5,82.4,34.9,81.9,34.5z"/>
	<path class="st1" d="M127.9,45.8h6.7c-0.4-0.1-0.8-0.5-1-1.1c-0.2-0.6-3.8-10.2-3.8-10.2h-2.5c-0.7,0.5-1.5,1.1-2.3,1.6
		c0,0,0,0,0,0.1c-0.1,0.7-2.1,7.9-2.2,8.3c-0.2,0.5-1,1-1.4,1.3h3.6c-0.4-0.4-0.7-0.8-0.6-1.2c0.1-0.4,0.3-1.3,0.3-1.3h3.7
		c0.2,0.4,0.3,0.9,0.4,1.2C128.8,44.9,128.4,45.4,127.9,45.8z M125,41.8l1.3-4.1l1.7,4.1H125z M124.4,34.9c0.2-0.1,0.4-0.3,0.6-0.4
		h-1C124.1,34.6,124.3,34.7,124.4,34.9z"/>
	<path class="st1" d="M98.8,44.6c0.1-0.4,0.3-1.3,0.3-1.3h3.7c0.2,0.4,0.3,0.9,0.4,1.2c0.1,0.5-0.4,1-0.8,1.3h5.9
		c0.1-0.1,0.2-0.2,0.4-0.2c-0.2-0.2-0.4-0.5-0.6-0.9c-0.2-0.6-3.8-10.2-3.8-10.2h-5.8c0.3,0.3,1.1,1,1,1.7c-0.1,0.7-2.1,7.9-2.2,8.3
		c-0.2,0.5-1,1-1.4,1.3h3.6C99,45.4,98.7,45,98.8,44.6z M100.7,37.7l1.7,4.1h-2.9L100.7,37.7z"/>
	<path class="st1" d="M119.2,40.1c-1.1,0.7-2.3,1.5-3.5,2.3c0.5,0.3,1,0.6,1,1c0.1,0.8-1.6,1.2-3,1c-0.3,0-0.6-0.1-0.9-0.2
		c-0.3,0.2-0.6,0.4-0.9,0.6c-0.3,0.2-0.7,0.5-1.1,0.7v1.2c0.3-0.6,0.9-1.1,1.4-1.1c0.2,0,1,0.7,4,0.5c1.5-0.1,4.4-1.7,4.3-3.5
		C120.5,41.6,119.9,40.8,119.2,40.1z M110.8,42.9v1.2c0.3-0.2,0.5-0.4,0.8-0.5C111.2,43.3,110.9,43,110.8,42.9z M118.1,39.4
		c-0.3-0.2-0.6-0.3-0.9-0.4c-1.4-0.7-2.9-0.8-3.3-1.7c-0.2-0.6,0.4-1.2,1.9-1.2c1.5,0,2.9,0.9,3.3,1.3v-2.9
		c-0.1,0.1-0.6,0.7-1.1,0.6c-0.9-0.2-2.3-0.4-4-0.4c-1.9,0-3.6,1.5-3.7,3.4c-0.1,2.6,2,3.4,3.2,3.8c0.1,0,0.3,0.1,0.4,0.1
		c1.1-0.7,2-1.3,2.6-1.6C117.1,40,117.6,39.7,118.1,39.4z"/>
</g>
</svg>
