<?xml version="1.0" encoding="utf-8"?>
<!-- Generator: Adobe Illustrator 21.0.0, SVG Export Plug-In . SVG Version: 6.00 Build 0)  -->
<svg version="1.1" id="Layer_1" xmlns="http://www.w3.org/2000/svg" xmlns:xlink="http://www.w3.org/1999/xlink" x="0px" y="0px"
	 viewBox="0 0 220 80" style="enable-background:new 0 0 220 80;" xml:space="preserve">
<style type="text/css">
	.st0{fill:#666666;}
</style>
<path class="st0" d="M105.1,26.2v3.6h-7.4v20.8h-4.3V29.8h-7.4v-3.6H105.1z M118.7,32.4v18.3h-3.9v-1.8c-0.5,0.5-2.3,2.2-5.5,2.2
	c-2.5,0-4.8-0.9-6.5-2.4c-1.8-1.7-2.8-4.1-2.8-6.9c0-7.1,5.6-9.7,9.3-9.7c3,0,4.5,1.1,5.3,1.9l0,0c0.1,0.1,0.2,0.2,0.2,0.2
	c0,0,0.1,0,0.1-0.3l0.1-0.6l0.1-0.5c0.1-0.3,0.3-0.4,0.7-0.4C115.8,32.4,118.7,32.4,118.7,32.4z M109.1,47.6c3.6,0,5.8-2.3,5.8-6.3
	c0-1.6-0.5-3-1.5-4c-1-1.1-2.3-1.7-3.9-1.7c-3.6,0-5.9,2.4-5.9,6C103.7,44.5,105.1,47.6,109.1,47.6 M132,32.5
	c-0.2-0.1-1-0.4-1.8-0.4c-1.4,0-3.9,0.3-5.4,2.1c-0.1,0.1-0.2,0.2-0.2,0.2c0,0-0.1,0-0.1-0.2l-0.2-0.7l-0.2-0.7
	c-0.1-0.3-0.3-0.4-0.7-0.4h-2.7v18.3h3.9V40.6c0-3.4,1.6-5,5-5c0.2,0,0.3,0,0.4,0l0.1,0h0L132,32.5L132,32.5z M138.8,49.5
	c5.8,0,8.5,1.6,8.5,5.1c0,3.7-3.7,6.1-9.5,6.1c-5,0-8.1-1.9-8.1-5c0-1.7,0.9-3.1,2.6-4c-1.3-0.6-1.9-1.6-1.9-2.9
	c0-1.3,0.7-2.5,2.1-3.4c-1.4-1.4-2.2-3.3-2.2-5.2c0-2.4,0.9-4.4,2.5-5.9c1.5-1.4,3.5-2.1,5.7-2.1c1.3,0,2.6,0.3,3.7,0.8
	c1.1-0.6,2.4-0.9,4-0.9c0.8,0,1.6,0.1,2.2,0.4l0,0l-1.8,3.2h0c-0.1,0-0.5-0.1-0.9-0.1l-0.5,0c0.8,1.3,1.3,2.8,1.3,4.3
	c0,2.1-0.8,4-2.1,5.4c-1.5,1.6-3.6,2.4-6,2.4c-1.2,0-2.4-0.2-3.4-0.7c-0.4,0.3-0.6,0.7-0.6,1.2C134.3,49.2,136,49.5,138.8,49.5
	 M143.2,54.8c0-1.3-1-1.7-4.7-2l-0.6,0c-0.8-0.1-1.7-0.1-2.5-0.2c-0.7,0.5-1.5,1.3-1.5,2.5c0,1.7,1.5,2.5,4.6,2.5
	C141.3,57.5,143.2,56.4,143.2,54.8 M138.5,35.5c-2,0-4.1,1.7-4.1,4.4c0,2.7,1.6,4.5,3.9,4.5c1.2,0,4.1-0.5,4.1-4.8
	C142.4,37.6,141.1,35.5,138.5,35.5 M176,36v-3.6h-4.4v-5.2h-4v5.2h-2.1V36h2.1v9.5c0,3.8,2,5.6,6,5.6c1.1,0,1.9-0.1,2.3-0.3l0,0
	v-3.6l-0.1,0c-0.5,0.1-0.9,0.2-1.9,0.2c-1.7,0-2.4-0.9-2.4-3.2V36L176,36L176,36z M156.7,32.1c4.3,0,9.2,3.5,8.4,10.4h-13.4
	c0.3,3.7,2.5,5.3,5.1,5.3c2.9,0,4-1.7,4.5-2.8h3.8c-0.2,2.4-3.1,6.1-8.8,6.1c-5.2,0-8.8-4.2-8.8-9.3
	C147.7,34.5,152.9,32.1,156.7,32.1 M161.1,39.3c-0.2-1.9-1.6-3.9-4.2-3.9c-2.1,0-4.2,1-4.9,3.9H161.1z"/>
<path class="st0" d="M63,19.5c-10.5,0-19,8.5-19,19c0,10.5,8.5,19,19,19c10.5,0,19-8.5,19-19C82,28,73.5,19.5,63,19.5 M63,50.8
	c-6.8,0-12.3-5.5-12.3-12.3S56.2,26.1,63,26.1s12.3,5.5,12.3,12.3C75.3,45.3,69.8,50.8,63,50.8 M63,32.3c3.4,0,6.2,2.8,6.2,6.2
	c0,3.4-2.8,6.2-6.2,6.2c-3.4,0-6.2-2.8-6.2-6.2C56.8,35,59.6,32.3,63,32.3"/>
</svg>
