<?xml version="1.0" encoding="utf-8"?>
<!-- Generator: Adobe Illustrator 21.0.0, SVG Export Plug-In . SVG Version: 6.00 Build 0)  -->
<svg version="1.1" id="Layer_1" xmlns="http://www.w3.org/2000/svg" xmlns:xlink="http://www.w3.org/1999/xlink" x="0px" y="0px"
	 viewBox="0 0 220 80" style="enable-background:new 0 0 220 80;" xml:space="preserve">
<style type="text/css">
	.st0{fill:#666666;}
</style>
<g>
	<polygon class="st0" points="179,24 171.1,40.9 168.1,34.5 164.9,34.5 169.8,44.9 172.4,44.9 182.2,24 	"/>
	<path class="st0" d="M145.2,55.3h6.3V43.7c0-2.7,1.5-4.5,3.8-4.5c2.2,0,3.3,1.5,3.3,3.8v12.4h6.3V41.7c0-4.6-2.8-7.9-7.2-7.9
		c-2.9,0-4.9,1.2-6.3,3.5h-0.1v-2.9h-6.1L145.2,55.3L145.2,55.3z M132.7,33.9c-6.6,0-11.1,4.8-11.1,11c0,6.2,4.4,11,11.1,11
		c6.6,0,11.1-4.8,11.1-11C143.8,38.7,139.3,33.9,132.7,33.9z M132.6,51.3c-3,0-4.6-2.5-4.6-6.3c0-3.9,1.6-6.3,4.6-6.3
		c3,0,4.7,2.5,4.7,6.3C137.3,48.8,135.7,51.3,132.6,51.3z M103.5,55.3h17.8v-5h-10.1v-0.1l9.7-10.8v-4.9h-17.4v5h9.8v0.1l-9.8,10.9
		L103.5,55.3L103.5,55.3z M95.4,55.3h6.4V34.5h-6.4V55.3z M80.5,55.3h6.4v-9.6c0-4.3,2.6-6.3,6.6-5.7h0.1v-5.5
		c-0.3-0.1-0.7-0.2-1.3-0.2c-2.5,0-4.2,1.1-5.6,3.6h-0.1v-3.5h-6.1V55.3L80.5,55.3z M68.9,51.3c-2.8,0-4.5-1.8-4.9-4.6h15
		c0-4.5-1.1-8.1-3.6-10.3c-1.8-1.6-4.1-2.5-7-2.5c-6.3,0-10.6,4.8-10.6,11c0,6.3,4.2,11.1,11,11.1c2.6,0,4.7-0.7,6.4-1.9
		c1.8-1.3,3.1-3.1,3.5-4.9h-6.1C72,50.5,70.7,51.3,68.9,51.3z M68.5,38.4c2.2,0,3.8,1.7,4,4.1h-8.5C64.6,40.1,65.9,38.4,68.5,38.4z
		 M45.1,55.3h6.7L59,34.5h-6.4l-4.1,13.4h-0.1l-4.1-13.4h-6.6L45.1,55.3z M95.4,27.1h6.4v5.7h-6.4V27.1z"/>
</g>
</svg>
