<?xml version="1.0" encoding="utf-8"?>
<!-- Generator: Adobe Illustrator 21.0.0, SVG Export Plug-In . SVG Version: 6.00 Build 0)  -->
<svg version="1.1" id="Layer_1" xmlns="http://www.w3.org/2000/svg" xmlns:xlink="http://www.w3.org/1999/xlink" x="0px" y="0px"
	 viewBox="0 0 220 80" style="enable-background:new 0 0 220 80;" xml:space="preserve">
<style type="text/css">
	.st0{fill:#666666;}
</style>
<g id="layer1" transform="translate(-97.573684,-530.09168)">
	<g id="g3012" transform="matrix(1.25,0,0,-1.25,98.574014,792.20412)">
		<g id="g3014" transform="scale(0.1,0.1)">
			<path id="path3016" class="st0" d="M1330.1,1743.9c-5.4,0-9.8,4.7-9.8,10.4c0,5.8,4.4,10.4,9.8,10.4c5.4,0,9.9-4.7,9.9-10.4
				C1339.9,1748.6,1335.5,1743.9,1330.1,1743.9 M1330.1,1767.3c-6.7,0-12.2-5.8-12.2-13c0-7.2,5.5-13,12.2-13
				c6.8,0,12.3,5.8,12.3,13C1342.4,1761.6,1336.9,1767.3,1330.1,1767.3"/>
			<path id="path3018" class="st0" d="M1328,1752.3h0.8l0.8,0c0.5,0,1-0.1,1.2-0.2c0.5-0.2,0.8-0.5,1-1c0.1-0.3,0.2-0.9,0.2-1.6
				c0-0.8,0.1-1.4,0.2-1.9h3.4l-0.1,0.4c0,0.1-0.1,0.3-0.1,0.4c0,0.1,0,0.2,0,0.4v1.2c0,1.4-0.4,2.4-1.2,3c-0.4,0.4-1.1,0.6-2,0.8
				c0.9,0.1,1.7,0.4,2.4,0.9c0.7,0.5,1,1.3,1,2.5c0,1.5-0.6,2.6-1.8,3.2c-0.7,0.4-1.6,0.6-2.7,0.7c-0.2,0-1.1,0-2.8,0h-3.8v-13.5
				h3.6L1328,1752.3L1328,1752.3z M1331.4,1755.2c-0.5-0.3-1.1-0.5-2-0.5h-1.4v3.9h0.9c0.9,0,1.6-0.1,2.1-0.3
				c0.7-0.3,1.1-0.8,1.1-1.5C1332.1,1756.1,1331.9,1755.6,1331.4,1755.2"/>
			<path id="path3020" class="st0" d="M847.4,1696.5c8.1,0,10.1-8.1,9.7-12.7c-1.6-18.8-27-34.1-33.5-34.8
				C827.1,1687.9,838.5,1696.1,847.4,1696.5 M594,1692.4c-5.1-7.8-11.6-16.5-19.6-26c0.4,3.9,0.8,7.7,1.3,11.3
				c6.4,51.2,15.8,68.4,28.1,66.3c4-0.8,5.6-5.2,5.7-8.7C610.5,1724.1,605.8,1710.3,594,1692.4 M1289.1,1644.6
				c-6.2,9.4-11.9,19.5-16.8,29.7c-8.2-11.7-17.4-23.5-26.8-34.6C1258.6,1640,1273.6,1641.4,1289.1,1644.6 M1276.4,1721
				c5.1,9.8,8.4,18.2,8.8,24.6c0.5,3.8-0.2,10.2-5.5,10.2C1270.5,1755.8,1270.5,1740.9,1276.4,1721 M1114.9,1659.1
				c22.3,26.1,33.8,65.1,31.1,81.2c-0.6,3.4-1.8,5.9-5.1,5.5C1130.4,1744.5,1106.1,1697.2,1114.9,1659.1 M986,1625.1
				c-8.8,2.8-16.1,7.8-20.4,13.2c-0.3-0.3-0.6-0.5-0.9-0.7c0-0.4-0.1-0.8-0.2-1.2c-0.2-32.8,10.9-63,23.3-61.6
				C1000.8,1577.1,994.6,1605.2,986,1625.1 M966.5,1665.1c25.4,25.3,45.1,61.3,45,80.5c0,3.7-0.8,7-4.3,7
				C999.2,1752.6,973.3,1726.1,966.5,1665.1 M892.4,1640.1c-10.2-0.9-12.4-24.2-32.8-25.3c-13.9-0.8-20.3,16.6-20.3,16.6
				s39.3,18.2,39,57.5c-0.6,11.3-6.2,29.3-27,29.3c-9,0-18.9-5.8-24.8-12.2c2,10.6,3.9,24.3,4.8,42.8c0.6,12.1-7.8,13.2-11.1,13
				c-2.4-0.1-9.5-2-10.4-12.9c-3.2-36.4-3.7-41.8-6.6-65c-5.3-42.5-34.9-57.3-54.1-56.2c-8.2,0.5-21,4.9-21,27.4
				c0,24.1,15.1,42,23.1,40.9c5.6-0.8,8.6-6.7,3.5-15.3c-4.1-7.1-8.3-17,2.2-21c12.4-4.3,21.6,14,21.9,30.9
				c0,13.2-8.1,28.6-28.1,29.6c-21,1.1-46.2-28-46.2-67.1c0-3.3,0.2-6.3,0.6-9.2c-1.5-8.8-9-17.9-16.4-17.9c-8,0-14.8,12.1-14,27.5
				c0.9,15.9,5.7,26.5,7.7,32.9c4.2,13.2-0.8,15.8-6.6,17c-4.6,0.9-11.9-0.3-15.8-13.4c-3.5-11.9-8-28.1-12-40
				c-2.5-7.4-5.6-15.9-9.7-21.7c-3.6-4.1-7.6-6.9-11.3-6.9c-13-0.1-2,26.6-2,44.9c-0.1,5.2-4,14.6-17,12
				c14.3,21.7,21.6,40.3,21.1,59.2c-0.9,20.8-15.5,26.9-26.5,26.7c-29.5-0.6-45-34.8-50.6-114.9c-26.6-26.5-59-42.5-89.9-39.9
				c-43.7,3.7-66.2,49-63.3,103.2c4.1,76.1,61,168,115.2,162.3c19-2,32.1-19.7,30.1-58.1c-2.4-44.5-32.7-109.5-64.8-107.6
				c-14.8,0.9-19.4,16.9-18.3,31.1c2.4,30.7,17.2,39.1,18.2,51.5c0.6,7.3-6.5,10.5-11.7,8.8c-8.9-3-26.7-26.4-28.9-59.6
				c-2.6-40.6,22.7-53.3,37.7-54.2c44.4-2.6,87.8,63,91.5,132c2.3,44.6-16,73.5-50.9,77.4c-67.7,7.7-138.8-86.1-142.5-184.4
				c-2.2-58.8,24.7-120.3,87.3-124.9c29.9-2,61.2,10.4,88.6,32.8c-0.1-5,0-9.5,0-12.8c0.2-8.2,3-15.3,11.6-15.1
				c8.2,0.3,10.3,6.5,10.1,14c-0.1,4.3-0.1,8.6,0,12.7c1.8,35.8,18.7,41,25.5,39.7c9.4-2.1,1.9-11.2,2.9-36.8
				c0.7-18.4,14.9-23.3,21.5-23.3c15.5,0,28.9,11.8,36.8,29.4l0.3,0.2c6.8-18,18.4-24.5,27.7-24.5c10.9,0,21.1,8.4,27.6,17.7
				c8.8-11.6,21.7-16.7,31.4-17.2c19.6-0.9,36.2,8.5,48.7,21.1c-1.5-10-3.2-23.3-3.2-25.5c0-5.9,2.6-10.1,8.1-10.7
				c9.1-1.1,15.7,5.4,18.6,36.9c0,0,12.9-31.1,41.4-31.1c28.6,0,41,28.9,41,37.8C900.2,1634.6,899.3,1640.7,892.4,1640.1
				 M617.4,1806.7c0,9.2-23.9,26.7-40.8,28.4c0.2-5,0.2-10.1-0.1-15.5c-0.7-12.6-2.5-25.3-5.3-37.8
				C602.2,1804.6,617.4,1798.3,617.4,1806.7 M1352.2,1594.1c-16.8,0.9-34.3,14-49.8,32.6c-27.4-6.6-55.6-7.9-75.2-7.8
				c-16.3-17.7-31.8-32.4-43-40.8c0,0-15-12-22.3-1.8c-4.3,6.8-2.1,14.2,9.6,22c7.3,4.9,16.5,12.8,26.4,22.5
				c-16.8,4.8-12.7,23.3,3.8,21.1c1.2-0.2,6.6-1,15-1.6c16.3,17.9,32.8,38.5,45.5,57.4c-6,16.6-9.5,32.3-9.5,44.6
				c0,16.2,8.8,34.5,26.6,34.5c17.2,0,26.1-15.2,26.1-30.9c0-13.3-7.7-31.4-19.5-50.9c6.7-15.2,15.5-31,25.3-44.5
				c10.6,3.6,21,8.4,30.7,14.6c13.2,8.3,24.5-7.7,10.7-18c-8.3-5.5-17.5-10-27.2-13.6c10.1-10.4,20.8-17.3,31.1-18.3
				C1374.2,1613.8,1374.9,1592.2,1352.2,1594.1 M1180.4,1642.3c-2.1-8.6-12.7-33.3-39.8-33.9h-0.6c-12.6-0.2-24.9,6.2-33.9,18
				c-12.7-8.5-25-12.6-33.8-11.2c-19.1,3.1-24.8,19-26.5,29.4c-11-13.7-25.5-20.2-39.5-21.6c5-10.3,7.5-22.7,7.5-34.2
				c0-17.8-9.8-36-27.4-36c-24.7,0-39.5,36.8-41.5,72.5c-4.2-1.7-11.2-3-14.4,4.2c-3.9,8.6,5.8,16.5,14,21.4
				c1.4,71.3,30.9,121.8,62.8,121.8c10.7,0,23.6-6.9,23.6-27.6c0-21.7-12.2-49.5-31.8-74.4c-2.7-3.4-8.9-10-15.8-16.7
				c27.9-20.9,44.8,1.6,51.7,15.4c1.7,3.7,3,7.4,4.1,10.6c4,11.9,2.8,9.1,6.5,20.9c5.3,16.8,13.9,16.1,17.8,15.4
				c13.9-2.4,5.6-18.7,2.2-33l-0.2-0.3c-5.2-24.4-2.8-43.7,11.6-46.7c4.6-0.7,12.5,2.1,20.6,8.2c-19,52,10,113.6,40,119.5
				c10,2,23.2-1.9,26.5-20.6c3.4-19.7-3.5-47.1-17.8-73.2c-3.2-5.9-12.6-19.2-23.7-29.4c0.1-0.1,0.1-0.2,0.1-0.2
				c8.4-11.7,19-11.4,19-11.4c15.7,0.1,20.5,12.9,22.4,18.1c2.2,6.1,6.8,8.1,11.6,6.4C1181,1652.2,1181.4,1646.4,1180.4,1642.3
				 M1068.7,1750.6c-6.7,0-12.1-5.7-12.1-12.8c0-7.1,5.4-12.8,12.1-12.8c6.7,0,12.1,5.7,12.1,12.8
				C1080.8,1744.9,1075.4,1750.6,1068.7,1750.6 M1204.8,1670.3c15.4,0,21.4,6.4,21.4,12.9c0,8.4-9.5,12.5-21.4,12.4
				c-12.1-0.1-20.7-4.9-20.7-12.5C1184.1,1676.9,1189.4,1670.3,1204.8,1670.3 M911.4,1670.3c15.5,0,21.5,6.4,21.5,13
				c0,8.5-9.6,12.5-21.5,12.4c-12.2-0.1-20.8-4.9-20.8-12.5C890.6,1676.9,895.9,1670.3,911.4,1670.3 M682,1737.8
				c-7,0-12.7-6-12.7-13.5c0-7.4,5.7-13.4,12.7-13.4c7,0,12.7,6,12.7,13.4C694.7,1731.8,689,1737.8,682,1737.8 M416.2,1925.2
				c-5.8-7.2-4-18.9,6.5-28.4c10.5-9.5,25-12.6,30.8-5.4c5.8,7.2,0.6,21.9-9.8,31.4C433.2,1932.3,422,1932.4,416.2,1925.2
				 M457.6,1976.6c-11.3-5.5-15.3-21.8-7-40.9c8.3-19.2,25.2-32.7,36.4-27.3c11.3,5.5,12.6,27.9,4.3,47.1
				C483.1,1974.6,468.9,1982,457.6,1976.6 M543.4,2000.3c-15,3.5-30.3-9.4-35.5-34.8c-5.2-25.3,2-51.9,17-55.4
				c14.9-3.4,32,17.6,37.2,42.9C567.3,1978.4,558.3,1996.9,543.4,2000.3 M651.4,1959.2c-11.4,16.3-36.1,17.3-61.1-2.4
				c-25-19.7-39.2-51.3-27.8-67.6c11.4-16.3,44.2-11,69.2,8.7C656.7,1917.5,662.8,1942.9,651.4,1959.2 M531,1833.1
				c-0.3-13.2-15.5-29.3-22.8-16.9c-4,9.5,6,26.8,15.2,27.1C530.9,1843.3,531,1836.2,531,1833.1"/>
		</g>
	</g>
</g>
</svg>
