<?xml version="1.0" encoding="utf-8"?>
<!-- Generator: Adobe Illustrator 21.0.0, SVG Export Plug-In . SVG Version: 6.00 Build 0)  -->
<svg version="1.1" id="Layer_1" xmlns="http://www.w3.org/2000/svg" xmlns:xlink="http://www.w3.org/1999/xlink" x="0px" y="0px"
	 viewBox="0 0 220 80" style="enable-background:new 0 0 220 80;" xml:space="preserve">
<style type="text/css">
	.st0{fill:#666666;}
</style>
<g>
	<path class="st0" d="M100.1,41.2c0,6.5-5.1,11.2-11.3,11.2s-11.3-4.8-11.3-11.2c0-6.5,5.1-11.2,11.3-11.2S100.1,34.7,100.1,41.2z
		 M95.2,41.2c0-4-2.9-6.8-6.3-6.8c-3.4,0-6.3,2.8-6.3,6.8c0,4,2.9,6.8,6.3,6.8C92.3,48,95.2,45.2,95.2,41.2z"/>
	<path class="st0" d="M124.5,41.2c0,6.5-5.1,11.2-11.3,11.2c-6.2,0-11.3-4.8-11.3-11.2c0-6.5,5.1-11.2,11.3-11.2
		C119.4,29.9,124.5,34.7,124.5,41.2z M119.5,41.2c0-4-2.9-6.8-6.3-6.8c-3.4,0-6.3,2.8-6.3,6.8c0,4,2.9,6.8,6.3,6.8
		C116.6,48,119.5,45.2,119.5,41.2z"/>
	<path class="st0" d="M147.8,30.6v20.2c0,8.3-4.9,11.7-10.7,11.7c-5.5,0-8.7-3.6-10-6.6l4.3-1.8c0.8,1.8,2.6,4,5.7,4
		c3.7,0,6-2.3,6-6.6v-1.6h-0.2c-1.1,1.4-3.2,2.6-5.9,2.6c-5.6,0-10.8-4.9-10.8-11.2c0-6.3,5.2-11.3,10.8-11.3c2.7,0,4.8,1.2,5.9,2.5
		h0.2v-1.8L147.8,30.6L147.8,30.6z M143.5,41.2c0-4-2.6-6.9-6-6.9c-3.4,0-6.3,2.9-6.3,6.9c0,3.9,2.9,6.8,6.3,6.8
		C140.8,48,143.5,45.1,143.5,41.2z"/>
	<path class="st0" d="M155.5,18.8v33h-4.8v-33H155.5z"/>
	<path class="st0" d="M174.3,44.9l3.8,2.6c-1.2,1.8-4.2,5-9.4,5c-6.4,0-11.2-4.9-11.2-11.2c0-6.7,4.8-11.2,10.6-11.2
		c5.8,0,8.7,4.6,9.6,7.2l0.5,1.3l-15,6.2c1.2,2.3,2.9,3.4,5.5,3.4C171.3,48,173,46.8,174.3,44.9L174.3,44.9z M162.5,40.8l10-4.2
		c-0.6-1.4-2.2-2.4-4.2-2.4C165.9,34.3,162.4,36.5,162.5,40.8z"/>
	<path class="st0" d="M59.4,38.3v-4.8h16.1c0.2,0.8,0.2,1.8,0.2,2.9c0,3.6-1,8-4.1,11.2c-3.1,3.2-7,4.9-12.2,4.9
		c-9.6,0-17.7-7.8-17.7-17.5s8.1-17.5,17.7-17.5c5.3,0,9.1,2.1,12,4.8L68,25.7c-2-1.9-4.8-3.4-8.6-3.4c-7,0-12.5,5.7-12.5,12.7
		s5.5,12.7,12.5,12.7c4.6,0,7.2-1.8,8.8-3.5c1.3-1.3,2.2-3.3,2.6-5.9L59.4,38.3z"/>
</g>
</svg>
