<?xml version="1.0" encoding="utf-8"?>
<!-- Generator: Adobe Illustrator 21.0.0, SVG Export Plug-In . SVG Version: 6.00 Build 0)  -->
<svg version="1.1" id="Layer_1" xmlns="http://www.w3.org/2000/svg" xmlns:xlink="http://www.w3.org/1999/xlink" x="0px" y="0px"
	 viewBox="0 0 220 80" style="enable-background:new 0 0 220 80;" xml:space="preserve">
<style type="text/css">
	.st0{fill:#888888;}
	.st1{fill:#666666;}
</style>
<g>
	<path class="st0" d="M158.9,11.3c-1.8,0-3.3,1.5-3.3,3.3c0,1.8,1.5,3.3,3.3,3.3c1.8,0,3.3-1.5,3.3-3.3
		C162.2,12.8,160.7,11.3,158.9,11.3 M156.8,18.2C156.8,18.2,156.8,18.2,156.8,18.2L156.8,18.2L156.8,18.2z M156.8,18.2
		C156.8,18.2,156.8,18.2,156.8,18.2C156.8,18.2,156.8,18.2,156.8,18.2L156.8,18.2z M157.6,18.5c-0.1,0-0.2-0.1-0.3-0.1c0,0,0,0,0,0
		c-0.1-0.1-0.3-0.1-0.4-0.2c0,0,0,0,0,0c-0.4-0.2-0.8-0.3-1.2-0.3c-0.1,0-0.2,0-0.3,0l0,0c0,0,0,0,0,0c-0.5,0-1,0-1.4,0
		c-0.5,0.1-0.9,0.2-1.3,0.4c-0.1,0-7.9,3-7.1,15c-0.6,0.2-1.3,0.3-2,0.4c-7.6,1.4-14.6-0.2-17.3-3.7c2.5,10.5,15.5,9.5,19.2,9l1-0.2
		c0,0,1.9,8.5-3.1,12l0,0c-0.9,0.6-2,0.9-3.1,0.9c-0.3,0-0.5,0-0.8,0l0,0c-0.3,0-0.5-0.1-0.8-0.2c11.1,3.7,13.7-5.2,13.7-5.2
		c0.4-1.1,0.7-2.5,0.7-4.2c0-2-0.5-4.5-0.5-4.5c4.2-2.1,6.2-5,7.1-6.8l0-0.1c0,0,0-0.1,0.1-0.1c0,0,0-0.1,0.1-0.1
		C162.2,25.8,161.2,20.4,157.6,18.5 M151.5,31.1c-0.2-1.1-0.1-2.5,0.3-3.9c0.9-3.4,3.1-5.7,5-5.2c0.8,0.2,1.4,0.9,1.8,1.9
		C157.8,26.5,155.2,29.1,151.5,31.1"/>
	<path class="st0" d="M158.9,11.3c-1.8,0-3.3,1.5-3.3,3.3c0,1.8,1.5,3.3,3.3,3.3c1.8,0,3.3-1.5,3.3-3.3
		C162.2,12.8,160.7,11.3,158.9,11.3"/>
	<path class="st0" d="M151.7,27.1c0.9-3.4,3.1-5.7,5-5.2c0.8,0.2,1.4,0.9,1.8,1.9v0c0.1-0.4,0.2-0.8,0.2-1.2c0-0.4,0-0.8-0.1-1.2
		l0-0.1c-0.3-1.2-0.9-2.2-1.9-2.8c-0.4-0.3-0.9-0.5-1.5-0.7c-0.5,0-1,0-1.4,0c-0.5,0.1-0.9,0.2-1.3,0.4c-0.1,0-7.9,3-7.1,15
		c2.2-0.5,4.2-1.3,6-2.2C151.3,29.9,151.4,28.5,151.7,27.1"/>
	<path class="st0" d="M157.6,18.5c-0.1,0-0.2-0.1-0.3-0.1c0,0,0,0,0,0c-0.1-0.1-0.3-0.1-0.4-0.2l0,0l0,0c0,0,0,0,0,0
		c-0.4-0.2-0.8-0.3-1.2-0.3c-0.1,0-0.2,0-0.3,0l0,0c0,0,0,0,0,0c0.5,0.1,1,0.3,1.5,0.7c1,0.7,1.6,1.7,1.9,2.8l0,0.1
		c0.1,0.4,0.1,0.8,0.1,1.2c0,0.4-0.1,0.8-0.2,1.2c-0.7,2.7-3.3,5.3-7,7.2c-1.8,0.9-3.8,1.7-6,2.2c-0.6,0.2-1.3,0.3-2,0.4
		c-7.6,1.4-14.6-0.2-17.3-3.7c2.5,10.5,15.5,9.5,19.2,9l1-0.2c0,0,1.9,8.5-3.1,12l0,0c-0.9,0.6-2,0.9-3.1,0.9c-0.3,0-0.5,0-0.8,0
		l0,0c-0.3,0-0.5-0.1-0.8-0.2c11.1,3.7,13.7-5.2,13.7-5.2c0.4-1.1,0.7-2.5,0.7-4.2c0-2-0.5-4.5-0.5-4.5c4.2-2.1,6.2-5,7.1-6.8l0-0.1
		c0,0,0-0.1,0.1-0.1c0,0,0-0.1,0.1-0.1C162.2,25.8,161.2,20.4,157.6,18.5"/>
	<g>
		<path class="st1" d="M80.8,40.4c-3.8,0-6.4,3-6.4,7.4c0,3.4,1.9,5.4,5.1,5.4c3.8,0,6.3-3,6.3-7.5C85.9,42.4,84,40.4,80.8,40.4
			 M82.3,49.5c-0.6,1.3-1.4,2-2.6,2c-1.6,0-2.4-1-2.4-3.2c0-1.4,0.3-3.1,0.8-4.3c0.5-1.3,1.4-2,2.6-2c1.6,0,2.4,1,2.4,3.1
			C83.1,46.7,82.8,48.3,82.3,49.5"/>
		<path class="st1" d="M113.6,53.2c1.1,0,2.1-0.2,3.8-0.8l0.2-1.5c-1,0.2-2.1,0.4-3,0.4c-2.1,0-3.1-1.1-3.1-3.3c0-0.3,0-0.3,0-0.5
			h0.9c4.6,0,6.8-1.3,6.8-4.1c0-1.9-1.3-2.9-3.7-2.9c-4.1,0-6.9,3.2-6.9,7.7C108.6,51.4,110.4,53.2,113.6,53.2 M115,42.1
			c1,0,1.5,0.5,1.5,1.4c0,1.7-1.5,2.5-4.5,2.5h-0.4C112,43.6,113.2,42.1,115,42.1"/>
		<path class="st1" d="M129.5,44.1c0,0.3,0,0.7-0.1,1.1l-1.2,7.8h2.8l1.2-7.7c0.1-0.7,0.1-1.3,0.1-1.9c0-1.8-1.2-2.7-3.2-3
			c-1.5-0.2-3.5,0.2-5.3,0.9l-1.3,0.6l-1.7,11h2.8l1.6-10.3c1-0.4,1.8-0.5,2.7-0.5C129.1,42.3,129.5,43.1,129.5,44.1"/>
		<polygon class="st1" points="69,46.1 74.6,40.7 71.5,40.7 66.3,46.2 69.5,53 72.5,53 		"/>
		<path class="st1" d="M64,40.4c0,0.1-0.5,2.9-0.7,4.1c-0.4,2.7-0.8,5-0.8,5.2c0,0.2-0.1,0.5-0.1,0.8L62,53h2.8l1.2-7.7
			c0-0.3,0.1-0.5,0.1-0.8l0.7-4.1H64z"/>
		<path class="st1" d="M101.7,42.3c1.4,0,1.7,0.9,1.7,1.9c0,0.3,0,0.7-0.1,1.1l-1.2,7.8h2.8l1.2-7.7c0.1-0.7,0.1-1.3,0.1-1.9
			c0-1.8-1.2-2.7-3.2-3c-1.3-0.2-3.2,0.1-4.8,0.8c-0.6-0.4-1.3-0.7-2.2-0.8c-1.5-0.2-3.5,0.2-5.3,0.9L89.4,42l-1.7,11h2.8L92,42.7
			c1-0.4,1.8-0.5,2.7-0.5c0.9,0,1.4,0.4,1.6,1c0.1,0.3,0.1,0.6,0.1,0.9c0,0.3,0,0.7-0.1,1.1L95.1,53h2.8l1.2-7.7
			c0.1-0.7,0.1-1.3,0.1-1.9c0-0.3,0-0.5-0.1-0.7C100.1,42.4,100.9,42.2,101.7,42.3"/>
		<path class="st1" d="M101.7,63.1c0,3.3,1.7,5.2,4.7,5.2c0.9,0,1.9-0.2,3.6-0.8l0.2-1.5c-0.9,0.2-1.8,0.3-2.5,0.3
			c-2.2,0-3.2-1.1-3.2-3.5c0-3.4,1.7-5.4,4.5-5.4c0.7,0,1.6,0.1,2.5,0.4l0.3-1.6c-1.4-0.5-2.1-0.7-3.1-0.7
			C104.5,55.6,101.7,58.6,101.7,63.1"/>
		<path class="st1" d="M141.9,55.6c-4.1,0-6.9,3.2-6.9,7.7c0,3.3,1.8,5,5,5c1.1,0,2.1-0.2,3.8-0.8l0.2-1.5c-1,0.2-2.1,0.4-3,0.4
			c-2.1,0-3.1-1.1-3.1-3.3c0-0.3,0-0.3,0-0.5h0.9c4.6,0,6.8-1.3,6.8-4.1C145.5,56.7,144.2,55.6,141.9,55.6 M138.4,61.1H138
			c0.3-2.4,1.5-3.9,3.3-3.9c1,0,1.5,0.5,1.5,1.4C142.8,60.3,141.3,61.1,138.4,61.1"/>
		<path class="st1" d="M120.4,66.4c-1,0.4-1.8,0.5-2.7,0.5c-1.4,0-1.7-0.9-1.7-1.9c0-0.3,0-0.7,0.1-1.1l1.2-7.8h-2.8l-1.2,7.7
			c-0.1,0.7-0.1,1.3-0.1,1.9c0,1.8,1.2,2.7,3.2,3c1.5,0.2,3.5-0.2,5.3-0.9l1.3-0.6l1.7-11H122L120.4,66.4z"/>
		<path class="st1" d="M134.4,55.8C134.4,55.8,134.3,55.8,134.4,55.8c-0.3,0-0.5,0-0.8,0c-0.3,0-0.6,0-0.8,0
			c-0.9,0.1-1.7,0.3-2.4,0.7c-1.8,0.9-3,2.6-3.4,4.8l-0.1,0.7l-1,6.3h2.8l0.1-0.6l0.5-3.2l0.4-2.5c0-0.1,0-0.3,0.1-0.4
			c0.2-0.9,0.5-1.7,1-2.4c0.2-0.2,0.3-0.4,0.5-0.5c0.4-0.3,0.9-0.5,1.5-0.5c0,0,0.1,0,0.1,0c0,0,0,0,0,0c0.6,0,1.1,0.1,1.6,0.3
			l0.1-0.7l0.3-1.6h0l0-0.1C134.7,55.8,134.6,55.8,134.4,55.8"/>
		<polygon class="st1" points="74.5,56.1 74.4,56.1 74.4,56.2 73.9,59.9 73.9,60 74.1,60 74.6,60 74.7,60 74.7,59.9 74.9,58.4 
			76.6,58.4 76.7,58.4 76.7,58.3 76.8,57.8 76.8,57.7 76.7,57.7 74.9,57.7 75,56.8 77,56.8 77.2,56.8 77.2,56.7 77.2,56.3 
			77.2,56.1 77.1,56.1 		"/>
		<path class="st1" d="M79.7,56.1c-1.2,0-1.9,0.7-2,2c-0.1,0.7,0,1.2,0.3,1.6c0.3,0.3,0.7,0.5,1.2,0.5c1.2,0,1.9-0.7,2-2
			c0.1-0.7,0-1.2-0.3-1.6C80.7,56.2,80.3,56.1,79.7,56.1 M80.6,58.1c-0.1,1-0.5,1.4-1.2,1.4c-0.3,0-0.6-0.1-0.7-0.2
			c-0.2-0.2-0.2-0.5-0.2-1.1c0.1-1,0.5-1.4,1.2-1.4c0.3,0,0.6,0.1,0.7,0.3C80.6,57.2,80.6,57.5,80.6,58.1"/>
		<path class="st1" d="M84.1,56.1h-1.6h-0.1l0,0.1L82,59.9l0,0.1h0.1h0.5h0.1l0-0.1l0.2-1.3h0.9l0.6,1.4l0,0.1h0.1H85h0.2l-0.1-0.2
			l-0.6-1.4c0.4-0.2,0.7-0.5,0.8-1.1c0-0.4,0-0.7-0.2-0.9C84.9,56.3,84.6,56.1,84.1,56.1 M83.1,56.8H84c0.2,0,0.4,0,0.5,0.1
			c0.1,0.1,0.1,0.2,0.1,0.4c0,0.3-0.1,0.5-0.7,0.5h-0.9L83.1,56.8z"/>
		<polygon class="st1" points="87.6,56.1 87.5,56.1 87.5,56.2 87.5,56.7 87.4,56.8 87.6,56.8 88.7,56.8 88.3,59.9 88.3,60 88.4,60 
			88.9,60 89.1,60 89.1,59.9 89.4,56.8 90.5,56.8 90.7,56.8 90.7,56.7 90.7,56.3 90.7,56.1 90.6,56.1 		"/>
		<polygon class="st1" points="94.2,56.1 94.1,56.1 94.1,56.2 93.9,57.7 92.1,57.7 92.2,56.3 92.2,56.1 92.1,56.1 91.6,56.1 
			91.5,56.1 91.5,56.2 91.1,59.9 91,60 91.2,60 91.7,60 91.8,60 91.8,59.9 92,58.4 93.8,58.4 93.6,59.9 93.6,60 93.8,60 94.2,60 
			94.4,60 94.4,59.9 94.8,56.3 94.8,56.1 94.7,56.1 		"/>
		<polygon class="st1" points="98.6,56.1 95.9,56.1 95.8,56.1 95.8,56.2 95.4,59.9 95.3,60 95.5,60 98.1,60 98.3,60 98.3,59.9 
			98.3,59.5 98.3,59.3 98.2,59.3 96.2,59.3 96.3,58.4 98.1,58.4 98.2,58.4 98.2,58.3 98.3,57.8 98.3,57.7 98.1,57.7 96.4,57.7 
			96.5,56.8 98.5,56.8 98.7,56.8 98.7,56.7 98.7,56.3 98.7,56.1 		"/>
		<path class="st1" d="M92.3,31.9c0,0.2,0,0.4-0.1,0.7l-0.7,4.7h1.7l0.7-4.7c0.1-0.4,0.1-0.8,0.1-1.1c0-1.1-0.8-1.6-1.9-1.8
			c-0.9-0.1-2.1,0.1-3.2,0.6l-0.8,0.3L87,37.3h1.7l1-6.2c0.6-0.2,1.1-0.3,1.6-0.3C92.1,30.8,92.3,31.3,92.3,31.9"/>
		<path class="st1" d="M69.2,35.9c-0.6,0.2-1.1,0.3-1.6,0.3c-0.8,0-1-0.5-1-1.1c0-0.2,0-0.4,0.1-0.7l0.7-4.7h-1.7l-0.7,4.7
			c-0.1,0.4-0.1,0.8-0.1,1.1c0,1.1,0.8,1.6,2,1.8c0.9,0.1,2.1-0.1,3.2-0.6l0.8-0.3l1.1-6.7h-1.7L69.2,35.9z"/>
		<path class="st1" d="M63.4,30.9c-0.7-0.2-1.2-0.3-1.8-0.3c-0.9,0-1.4,0.3-1.4,0.9c0,0.4,0.1,0.5,0.7,0.9l0.8,0.6
			c0.8,0.6,1.1,1.1,1.1,1.9c0,1.5-1.1,2.4-2.9,2.4c-0.6,0-1.1-0.1-2.2-0.5l0.1-0.9c0.8,0.2,1.4,0.3,2,0.3c0.9,0,1.4-0.4,1.4-1
			c0-0.4-0.2-0.6-0.6-0.9l-0.8-0.6c-0.9-0.6-1.2-1.1-1.2-1.9c0-1.4,1-2.2,2.8-2.2c0.6,0,1,0.1,2.1,0.4L63.4,30.9z"/>
		<path class="st1" d="M77.9,30.9c-0.7-0.2-1.2-0.3-1.8-0.3c-0.9,0-1.3,0.3-1.3,0.9c0,0.4,0.1,0.5,0.7,0.9l0.8,0.6
			c0.8,0.6,1.1,1.1,1.1,1.9c0,1.5-1.1,2.4-2.9,2.4c-0.6,0-1.1-0.1-2.2-0.5l0.1-0.9c0.8,0.2,1.4,0.3,2,0.3c0.9,0,1.4-0.4,1.4-1
			c0-0.4-0.2-0.6-0.6-0.9l-0.8-0.6c-0.9-0.6-1.2-1.1-1.2-1.9c0-1.4,1-2.2,2.8-2.2c0.6,0,1,0.1,2.1,0.4L77.9,30.9z"/>
		<path class="st1" d="M84.7,37.2H83l0.1-0.6c-0.1,0-0.1,0.1-0.2,0.1c-0.9,0.5-1.3,0.7-1.8,0.7c-1.4,0-2.2-1.1-2.2-3
			c0-2.8,1.7-4.8,4-4.8c1.5,0,2.8,1,2.8,1L84.7,37.2z M83.3,30.7c-1.7,0-2.7,1.3-2.7,3.6c0,1.1,0.4,1.7,1.3,1.7
			c0.4,0,0.8-0.1,1.3-0.3L84,31C83.9,30.8,83.5,30.7,83.3,30.7"/>
		<path class="st1" d="M102.8,29.6c-2.7,0-4.3,1.7-4.3,4.7c0,2,1.1,3.1,3,3.1c0.6,0,1.3-0.1,2.2-0.4l0.1,0l0-0.1l0.5-3l0-0.2h-0.2
			h-1.1h-0.1l0,0.1l-0.4,2.4c-0.2,0-0.4,0.1-0.6,0.1c-1.3,0-1.8-0.5-1.8-1.9c0-2.2,1-3.5,2.9-3.5c0.5,0,1.1,0.1,1.5,0.2l0.2,0l0-0.2
			l0.1-0.7l0-0.1l-0.1,0C103.8,29.6,103.3,29.6,102.8,29.6"/>
		<path class="st1" d="M105.9,35.5c-0.6,0-1,0.4-1,1c0,0.4,0.1,0.8,0.8,0.8c0.6,0,1-0.4,1-1C106.7,35.9,106.6,35.5,105.9,35.5"/>
		<path class="st1" d="M147.4,64.8c0.9,0,1.7,0.3,1.7,1.7c0,1.4-0.8,1.7-1.7,1.7c-0.9,0-1.7-0.3-1.7-1.7
			C145.7,65.1,146.5,64.8,147.4,64.8 M147.4,65.2c-0.8,0-1.3,0.2-1.3,1.3c0,1.1,0.5,1.3,1.3,1.3c0.8,0,1.3-0.2,1.3-1.3
			C148.7,65.4,148.2,65.2,147.4,65.2 M147.4,66.8l0.4,0.7h0.5l-0.4-0.7c0.2-0.1,0.3-0.3,0.3-0.5c0-0.3-0.2-0.6-0.6-0.6h-0.8v1.8h0.4
			v-0.7H147.4z M147.7,66.2c0,0.1,0,0.2-0.2,0.2h-0.4V66h0.4C147.7,66,147.7,66,147.7,66.2"/>
	</g>
</g>
</svg>
