<svg id="Layer_1" data-name="Layer 1" xmlns="http://www.w3.org/2000/svg" viewBox="0 0 91.9 62.85"><defs><style>.cls-1{fill:#666;}</style></defs><title>wholefoods</title><g id="g2993"><path id="path3" class="cls-1" d="M105.6,15c.41,0,.67-.42.93-1.06a4.72,4.72,0,0,1,4.07-2.27,7.79,7.79,0,0,1,4.56,2.08c1.23,1,2.24,1.06,2.24,1.51,0,.15-.26.26-.56.26-1.23,0-3.4-1.85-5.71-1.85-2.62,0-4.74,2.27-4.74,3.55,0,.38.15.68.64.68s1.2-1.36,2.65-1.36,2.47,1.28,4.33,1c.22,0,.3.3.15.38-3.73,2.11-7.69,4.12-7.69,10.8,0,5.14,2.88,10.09,9.22,10.09,6.61,0,9.79-4.31,9.79-10.09,0-5-3-9.59-7.1-9.59a1.85,1.85,0,0,0-.45,0,.65.65,0,0,0-.49.64.71.71,0,0,0,.37.72c2.62,1.85,3.51,3.67,3.51,8.69,0,3.55-1.46,7.49-5.12,7.49-4,0-5.64-4.25-5.64-8.06,0-4.42,1.12-6.5,3.89-8.58,3-2.27,6.54-3.33,6.54-5.4,0-1-1.08-1.21-1.79-1.25a2.64,2.64,0,0,1-2-.91c-1.83-1.93-4-3.93-6.5-3.93-3.62,0-5.75,3.85-5.75,5.29,0,.57.11,1.09.64,1.09Z" transform="translate(-64.05 -8.57)"/><path id="path5" class="cls-1" d="M141.76,20.63h.57a.54.54,0,0,1,.46.43,2.81,2.81,0,0,1,.11,1.13V35.12a2.87,2.87,0,0,1-.11,1.15.52.52,0,0,1-.46.38h-.57a.75.75,0,0,0-.71.78c0,.64.32.84,1.29.84h11.21l.55,0c.45,0,.6-.14.8-.64l.83-1.94a2.37,2.37,0,0,0,.23-.81.68.68,0,0,0-.74-.69c-.37,0-.51.11-.86.63a2.78,2.78,0,0,1-1.78,1.39,16.93,16.93,0,0,1-2.66.12,7.61,7.61,0,0,1-2.46-.2c-.46-.17-.54-.49-.54-2V29.51c0-.64.09-.93.26-1s.34-.11,1.17-.11h2.23c.74,0,1.11-.35,1.11-1s-.28-1-1.11-1h-3.66v-3.7c0-1.53.17-1.73,1.74-1.73h1.92c1.8,0,2.34.2,2.92,1a4.37,4.37,0,0,1,.34.49,1.32,1.32,0,0,0,.4.29.56.56,0,0,0,.31.09.74.74,0,0,0,.78-.67,2,2,0,0,0-.14-.49l-.83-2.14c-.17-.44-.4-.58-1-.58h-11c-1,0-1.32.2-1.32.84a.8.8,0,0,0,.74.81Z" transform="translate(-64.05 -8.57)"/><path id="path7" class="cls-1" d="M126.46,20.63H127a.52.52,0,0,1,.48.38,2.68,2.68,0,0,1,.12,1.13V35.21a2.42,2.42,0,0,1-.12,1.07.55.55,0,0,1-.48.38h-.55a.74.74,0,0,0-.71.78c0,.64.31.84,1.26.84h11c.88,0,1.11-.14,1.4-.87l.89-2.2.12-.32a.78.78,0,0,0,.09-.35.72.72,0,0,0-.77-.64c-.34,0-.52.12-.86.61-.69,1-1.06,1.36-1.54,1.56a6.27,6.27,0,0,1-2.52.2c-2,0-2.52,0-2.8-.23s-.4-.49-.4-1.77V22.13A3,3,0,0,1,131.7,21a.64.64,0,0,1,.6-.38h.63a.78.78,0,0,0,.74-.81c0-.64-.34-.84-1.37-.84H127c-1,0-1.32.2-1.32.84a.78.78,0,0,0,.77.81Z" transform="translate(-64.05 -8.57)"/><path id="path9" class="cls-1" d="M121.83,56.87c0,.66-.09.72-1,.87a.77.77,0,0,0-.77.78.84.84,0,0,0,.34.64c1,.78,4.4,1.45,7.38,1.45,3.18,0,5.38-.64,7.07-2,2.12-1.71,3.29-4.6,3.29-8.1a10.44,10.44,0,0,0-2.6-7.46c-1.74-1.79-4.09-2.58-7.52-2.58-3.23,0-6.58.61-7.58,1.39a.89.89,0,0,0-.37.69c0,.44.31.72.86.75.77.06.86.17.89.93l0,.64V56.24l0,.64Zm4-11.63c0-1.65.06-2,.43-2.28a3.65,3.65,0,0,1,2.15-.58c3.4,0,5.43,3,5.43,8.1s-2,8-5.55,8a2.91,2.91,0,0,1-2.26-.72c-.17-.29-.2-.52-.2-1.68V45.24Z" transform="translate(-64.05 -8.57)"/><path id="path11" class="cls-1" d="M140.45,48.16c.89,1,1.14,1.21,3.86,3.12a17.64,17.64,0,0,1,3,2.49,3.24,3.24,0,0,1,.91,2.17c0,1.53-1.26,2.57-3.12,2.57a5.28,5.28,0,0,1-4.23-2.28l-.4-.58a.9.9,0,0,0-.72-.38.88.88,0,0,0-.91.9,2.12,2.12,0,0,0,.08.58l.71,2.89c.17.7.4,1,.89,1a.92.92,0,0,0,.66-.26c.26-.23.37-.29.6-.29a2.11,2.11,0,0,1,.63.14,10.61,10.61,0,0,0,3,.41c3.78,0,6.23-2.2,6.23-5.55a5.74,5.74,0,0,0-1.54-3.93A23.44,23.44,0,0,0,146.23,48c-.6-.43-1.06-.75-1.4-1a5.69,5.69,0,0,1-1.31-1.33,2,2,0,0,1-.32-1.19,1.93,1.93,0,0,1,2.17-1.94,4.39,4.39,0,0,1,2.69.93A4.76,4.76,0,0,1,149.43,45c.26.38.43.49.74.49a.76.76,0,0,0,.83-.69,1.14,1.14,0,0,0-.06-.4l-.69-3.12c-.12-.52-.37-.81-.8-.81a.83.83,0,0,0-.6.23,1.19,1.19,0,0,1-.66.26,2.18,2.18,0,0,1-.4-.06l-.72-.17a12.09,12.09,0,0,0-2.46-.26c-3.14,0-5.26,1.85-5.26,4.66a4.59,4.59,0,0,0,1.09,3Z" transform="translate(-64.05 -8.57)"/><path id="path13" class="cls-1" d="M77.05,42.84c3,0,3.32.12,4.12,1.33.29.43.48.61.8.61a.71.71,0,0,0,.74-.69,1.3,1.3,0,0,0-.11-.46l-.74-2A1.25,1.25,0,0,0,81.4,41c-.14-.09-.23-.12-.69-.12H70.22c-.94,0-1.26.2-1.26.84a.75.75,0,0,0,.69.81h.57a.54.54,0,0,1,.49.37A3.8,3.8,0,0,1,70.79,44V57a3.62,3.62,0,0,1-.09,1.13.54.54,0,0,1-.49.38h-.57a.79.79,0,0,0-.74.81c0,.64.34.84,1.32.84h5.26c1.06,0,1.4-.2,1.4-.84a.78.78,0,0,0-.74-.81h-.66a.7.7,0,0,1-.6-.38A2.82,2.82,0,0,1,74.79,57V51.26c0-.61,0-.78.23-.87a.91.91,0,0,1,.4-.09h2.92c.8,0,1.23-.35,1.23-1s-.4-1-1.23-1H74.79V44c0-1.13.17-1.19,2.26-1.19Z" transform="translate(-64.05 -8.57)"/><path id="path15" class="cls-1" d="M150.32,62.5H70.63a4.47,4.47,0,0,0,0,8.93h79.69a4.47,4.47,0,0,0,0-8.93ZM81.46,68.58c0,.08.11.13.2.13h.18a.32.32,0,0,1,.28.33c0,.22-.12.31-.47.31H79.6c-.37,0-.5-.09-.5-.31a.32.32,0,0,1,.31-.33h.2a.22.22,0,0,0,.2-.13,1.1,1.1,0,0,0,0-.44V65.82L78,67.64a.52.52,0,0,1-.37.18c-.14,0-.2,0-.34-.18l-1.74-1.87v2.37a1.35,1.35,0,0,0,0,.44.2.2,0,0,0,.2.13H76a.32.32,0,0,1,.31.33c0,.22-.12.31-.52.31H74.3c-.36,0-.5-.09-.5-.31a.33.33,0,0,1,.31-.33h.2a.21.21,0,0,0,.2-.13,1.08,1.08,0,0,0,0-.44V65.55a1.08,1.08,0,0,0,0-.46.23.23,0,0,0-.2-.15h-.2a.31.31,0,0,1-.31-.31c0-.23.15-.32.5-.32H76c.18,0,.28,0,.52.31l1.58,1.75,1.84-1.82a.62.62,0,0,1,.47-.24h1.28c.35,0,.47.09.47.32a.3.3,0,0,1-.28.31H81.6c-.09,0-.13.05-.17.13a1.3,1.3,0,0,0,0,.48v2.59c0,.29,0,.36.06.44Zm13.72.77H92.87a.3.3,0,0,1-.34-.31c0-.22.12-.28.42-.33s.27-.18.18-.41l0-.07c-.06-.15-.14-.16-.39-.16H91a.76.76,0,0,0-.3,0,.2.2,0,0,0-.11.09l0,.05a.34.34,0,0,0,.31.46c.28,0,.4.12.4.32s-.15.32-.38.32H89.1c-.27,0-.39-.09-.39-.29s.09-.27.31-.32a.4.4,0,0,0,.27-.16,5.07,5.07,0,0,0,.26-.46l1.71-3.43a.93.93,0,0,1,.91-.48,1,1,0,0,1,.89.48L94.71,68c.26.51.33.62.5.68l.15.05a.29.29,0,0,1,.2.29c0,.22-.13.35-.38.35Zm13.5,0h-1.36a.78.78,0,0,1-.67-.32l-1.54-1.75c-.15-.17-.21-.27-.21-.35s.12-.21.43-.24c.77-.07,1.16-.35,1.16-.94s-.53-1-1.2-1a1.21,1.21,0,0,0-.64.15c-.11.09-.16.24-.18.56l0,.36v2.27a1.25,1.25,0,0,0,0,.43.24.24,0,0,0,.21.16h.23a.3.3,0,0,1,.28.31c0,.24-.12.32-.5.32h-2c-.36,0-.51-.09-.51-.32a.32.32,0,0,1,.31-.31h.2a.22.22,0,0,0,.21-.16,1.37,1.37,0,0,0,0-.43V65.58c0-.3-.05-.35-.34-.37s-.34-.11-.34-.31a.44.44,0,0,1,.12-.27,6.86,6.86,0,0,1,2.84-.43c1.88,0,2.92.49,2.92,1.42,0,.64-.29,1.17-1.3,1.35l1,1.08a1.54,1.54,0,0,0,.93.6,1.32,1.32,0,0,1,.31.1.3.3,0,0,1,.13.25c0,.22-.16.35-.47.35Zm9.81,0h-2.05c-.36,0-.5-.09-.5-.32a.31.31,0,0,1,.31-.31h.2a.21.21,0,0,0,.21-.16,1.27,1.27,0,0,0,0-.43V65.55a1.38,1.38,0,0,0,0-.44.23.23,0,0,0-.21-.15h-.2a.31.31,0,0,1-.31-.32c0-.23.14-.32.5-.32h2.05c.38,0,.5.09.5.32a.3.3,0,0,1-.29.32h-.22a.2.2,0,0,0-.19.15,1,1,0,0,0-.05.44v2.57a1,1,0,0,0,.06.46c.05.08.1.13.18.13h.22A.31.31,0,0,1,119,69c0,.24-.15.32-.5.32Zm4.37,0h-1.38c-.3,0-.39-.1-.61-.32l-2-2c-.09-.1-.13-.15-.13-.21a.31.31,0,0,1,.13-.19l1.45-1.24c.21-.18.09-.41,0-.41s-.21-.12-.21-.34.1-.32.35-.32h2.33c.24,0,.37.1.37.31s-.09.28-.37.32a4.24,4.24,0,0,0-.53.08,1.54,1.54,0,0,0-.52.29l-1.33,1.15L122,68.09a2.1,2.1,0,0,0,.9.62c.25.06.37.11.37.31s-.15.32-.41.32Zm13-1.13-.38,1c-.06.13-.1.16-.29.16h-4.71c-.38,0-.5-.09-.5-.32a.29.29,0,0,1,.28-.31h.23a.19.19,0,0,0,.17-.16c0-.07.05-.15.05-.44V65.57c0-.29,0-.37-.05-.44a.2.2,0,0,0-.17-.18h-.23a.32.32,0,0,1-.3-.32c0-.23.15-.32.52-.32h4.44c.23,0,.31,0,.36.15l.34.87s.05.1,0,.13-.2.17-.36.17a.23.23,0,0,1-.13,0,.51.51,0,0,1-.14-.06,1,1,0,0,0-.11-.14,1.45,1.45,0,0,0-1.22-.44H133c-.62,0-.69.06-.69.46v.83h1.43c.34,0,.44.18.44.38a.39.39,0,0,1-.44.39h-.87a1.25,1.25,0,0,0-.46,0c-.06,0-.1.13-.1.3v.79c0,.4,0,.48.22.52a4.48,4.48,0,0,0,1,.06,9.25,9.25,0,0,0,1,0c.25,0,.62-.45.8-.68s.15-.16.31-.16.29.07.31.17a.37.37,0,0,1,0,.22Zm12.5-2.5a.35.35,0,0,1-.3-.17l-.09-.1c-.11-.13-.29-.39-.42-.44a2.19,2.19,0,0,0-.7-.06c-.52,0-.59,0-.59.36v2.81a1.33,1.33,0,0,0,0,.43.24.24,0,0,0,.22.16h.3a.3.3,0,0,1,.3.31c0,.24-.13.32-.54.32h-2.21c-.39,0-.53-.09-.53-.32a.31.31,0,0,1,.28-.31h.33a.23.23,0,0,0,.2-.16,1.06,1.06,0,0,0,.05-.43V65.31c0-.31-.05-.36-.71-.36a1.14,1.14,0,0,0-1,.51l-.06.08a.34.34,0,0,1-.34.18c-.16,0-.38-.08-.39-.18a.61.61,0,0,1,0-.16l.34-.88c.06-.18.12-.19.38-.19H148a.46.46,0,0,1,.25,0s.06.07.1.15l.36.92a.35.35,0,0,1,0,.12c0,.09-.24.18-.41.18Z" transform="translate(-64.05 -8.57)"/><path id="path17" class="cls-1" d="M92,65.89a1.88,1.88,0,0,1-.14-.47h0a3.79,3.79,0,0,1-.18.47l-.55,1.24-.11.17.19,0h1.35l.15,0-.1-.17L92,65.89Z" transform="translate(-64.05 -8.57)"/><path id="path19" class="cls-1" d="M71.94,37.26c.4,1.1.8,1.44,1.63,1.44a1.69,1.69,0,0,0,1-.32,2.77,2.77,0,0,0,.57-1.13l2.8-7.93,2.63,7.93c.34,1.07.77,1.44,1.63,1.44s1.23-.4,1.66-1.82L88.38,22c.32-1,.52-1.29,1.11-1.42h.16a.54.54,0,0,1,.49.38,2.88,2.88,0,0,1,.08,1.13v13a3.18,3.18,0,0,1-.08,1.15.53.53,0,0,1-.49.35h-.57a.8.8,0,0,0-.74.81c0,.64.34.84,1.31.84h5.21c.92,0,1.23-.2,1.23-.81a.76.76,0,0,0-.69-.84h-.54a.6.6,0,0,1-.54-.35,4.11,4.11,0,0,1-.09-1.15V29.82c0-1.33.12-1.45,1.17-1.45h3.89c.57,0,.86.09,1,.26s.14.29.14,1.36v5.12a3.23,3.23,0,0,1-.09,1.15.6.6,0,0,1-.52.35h-.54a.79.79,0,0,0-.74.81c0,.64.32.84,1.29.84H105c1,0,1.32-.2,1.32-.84a.77.77,0,0,0-.74-.81H105a.53.53,0,0,1-.49-.35,3,3,0,0,1-.11-1.15v-13a2.85,2.85,0,0,1,.11-1.13.56.56,0,0,1,.49-.38h.57a.78.78,0,0,0,.74-.81c0-.64-.34-.84-1.32-.84h-5.2c-1,0-1.32.2-1.32.84a.78.78,0,0,0,.77.81h.54a.58.58,0,0,1,.52.38,3,3,0,0,1,.09,1.13v4.28H94.23V22.13A3.86,3.86,0,0,1,94.32,21a.63.63,0,0,1,.54-.38h.54a.75.75,0,0,0,.71-.81c0-.64-.31-.84-1.26-.84H85.41c-.77,0-1.09.23-1.09.81s.29.75.91.81,1,.32,1,.75a2.5,2.5,0,0,1-.11.7L82.75,33.12l-3.4-10.59a3.86,3.86,0,0,1-.29-1.21c0-.52.2-.69,1-.78s.92-.32.92-.78S80.63,19,80,19H74.37c-.66,0-1,.32-1,.87s.23.64.83.78.89.32,1.06.75c.06.12.12.34.23.67l1.32,3.88-2.66,7.49L70.28,22.53l-.23-.66a1.79,1.79,0,0,1-.12-.64c0-.46.26-.67.89-.72s1-.26,1-.75-.29-.78-.94-.78H65c-.66,0-1,.26-1,.75s.2.67.8.78c.91.2,1.06.35,1.49,1.53l5.6,15.21Z" transform="translate(-64.05 -8.57)"/><path id="path21" class="cls-1" d="M91.54,60.6c4.84,0,8.2-2.76,9.19-7.26a8.78,8.78,0,0,0,9.06,7.26c5.81,0,9.49-4,9.49-10.15s-3.69-10-9.44-10a8.75,8.75,0,0,0-9.1,7.22c-1-4.47-4.33-7.22-9.14-7.22-5.75,0-9.41,3.94-9.41,10.13s3.69,10,9.35,10Zm18.27-18.08c3.17,0,5.18,3.09,5.18,8.07s-2,7.93-5.12,7.93-5.15-2.95-5.15-7.9S106.64,42.52,109.82,42.52Zm-18.25,0c3.17,0,5.18,3.09,5.18,8.07s-2,7.93-5.12,7.93-5.15-2.95-5.15-7.9S88.4,42.52,91.57,42.52Z" transform="translate(-64.05 -8.57)"/></g></svg>