<svg version="1.1" id="Layer_1" xmlns="http://www.w3.org/2000/svg" x="0" y="0" viewBox="0 0 500 500" xml:space="preserve"><style type="text/css">.st0{fill:#fff}</style><path class="st0" d="M445.4 78h-14.6V43.9c0-24.2-19.7-43.9-43.9-43.9S343 19.7 343 43.9v12c0 15.1-10.2 28.6-24.7 32.8l-14.2 4.1v-.1c0-8.1-6.5-14.6-14.6-14.6H231c-8.1 0-14.6 6.5-14.6 14.6V158H43.9C19.7 157.9 0 177.6 0 201.7v282.6c0 5.4 3 10.3 7.7 12.9 2.2 1.2 4.5 1.7 6.9 1.7 2.8 0 5.7-.8 8.1-2.5L77.5 460h278.2c24.2 0 43.9-19.7 43.9-43.9v-153h45.8c29.6 0 53.6-24 53.6-53.6v-78C499 102 475 78 445.4 78zm-199.8 29.2h29.2v126.7h-29.2V107.2zm124.8 309c0 8.1-6.6 14.6-14.6 14.6H73.1c-2.9 0-5.7.9-8.1 2.5l-35.7 23.8V201.7c0-8.1 6.6-14.6 14.6-14.6h172.5v61.4c0 8.1 6.5 14.6 14.6 14.6h58.5c7.5 0 13.7-5.7 14.5-13 13 8.3 28.3 13 44.3 13h22.1v153.1zm99.4-206.7c0 13.4-10.9 24.4-24.4 24.4h-97.2c-17.8 0-34.4-9-44.2-23.6v-87.2l22.3-6.4c27.1-7.7 45.9-32.8 45.9-60.9v-12c0-8.1 6.6-14.6 14.6-14.6s14.6 6.6 14.6 14.6v48.7c0 8.1 6.5 14.6 14.6 14.6h29.2c13.4 0 24.4 10.9 24.4 24.4v78z"/><path class="st0" d="M73.1 274.8h97.5c8.1 0 14.6-6.5 14.6-14.6s-6.5-14.6-14.6-14.6H73.1c-8.1 0-14.6 6.5-14.6 14.6s6.5 14.6 14.6 14.6zm253.4 29.3H73.1c-8.1 0-14.6 6.5-14.6 14.6s6.5 14.6 14.6 14.6h253.4c8.1 0 14.6-6.5 14.6-14.6s-6.5-14.6-14.6-14.6zm0 58.5H73.1c-8.1 0-14.6 6.5-14.6 14.6s6.5 14.6 14.6 14.6h253.4c8.1 0 14.6-6.5 14.6-14.6s-6.5-14.6-14.6-14.6z"/></svg>