<svg version="1.1" id="Layer_1" xmlns="http://www.w3.org/2000/svg" x="0" y="0" viewBox="0 0 500 500" xml:space="preserve"><path transform="rotate(-45.001 249.995 250.004)" fill="#223b4f" d="M73.2 73.2h353.6v353.6H73.2z"/><path d="M337.6 364.3H209.8c-2.4 0-4.3-1.9-4.3-4.3V186.8c0-2.4 1.9-4.3 4.3-4.3h127.8c2.4 0 4.3 1.9 4.3 4.3V360c0 2.4-1.9 4.3-4.3 4.3z" fill="none" stroke="#fff" stroke-width="10" stroke-miterlimit="10"/><path d="M321.2 237.9h-95.4c-1.6 0-2.9-1.3-2.9-2.9v-30.2c0-1.6 1.3-2.9 2.9-2.9h95.4c1.6 0 2.9 1.3 2.9 2.9V235c0 1.6-1.3 2.9-2.9 2.9zm-73.9 39h-20.2c-.7 0-1.2-.5-1.2-1.2v-20.2c0-.7.5-1.2 1.2-1.2h20.2c.7 0 1.2.5 1.2 1.2v20.2c.1.7-.5 1.2-1.2 1.2zm36.5 0h-20.2c-.7 0-1.2-.5-1.2-1.2v-20.2c0-.7.5-1.2 1.2-1.2h20.2c.7 0 1.2.5 1.2 1.2v20.2c0 .7-.6 1.2-1.2 1.2zm36.5 0h-20.2c-.7 0-1.2-.5-1.2-1.2v-20.2c0-.7.5-1.2 1.2-1.2h20.2c.7 0 1.2.5 1.2 1.2v20.2c0 .7-.6 1.2-1.2 1.2zm-73 33.9h-20.2c-.7 0-1.2-.5-1.2-1.2v-20.2c0-.7.5-1.2 1.2-1.2h20.2c.7 0 1.2.5 1.2 1.2v20.2c0 .7-.5 1.2-1.2 1.2zm36.4 0h-20.2c-.7 0-1.2-.5-1.2-1.2v-20.2c0-.7.5-1.2 1.2-1.2h20.2c.7 0 1.2.5 1.2 1.2v20.2c0 .7-.5 1.2-1.2 1.2zm36.5 0H300c-.7 0-1.2-.5-1.2-1.2v-20.2c0-.7.5-1.2 1.2-1.2h20.2c.7 0 1.2.5 1.2 1.2v20.2c0 .7-.5 1.2-1.2 1.2zm-72.9 33.9h-20.2c-.7 0-1.2-.5-1.2-1.2v-20.2c0-.7.5-1.2 1.2-1.2h20.2c.7 0 1.2.5 1.2 1.2v20.2c0 .7-.5 1.2-1.2 1.2zm36.4 0h-20.2c-.7 0-1.2-.5-1.2-1.2v-20.2c0-.7.5-1.2 1.2-1.2h20.2c.7 0 1.2.5 1.2 1.2v20.2c0 .7-.5 1.2-1.2 1.2zm36.5 0H300c-.7 0-1.2-.5-1.2-1.2v-20.2c0-.7.5-1.2 1.2-1.2h20.2c.7 0 1.2.5 1.2 1.2v20.2c0 .7-.5 1.2-1.2 1.2zM194.1 231.8c-1.6.7-3.7 1.2-6.3 1.5v-27.8c2.6 1 4.7 1.9 6.3 2.8v-20.1c-1.9-.7-4-1.5-6.3-2.3v-27.1c4.7.3 7.9 2.2 9.7 5.6 1 1.9 1.7 5 2.1 9.3h18.7c-.2-11.4-4.3-19.7-12.3-24.7-4.4-3.2-10.4-5.1-18.1-5.7v-9.6H181v9.5c-4.8.4-8.5 1-11 1.8-4.1 1.3-7.9 3.6-11.2 7-2.6 2.6-4.6 5.7-6.1 9.3-1.4 3.6-2.2 7.6-2.2 12 0 6.7 1.9 12.4 5.6 17.2 3.7 4.7 10.1 8.4 19.2 11.1l5.8 1.7v30.4c-5.4-.9-9-3-10.9-6.2-1.2-2-2.1-6.1-2.8-12h-19.2c-.1 13.1 3.8 22.4 12 27.9 4.6 3 11.6 5.1 20.9 6.1v14.2h6.9v-14.3c2.2-.2 4.3-.5 6.3-.9v-16.7zM181 184c-3.5-1.1-6-2.3-7.7-3.6-3-2.3-4.5-5.5-4.5-9.5 0-3.7 1-6.5 3-8.6 2-2.1 5.1-3.2 9.2-3.3v25z" fill="#fff"/></svg>