<svg version="1.1" id="Layer_1" xmlns="http://www.w3.org/2000/svg" x="0" y="0" viewBox="0 0 500 500" xml:space="preserve"><style type="text/css">.st0{fill:#454545}</style><circle class="st0" cx="188.1" cy="172.4" r="34.3"/><path class="st0" d="M469.4 298.6c-16.2-15.2-36.7-25.2-59-28.1V96.2c0-18.6-7.6-35.2-19.5-47.6-12.4-12.4-29-19.5-47.6-19.5H67.1c-18.6 0-35.2 7.6-47.6 19.5C7.1 61 0 77.6 0 96.2v284.3c0 18.6 7.6 35.2 19.5 47.6 12.4 12.4 29 19.5 47.6 19.5h267.1c17.6 14.3 39.5 23.3 63.8 23.3 28.1 0 53.3-11.4 71.4-29.5 18.1-18.1 29.5-43.3 29.5-71.4.1-28.1-11.4-53.3-29.5-71.4zM25.2 96.2c0-11.4 4.8-21.9 12.4-29.5s18.1-12.4 29.5-12.4h276.1c11.4 0 21.9 4.8 29.5 12.4s12.4 18.1 12.4 29.5v148.5l-70.5-70c-4.8-4.8-12.9-5.2-18.1 0L190.4 281.4 118.5 209c-4.8-4.8-12.9-5.2-18.1 0l-75.2 76.2v-189zm41.5 326.6v-.5c-11.4 0-21.9-4.8-29.5-12.4-7.1-7.6-11.9-18.1-11.9-29.5v-59.5l84.7-84.7 71.9 71.9c4.8 4.8 12.9 4.8 18.1 0l106.2-106.6 69.5 70c-1.4.5-2.9 1-4.3 1.4-1.9.5-3.8 1-6.2 1.9-1.9.5-3.8 1.4-5.7 1.9-1.4.5-2.4 1-3.8 1.9-1.9 1-3.3 1.4-4.8 2.4-2.4 1.4-4.8 2.9-7.1 4.3-1.4 1-2.4 1.4-3.8 2.4-1 .5-1.4 1-2.4 1.4-4.3 2.9-8.1 6.2-11.4 10-18.1 18.1-29.5 43.3-29.5 71.4 0 7.1 1 13.8 2.4 20.9.5 1.9 1 3.3 1.4 5.2 1.4 4.8 2.9 9.5 4.8 14.3v.5c1.9 3.8 3.8 8.1 6.2 11.4H66.7zm384.2.5c-13.8 13.8-32.4 21.9-53.3 21.9-20 0-38.6-8.1-51.9-20.9-1.9-1.9-3.8-4.3-5.7-6.2-1.4-1.4-2.9-3.3-4.3-4.8-1.9-2.4-3.3-5.2-4.8-8.1-1-1.9-1.9-3.3-2.9-5.2-1-2.4-1.9-5.2-2.4-8.1-.5-1.9-1.4-4.3-1.9-6.2-1-4.8-1.4-10-1.4-15.2 0-20.9 8.6-39.5 21.9-53.3 13.8-13.8 32.4-21.9 53.3-21.9s39.5 8.6 53.3 21.9c13.8 13.3 21.9 32.4 21.9 53.3.1 20.4-8.5 39-21.8 52.8z"/><path class="st0" d="M439 357.1h-29v-29c0-7.1-5.7-12.9-12.9-12.9-7.1 0-12.9 5.7-12.9 12.9v29h-29c-7.1 0-12.9 5.7-12.9 12.9 0 7.1 5.7 12.9 12.9 12.9h29v29c0 7.1 5.7 12.9 12.9 12.9 7.1 0 12.9-5.7 12.9-12.9v-29h29c7.1 0 12.9-5.7 12.9-12.9-.1-7.2-5.8-12.9-12.9-12.9z"/></svg>