<svg version="1.1" id="Layer_1" xmlns="http://www.w3.org/2000/svg" x="0" y="0" viewBox="0 0 500 500" xml:space="preserve"><style type="text/css">.st0{fill:#4b5964}</style><path d="M-210 297c-8.3 0-15 6.7-15 15s6.7 15 15 15 15-6.7 15-15-6.7-15-15-15z"/><path class="st0" d="M250 116.7c-27.6 0-50 22.4-50 50s22.4 50 50 50 50-22.4 50-50-22.4-50-50-50zm0 83.3c-18.4 0-33.3-14.9-33.3-33.3s14.9-33.3 33.3-33.3 33.3 14.9 33.3 33.3S268.4 200 250 200z"/><path class="st0" d="M339.3 238.8c-2.8-2.8-5.7-5.4-8.7-7.8l.1-.2c27.5-84.8-3.3-177.6-75.9-229.2-2.9-2.1-6.8-2.1-9.7 0-72.6 51.6-103.3 144.4-75.8 229.1l.1.2c-45.8 36.8-53.2 103.8-16.4 149.6 2.4 3 5 5.9 7.8 8.7 1.6 1.6 3.7 2.4 5.9 2.4.9 0 1.8-.1 2.6-.4 3-1 5.2-3.6 5.6-6.7l6.3-44c.6-4.1 4.1-7.1 8.2-7.1h25.4l-6.3 31.7c-.9 4.5 2 8.9 6.5 9.8.5.1 1.1.2 1.7.2h66.7c4.6 0 8.3-3.7 8.3-8.3 0-.6-.1-1.1-.2-1.7l-6.3-31.7h25.4c4.1 0 7.7 3.1 8.2 7.2l6.3 44c.4 3.1 2.6 5.7 5.6 6.7.9.3 1.7.4 2.6.4 2.2 0 4.3-.9 5.9-2.4 41.6-41.6 41.7-109 .1-150.5zM250 18.7C270 34 286.8 53.1 299.3 75h-98.5C213.2 53.1 230 34 250 18.7zm-60.5 298c-12.4.1-22.9 9.2-24.7 21.5l-3.6 25.3c-11.1-16.8-16.3-36.9-14.6-57 1.8-22.3 11.9-43.2 28.3-58.4l22 68.6h-7.4zm37.3 41.6l5-25h36.3l5 25h-46.3zm-12.4-41.6L187 231.3l-1.8-5.7c-14.2-44-11.6-91.7 7.2-133.9h115.3c18.8 42.2 21.4 89.9 7.2 133.9l-1.8 5.7-27.4 85.3h-71.3zm124.5 46.7l-3.6-25.3c-1.8-12.3-12.3-21.4-24.7-21.5h-7.4l22.1-68.6c16.4 15.3 26.5 36.1 28.3 58.4 1.6 20.1-3.6 40.2-14.7 57z"/><path class="st0" d="M216.7 391v27.2c-20.2-6.2-42.2-.8-57.3 14-12.7-15.1-31.3-23.8-51-23.8-6.1 0-12.1.8-17.9 2.5-6.7-40-41.5-69.3-82.1-69.2H0v16.7h8.3c34.1-.1 62.7 25.6 66.1 59.5-8.1 4.7-15.1 11.1-20.6 18.7-15-12.8-34.1-19.9-53.9-19.9v16.7c36.8 0 66.6 29.9 66.7 66.7h16.7c0-18.5-6.1-36.4-17.5-50.9 4.9-8.2 12.1-14.8 20.7-19 .1 0 .2 0 .3-.1 6.7-3.2 14.1-4.9 21.5-4.9 16.2.1 31.3 7.9 40.6 21.1-4.7 8.9-7.2 18.8-7.3 28.9h16.7c0-8.5 2.4-16.9 6.9-24.1h-.1c.1-.2.3-.3.4-.4 11.3-16.5 32.7-22.7 51-14.6v21.8h16.7V391h-16.5zm275-32.7h8.3v-16.7h-8.3c-40.6-.1-75.3 29.1-82.1 69.2-5.8-1.7-11.9-2.5-17.9-2.5-19.7.1-38.3 8.8-51 23.8-15.1-14.8-37.1-20.2-57.3-14V391h-16.7v66.7h16.7v-21.8c18.3-8.1 39.8-1.9 51 14.6.1.2.3.3.4.4a45.6 45.6 0 016.9 24.1h16.7c-.1-10.1-2.6-20-7.3-28.9 9.3-13.2 24.5-21 40.6-21.1 7.5 0 14.8 1.7 21.5 4.9.1 0 .2 0 .3.1 8.6 4.2 15.8 10.8 20.8 19-11.4 14.6-17.5 32.5-17.5 50.9h16.7c0-36.8 29.9-66.6 66.7-66.7v-16.7c-19.8 0-38.9 7-53.9 19.9-5.5-7.6-12.5-14-20.6-18.7 3.3-33.7 31.9-59.5 66-59.4zM208.3 241.7H225v16.7h-16.7zm33.4 0h16.7v16.7h-16.7zm33.3 0h16.7v16.7H275z"/><path class="st0" d="M91.7 441.7h16.7v16.7H91.7zM0 308.3h16.7V325H0zm466.7 75h16.7V400h-16.7zM400 350h16.7v16.7H400zm-91.7 133.3H325V500h-16.7zm175-191.6H500v16.7h-16.7z"/></svg>