<svg version="1.1" id="Layer_1" xmlns="http://www.w3.org/2000/svg" x="0" y="0" viewBox="0 0 500 500" xml:space="preserve"><path d="M499.9 123.6c-.3-2.8-1.3-5.5-3.2-7.8-.7-.9 6.7 6.6-111.3-111.4C382.5 1.5 378.7 0 375 0H44C19.7 0 0 19.7 0 43.9V456c0 24.3 19.7 44 43.9 44H456c24.2 0 43.9-19.7 43.9-43.9.1-355.7.1-331.4 0-332.5zm-163-94.3V125c0 8.1-6.6 14.6-14.6 14.6h-18.6V29.3h33.2zm-62.5 0v110.3H138.7c-8.1 0-14.6-6.6-14.6-14.6V29.3h150.3zm62.5 284.2H124v-18.6c0-8.1 6.6-14.6 14.6-14.6h183.6c8.1 0 14.6 6.6 14.6 14.6v18.6zM124 470.7V342.8h212.9v127.9H124zM470.7 456c0 8.1-6.6 14.6-14.6 14.6h-89.8V294.8c0-24.2-19.7-43.9-43.9-43.9H138.7c-24.2 0-43.9 19.7-43.9 43.9v175.8H43.9c-8.1 0-14.6-6.6-14.6-14.6V43.9c0-8.1 6.6-14.6 14.6-14.6h50.8V125c0 24.2 19.7 43.9 43.9 43.9h183.6c24.2 0 43.9-19.7 43.9-43.9V29.3h2.7l101.8 101.8V456z" fill="#3fc5af"/></svg>