<svg version="1.1" id="Layer_1" xmlns="http://www.w3.org/2000/svg" x="0" y="0" viewBox="0 0 500 500" xml:space="preserve"><path d="M273 204h-46.7v-47.4c0-6.2-5-11.2-11.2-11.2-6.2 0-11.2 5-11.2 11.2V204h-47.4c-6.2 0-11.2 5-11.2 11.2 0 6.2 5 11.2 11.2 11.2h47.4v46.9c0 6.2 5 11.2 11.2 11.2 6.2 0 11.2-5 11.2-11.2v-46.9H273c6.2 0 11.2-5 11.2-11.2 0-6.1-4.9-11.2-11.2-11.2z"/><path d="M334.4 94.5c-66.2-66.1-173.9-66.1-240 0s-66.1 173.8 0 240c66.3 66.1 173.7 66.1 240 0 66.1-66.1 66.1-173.8 0-240zm-15.8 224.2c-57.5 57.4-151 57.5-208.3 0-57.5-57.5-57.5-151 0-208.3C167.8 53 261 53 318.6 110.3c57.4 57.4 57.4 150.9 0 208.4z"/><path d="M487.9 429.6l-.3-.3-95.1-95.3c66-98.3 39.8-231.6-58.5-297.6S102.4-3.4 36.4 94.9-3.4 326.5 94.9 392.5c31.1 20.9 67.1 33.2 104.5 35.9 5 .3 10.1.6 15 .6 42.6 0 84.2-12.6 119.5-36.3l95.1 95.1c16.1 16.3 42.3 16.4 58.5.4 16.3-16.2 16.4-42.4.4-58.6zM328.5 369c-85.4 63.2-205.8 45.1-268.8-40.3S14.6 123 100 59.9s205.8-45.1 268.8 40.4c50.2 68 50.2 160.8-.2 228.8-11.2 15.1-24.8 28.6-40.1 39.9zm143.3 102.9c-3.6 3.6-8.4 5.6-13.5 5.6-5 0-9.8-2-13.4-5.6L352 379.1c4.8-4 9.5-8.3 14.1-12.9s8.8-9.3 12.9-14.1l92.8 92.8c7.4 7.4 7.4 19.5 0 27z"/></svg>