<?xml version="1.0" standalone="no"?>
<!DOCTYPE svg PUBLIC "-//W3C//DTD SVG 1.1//EN" "http://www.w3.org/Graphics/SVG/1.1/DTD/svg11.dtd" >
<svg xmlns="http://www.w3.org/2000/svg" xmlns:xlink="http://www.w3.org/1999/xlink" version="1.1">
<metadata>
Created by FontForge 20190801 at Thu Jan 26 14:05:26 2017
 By Jimmy Wärting
PORSCHE NEXT is a design by TYPE TAILORS BVBA for Dr. Ing. h.c. F. Porsche AG. Type Directors: Hendrik Weber, Fred Smeijers, Corina Cotorobai. Lead font development: Thomas Thiemich. Produced by TYPE TAILORS BVBA.
</metadata>
<defs>
<font id="PorscheNext-Italic" horiz-adv-x="318" >
  <font-face 
    font-family="Porsche Next"
    font-weight="400"
    font-style="italic"
    font-stretch="normal"
    units-per-em="1000"
    panose-1="2 11 5 4 2 1 1 1 1 2"
    ascent="800"
    descent="-200"
    x-height="504"
    cap-height="712"
    bbox="-335 -313 1020 1022"
    underline-thickness="50"
    underline-position="-125"
    slope="-8"
    stemh="66"
    stemv="83"
    unicode-range="U+000D-FEFF"
  />
<missing-glyph horiz-adv-x="728" 
d="M12 0v712h704v-712h-704zM190 234l52 -52l124 128l124 -128l52 52l-124 128l124 129l-52 51l-124 -127l-124 127l-52 -51l124 -129z" />
    <glyph glyph-name="f_b" unicode="fb" horiz-adv-x="783" 
d="M311 0l78 639h-79c-71 0 -100 -28 -109 -99l-5 -36h96l-9 -70h-95l-52 -434h-80l52 434h-63l9 70h63l4 33c15 115 70 175 189 175h168l-34 -268c29 45 73 68 133 68c113 0 165 -60 165 -193c0 -23 -1 -44 -4 -71c-16 -181 -85 -256 -218 -256c-64 0 -106 23 -125 75
l-7 -67h-77zM515 58c86 0 124 48 143 194c3 27 5 51 5 72c0 87 -31 115 -100 115c-86 0 -123 -44 -141 -187c-4 -29 -6 -55 -6 -76c0 -88 30 -118 99 -118z" />
    <glyph glyph-name="f_f" unicode="ff" horiz-adv-x="583" 
d="M45 434l9 70h63l6 50c13 101 65 158 170 158h70l-9 -73h-60c-57 0 -84 -26 -91 -83l-6 -52h191l6 50c13 101 65 158 169 158h71l-9 -73h-60c-57 0 -84 -26 -91 -83l-6 -52h130l-10 -70h-129l-52 -434h-80l52 434h-191l-52 -434h-80l52 434h-63z" />
    <glyph glyph-name="f_f_b" unicode="ffb" horiz-adv-x="1054" 
d="M749 712l-34 -268c29 45 73 68 133 68c113 0 165 -60 165 -193c0 -23 -1 -44 -4 -71c-19 -181 -85 -256 -218 -256c-64 0 -106 23 -125 75l-7 -67h-77l78 639h-79c-71 0 -100 -28 -109 -99l-4 -36h95l-9 -70h-95l-52 -434h-80l53 434h-192l-52 -434h-80l53 434h-64l9 70
h63l6 50c13 101 69 158 176 158h64l-9 -73h-60c-57 0 -84 -26 -91 -83l-6 -52h191l4 33c15 116 74 175 194 175h163zM786 58c86 0 124 48 143 194c3 27 5 51 5 72c0 87 -31 115 -100 115c-86 0 -123 -44 -141 -187c-4 -29 -6 -55 -6 -76c0 -88 30 -118 99 -118z" />
    <glyph glyph-name="f_f_h" unicode="ffh" horiz-adv-x="1040" 
d="M749 712l-33 -263c25 42 67 63 126 63c108 0 158 -65 144 -178l-40 -334h-80l38 317c11 89 -13 122 -84 122c-72 0 -109 -30 -120 -122l-38 -317h-80l78 639h-79c-71 0 -100 -28 -109 -99l-4 -36h95l-9 -70h-95l-52 -434h-80l53 434h-192l-52 -434h-80l53 434h-64l9 70
h63l6 50c13 101 69 158 176 158h64l-9 -73h-60c-57 0 -84 -26 -91 -83l-6 -52h191l4 33c15 116 74 175 194 175h163z" />
    <glyph glyph-name="f_f_i" unicode="ffi" horiz-adv-x="761" 
d="M56 0l53 434h-64l9 70h63l6 50c13 101 65 158 170 158h70l-9 -73h-60c-57 0 -84 -26 -91 -83l-6 -52h191l6 50c13 103 65 158 170 158h45l-9 -73h-35c-57 0 -84 -26 -91 -83l-6 -52h256l-62 -504h-80l53 434h-176l-52 -434h-80l53 434h-192l-52 -434h-80zM657 618l12 94
h80l-12 -94h-80z" />
    <glyph glyph-name="f_f_j" unicode="ffj" horiz-adv-x="761" 
d="M56 0l53 434h-64l9 70h63l6 50c13 101 65 158 170 158h70l-9 -73h-60c-57 0 -84 -26 -91 -83l-6 -52h191l6 50c13 103 65 158 170 158h45l-9 -73h-35c-57 0 -84 -26 -91 -83l-6 -52h256l-71 -576c-11 -88 -53 -136 -144 -136h-43l8 66h27c44 0 65 17 71 65l63 511h-176
l-52 -434h-80l53 434h-192l-52 -434h-80zM657 618l12 94h80l-12 -94h-80z" />
    <glyph glyph-name="f_f_k" unicode="ffk" horiz-adv-x="999" 
d="M749 712l-56 -453l233 245h94l-203 -212l141 -292h-86l-112 236l-79 -80l-19 -156h-80l78 639h-79c-71 0 -100 -28 -109 -99l-4 -36h95l-9 -70h-95l-52 -434h-80l53 434h-192l-52 -434h-80l53 434h-64l9 70h63l6 50c13 101 69 158 176 158h64l-9 -73h-60
c-57 0 -84 -26 -91 -83l-6 -52h191l4 33c15 116 74 175 194 175h163z" />
    <glyph glyph-name="f_f_l" unicode="ffl" horiz-adv-x="761" 
d="M56 0l53 434h-64l9 70h63l6 50c13 101 65 158 170 158h70l-9 -73h-60c-57 0 -84 -26 -91 -83l-6 -52h191l4 33c15 115 70 175 189 175h168l-87 -712h-80l78 639h-79c-71 0 -100 -28 -109 -99l-4 -36h95l-9 -70h-95l-52 -434h-80l53 434h-192l-52 -434h-80z" />
    <glyph glyph-name="f_f_t" unicode="fft" horiz-adv-x="858" 
d="M56 0l53 434h-64l9 70h63l6 50c13 101 65 158 170 158h70l-9 -73h-60c-57 0 -84 -26 -91 -83l-6 -52h191l6 50c13 103 65 158 170 158h45l-9 -73h-35c-57 0 -84 -26 -91 -83l-6 -52h178l14 120h78l-15 -120h148l-9 -70h-148l-34 -276c-8 -68 11 -92 74 -92h63l-8 -66h-69
c-103 0 -152 52 -140 155l34 279h-175l-52 -434h-80l53 434h-192l-52 -434h-80z" />
    <glyph glyph-name="f_h" unicode="fh" horiz-adv-x="769" 
d="M311 0l78 639h-79c-71 0 -100 -28 -109 -99l-5 -36h96l-9 -70h-95l-52 -434h-80l52 434h-63l9 70h63l4 33c15 115 70 175 189 175h168l-33 -263c25 42 67 63 126 63c108 0 158 -65 144 -178l-40 -334h-80l38 317c11 89 -13 122 -84 122c-72 0 -109 -30 -120 -122
l-38 -317h-80z" />
    <glyph glyph-name="f_i" unicode="fi" horiz-adv-x="490" 
d="M311 0l53 434h-176l-52 -434h-80l52 434h-63l9 70h63l6 50c13 103 65 158 170 158h45l-9 -73h-35c-57 0 -84 -26 -91 -83l-6 -52h256l-62 -504h-80zM386 618l12 94h80l-12 -94h-80z" />
    <glyph glyph-name="f_j" unicode="fj" horiz-adv-x="490" 
d="M301 -77l63 511h-176l-52 -434h-80l52 434h-63l9 70h63l6 50c13 103 65 158 170 158h45l-9 -73h-35c-57 0 -84 -26 -91 -83l-6 -52h256l-72 -576c-11 -88 -54 -136 -145 -136h-41l8 66h27c44 0 64 17 71 65zM386 618l12 94h80l-12 -94h-80z" />
    <glyph glyph-name="f_k" unicode="fk" horiz-adv-x="728" 
d="M311 0l78 639h-79c-71 0 -100 -28 -109 -99l-5 -36h96l-9 -70h-95l-52 -434h-80l52 434h-63l9 70h63l4 33c15 115 70 175 189 175h168l-56 -453l233 245h94l-203 -212l141 -292h-86l-112 236l-79 -80l-19 -156h-80z" />
    <glyph glyph-name="f_l" unicode="fl" horiz-adv-x="490" 
d="M45 434l9 70h63l4 33c15 115 70 175 189 175h168l-87 -712h-80l78 639h-79c-71 0 -100 -28 -109 -99l-5 -36h96l-9 -70h-95l-52 -434h-80l52 434h-63z" />
    <glyph glyph-name="f_t" unicode="ft" horiz-adv-x="587" 
d="M329 155l34 279h-175l-52 -434h-80l52 434h-63l9 70h63l6 50c13 103 65 158 170 158h45l-9 -73h-35c-57 0 -84 -26 -91 -83l-6 -52h177l15 120h78l-15 -120h148l-9 -70h-148l-34 -276c-8 -68 11 -92 74 -92h63l-8 -66h-69c-103 0 -152 52 -140 155z" />
    <glyph glyph-name=".notdef" horiz-adv-x="728" 
d="M12 0v712h704v-712h-704zM190 234l52 -52l124 128l124 -128l52 52l-124 128l124 129l-52 51l-124 -127l-124 127l-52 -51l124 -129z" />
    <glyph glyph-name=".null" horiz-adv-x="0" 
 />
    <glyph glyph-name=".null" horiz-adv-x="0" 
 />
    <glyph glyph-name="uni000D" unicode="&#xd;" horiz-adv-x="214" 
 />
    <glyph glyph-name="space" unicode=" " horiz-adv-x="214" 
 />
    <glyph glyph-name="exclam" unicode="!" horiz-adv-x="225" 
d="M86 214l43 498h80l-79 -498h-44zM40 0l12 102h84l-12 -102h-84z" />
    <glyph glyph-name="quotedbl" unicode="&#x22;" horiz-adv-x="325" 
d="M248 487l-8 139l11 86h82l-11 -86l-41 -139h-33zM101 487l-8 139l11 86h81l-10 -86l-41 -139h-33z" />
    <glyph glyph-name="numbersign" unicode="#" horiz-adv-x="676" 
d="M132 474l8 67h112l67 171h70l-67 -171h202l67 171h70l-67 -171h90l-8 -67h-108l-93 -236h94l-8 -67h-112l-67 -171h-70l67 171h-202l-67 -171h-70l67 171h-90l8 67h108l93 236h-94zM296 474l-93 -236h202l93 236h-202z" />
    <glyph glyph-name="dollar" unicode="$" horiz-adv-x="560" 
d="M38 216h79c-7 -116 34 -162 138 -162c95 0 166 43 166 147c0 67 -44 92 -114 111l-55 15c-92 25 -161 65 -161 172c0 128 79 212 210 223l11 94h80l-12 -95c131 -16 166 -97 158 -233h-79c5 120 -35 160 -132 160c-80 0 -152 -41 -152 -137c0 -68 48 -92 115 -111l54 -15
c102 -28 160 -74 160 -174c0 -132 -82 -209 -214 -221l-11 -94h-80l11 94c-129 13 -183 85 -172 226z" />
    <glyph glyph-name="percent" unicode="%" horiz-adv-x="723" 
d="M187 348c-87 0 -123 35 -123 130c0 19 1 37 4 60c13 124 51 182 158 182c91 0 125 -41 125 -129c0 -17 -1 -36 -4 -57c-16 -136 -58 -186 -160 -186zM190 400c55 0 74 24 87 136c3 23 4 41 4 56c0 55 -18 69 -59 69c-52 0 -72 -25 -84 -125c-4 -29 -6 -53 -6 -70
c0 -52 17 -66 58 -66zM76 0l542 712h60l-542 -712h-60zM521 -8c-87 0 -123 35 -123 130c0 19 1 37 4 60c13 124 51 182 158 182c91 0 125 -41 125 -129c0 -17 -1 -36 -4 -57c-16 -136 -58 -186 -160 -186zM524 44c55 0 74 24 87 136c3 23 4 41 4 56c0 55 -18 69 -59 69
c-52 0 -72 -25 -84 -125c-4 -29 -6 -53 -6 -70c0 -52 17 -66 58 -66z" />
    <glyph glyph-name="ampersand" unicode="&#x26;" horiz-adv-x="608" 
d="M33 186c11 92 64 141 152 202c-40 53 -66 92 -66 148c0 117 68 188 197 188c154 0 196 -70 180 -236h-78c11 125 -13 160 -105 160c-65 0 -111 -28 -111 -101c0 -49 32 -87 67 -134l160 -214l21 167h72l-15 -122c-6 -48 -15 -84 -27 -113l99 -131h-98l-47 60
c-43 -44 -103 -72 -191 -72c-149 0 -213 56 -213 160c0 12 1 25 3 38zM242 54c72 0 123 19 153 58l-172 226c-75 -56 -99 -85 -107 -153c-1 -11 -2 -22 -2 -31c0 -67 35 -100 128 -100z" />
    <glyph glyph-name="quotesingle" unicode="'" horiz-adv-x="178" 
d="M101 487l-8 139l11 86h81l-10 -86l-41 -139h-33z" />
    <glyph glyph-name="parenleft" unicode="(" horiz-adv-x="313" 
d="M314 772h21l-8 -66h-20c-86 0 -123 -42 -167 -394c-13 -110 -20 -189 -20 -247c0 -127 32 -147 90 -147h20l-8 -66h-21c-98 0 -155 28 -155 220c0 63 6 144 19 247c51 418 121 453 249 453z" />
    <glyph glyph-name="parenright" unicode=")" horiz-adv-x="313" 
d="M9 -148h-21l8 66h20c85 0 123 42 167 394c13 110 20 189 20 247c0 127 -32 147 -91 147h-20l9 66h21c98 0 154 -28 154 -220c0 -63 -6 -144 -19 -247c-51 -418 -121 -453 -248 -453z" />
    <glyph glyph-name="asterisk" unicode="*" horiz-adv-x="407" 
d="M70 569l23 51l64 -21l62 -27l4 71l8 69h55l-8 -69l-15 -71l69 28l68 21l11 -53l-68 -21l-72 -17l39 -55l34 -56l-47 -30l-34 56l-31 60l-43 -62l-48 -56l-41 35l47 55l53 53l-67 17z" />
    <glyph glyph-name="plus" unicode="+" horiz-adv-x="560" 
d="M56 257l8 66h191l24 197h66l-24 -197h191l-8 -66h-191l-24 -197h-66l24 197h-191z" />
    <glyph glyph-name="comma" unicode="," horiz-adv-x="207" 
d="M44 102h84l-9 -75l-63 -155h-39z" />
    <glyph glyph-name="hyphen" unicode="-" horiz-adv-x="414" 
d="M62 258l7 67h292l-7 -67h-292z" />
    <glyph glyph-name="period" unicode="." horiz-adv-x="207" 
d="M32 0l12 102h84l-12 -102h-84z" />
    <glyph glyph-name="slash" unicode="/" horiz-adv-x="454" 
d="M6 0l393 712h74l-394 -712h-73z" />
    <glyph glyph-name="zero" unicode="0" horiz-adv-x="560" 
d="M256 -12c-141 0 -208 58 -208 239c0 40 3 87 10 140c32 255 89 357 273 357c148 0 209 -68 209 -233c0 -39 -3 -81 -10 -130c-38 -284 -101 -373 -274 -373zM256 54c124 0 158 68 189 310c7 52 10 95 10 131c0 115 -37 153 -126 153c-118 0 -159 -64 -186 -284
c-8 -64 -13 -116 -13 -157c0 -116 35 -153 126 -153z" />
    <glyph glyph-name="one" unicode="1" horiz-adv-x="560" 
d="M276 0l77 626l-207 -74l10 76l221 84h69l-87 -712h-83z" />
    <glyph glyph-name="two" unicode="2" horiz-adv-x="560" 
d="M45 0l8 66c13 108 79 172 164 225l83 51c74 45 152 100 152 202c0 72 -45 104 -124 104c-92 0 -141 -39 -163 -160h-78c24 148 85 236 244 236c137 0 204 -65 204 -173c0 -115 -69 -192 -175 -258l-82 -51c-99 -61 -136 -96 -144 -163l-1 -13h338l-8 -66h-418z" />
    <glyph glyph-name="three" unicode="3" horiz-adv-x="560" 
d="M43 216h78c-7 -116 32 -162 136 -162c107 0 165 54 165 164c0 69 -39 107 -132 107h-72l10 73h66c96 0 152 55 152 148c0 72 -45 102 -125 102c-91 0 -141 -40 -165 -160h-79c27 145 90 236 247 236c137 0 204 -65 204 -172c0 -77 -37 -154 -117 -185
c59 -21 94 -64 94 -144c0 -145 -85 -235 -249 -235c-160 0 -225 72 -213 228z" />
    <glyph glyph-name="four" unicode="4" horiz-adv-x="560" 
d="M16 164l7 62l347 486h116l-59 -478h101l-8 -70h-101l-20 -164h-80l20 164h-323zM112 234h235l50 403z" />
    <glyph glyph-name="five" unicode="5" horiz-adv-x="560" 
d="M67 288l4 32l82 392h383l-9 -76h-317l-49 -236c32 32 81 52 144 52c135 0 206 -63 206 -188c0 -14 -1 -29 -3 -45c-21 -166 -105 -231 -255 -231c-148 0 -220 68 -209 204h78c-7 -92 30 -138 133 -138c112 0 157 55 170 167c2 15 3 28 3 41c0 81 -36 121 -132 121
c-88 0 -128 -34 -155 -95h-74z" />
    <glyph glyph-name="six" unicode="6" horiz-adv-x="560" 
d="M46 225c11 89 41 146 92 211l214 276h89l-215 -275c23 9 49 15 78 15c133 0 209 -64 209 -189c0 -13 -1 -28 -3 -44c-20 -165 -100 -231 -251 -231c-136 0 -216 56 -216 191c0 15 1 30 3 46zM128 220c-2 -17 -3 -33 -3 -46c0 -80 36 -120 132 -120c112 0 157 56 171 166
c2 16 2 31 2 41c0 83 -36 122 -132 122c-111 0 -157 -52 -170 -163z" />
    <glyph glyph-name="seven" unicode="7" horiz-adv-x="560" 
d="M99 636l9 76h452l-7 -60l-370 -652h-89l365 636h-360z" />
    <glyph glyph-name="eight" unicode="8" horiz-adv-x="560" 
d="M37 159c0 90 40 176 132 203c-44 24 -75 67 -75 135c0 138 75 227 237 227c136 0 200 -66 200 -171c0 -82 -31 -161 -115 -195c61 -27 90 -73 90 -140c0 -151 -81 -230 -252 -230c-139 0 -217 55 -217 171zM288 322c-107 0 -168 -49 -168 -159c0 -76 43 -109 135 -109
c112 0 168 52 168 163c0 72 -43 105 -135 105zM296 391c105 0 152 58 152 158c0 71 -40 99 -120 99c-104 0 -151 -54 -151 -154c0 -64 34 -103 119 -103z" />
    <glyph glyph-name="nine" unicode="9" horiz-adv-x="560" 
d="M279 257c-133 0 -203 67 -203 192c0 15 1 30 3 46c21 165 105 229 252 229c132 0 210 -54 210 -185c0 -15 -1 -31 -3 -48c-11 -92 -42 -146 -92 -212l-211 -279h-90l208 270c-23 -8 -47 -13 -74 -13zM288 326c108 0 154 55 167 166c2 14 3 27 3 39c0 76 -35 117 -130 117
c-109 0 -155 -56 -166 -156c-2 -15 -3 -30 -3 -44c0 -81 37 -122 129 -122z" />
    <glyph glyph-name="colon" unicode=":" horiz-adv-x="207" 
d="M77 370l12 102h84l-13 -102h-83zM31 0l12 102h84l-12 -102h-84z" />
    <glyph glyph-name="semicolon" unicode=";" horiz-adv-x="207" 
d="M77 370l12 102h84l-13 -102h-83zM43 102h84l-9 -75l-63 -155h-40z" />
    <glyph glyph-name="less" unicode="&#x3c;" horiz-adv-x="560" 
d="M46 257l8 66l471 181l-9 -70l-382 -147l346 -147l-8 -64z" />
    <glyph glyph-name="equal" unicode="=" horiz-adv-x="560" 
d="M69 361l8 66h448l-8 -66h-448zM43 153l8 66h448l-8 -66h-448z" />
    <glyph glyph-name="greater" unicode="&#x3e;" horiz-adv-x="560" 
d="M90 440l8 64l425 -181l-8 -66l-470 -181l8 70l382 147z" />
    <glyph glyph-name="question" unicode="?" horiz-adv-x="388" 
d="M121 214l6 45c16 126 186 160 186 291c0 60 -38 86 -118 86h-121l9 76h117c135 0 195 -62 195 -150c0 -176 -189 -199 -201 -311l-4 -37h-69zM89 0l12 102h83l-11 -102h-84z" />
    <glyph glyph-name="at" unicode="@" horiz-adv-x="850" 
d="M238 287c20 164 78 234 199 234c56 0 96 -21 115 -70l7 62h73l-39 -319c-7 -59 8 -84 41 -84c50 0 78 27 99 215c5 39 7 72 7 103c0 180 -84 223 -264 223c-211 0 -310 -60 -347 -359c-5 -43 -8 -81 -8 -116c0 -197 91 -252 304 -252h53l-9 -67h-43
c-277 0 -381 100 -381 321c0 36 2 74 7 117c43 340 166 429 423 429c224 0 340 -71 340 -295c0 -33 -3 -68 -7 -107c-24 -221 -79 -273 -171 -273c-61 0 -106 22 -117 82c-25 -56 -64 -82 -127 -82c-104 0 -159 51 -159 172c0 20 1 42 4 66zM315 285c-3 -27 -5 -50 -5 -69
c0 -80 28 -106 89 -106c77 0 113 41 129 175c3 25 4 47 4 66c0 79 -29 103 -90 103c-77 0 -111 -37 -127 -169z" />
    <glyph glyph-name="A" unicode="A" horiz-adv-x="562" 
d="M-17 0l309 712h90l136 -712h-82l-32 172h-270l-73 -172h-78zM324 614l-160 -372h228z" />
    <glyph glyph-name="B" unicode="B" horiz-adv-x="577" 
d="M51 0l87 712h228c118 0 179 -59 179 -160c0 -10 -1 -22 -2 -31c-9 -85 -48 -132 -96 -149c55 -28 81 -80 81 -146c0 -10 -1 -19 -2 -30c-14 -133 -80 -196 -209 -196h-266zM343 330h-169l-32 -264h166c75 0 124 36 136 133c1 8 2 23 2 32c0 73 -38 99 -103 99zM363 636
h-152l-28 -235h154c85 0 113 41 123 120c1 11 2 22 2 31c0 57 -27 84 -99 84z" />
    <glyph glyph-name="C" unicode="C" horiz-adv-x="590" 
d="M288 -12c-171 0 -234 66 -234 245c0 37 3 80 9 128c32 264 99 363 297 363c184 0 225 -88 212 -273h-78c8 148 -15 197 -134 197c-139 0 -185 -64 -212 -287c-7 -57 -11 -103 -11 -142c0 -128 41 -165 150 -165c119 0 155 56 184 205h79c-32 -195 -102 -271 -262 -271z
" />
    <glyph glyph-name="D" unicode="D" horiz-adv-x="615" 
d="M51 0l87 712h213c165 0 235 -68 235 -240c0 -35 -2 -71 -7 -114c-32 -262 -96 -358 -296 -358h-232zM351 636h-140l-69 -570h139c140 0 184 63 213 295c6 46 9 85 9 117c0 119 -40 158 -152 158z" />
    <glyph glyph-name="E" unicode="E" horiz-adv-x="510" 
d="M51 0l87 712h381l-9 -76h-299l-28 -235h274l-9 -70h-274l-32 -265h298l-8 -66h-381z" />
    <glyph glyph-name="F" unicode="F" horiz-adv-x="485" 
d="M51 0l87 712h370l-9 -76h-288l-28 -235h263l-9 -70h-263l-40 -331h-83z" />
    <glyph glyph-name="G" unicode="G" horiz-adv-x="598" 
d="M317 300l9 70h240l-12 -102c-23 -191 -101 -280 -265 -280c-165 0 -235 66 -235 245c0 37 3 80 9 128c32 264 98 363 297 363c170 0 222 -80 217 -236h-79c4 113 -31 160 -138 160c-139 0 -185 -64 -212 -287c-7 -57 -11 -103 -11 -142c0 -128 41 -165 150 -165
c121 0 169 61 188 214l4 32h-162z" />
    <glyph glyph-name="H" unicode="H" horiz-adv-x="638" 
d="M51 0l87 712h83l-38 -311h309l38 311h83l-87 -712h-83l40 330h-309l-40 -330h-83z" />
    <glyph glyph-name="I" unicode="I" horiz-adv-x="246" 
d="M51 0l87 712h83l-87 -712h-83z" />
    <glyph glyph-name="J" unicode="J" horiz-adv-x="385" 
d="M-5 66h79c91 0 133 37 144 124l64 522h83l-64 -520c-16 -131 -77 -192 -225 -192h-88z" />
    <glyph glyph-name="K" unicode="K" horiz-adv-x="567" 
d="M51 0l87 712h83l-47 -385l348 385h95l-282 -311l193 -401h-89l-164 340l-115 -128l-26 -212h-83z" />
    <glyph glyph-name="L" unicode="L" horiz-adv-x="477" 
d="M51 0l87 712h83l-79 -646h298l-8 -66h-381z" />
    <glyph glyph-name="M" unicode="M" horiz-adv-x="778" 
d="M117 0h-80l115 712h85l138 -576l277 576h85l-57 -712h-80l42 526l-256 -526h-54l-130 535z" />
    <glyph glyph-name="N" unicode="N" horiz-adv-x="638" 
d="M51 0l87 712h73l251 -550l68 550h83l-87 -712h-73l-252 549l-67 -549h-83z" />
    <glyph glyph-name="O" unicode="O" horiz-adv-x="623" 
d="M288 -12c-164 0 -234 69 -234 248c0 37 3 80 9 128c32 264 99 360 297 360c165 0 235 -70 235 -245c0 -36 -3 -76 -8 -121c-33 -274 -98 -370 -299 -370zM287 54c141 0 182 62 214 307c6 49 10 90 10 125c0 123 -41 162 -151 162c-139 0 -185 -64 -212 -287
c-7 -57 -11 -103 -11 -142c0 -128 41 -165 150 -165z" />
    <glyph glyph-name="P" unicode="P" horiz-adv-x="542" 
d="M51 0l87 712h214c128 0 189 -48 189 -170c0 -15 -1 -33 -3 -51c-18 -162 -90 -208 -221 -208h-149l-34 -283h-83zM352 636h-141l-34 -284h139c89 0 126 28 140 142c2 19 3 34 3 48c0 73 -33 94 -107 94z" />
    <glyph glyph-name="Q" unicode="Q" horiz-adv-x="623" 
d="M288 -12c-164 0 -234 69 -234 248c0 37 3 80 9 128c32 264 99 360 297 360c165 0 235 -69 235 -244c0 -36 -2 -75 -8 -122c-14 -113 -33 -190 -72 -250l85 -108h-90l-40 50c-45 -39 -98 -62 -182 -62zM321 239l12 102l131 -167c16 45 26 106 37 187c7 49 10 90 10 125
c0 123 -43 162 -151 162c-139 0 -185 -64 -212 -287c-7 -57 -11 -103 -11 -142c0 -128 41 -165 150 -165c64 0 108 13 140 50z" />
    <glyph glyph-name="R" unicode="R" horiz-adv-x="558" 
d="M51 0l87 712h214c127 0 189 -47 189 -169c0 -16 -1 -33 -3 -52c-16 -140 -69 -187 -167 -198l128 -293h-89l-121 283h-121l-34 -283h-83zM352 636h-141l-34 -284h139c89 0 126 28 139 142c2 19 4 34 4 48c0 73 -33 94 -107 94z" />
    <glyph glyph-name="S" unicode="S" horiz-adv-x="543" 
d="M36 216h79c-8 -116 31 -162 136 -162c91 0 158 43 158 149c0 65 -43 89 -114 109l-54 15c-92 26 -159 66 -159 171c0 138 87 226 235 226c169 0 215 -87 207 -236h-79c5 120 -34 160 -131 160c-85 0 -148 -45 -148 -140c0 -67 45 -89 112 -108l55 -15
c101 -29 159 -74 159 -173c0 -143 -88 -224 -243 -224c-160 0 -225 72 -213 228z" />
    <glyph glyph-name="T" unicode="T" horiz-adv-x="522" 
d="M64 636l9 76h487l-9 -76h-203l-77 -636h-82l77 636h-202z" />
    <glyph glyph-name="U" unicode="U" horiz-adv-x="624" 
d="M73 235l59 477h83l-59 -477c-16 -133 23 -181 132 -181s160 48 176 181l58 477h83l-59 -477c-21 -167 -88 -247 -259 -247c-172 0 -234 79 -214 247z" />
    <glyph glyph-name="V" unicode="V" horiz-adv-x="562" 
d="M205 0l-136 712h82l112 -614l263 614h79l-310 -712h-90z" />
    <glyph glyph-name="W" unicode="W" horiz-adv-x="886" 
d="M168 0l-96 712h82l75 -605l243 605h61l91 -602l224 602h79l-271 -712h-88l-84 555l-225 -555h-91z" />
    <glyph glyph-name="X" unicode="X" horiz-adv-x="518" 
d="M-21 0l245 366l-151 346h87l122 -282l188 282h88l-238 -350l159 -362h-87l-128 297l-198 -297h-87z" />
    <glyph glyph-name="Y" unicode="Y" horiz-adv-x="543" 
d="M199 0l36 298l-167 414h89l131 -334l214 334h86l-272 -418l-34 -294h-83z" />
    <glyph glyph-name="Z" unicode="Z" horiz-adv-x="488" 
d="M76 636l9 76h431l-5 -50l-400 -596h318l-8 -66h-414l5 50l392 586h-328z" />
    <glyph glyph-name="bracketleft" unicode="[" horiz-adv-x="309" 
d="M31 -148l113 920h193l-8 -66h-122l-96 -788h121l-8 -66h-193z" />
    <glyph glyph-name="backslash" unicode="\" horiz-adv-x="452" 
d="M160 712l224 -712h-68l-224 712h68z" />
    <glyph glyph-name="bracketright" unicode="]" horiz-adv-x="309" 
d="M291 772l-113 -920h-192l8 66h120l97 788h-121l8 66h193z" />
    <glyph glyph-name="asciicircum" unicode="^" horiz-adv-x="560" 
d="M152 469l156 243h60l97 -243h-65l-69 173l-110 -173h-69z" />
    <glyph glyph-name="underscore" unicode="_" horiz-adv-x="578" 
d="M4 -12h505l-8 -72h-505z" />
    <glyph glyph-name="grave" unicode="`" horiz-adv-x="468" 
d="M245 568l-83 156h85l60 -156h-62z" />
    <glyph glyph-name="a" unicode="a" horiz-adv-x="454" 
d="M161 -8c-88 0 -139 47 -139 124c0 124 101 155 218 174l76 12l4 32c8 71 -3 108 -76 108c-71 0 -98 -24 -109 -97h-73c16 108 59 167 190 167c123 0 161 -69 149 -168l-41 -344h-77l7 60c-23 -37 -64 -68 -129 -68zM179 57c67 0 112 41 121 109l9 73l-70 -10
c-61 -8 -136 -23 -136 -101c0 -47 25 -71 76 -71z" />
    <glyph glyph-name="b" unicode="b" horiz-adv-x="509" 
d="M37 0l87 712h80l-33 -267c29 45 73 67 133 67c113 0 164 -60 164 -193c0 -23 -1 -44 -4 -71c-19 -181 -84 -256 -217 -256c-64 0 -106 23 -125 76l-8 -68h-77zM242 58c86 0 124 48 143 194c3 27 5 51 5 72c0 87 -32 115 -101 115c-86 0 -124 -44 -141 -187
c-3 -29 -5 -53 -5 -76c0 -88 28 -118 99 -118z" />
    <glyph glyph-name="c" unicode="c" horiz-adv-x="459" 
d="M215 -8c-121 0 -177 52 -177 183c0 23 2 50 5 78c23 181 82 259 221 259c124 0 172 -67 165 -195h-76c1 94 -22 122 -93 122c-83 0 -119 -43 -137 -186c-4 -31 -6 -57 -6 -79c0 -89 30 -116 96 -116c71 0 106 33 125 133h76c-27 -144 -88 -199 -199 -199z" />
    <glyph glyph-name="d" unicode="d" horiz-adv-x="508" 
d="M204 -8c-113 0 -166 57 -166 184c0 24 2 51 6 80c21 181 86 256 219 256c59 0 100 -21 120 -69l33 269h80l-87 -712h-77l7 65c-29 -49 -74 -73 -135 -73zM217 58c86 0 124 48 143 194c3 27 5 51 5 72c0 87 -31 115 -100 115c-86 0 -123 -44 -141 -187
c-4 -29 -6 -55 -6 -76c0 -88 30 -118 99 -118z" />
    <glyph glyph-name="e" unicode="e" horiz-adv-x="467" 
d="M213 -8c-119 0 -175 55 -175 185c0 24 2 48 6 76c22 182 85 259 222 259s180 -83 160 -248l-2 -19h-301c-4 -28 -5 -51 -5 -71c0 -93 33 -116 101 -116c69 0 101 24 118 91h72c-23 -100 -77 -157 -196 -157zM262 439c-69 0 -109 -29 -130 -132h224c7 102 -22 132 -94 132
z" />
    <glyph glyph-name="f" unicode="f" horiz-adv-x="312" 
d="M45 434l9 70h63l6 50c13 101 72 158 177 158h63l-9 -73h-60c-57 0 -84 -26 -91 -83l-6 -52h129l-9 -70h-129l-52 -434h-80l52 434h-63z" />
    <glyph glyph-name="g" unicode="g" horiz-adv-x="508" 
d="M204 -8c-113 0 -166 55 -166 182c0 23 2 50 6 79c21 181 86 259 219 259c61 0 103 -23 122 -75l9 67h77l-67 -543c-15 -119 -75 -177 -204 -177c-140 0 -179 64 -174 166h76c-5 -72 18 -100 97 -100c76 0 114 26 125 111l12 99c-29 -45 -73 -68 -132 -68zM217 58
c86 0 124 48 143 194c3 27 5 51 5 72c0 87 -31 115 -100 115c-86 0 -123 -44 -141 -187c-4 -29 -6 -55 -6 -76c0 -88 30 -118 99 -118z" />
    <glyph glyph-name="h" unicode="h" horiz-adv-x="496" 
d="M37 0l87 712h80l-32 -263c25 42 67 63 126 63c108 0 158 -65 144 -178l-41 -334h-80l39 317c11 89 -13 122 -84 122c-72 0 -110 -30 -121 -122l-38 -317h-80z" />
    <glyph glyph-name="i" unicode="i" horiz-adv-x="216" 
d="M113 618l11 94h80l-12 -94h-79zM37 0l62 504h80l-62 -504h-80z" />
    <glyph glyph-name="j" unicode="j" horiz-adv-x="216" 
d="M113 618l11 94h80l-12 -94h-79zM27 -77l72 581h80l-71 -576c-11 -88 -54 -136 -143 -136h-43l9 66h25c44 0 65 17 71 65z" />
    <glyph glyph-name="k" unicode="k" horiz-adv-x="454" 
d="M37 0l87 712h80l-56 -453l233 245h94l-203 -213l141 -291h-86l-112 235l-79 -80l-19 -155h-80z" />
    <glyph glyph-name="l" unicode="l" horiz-adv-x="216" 
d="M37 0l87 712h80l-87 -712h-80z" />
    <glyph glyph-name="m" unicode="m" horiz-adv-x="780" 
d="M37 0l62 504h77l-8 -60c24 45 67 68 130 68c72 0 118 -31 137 -84c27 56 78 84 147 84c108 0 158 -65 144 -178l-41 -334h-80l39 317c11 89 -13 122 -84 122c-72 0 -109 -31 -120 -122l-39 -317h-80l39 317c11 89 -13 122 -84 122c-72 0 -109 -31 -120 -122l-39 -317h-80
z" />
    <glyph glyph-name="n" unicode="n" horiz-adv-x="496" 
d="M37 0l62 504h77l-8 -61c25 46 68 69 130 69c108 0 158 -65 144 -178l-41 -334h-80l39 317c11 89 -13 122 -84 122c-72 0 -110 -31 -121 -122l-38 -317h-80z" />
    <glyph glyph-name="o" unicode="o" horiz-adv-x="484" 
d="M214 -8c-123 0 -176 55 -176 184c0 25 2 52 6 79c24 181 81 257 225 257c123 0 176 -55 176 -186c0 -23 -2 -50 -5 -77c-24 -181 -83 -257 -226 -257zM217 58c86 0 124 48 143 194c3 27 5 51 5 72c0 87 -31 115 -100 115c-86 0 -123 -44 -141 -187c-4 -29 -6 -55 -6 -76
c0 -88 30 -118 99 -118z" />
    <glyph glyph-name="p" unicode="p" horiz-adv-x="509" 
d="M12 -208l87 712h77l-8 -64c29 48 74 72 136 72c111 0 166 -59 166 -188c0 -24 -2 -49 -6 -76c-24 -181 -83 -256 -217 -256c-60 0 -103 21 -123 69l-33 -269h-79zM242 58c86 0 124 48 143 194c3 27 5 51 5 72c0 87 -32 115 -101 115c-86 0 -124 -44 -141 -187
c-3 -29 -5 -53 -5 -76c0 -88 28 -118 99 -118z" />
    <glyph glyph-name="q" unicode="q" horiz-adv-x="508" 
d="M204 -8c-113 0 -166 55 -166 182c0 23 2 50 6 79c21 181 86 259 219 259c61 0 103 -23 122 -75l9 67h77l-88 -712h-80l33 269c-29 -46 -73 -69 -132 -69zM217 58c86 0 124 48 143 194c3 27 5 51 5 72c0 87 -31 115 -100 115c-86 0 -123 -44 -141 -187
c-4 -29 -6 -55 -6 -76c0 -88 30 -118 99 -118z" />
    <glyph glyph-name="r" unicode="r" horiz-adv-x="310" 
d="M33 0l43 354c11 96 63 150 163 150h86l-9 -70h-76c-50 0 -78 -25 -84 -74l-43 -360h-80z" />
    <glyph glyph-name="s" unicode="s" horiz-adv-x="428" 
d="M26 143h73c-3 -67 27 -87 91 -87c65 0 106 22 106 90c0 39 -20 51 -84 67l-51 13c-65 16 -103 51 -103 122c0 108 61 164 180 164c108 0 169 -40 156 -158h-73c5 71 -21 88 -85 88s-101 -21 -101 -85c0 -35 18 -52 73 -67l52 -13c80 -20 114 -60 114 -124
c0 -109 -66 -161 -187 -161c-128 0 -164 63 -161 151z" />
    <glyph glyph-name="t" unicode="t" horiz-adv-x="330" 
d="M42 434l9 70h66l15 120h77l-15 -120h149l-10 -70h-147l-34 -276c-9 -68 10 -92 74 -92h62l-7 -66h-70c-101 0 -152 52 -139 155l34 279h-64z" />
    <glyph glyph-name="u" unicode="u" horiz-adv-x="496" 
d="M95 504h80l-39 -318c-11 -89 11 -128 83 -128c68 0 108 33 120 128l40 318h80l-62 -504h-77l7 60c-25 -45 -69 -68 -130 -68c-108 0 -158 65 -144 178z" />
    <glyph glyph-name="v" unicode="v" horiz-adv-x="440" 
d="M152 0l-108 504h81l79 -394l176 394h78l-232 -504h-74z" />
    <glyph glyph-name="w" unicode="w" horiz-adv-x="694" 
d="M134 0l-90 504h82l62 -387l163 387h57l69 -387l157 387h78l-214 -504h-73l-65 358l-152 -358h-74z" />
    <glyph glyph-name="x" unicode="x" horiz-adv-x="435" 
d="M-13 0l185 252l-124 252h85l91 -192l140 192h84l-187 -253l126 -251h-84l-94 192l-138 -192h-84z" />
    <glyph glyph-name="y" unicode="y" horiz-adv-x="440" 
d="M-9 -142h38c43 0 70 20 97 80l28 62l-108 504h81l80 -388l175 388h78l-263 -571c-42 -91 -74 -141 -169 -141h-45z" />
    <glyph glyph-name="z" unicode="z" horiz-adv-x="399" 
d="M55 434l9 70h334l-6 -46l-280 -392h226l-7 -66h-324l5 46l275 388h-232z" />
    <glyph glyph-name="braceleft" unicode="{" horiz-adv-x="369" 
d="M148 422l25 203c13 108 78 147 167 147h56l-8 -66h-56c-58 0 -81 -21 -89 -86l-22 -182c-10 -81 -34 -113 -90 -125v-2c53 -12 70 -44 60 -125l-23 -182c-8 -65 9 -86 68 -86h56l-9 -66h-56c-89 0 -144 39 -131 147l25 203c8 63 -15 80 -58 80h-33l8 60h32
c44 0 70 17 78 80z" />
    <glyph glyph-name="bar" unicode="|" horiz-adv-x="306" 
d="M64 -208l121 992h67l-121 -992h-67z" />
    <glyph glyph-name="braceright" unicode="}" horiz-adv-x="369" 
d="M288 625l-25 -203c-8 -63 14 -80 58 -80h32l-7 -60h-33c-43 0 -69 -17 -77 -80l-25 -203c-13 -108 -78 -147 -167 -147h-55l8 66h55c58 0 81 21 89 86l22 182c10 81 33 113 89 125v2c-52 12 -69 44 -59 125l23 182c8 65 -9 86 -68 86h-56l9 66h56c89 0 144 -39 131 -147z
" />
    <glyph glyph-name="asciitilde" unicode="~" horiz-adv-x="560" 
d="M57 257l8 66c21 18 55 56 120 56c100 0 127 -80 209 -80c65 0 102 39 123 56l-8 -66c-21 -18 -55 -56 -120 -56c-93 0 -118 80 -209 80c-63 0 -102 -37 -123 -56z" />
    <glyph glyph-name="uni00A0" unicode="&#xa0;" horiz-adv-x="214" 
 />
    <glyph glyph-name="exclamdown" unicode="&#xa1;" horiz-adv-x="225" 
d="M115 610l12 102h84l-13 -102h-83zM42 0l79 498h44l-43 -498h-80z" />
    <glyph glyph-name="cent" unicode="&#xa2;" horiz-adv-x="560" 
d="M220 0l12 98c-100 13 -147 68 -147 188c0 23 1 44 4 71c20 167 79 246 206 257l12 98h80l-12 -99c100 -15 142 -79 138 -192h-78c0 93 -31 122 -111 122c-93 0 -136 -43 -155 -186c-3 -27 -5 -50 -5 -70c0 -96 37 -125 114 -125c80 0 123 33 142 133h76
c-25 -132 -83 -187 -184 -198l-12 -97h-80z" />
    <glyph glyph-name="sterling" unicode="&#xa3;" horiz-adv-x="560" 
d="M40 299l9 70h61l19 151c16 128 87 204 230 204c158 0 198 -91 190 -236h-78c5 120 -24 160 -115 160c-88 0 -133 -37 -144 -128l-19 -151h195l-9 -70h-194l-28 -233h337l-7 -66h-421l36 299h-62z" />
    <glyph glyph-name="currency" unicode="&#xa4;" horiz-adv-x="560" 
d="M135 189l-33 38l56 50c-12 19 -18 41 -18 68c0 39 14 76 37 107l-42 49l39 35l42 -48c27 17 57 28 92 28c34 0 63 -9 87 -28l56 51l34 -38l-56 -50c11 -19 17 -41 17 -66c0 -41 -13 -77 -38 -108l44 -50l-40 -35l-42 48c-27 -19 -57 -28 -92 -28s-64 10 -87 27zM282 268
c55 0 106 49 106 110c0 48 -34 81 -83 81c-57 0 -107 -48 -107 -108c0 -48 33 -83 84 -83z" />
    <glyph glyph-name="yen" unicode="&#xa5;" horiz-adv-x="560" 
d="M61 283l9 69h146l-138 360h89l127 -341l215 341h85l-229 -360h148l-9 -69h-181l-9 -74h182l-9 -70h-181l-17 -139h-83l17 139h-179l9 70h178l9 74h-179z" />
    <glyph glyph-name="brokenbar" unicode="&#xa6;" horiz-adv-x="306" 
d="M138 404l46 380h68l-46 -380h-68zM111 187h68l-48 -395h-68z" />
    <glyph glyph-name="section" unicode="&#xa7;" horiz-adv-x="550" 
d="M336 322l-111 40c-73 26 -128 67 -128 155c0 128 86 207 222 207c167 0 224 -87 213 -236h-79c5 120 -38 160 -135 160c-69 0 -137 -34 -137 -119c0 -60 43 -79 101 -100l103 -38c81 -30 127 -61 127 -124c0 -43 -20 -79 -48 -112l-58 27c13 16 24 38 24 61
c0 39 -33 57 -94 79zM18 20h79c-7 -120 39 -167 135 -167c71 0 136 39 136 124c0 59 -43 76 -100 97l-103 37c-80 29 -126 61 -126 124c0 43 19 79 47 112l57 -26c-12 -17 -22 -39 -22 -62c0 -37 33 -56 93 -78l112 -41c72 -26 126 -65 126 -151c0 -125 -87 -205 -219 -205
c-165 0 -223 87 -215 236z" />
    <glyph glyph-name="dieresis" unicode="&#xa8;" horiz-adv-x="468" 
d="M317 597l11 94h80l-11 -94h-80zM149 597l12 94h79l-11 -94h-80z" />
    <glyph glyph-name="copyright" unicode="&#xa9;" horiz-adv-x="700" 
d="M354 -12c-233 0 -308 101 -308 368s74 368 308 368s308 -101 308 -368s-75 -368 -308 -368zM354 32c204 0 261 91 261 324s-57 320 -261 320s-261 -87 -261 -320s57 -324 261 -324zM358 152c-125 0 -155 58 -155 212c0 166 35 208 155 208c117 0 131 -54 136 -163h-69
c-2 74 -14 95 -67 95c-64 0 -82 -19 -82 -140c0 -133 18 -151 82 -151c53 0 65 21 67 97h69c-5 -102 -27 -158 -136 -158z" />
    <glyph glyph-name="ordfeminine" unicode="&#xaa;" horiz-adv-x="383" 
d="M60 245l5 51h259l-6 -51h-258zM178 348c-60 0 -96 34 -96 86c0 92 75 114 154 127l52 9c3 23 4 32 4 41c0 35 -13 51 -50 51c-47 0 -64 -18 -71 -67h-62c11 77 44 125 139 125s119 -58 111 -126l-28 -238h-66l6 43c-17 -28 -46 -51 -93 -51zM282 520l-44 -7
c-41 -6 -88 -18 -88 -69c0 -29 16 -43 48 -43c39 0 73 21 78 68z" />
    <glyph glyph-name="guillemotleft" unicode="&#xab;" horiz-adv-x="397" 
d="M259 64l-71 192l119 192h67l-108 -192l60 -192h-67zM109 64l-71 192l119 192h66l-108 -192l60 -192h-66z" />
    <glyph glyph-name="logicalnot" unicode="&#xac;" horiz-adv-x="560" 
d="M51 257l8 66h448l-32 -263h-66l23 197h-381z" />
    <glyph glyph-name="uni00AD" unicode="&#xad;" horiz-adv-x="414" 
d="M62 258l7 67h292l-7 -67h-292z" />
    <glyph glyph-name="registered" unicode="&#xae;" horiz-adv-x="430" 
d="M255 364c-141 0 -186 60 -186 221c0 160 45 220 186 220c142 0 187 -60 187 -220c0 -161 -45 -221 -187 -221zM255 395c121 0 155 50 155 190c0 139 -34 187 -155 187c-120 0 -154 -48 -154 -187c0 -140 34 -190 154 -190zM171 465v247h91c52 0 81 -25 81 -81
c0 -41 -13 -65 -41 -74l50 -92h-58l-41 79h-31v-79h-51zM257 667h-35v-76h37c23 0 33 12 33 38c0 25 -11 38 -35 38z" />
    <glyph glyph-name="macron" unicode="&#xaf;" horiz-adv-x="468" 
d="M145 617l7 58h262l-7 -58h-262z" />
    <glyph glyph-name="degree" unicode="&#xb0;" horiz-adv-x="330" 
d="M200 487c-68 0 -109 46 -109 106c0 69 51 127 128 127c67 0 109 -45 109 -106c0 -68 -52 -127 -128 -127zM203 540c39 0 69 29 69 72c0 32 -21 56 -56 56c-39 0 -69 -30 -69 -73c0 -31 21 -55 56 -55z" />
    <glyph glyph-name="plusminus" unicode="&#xb1;" horiz-adv-x="560" 
d="M71 373l7 66h191l23 181h66l-23 -181h191l-7 -66h-192l-22 -181h-66l22 181h-190zM25 0l7 66h448l-7 -66h-448z" />
    <glyph glyph-name="twosuperior" unicode="&#xb2;" 
d="M66 516l4 39c7 60 47 94 99 119l46 23c35 17 70 34 70 80c0 32 -19 44 -54 44c-47 0 -66 -16 -78 -71h-66c16 84 56 130 147 130c83 0 122 -36 122 -100c0 -60 -43 -101 -100 -128l-50 -25c-45 -23 -61 -32 -66 -59h185l-6 -52h-253z" />
    <glyph glyph-name="threesuperior" unicode="&#xb3;" 
d="M67 632h66c-3 -56 15 -72 63 -72c40 0 72 15 72 63c0 28 -14 42 -57 42h-37l7 54h37c37 0 66 19 66 60c0 28 -19 42 -58 42c-40 0 -67 -15 -76 -70h-66c15 83 57 129 146 129c84 0 123 -39 123 -95c0 -43 -18 -68 -55 -88c25 -11 41 -35 41 -71c0 -80 -59 -118 -146 -118
c-92 0 -131 35 -126 124z" />
    <glyph glyph-name="acute" unicode="&#xb4;" horiz-adv-x="468" 
d="M225 568l100 156h91l-123 -156h-68z" />
    <glyph glyph-name="mu" unicode="&#xb5;" horiz-adv-x="513" 
d="M114 29l-29 -237h-74l87 712h80l-38 -319c-11 -91 11 -127 83 -127c69 0 108 33 120 128l39 318h80l-46 -373c-6 -48 2 -65 47 -65h14l-7 -66h-30c-59 0 -92 20 -101 61c-28 -47 -74 -69 -130 -69c-48 0 -78 13 -95 37z" />
    <glyph glyph-name="paragraph" unicode="&#xb6;" horiz-adv-x="522" 
d="M271 228h-24c-135 0 -191 49 -191 178c0 24 2 51 6 81c19 169 97 225 240 225h111l-87 -712h-83zM368 0l87 712h42l-87 -712h-42z" />
    <glyph glyph-name="periodcentered" unicode="&#xb7;" horiz-adv-x="206" 
d="M58 237l13 102h85l-13 -102h-85z" />
    <glyph glyph-name="cedilla" unicode="&#xb8;" horiz-adv-x="468" 
d="M154 -78l32 78h30l-5 -37c69 -4 98 -36 98 -80c0 -68 -57 -99 -126 -99h-76l6 46h57c37 0 73 10 73 54c0 25 -20 38 -61 38h-28z" />
    <glyph glyph-name="onesuperior" unicode="&#xb9;" 
d="M185 516l35 289l-94 -30l7 59l113 38h52l-43 -356h-70z" />
    <glyph glyph-name="ordmasculine" unicode="&#xba;" horiz-adv-x="404" 
d="M66 245l6 51h270l-5 -51h-271zM218 348c-91 0 -129 40 -129 133c0 17 1 35 3 55c16 131 55 184 162 184c92 0 130 -40 130 -132c0 -17 -1 -35 -3 -54c-16 -130 -55 -186 -163 -186zM220 403c58 0 79 31 92 132c3 19 4 35 4 50c0 57 -18 74 -65 74c-55 0 -79 -25 -90 -124
c-3 -23 -4 -40 -4 -55c0 -59 19 -77 63 -77z" />
    <glyph glyph-name="guillemotright" unicode="&#xbb;" horiz-adv-x="396" 
d="M174 64l108 192l-60 192h66l71 -192l-119 -192h-66zM23 64l108 192l-60 192h67l70 -192l-118 -192h-67z" />
    <glyph glyph-name="onequarter" unicode="&#xbc;" horiz-adv-x="692" 
d="M143 356l35 289l-94 -30l7 59l113 38h52l-43 -356h-70zM44 0l542 712h60l-542 -712h-60zM342 77l5 44l179 235h87l-28 -225h50l-6 -54h-50l-9 -77h-67l9 77h-170zM416 131h102l19 156z" />
    <glyph glyph-name="onehalf" unicode="&#xbd;" horiz-adv-x="692" 
d="M145 356l35 289l-94 -30l7 59l113 38h52l-43 -356h-70zM26 0l542 712h60l-542 -712h-60zM356 0l4 39c7 60 47 94 99 119l46 23c35 17 70 34 70 80c0 32 -19 44 -54 44c-47 0 -66 -16 -78 -71h-66c16 84 56 130 147 130c83 0 122 -36 122 -100c0 -60 -43 -101 -100 -128
l-50 -25c-45 -23 -61 -32 -66 -59h185l-6 -52h-253z" />
    <glyph glyph-name="threequarters" unicode="&#xbe;" horiz-adv-x="692" 
d="M50 472h66c-3 -56 15 -72 63 -72c40 0 72 15 72 63c0 28 -14 42 -57 42h-37l7 54h37c37 0 66 19 66 60c0 28 -19 42 -58 42c-40 0 -67 -15 -76 -70h-66c15 83 57 129 146 129c84 0 123 -39 123 -95c0 -43 -18 -68 -55 -88c25 -11 41 -35 41 -71c0 -80 -59 -118 -146 -118
c-92 0 -131 35 -126 124zM73 0l542 712h60l-542 -712h-60zM367 77l5 44l179 235h87l-28 -225h50l-6 -54h-50l-9 -77h-67l9 77h-170zM441 131h102l19 156z" />
    <glyph glyph-name="questiondown" unicode="&#xbf;" horiz-adv-x="386" 
d="M228 610l13 102h83l-13 -102h-83zM18 151c0 175 189 199 201 310l4 37h69l-5 -45c-16 -125 -188 -162 -188 -291c0 -64 37 -96 118 -96h121l-8 -66h-116c-136 0 -196 63 -196 151z" />
    <glyph glyph-name="Agrave" unicode="&#xc0;" horiz-adv-x="562" 
d="M-17 0l309 712h90l136 -712h-82l-32 172h-270l-73 -172h-78zM324 614l-160 -372h228zM315 776l-83 156h85l60 -156h-62z" />
    <glyph glyph-name="Aacute" unicode="&#xc1;" horiz-adv-x="562" 
d="M-17 0l309 712h90l136 -712h-82l-32 172h-270l-73 -172h-78zM324 614l-160 -372h228zM295 776l100 156h91l-123 -156h-68z" />
    <glyph glyph-name="Acircumflex" unicode="&#xc2;" horiz-adv-x="562" 
d="M-17 0l309 712h90l136 -712h-82l-32 172h-270l-73 -172h-78zM324 614l-160 -372h228zM200 776l124 156h71l85 -156h-67l-56 110l-84 -110h-73z" />
    <glyph glyph-name="Atilde" unicode="&#xc3;" horiz-adv-x="562" 
d="M-17 0l309 712h90l136 -712h-82l-32 172h-270l-73 -172h-78zM324 614l-160 -372h228zM218 792l6 51c7 51 32 70 72 70c51 0 72 -64 105 -64c11 0 18 8 20 25l4 39h56l-7 -51c-7 -51 -32 -70 -71 -70c-51 0 -75 63 -104 63c-12 0 -19 -8 -21 -25l-5 -38h-55z" />
    <glyph glyph-name="Adieresis" unicode="&#xc4;" horiz-adv-x="562" 
d="M-17 0l309 712h90l136 -712h-82l-32 172h-270l-73 -172h-78zM324 614l-160 -372h228zM387 805l11 94h80l-11 -94h-80zM219 805l12 94h79l-11 -94h-80z" />
    <glyph glyph-name="Aring" unicode="&#xc5;" horiz-adv-x="562" 
d="M-17 0l309 712h90l136 -712h-82l-32 172h-270l-73 -172h-78zM324 614l-160 -372h228zM344 808c44 0 59 28 59 71c0 24 -10 41 -45 41c-44 0 -59 -29 -59 -72c0 -24 10 -40 45 -40zM343 769c-59 0 -88 28 -88 79c0 59 33 110 104 110c59 0 88 -28 88 -79
c0 -59 -33 -110 -104 -110z" />
    <glyph glyph-name="AE" unicode="&#xc6;" horiz-adv-x="815" 
d="M-21 0l352 712h492l-9 -79h-296l-29 -237h273l-8 -70h-273l-31 -254h295l-9 -72h-378l21 172h-232l-84 -172h-84zM374 633l-192 -391h205l48 391h-61z" />
    <glyph glyph-name="Ccedilla" unicode="&#xc7;" horiz-adv-x="590" 
d="M235 -78l27 67c-152 6 -208 74 -208 244c0 37 3 80 9 128c32 264 99 363 297 363c184 0 225 -88 212 -273h-78c8 148 -15 197 -134 197c-139 0 -185 -64 -212 -287c-7 -57 -11 -103 -11 -142c0 -128 41 -165 150 -165c119 0 155 56 184 205h79
c-32 -192 -100 -268 -255 -271l-3 -25c69 -4 98 -36 98 -80c0 -68 -57 -99 -126 -99h-76l6 46h57c37 0 73 10 73 54c0 25 -20 38 -61 38h-28z" />
    <glyph glyph-name="Egrave" unicode="&#xc8;" horiz-adv-x="510" 
d="M51 0l87 712h381l-9 -76h-299l-28 -235h274l-9 -70h-274l-32 -265h298l-8 -66h-381zM316 776l-83 156h85l60 -156h-62z" />
    <glyph glyph-name="Eacute" unicode="&#xc9;" horiz-adv-x="510" 
d="M51 0l87 712h381l-9 -76h-299l-28 -235h274l-9 -70h-274l-32 -265h298l-8 -66h-381zM296 776l100 156h91l-123 -156h-68z" />
    <glyph glyph-name="Ecircumflex" unicode="&#xca;" horiz-adv-x="510" 
d="M51 0l87 712h381l-9 -76h-299l-28 -235h274l-9 -70h-274l-32 -265h298l-8 -66h-381zM201 776l124 156h71l85 -156h-67l-56 110l-84 -110h-73z" />
    <glyph glyph-name="Edieresis" unicode="&#xcb;" horiz-adv-x="510" 
d="M51 0l87 712h381l-9 -76h-299l-28 -235h274l-9 -70h-274l-32 -265h298l-8 -66h-381zM388 805l11 94h80l-11 -94h-80zM220 805l12 94h79l-11 -94h-80z" />
    <glyph glyph-name="Igrave" unicode="&#xcc;" horiz-adv-x="246" 
d="M51 0l87 712h83l-87 -712h-83zM158 776l-83 156h85l60 -156h-62z" />
    <glyph glyph-name="Iacute" unicode="&#xcd;" horiz-adv-x="246" 
d="M51 0l87 712h83l-87 -712h-83zM138 776l100 156h91l-123 -156h-68z" />
    <glyph glyph-name="Icircumflex" unicode="&#xce;" horiz-adv-x="246" 
d="M51 0l87 712h83l-87 -712h-83zM43 776l124 156h71l85 -156h-67l-56 110l-84 -110h-73z" />
    <glyph glyph-name="Idieresis" unicode="&#xcf;" horiz-adv-x="246" 
d="M51 0l87 712h83l-87 -712h-83zM230 805l11 94h80l-11 -94h-80zM62 805l12 94h79l-11 -94h-80z" />
    <glyph glyph-name="Eth" unicode="&#xd0;" horiz-adv-x="633" 
d="M41 334l8 63h59l39 315h221c166 0 236 -69 236 -241c0 -35 -3 -70 -8 -113c-32 -262 -96 -358 -296 -358h-240l41 334h-60zM368 636h-148l-29 -239h147l-8 -63h-146l-33 -268h147c140 0 184 63 213 295c6 46 9 85 9 117c0 119 -40 158 -152 158z" />
    <glyph glyph-name="Ntilde" unicode="&#xd1;" horiz-adv-x="638" 
d="M51 0l87 712h73l251 -550l68 550h83l-87 -712h-73l-252 549l-67 -549h-83zM266 792l6 51c7 51 32 70 72 70c51 0 72 -64 105 -64c11 0 18 8 20 25l4 39h56l-7 -51c-7 -51 -32 -70 -71 -70c-51 0 -75 63 -104 63c-12 0 -19 -8 -21 -25l-5 -38h-55z" />
    <glyph glyph-name="Ograve" unicode="&#xd2;" horiz-adv-x="623" 
d="M288 -12c-164 0 -234 69 -234 248c0 37 3 80 9 128c32 264 99 360 297 360c165 0 235 -70 235 -245c0 -36 -3 -76 -8 -121c-33 -274 -98 -370 -299 -370zM287 54c141 0 182 62 214 307c6 49 10 90 10 125c0 123 -41 162 -151 162c-139 0 -185 -64 -212 -287
c-7 -57 -11 -103 -11 -142c0 -128 41 -165 150 -165zM352 776l-83 156h85l60 -156h-62z" />
    <glyph glyph-name="Oacute" unicode="&#xd3;" horiz-adv-x="623" 
d="M288 -12c-164 0 -234 69 -234 248c0 37 3 80 9 128c32 264 99 360 297 360c165 0 235 -70 235 -245c0 -36 -3 -76 -8 -121c-33 -274 -98 -370 -299 -370zM287 54c141 0 182 62 214 307c6 49 10 90 10 125c0 123 -41 162 -151 162c-139 0 -185 -64 -212 -287
c-7 -57 -11 -103 -11 -142c0 -128 41 -165 150 -165zM332 776l100 156h91l-123 -156h-68z" />
    <glyph glyph-name="Ocircumflex" unicode="&#xd4;" horiz-adv-x="623" 
d="M288 -12c-164 0 -234 69 -234 248c0 37 3 80 9 128c32 264 99 360 297 360c165 0 235 -70 235 -245c0 -36 -3 -76 -8 -121c-33 -274 -98 -370 -299 -370zM287 54c141 0 182 62 214 307c6 49 10 90 10 125c0 123 -41 162 -151 162c-139 0 -185 -64 -212 -287
c-7 -57 -11 -103 -11 -142c0 -128 41 -165 150 -165zM237 776l124 156h71l85 -156h-67l-56 110l-84 -110h-73z" />
    <glyph glyph-name="Otilde" unicode="&#xd5;" horiz-adv-x="623" 
d="M288 -12c-164 0 -234 69 -234 248c0 37 3 80 9 128c32 264 99 360 297 360c165 0 235 -70 235 -245c0 -36 -3 -76 -8 -121c-33 -274 -98 -370 -299 -370zM287 54c141 0 182 62 214 307c6 49 10 90 10 125c0 123 -41 162 -151 162c-139 0 -185 -64 -212 -287
c-7 -57 -11 -103 -11 -142c0 -128 41 -165 150 -165zM255 792l6 51c7 51 32 70 72 70c51 0 72 -64 105 -64c11 0 18 8 20 25l4 39h56l-7 -51c-7 -51 -32 -70 -71 -70c-51 0 -75 63 -104 63c-12 0 -19 -8 -21 -25l-5 -38h-55z" />
    <glyph glyph-name="Odieresis" unicode="&#xd6;" horiz-adv-x="623" 
d="M288 -12c-164 0 -234 69 -234 248c0 37 3 80 9 128c32 264 99 360 297 360c165 0 235 -70 235 -245c0 -36 -3 -76 -8 -121c-33 -274 -98 -370 -299 -370zM287 54c141 0 182 62 214 307c6 49 10 90 10 125c0 123 -41 162 -151 162c-139 0 -185 -64 -212 -287
c-7 -57 -11 -103 -11 -142c0 -128 41 -165 150 -165zM424 805l11 94h80l-11 -94h-80zM256 805l12 94h79l-11 -94h-80z" />
    <glyph glyph-name="multiply" unicode="&#xd7;" horiz-adv-x="560" 
d="M124 104l-43 48l156 139l-118 135l51 46l118 -135l155 138l43 -49l-155 -138l120 -136l-52 -45l-119 135z" />
    <glyph glyph-name="Oslash" unicode="&#xd8;" horiz-adv-x="633" 
d="M11 0l10 85l48 48c-7 27 -10 62 -10 103c0 37 3 80 9 128c32 264 98 360 297 360c104 0 169 -27 204 -91l79 79l-10 -85l-49 -49c7 -29 10 -60 10 -99c0 -36 -3 -76 -8 -121c-32 -274 -98 -370 -298 -370c-104 0 -169 26 -204 90zM292 54c141 0 185 62 214 307
c6 49 9 90 9 125c0 7 -1 12 -1 17l-364 -364c17 -64 61 -85 142 -85zM142 219v-13l363 363c-19 59 -60 79 -140 79c-141 0 -185 -64 -212 -287c-7 -57 -11 -103 -11 -142z" />
    <glyph glyph-name="Ugrave" unicode="&#xd9;" horiz-adv-x="624" 
d="M73 235l59 477h83l-59 -477c-16 -133 23 -181 132 -181s160 48 176 181l58 477h83l-59 -477c-21 -167 -88 -247 -259 -247c-172 0 -234 79 -214 247zM354 776l-83 156h85l60 -156h-62z" />
    <glyph glyph-name="Uacute" unicode="&#xda;" horiz-adv-x="624" 
d="M73 235l59 477h83l-59 -477c-16 -133 23 -181 132 -181s160 48 176 181l58 477h83l-59 -477c-21 -167 -88 -247 -259 -247c-172 0 -234 79 -214 247zM334 776l100 156h91l-123 -156h-68z" />
    <glyph glyph-name="Ucircumflex" unicode="&#xdb;" horiz-adv-x="624" 
d="M73 235l59 477h83l-59 -477c-16 -133 23 -181 132 -181s160 48 176 181l58 477h83l-59 -477c-21 -167 -88 -247 -259 -247c-172 0 -234 79 -214 247zM239 776l124 156h71l85 -156h-67l-56 110l-84 -110h-73z" />
    <glyph glyph-name="Udieresis" unicode="&#xdc;" horiz-adv-x="624" 
d="M73 235l59 477h83l-59 -477c-16 -133 23 -181 132 -181s160 48 176 181l58 477h83l-59 -477c-21 -167 -88 -247 -259 -247c-172 0 -234 79 -214 247zM426 805l11 94h80l-11 -94h-80zM258 805l12 94h79l-11 -94h-80z" />
    <glyph glyph-name="Yacute" unicode="&#xdd;" horiz-adv-x="543" 
d="M199 0l36 298l-167 414h89l131 -334l214 334h86l-272 -418l-34 -294h-83zM295 776l100 156h91l-123 -156h-68z" />
    <glyph glyph-name="Thorn" unicode="&#xde;" horiz-adv-x="540" 
d="M51 0l87 712h83l-18 -142h134c121 0 184 -46 184 -165c0 -17 -1 -33 -3 -49c-19 -157 -94 -202 -215 -202h-150l-19 -154h-83zM337 494h-143l-33 -270h142c80 0 119 25 132 134c2 17 3 31 3 43c0 72 -33 93 -101 93z" />
    <glyph glyph-name="germandbls" unicode="&#xdf;" horiz-adv-x="541" 
d="M218 0l7 66h42c86 0 133 28 146 137c2 16 3 30 3 42c0 75 -36 96 -112 96h-37l9 69h25c81 0 109 35 120 122c2 13 3 25 3 36c0 61 -29 83 -100 83c-84 0 -113 -30 -122 -105l-66 -546h-80l52 434h-63l9 70h63l5 42c13 109 61 178 205 178c127 0 176 -52 176 -152
c0 -15 -1 -29 -3 -44c-9 -77 -34 -123 -90 -146c63 -25 86 -74 86 -142c0 -14 -1 -28 -3 -43c-16 -138 -83 -197 -227 -197h-48z" />
    <glyph glyph-name="agrave" unicode="&#xe0;" horiz-adv-x="454" 
d="M161 -8c-88 0 -139 47 -139 124c0 124 101 155 218 174l76 12l4 32c8 71 -3 108 -76 108c-71 0 -98 -24 -109 -97h-73c16 108 59 167 190 167c123 0 161 -69 149 -168l-41 -344h-77l7 60c-23 -37 -64 -68 -129 -68zM179 57c67 0 112 41 121 109l9 73l-70 -10
c-61 -8 -136 -23 -136 -101c0 -47 25 -71 76 -71zM237 568l-83 156h85l60 -156h-62z" />
    <glyph glyph-name="aacute" unicode="&#xe1;" horiz-adv-x="454" 
d="M161 -8c-88 0 -139 47 -139 124c0 124 101 155 218 174l76 12l4 32c8 71 -3 108 -76 108c-71 0 -98 -24 -109 -97h-73c16 108 59 167 190 167c123 0 161 -69 149 -168l-41 -344h-77l7 60c-23 -37 -64 -68 -129 -68zM179 57c67 0 112 41 121 109l9 73l-70 -10
c-61 -8 -136 -23 -136 -101c0 -47 25 -71 76 -71zM217 568l100 156h91l-123 -156h-68z" />
    <glyph glyph-name="acircumflex" unicode="&#xe2;" horiz-adv-x="454" 
d="M161 -8c-88 0 -139 47 -139 124c0 124 101 155 218 174l76 12l4 32c8 71 -3 108 -76 108c-71 0 -98 -24 -109 -97h-73c16 108 59 167 190 167c123 0 161 -69 149 -168l-41 -344h-77l7 60c-23 -37 -64 -68 -129 -68zM179 57c67 0 112 41 121 109l9 73l-70 -10
c-61 -8 -136 -23 -136 -101c0 -47 25 -71 76 -71zM122 568l124 156h71l85 -156h-67l-56 110l-84 -110h-73z" />
    <glyph glyph-name="atilde" unicode="&#xe3;" horiz-adv-x="454" 
d="M161 -8c-88 0 -139 47 -139 124c0 124 101 155 218 174l76 12l4 32c8 71 -3 108 -76 108c-71 0 -98 -24 -109 -97h-73c16 108 59 167 190 167c123 0 161 -69 149 -168l-41 -344h-77l7 60c-23 -37 -64 -68 -129 -68zM179 57c67 0 112 41 121 109l9 73l-70 -10
c-61 -8 -136 -23 -136 -101c0 -47 25 -71 76 -71zM140 584l6 51c7 51 32 70 72 70c51 0 72 -64 105 -64c11 0 18 8 20 25l4 39h56l-7 -51c-7 -51 -32 -70 -71 -70c-51 0 -75 63 -104 63c-12 0 -19 -8 -21 -25l-5 -38h-55z" />
    <glyph glyph-name="adieresis" unicode="&#xe4;" horiz-adv-x="454" 
d="M161 -8c-88 0 -139 47 -139 124c0 124 101 155 218 174l76 12l4 32c8 71 -3 108 -76 108c-71 0 -98 -24 -109 -97h-73c16 108 59 167 190 167c123 0 161 -69 149 -168l-41 -344h-77l7 60c-23 -37 -64 -68 -129 -68zM179 57c67 0 112 41 121 109l9 73l-70 -10
c-61 -8 -136 -23 -136 -101c0 -47 25 -71 76 -71zM309 597l11 94h80l-11 -94h-80zM141 597l12 94h79l-11 -94h-80z" />
    <glyph glyph-name="aring" unicode="&#xe5;" horiz-adv-x="454" 
d="M161 -8c-88 0 -139 47 -139 124c0 124 101 155 218 174l76 12l4 32c8 71 -3 108 -76 108c-71 0 -98 -24 -109 -97h-73c16 108 59 167 190 167c123 0 161 -69 149 -168l-41 -344h-77l7 60c-23 -37 -64 -68 -129 -68zM179 57c67 0 112 41 121 109l9 73l-70 -10
c-61 -8 -136 -23 -136 -101c0 -47 25 -71 76 -71zM266 600c44 0 59 28 59 71c0 24 -10 41 -45 41c-44 0 -59 -29 -59 -72c0 -24 10 -40 45 -40zM265 561c-59 0 -88 28 -88 79c0 59 33 110 104 110c59 0 88 -28 88 -79c0 -59 -33 -110 -104 -110z" />
    <glyph glyph-name="ae" unicode="&#xe6;" horiz-adv-x="734" 
d="M159 -8c-86 0 -137 48 -137 121c0 123 107 156 218 174l76 12l4 35c9 72 -3 108 -76 108c-71 0 -98 -24 -109 -97h-73c16 108 59 167 190 167c68 0 109 -22 129 -58c36 40 85 58 152 58c137 0 180 -83 160 -248l-2 -19h-301c-4 -28 -5 -51 -5 -71c0 -93 33 -116 101 -116
c69 0 101 24 118 91h72c-22 -100 -77 -157 -195 -157c-86 0 -138 28 -162 90c-23 -53 -80 -90 -160 -90zM178 57c63 0 112 35 122 114l8 65l-70 -10c-54 -8 -135 -23 -135 -100c0 -44 25 -69 75 -69zM529 439c-69 0 -109 -29 -130 -132h224c7 102 -22 132 -94 132z" />
    <glyph glyph-name="ccedilla" unicode="&#xe7;" horiz-adv-x="459" 
d="M161 -78l29 71c-104 7 -152 60 -152 182c0 23 2 50 5 78c23 181 82 259 221 259c124 0 172 -67 165 -195h-76c1 94 -22 122 -93 122c-83 0 -119 -43 -137 -186c-4 -31 -6 -57 -6 -79c0 -89 30 -116 96 -116c71 0 106 33 125 133h76c-27 -141 -86 -196 -192 -199l-4 -29
c69 -4 98 -36 98 -80c0 -68 -57 -99 -126 -99h-76l6 46h57c37 0 73 10 73 54c0 25 -20 38 -61 38h-28z" />
    <glyph glyph-name="egrave" unicode="&#xe8;" horiz-adv-x="467" 
d="M213 -8c-119 0 -175 55 -175 185c0 24 2 48 6 76c22 182 85 259 222 259s180 -83 160 -248l-2 -19h-301c-4 -28 -5 -51 -5 -71c0 -93 33 -116 101 -116c69 0 101 24 118 91h72c-23 -100 -77 -157 -196 -157zM262 439c-69 0 -109 -29 -130 -132h224c7 102 -22 132 -94 132
zM247 568l-83 156h85l60 -156h-62z" />
    <glyph glyph-name="eacute" unicode="&#xe9;" horiz-adv-x="467" 
d="M213 -8c-119 0 -175 55 -175 185c0 24 2 48 6 76c22 182 85 259 222 259s180 -83 160 -248l-2 -19h-301c-4 -28 -5 -51 -5 -71c0 -93 33 -116 101 -116c69 0 101 24 118 91h72c-23 -100 -77 -157 -196 -157zM262 439c-69 0 -109 -29 -130 -132h224c7 102 -22 132 -94 132
zM227 568l100 156h91l-123 -156h-68z" />
    <glyph glyph-name="ecircumflex" unicode="&#xea;" horiz-adv-x="467" 
d="M213 -8c-119 0 -175 55 -175 185c0 24 2 48 6 76c22 182 85 259 222 259s180 -83 160 -248l-2 -19h-301c-4 -28 -5 -51 -5 -71c0 -93 33 -116 101 -116c69 0 101 24 118 91h72c-23 -100 -77 -157 -196 -157zM262 439c-69 0 -109 -29 -130 -132h224c7 102 -22 132 -94 132
zM132 568l124 156h71l85 -156h-67l-56 110l-84 -110h-73z" />
    <glyph glyph-name="edieresis" unicode="&#xeb;" horiz-adv-x="467" 
d="M213 -8c-119 0 -175 55 -175 185c0 24 2 48 6 76c22 182 85 259 222 259s180 -83 160 -248l-2 -19h-301c-4 -28 -5 -51 -5 -71c0 -93 33 -116 101 -116c69 0 101 24 118 91h72c-23 -100 -77 -157 -196 -157zM262 439c-69 0 -109 -29 -130 -132h224c7 102 -22 132 -94 132
zM319 597l11 94h80l-11 -94h-80zM151 597l12 94h79l-11 -94h-80z" />
    <glyph glyph-name="igrave" unicode="&#xec;" horiz-adv-x="216" 
d="M37 0l62 504h80l-62 -504h-80zM123 568l-83 156h85l60 -156h-62z" />
    <glyph glyph-name="iacute" unicode="&#xed;" horiz-adv-x="216" 
d="M37 0l62 504h80l-62 -504h-80zM103 568l100 156h91l-123 -156h-68z" />
    <glyph glyph-name="icircumflex" unicode="&#xee;" horiz-adv-x="216" 
d="M37 0l62 504h80l-62 -504h-80zM8 568l124 156h71l85 -156h-67l-56 110l-84 -110h-73z" />
    <glyph glyph-name="idieresis" unicode="&#xef;" horiz-adv-x="216" 
d="M37 0l62 504h80l-62 -504h-80zM195 597l11 94h80l-11 -94h-80zM27 597l12 94h79l-11 -94h-80z" />
    <glyph glyph-name="eth" unicode="&#xf0;" horiz-adv-x="486" 
d="M148 520l6 52l128 50l-47 90h84l33 -62l158 62l-6 -53l-130 -51c43 -84 70 -177 70 -282c0 -27 -1 -52 -4 -79c-23 -177 -89 -255 -222 -255c-121 0 -180 51 -180 180c0 23 2 44 5 71c24 179 83 253 220 253c35 0 65 -8 89 -29c-11 35 -27 71 -48 114zM122 236
c-3 -27 -5 -51 -5 -71c0 -84 31 -107 100 -107c86 0 123 41 141 178c4 27 5 51 5 72c0 87 -31 115 -100 115c-86 0 -125 -40 -141 -187z" />
    <glyph glyph-name="ntilde" unicode="&#xf1;" horiz-adv-x="496" 
d="M37 0l62 504h77l-8 -61c25 46 68 69 130 69c108 0 158 -65 144 -178l-41 -334h-80l39 317c11 89 -13 122 -84 122c-72 0 -110 -31 -121 -122l-38 -317h-80zM160 584l6 51c7 51 32 70 72 70c51 0 72 -64 105 -64c11 0 18 8 20 25l4 39h56l-7 -51c-7 -51 -32 -70 -71 -70
c-51 0 -75 63 -104 63c-12 0 -19 -8 -21 -25l-5 -38h-55z" />
    <glyph glyph-name="ograve" unicode="&#xf2;" horiz-adv-x="484" 
d="M214 -8c-123 0 -176 55 -176 184c0 25 2 52 6 79c24 181 81 257 225 257c123 0 176 -55 176 -186c0 -23 -2 -50 -5 -77c-24 -181 -83 -257 -226 -257zM217 58c86 0 124 48 143 194c3 27 5 51 5 72c0 87 -31 115 -100 115c-86 0 -123 -44 -141 -187c-4 -29 -6 -55 -6 -76
c0 -88 30 -118 99 -118zM251 568l-83 156h85l60 -156h-62z" />
    <glyph glyph-name="oacute" unicode="&#xf3;" horiz-adv-x="484" 
d="M214 -8c-123 0 -176 55 -176 184c0 25 2 52 6 79c24 181 81 257 225 257c123 0 176 -55 176 -186c0 -23 -2 -50 -5 -77c-24 -181 -83 -257 -226 -257zM217 58c86 0 124 48 143 194c3 27 5 51 5 72c0 87 -31 115 -100 115c-86 0 -123 -44 -141 -187c-4 -29 -6 -55 -6 -76
c0 -88 30 -118 99 -118zM231 568l100 156h91l-123 -156h-68z" />
    <glyph glyph-name="ocircumflex" unicode="&#xf4;" horiz-adv-x="484" 
d="M214 -8c-123 0 -176 55 -176 184c0 25 2 52 6 79c24 181 81 257 225 257c123 0 176 -55 176 -186c0 -23 -2 -50 -5 -77c-24 -181 -83 -257 -226 -257zM217 58c86 0 124 48 143 194c3 27 5 51 5 72c0 87 -31 115 -100 115c-86 0 -123 -44 -141 -187c-4 -29 -6 -55 -6 -76
c0 -88 30 -118 99 -118zM136 568l124 156h71l85 -156h-67l-56 110l-84 -110h-73z" />
    <glyph glyph-name="otilde" unicode="&#xf5;" horiz-adv-x="484" 
d="M214 -8c-123 0 -176 55 -176 184c0 25 2 52 6 79c24 181 81 257 225 257c123 0 176 -55 176 -186c0 -23 -2 -50 -5 -77c-24 -181 -83 -257 -226 -257zM217 58c86 0 124 48 143 194c3 27 5 51 5 72c0 87 -31 115 -100 115c-86 0 -123 -44 -141 -187c-4 -29 -6 -55 -6 -76
c0 -88 30 -118 99 -118zM154 584l6 51c7 51 32 70 72 70c51 0 72 -64 105 -64c11 0 18 8 20 25l4 39h56l-7 -51c-7 -51 -32 -70 -71 -70c-51 0 -75 63 -104 63c-12 0 -19 -8 -21 -25l-5 -38h-55z" />
    <glyph glyph-name="odieresis" unicode="&#xf6;" horiz-adv-x="484" 
d="M214 -8c-123 0 -176 55 -176 184c0 25 2 52 6 79c24 181 81 257 225 257c123 0 176 -55 176 -186c0 -23 -2 -50 -5 -77c-24 -181 -83 -257 -226 -257zM217 58c86 0 124 48 143 194c3 27 5 51 5 72c0 87 -31 115 -100 115c-86 0 -123 -44 -141 -187c-4 -29 -6 -55 -6 -76
c0 -88 30 -118 99 -118zM323 597l11 94h80l-11 -94h-80zM155 597l12 94h79l-11 -94h-80z" />
    <glyph glyph-name="divide" unicode="&#xf7;" horiz-adv-x="560" 
d="M275 473l13 107h66l-13 -107h-66zM57 257l8 66h448l-8 -66h-448zM217 0l13 107h66l-13 -107h-66z" />
    <glyph glyph-name="oslash" unicode="&#xf8;" horiz-adv-x="494" 
d="M8 0l8 71l35 33c-5 19 -7 44 -7 73c0 23 2 51 5 79c21 181 82 256 225 256c73 0 123 -22 150 -66l63 58l-9 -71l-35 -33c5 -23 8 -48 8 -75c0 -25 -2 -50 -6 -77c-24 -181 -82 -256 -226 -256c-73 0 -122 22 -149 65zM223 58c86 0 123 48 142 194c4 27 6 51 6 72v10
l-240 -221c13 -40 41 -55 92 -55zM124 176v-6l238 219c-15 36 -44 50 -92 50c-86 0 -124 -44 -141 -187c-3 -29 -5 -53 -5 -76z" />
    <glyph glyph-name="ugrave" unicode="&#xf9;" horiz-adv-x="496" 
d="M95 504h80l-39 -318c-11 -89 11 -128 83 -128c68 0 108 33 120 128l40 318h80l-62 -504h-77l7 60c-25 -45 -69 -68 -130 -68c-108 0 -158 65 -144 178zM256 568l-83 156h85l60 -156h-62z" />
    <glyph glyph-name="uacute" unicode="&#xfa;" horiz-adv-x="496" 
d="M95 504h80l-39 -318c-11 -89 11 -128 83 -128c68 0 108 33 120 128l40 318h80l-62 -504h-77l7 60c-25 -45 -69 -68 -130 -68c-108 0 -158 65 -144 178zM236 568l100 156h91l-123 -156h-68z" />
    <glyph glyph-name="ucircumflex" unicode="&#xfb;" horiz-adv-x="496" 
d="M95 504h80l-39 -318c-11 -89 11 -128 83 -128c68 0 108 33 120 128l40 318h80l-62 -504h-77l7 60c-25 -45 -69 -68 -130 -68c-108 0 -158 65 -144 178zM141 568l124 156h71l85 -156h-67l-56 110l-84 -110h-73z" />
    <glyph glyph-name="udieresis" unicode="&#xfc;" horiz-adv-x="496" 
d="M95 504h80l-39 -318c-11 -89 11 -128 83 -128c68 0 108 33 120 128l40 318h80l-62 -504h-77l7 60c-25 -45 -69 -68 -130 -68c-108 0 -158 65 -144 178zM328 597l11 94h80l-11 -94h-80zM160 597l12 94h79l-11 -94h-80z" />
    <glyph glyph-name="yacute" unicode="&#xfd;" horiz-adv-x="440" 
d="M-9 -142h38c43 0 70 20 97 80l28 62l-108 504h81l80 -388l175 388h78l-263 -571c-42 -91 -74 -141 -169 -141h-45zM222 568l100 156h91l-123 -156h-68z" />
    <glyph glyph-name="thorn" unicode="&#xfe;" horiz-adv-x="509" 
d="M12 -208l112 920h80l-34 -268c29 45 73 68 134 68c111 0 166 -59 166 -188c0 -24 -2 -49 -6 -76c-24 -181 -83 -256 -217 -256c-61 0 -104 22 -123 71l-33 -271h-79zM242 58c86 0 124 48 143 194c3 27 5 51 5 72c0 87 -32 115 -101 115c-86 0 -124 -44 -141 -187
c-3 -29 -5 -53 -5 -76c0 -88 28 -118 99 -118z" />
    <glyph glyph-name="ydieresis" unicode="&#xff;" horiz-adv-x="440" 
d="M-9 -142h38c43 0 70 20 97 80l28 62l-108 504h81l80 -388l175 388h78l-263 -571c-42 -91 -74 -141 -169 -141h-45zM314 597l11 94h80l-11 -94h-80zM146 597l12 94h79l-11 -94h-80z" />
    <glyph glyph-name="Amacron" unicode="&#x100;" horiz-adv-x="562" 
d="M-17 0l309 712h90l136 -712h-82l-32 172h-270l-73 -172h-78zM324 614l-160 -372h228zM215 825l7 58h262l-7 -58h-262z" />
    <glyph glyph-name="amacron" unicode="&#x101;" horiz-adv-x="454" 
d="M161 -8c-88 0 -139 47 -139 124c0 124 101 155 218 174l76 12l4 32c8 71 -3 108 -76 108c-71 0 -98 -24 -109 -97h-73c16 108 59 167 190 167c123 0 161 -69 149 -168l-41 -344h-77l7 60c-23 -37 -64 -68 -129 -68zM179 57c67 0 112 41 121 109l9 73l-70 -10
c-61 -8 -136 -23 -136 -101c0 -47 25 -71 76 -71zM137 617l7 58h262l-7 -58h-262z" />
    <glyph glyph-name="Abreve" unicode="&#x102;" horiz-adv-x="562" 
d="M-17 0l309 712h90l136 -712h-82l-32 172h-270l-73 -172h-78zM324 614l-160 -372h228zM343 769c-76 0 -122 46 -113 145h49c-7 -67 16 -93 67 -93s79 26 90 93h49c-15 -100 -61 -145 -142 -145z" />
    <glyph glyph-name="abreve" unicode="&#x103;" horiz-adv-x="454" 
d="M161 -8c-88 0 -139 47 -139 124c0 124 101 155 218 174l76 12l4 32c8 71 -3 108 -76 108c-71 0 -98 -24 -109 -97h-73c16 108 59 167 190 167c123 0 161 -69 149 -168l-41 -344h-77l7 60c-23 -37 -64 -68 -129 -68zM179 57c67 0 112 41 121 109l9 73l-70 -10
c-61 -8 -136 -23 -136 -101c0 -47 25 -71 76 -71zM265 561c-76 0 -122 46 -113 145h49c-7 -67 16 -93 67 -93s79 26 90 93h49c-15 -100 -61 -145 -142 -145z" />
    <glyph glyph-name="Aogonek" unicode="&#x104;" horiz-adv-x="562" 
d="M512 -216h-37c-68 0 -103 29 -103 77c0 61 59 99 104 139h-40l-32 172h-270l-73 -172h-78l309 712h90l136 -712c-45 -41 -87 -79 -87 -122c0 -29 16 -43 49 -43h38zM324 614l-160 -372h228z" />
    <glyph glyph-name="aogonek" unicode="&#x105;" horiz-adv-x="454" 
d="M161 -8c-88 0 -139 47 -139 124c0 124 101 155 218 174l76 12l4 32c8 71 -3 108 -76 108c-71 0 -98 -24 -109 -97h-73c16 108 59 167 190 167c123 0 161 -69 149 -168l-41 -344c-47 -41 -88 -78 -88 -122c0 -29 17 -43 50 -43h38l-6 -51h-38c-68 0 -102 29 -102 77
c0 62 57 98 103 139h-34l7 60c-23 -37 -64 -68 -129 -68zM300 166l9 73l-70 -10c-61 -8 -136 -25 -136 -101c0 -47 25 -71 76 -71c67 0 113 41 121 109z" />
    <glyph glyph-name="Cacute" unicode="&#x106;" horiz-adv-x="590" 
d="M288 -12c-171 0 -234 66 -234 245c0 37 3 80 9 128c32 264 99 363 297 363c184 0 225 -88 212 -273h-78c8 148 -15 197 -134 197c-139 0 -185 -64 -212 -287c-7 -57 -11 -103 -11 -142c0 -128 41 -165 150 -165c119 0 155 56 184 205h79c-32 -195 -102 -271 -262 -271z
M326 776l100 156h91l-123 -156h-68z" />
    <glyph glyph-name="cacute" unicode="&#x107;" horiz-adv-x="459" 
d="M215 -8c-121 0 -177 52 -177 183c0 23 2 50 5 78c23 181 82 259 221 259c124 0 172 -67 165 -195h-76c1 94 -22 122 -93 122c-83 0 -119 -43 -137 -186c-4 -31 -6 -57 -6 -79c0 -89 30 -116 96 -116c71 0 106 33 125 133h76c-27 -144 -88 -199 -199 -199zM232 568
l100 156h91l-123 -156h-68z" />
    <glyph glyph-name="Ccircumflex" unicode="&#x108;" horiz-adv-x="590" 
d="M288 -12c-171 0 -234 66 -234 245c0 37 3 80 9 128c32 264 99 363 297 363c184 0 225 -88 212 -273h-78c8 148 -15 197 -134 197c-139 0 -185 -64 -212 -287c-7 -57 -11 -103 -11 -142c0 -128 41 -165 150 -165c119 0 155 56 184 205h79c-32 -195 -102 -271 -262 -271z
M231 776l124 156h71l85 -156h-67l-56 110l-84 -110h-73z" />
    <glyph glyph-name="ccircumflex" unicode="&#x109;" horiz-adv-x="459" 
d="M215 -8c-121 0 -177 52 -177 183c0 23 2 50 5 78c23 181 82 259 221 259c124 0 172 -67 165 -195h-76c1 94 -22 122 -93 122c-83 0 -119 -43 -137 -186c-4 -31 -6 -57 -6 -79c0 -89 30 -116 96 -116c71 0 106 33 125 133h76c-27 -144 -88 -199 -199 -199zM137 568
l124 156h71l85 -156h-67l-56 110l-84 -110h-73z" />
    <glyph glyph-name="Cdotaccent" unicode="&#x10a;" horiz-adv-x="590" 
d="M288 -12c-171 0 -234 66 -234 245c0 37 3 80 9 128c32 264 99 363 297 363c184 0 225 -88 212 -273h-78c8 148 -15 197 -134 197c-139 0 -185 -64 -212 -287c-7 -57 -11 -103 -11 -142c0 -128 41 -165 150 -165c119 0 155 56 184 205h79c-32 -195 -102 -271 -262 -271z
M334 805l11 94h80l-11 -94h-80z" />
    <glyph glyph-name="cdotaccent" unicode="&#x10b;" horiz-adv-x="459" 
d="M215 -8c-121 0 -177 52 -177 183c0 23 2 50 5 78c23 181 82 259 221 259c124 0 172 -67 165 -195h-76c1 94 -22 122 -93 122c-83 0 -119 -43 -137 -186c-4 -31 -6 -57 -6 -79c0 -89 30 -116 96 -116c71 0 106 33 125 133h76c-27 -144 -88 -199 -199 -199zM240 597l11 94
h80l-11 -94h-80z" />
    <glyph glyph-name="Ccaron" unicode="&#x10c;" horiz-adv-x="590" 
d="M288 -12c-171 0 -234 66 -234 245c0 37 3 80 9 128c32 264 99 363 297 363c184 0 225 -88 212 -273h-78c8 148 -15 197 -134 197c-139 0 -185 -64 -212 -287c-7 -57 -11 -103 -11 -142c0 -128 41 -165 150 -165c119 0 155 56 184 205h79c-32 -195 -102 -271 -262 -271z
M336 776l-85 156h67l56 -110l84 110h74l-125 -156h-71z" />
    <glyph glyph-name="ccaron" unicode="&#x10d;" horiz-adv-x="459" 
d="M215 -8c-121 0 -177 52 -177 183c0 23 2 50 5 78c23 181 82 259 221 259c124 0 172 -67 165 -195h-76c1 94 -22 122 -93 122c-83 0 -119 -43 -137 -186c-4 -31 -6 -57 -6 -79c0 -89 30 -116 96 -116c71 0 106 33 125 133h76c-27 -144 -88 -199 -199 -199zM242 568
l-85 156h67l56 -110l84 110h74l-125 -156h-71z" />
    <glyph glyph-name="Dcaron" unicode="&#x10e;" horiz-adv-x="615" 
d="M51 0l87 712h213c165 0 235 -68 235 -240c0 -35 -2 -71 -7 -114c-32 -262 -96 -358 -296 -358h-232zM351 636h-140l-69 -570h139c140 0 184 63 213 295c6 46 9 85 9 117c0 119 -40 158 -152 158zM323 776l-85 156h67l56 -110l84 110h74l-125 -156h-71z" />
    <glyph glyph-name="dcaron" unicode="&#x10f;" horiz-adv-x="512" 
d="M204 -8c-113 0 -166 57 -166 184c0 24 2 51 6 80c21 181 86 256 219 256c59 0 100 -21 120 -69l33 269h80l-87 -712h-77l7 65c-29 -49 -74 -73 -135 -73zM217 58c86 0 124 48 143 194c3 27 5 51 5 72c0 87 -31 115 -100 115c-86 0 -123 -44 -141 -187
c-4 -29 -6 -55 -6 -76c0 -88 30 -118 99 -118zM537 712h80l-7 -52l-57 -100h-35z" />
    <glyph glyph-name="Dcroat" unicode="&#x110;" horiz-adv-x="633" 
d="M41 334l8 63h59l39 315h221c166 0 236 -69 236 -241c0 -35 -3 -70 -8 -113c-32 -262 -96 -358 -296 -358h-240l41 334h-60zM368 636h-148l-29 -239h147l-8 -63h-146l-33 -268h147c140 0 184 63 213 295c6 46 9 85 9 117c0 119 -40 158 -152 158z" />
    <glyph glyph-name="dcroat" unicode="&#x111;" horiz-adv-x="508" 
d="M279 581l7 58h121l9 73h80l-9 -73h61l-7 -58h-61l-71 -581h-77l7 65c-29 -49 -74 -73 -135 -73c-113 0 -166 57 -166 184c0 24 2 51 6 80c21 181 86 256 219 256c59 0 100 -21 120 -69l17 138h-121zM217 58c86 0 124 48 143 194c3 27 5 51 5 72c0 87 -31 115 -100 115
c-86 0 -123 -44 -141 -187c-4 -29 -6 -55 -6 -76c0 -88 30 -118 99 -118z" />
    <glyph glyph-name="Emacron" unicode="&#x112;" horiz-adv-x="510" 
d="M51 0l87 712h381l-9 -76h-299l-28 -235h274l-9 -70h-274l-32 -265h298l-8 -66h-381zM216 825l7 58h262l-7 -58h-262z" />
    <glyph glyph-name="emacron" unicode="&#x113;" horiz-adv-x="467" 
d="M213 -8c-119 0 -175 55 -175 185c0 24 2 48 6 76c22 182 85 259 222 259s180 -83 160 -248l-2 -19h-301c-4 -28 -5 -51 -5 -71c0 -93 33 -116 101 -116c69 0 101 24 118 91h72c-23 -100 -77 -157 -196 -157zM262 439c-69 0 -109 -29 -130 -132h224c7 102 -22 132 -94 132
zM147 617l7 58h262l-7 -58h-262z" />
    <glyph glyph-name="Ebreve" unicode="&#x114;" horiz-adv-x="510" 
d="M51 0l87 712h381l-9 -76h-299l-28 -235h274l-9 -70h-274l-32 -265h298l-8 -66h-381zM344 769c-76 0 -122 46 -113 145h49c-7 -67 16 -93 67 -93s79 26 90 93h49c-15 -100 -61 -145 -142 -145z" />
    <glyph glyph-name="ebreve" unicode="&#x115;" horiz-adv-x="467" 
d="M213 -8c-119 0 -175 55 -175 185c0 24 2 48 6 76c22 182 85 259 222 259s180 -83 160 -248l-2 -19h-301c-4 -28 -5 -51 -5 -71c0 -93 33 -116 101 -116c69 0 101 24 118 91h72c-23 -100 -77 -157 -196 -157zM262 439c-69 0 -109 -29 -130 -132h224c7 102 -22 132 -94 132
zM275 561c-76 0 -122 46 -113 145h49c-7 -67 16 -93 67 -93s79 26 90 93h49c-15 -100 -61 -145 -142 -145z" />
    <glyph glyph-name="Edotaccent" unicode="&#x116;" horiz-adv-x="510" 
d="M51 0l87 712h381l-9 -76h-299l-28 -235h274l-9 -70h-274l-32 -265h298l-8 -66h-381zM304 805l11 94h80l-11 -94h-80z" />
    <glyph glyph-name="edotaccent" unicode="&#x117;" horiz-adv-x="467" 
d="M213 -8c-119 0 -175 55 -175 185c0 24 2 48 6 76c22 182 85 259 222 259s180 -83 160 -248l-2 -19h-301c-4 -28 -5 -51 -5 -71c0 -93 33 -116 101 -116c69 0 101 24 118 91h72c-23 -100 -77 -157 -196 -157zM262 439c-69 0 -109 -29 -130 -132h224c7 102 -22 132 -94 132
zM235 597l11 94h80l-11 -94h-80z" />
    <glyph glyph-name="Eogonek" unicode="&#x118;" horiz-adv-x="510" 
d="M51 0l87 712h381l-9 -76h-299l-28 -235h274l-9 -70h-274l-32 -265h298l-8 -66h-21c-45 -41 -87 -78 -87 -122c0 -29 17 -43 50 -43h37l-6 -51h-37c-68 0 -102 29 -102 77c0 62 57 98 103 139h-318z" />
    <glyph glyph-name="eogonek" unicode="&#x119;" horiz-adv-x="467" 
d="M271 -216c-68 0 -103 29 -103 77c0 59 53 97 98 136c-16 -3 -34 -5 -53 -5c-119 0 -175 55 -175 185c0 24 2 48 6 76c22 182 85 259 222 259s180 -83 160 -248l-2 -19h-301c-4 -28 -5 -51 -5 -71c0 -93 33 -116 101 -116c69 0 101 24 118 91h72c-11 -46 -27 -84 -54 -109
l-42 -40c-45 -42 -83 -74 -87 -122c0 -29 18 -43 50 -43h38l-6 -51h-37zM262 439c-69 0 -109 -29 -130 -132h224c7 102 -22 132 -94 132z" />
    <glyph glyph-name="Ecaron" unicode="&#x11a;" horiz-adv-x="510" 
d="M51 0l87 712h381l-9 -76h-299l-28 -235h274l-9 -70h-274l-32 -265h298l-8 -66h-381zM306 776l-85 156h67l56 -110l84 110h74l-125 -156h-71z" />
    <glyph glyph-name="ecaron" unicode="&#x11b;" horiz-adv-x="467" 
d="M213 -8c-119 0 -175 55 -175 185c0 24 2 48 6 76c22 182 85 259 222 259s180 -83 160 -248l-2 -19h-301c-4 -28 -5 -51 -5 -71c0 -93 33 -116 101 -116c69 0 101 24 118 91h72c-23 -100 -77 -157 -196 -157zM262 439c-69 0 -109 -29 -130 -132h224c7 102 -22 132 -94 132
zM237 568l-85 156h67l56 -110l84 110h74l-125 -156h-71z" />
    <glyph glyph-name="Gcircumflex" unicode="&#x11c;" horiz-adv-x="598" 
d="M317 300l9 70h240l-12 -102c-23 -191 -101 -280 -265 -280c-165 0 -235 66 -235 245c0 37 3 80 9 128c32 264 98 363 297 363c170 0 222 -80 217 -236h-79c4 113 -31 160 -138 160c-139 0 -185 -64 -212 -287c-7 -57 -11 -103 -11 -142c0 -128 41 -165 150 -165
c121 0 169 61 188 214l4 32h-162zM231 776l124 156h71l85 -156h-67l-56 110l-84 -110h-73z" />
    <glyph glyph-name="gcircumflex" unicode="&#x11d;" horiz-adv-x="508" 
d="M204 -8c-113 0 -166 55 -166 182c0 23 2 50 6 79c21 181 86 259 219 259c61 0 103 -23 122 -75l9 67h77l-67 -543c-15 -119 -75 -177 -204 -177c-140 0 -179 64 -174 166h76c-5 -72 18 -100 97 -100c76 0 114 26 125 111l12 99c-29 -45 -73 -68 -132 -68zM217 58
c86 0 124 48 143 194c3 27 5 51 5 72c0 87 -31 115 -100 115c-86 0 -123 -44 -141 -187c-4 -29 -6 -55 -6 -76c0 -88 30 -118 99 -118zM136 568l124 156h71l85 -156h-67l-56 110l-84 -110h-73z" />
    <glyph glyph-name="Gbreve" unicode="&#x11e;" horiz-adv-x="598" 
d="M317 300l9 70h240l-12 -102c-23 -191 -101 -280 -265 -280c-165 0 -235 66 -235 245c0 37 3 80 9 128c32 264 98 363 297 363c170 0 222 -80 217 -236h-79c4 113 -31 160 -138 160c-139 0 -185 -64 -212 -287c-7 -57 -11 -103 -11 -142c0 -128 41 -165 150 -165
c121 0 169 61 188 214l4 32h-162zM374 769c-76 0 -122 46 -113 145h49c-7 -67 16 -93 67 -93s79 26 90 93h49c-15 -100 -61 -145 -142 -145z" />
    <glyph glyph-name="gbreve" unicode="&#x11f;" horiz-adv-x="508" 
d="M204 -8c-113 0 -166 55 -166 182c0 23 2 50 6 79c21 181 86 259 219 259c61 0 103 -23 122 -75l9 67h77l-67 -543c-15 -119 -75 -177 -204 -177c-140 0 -179 64 -174 166h76c-5 -72 18 -100 97 -100c76 0 114 26 125 111l12 99c-29 -45 -73 -68 -132 -68zM217 58
c86 0 124 48 143 194c3 27 5 51 5 72c0 87 -31 115 -100 115c-86 0 -123 -44 -141 -187c-4 -29 -6 -55 -6 -76c0 -88 30 -118 99 -118zM279 561c-76 0 -122 46 -113 145h49c-7 -67 16 -93 67 -93s79 26 90 93h49c-15 -100 -61 -145 -142 -145z" />
    <glyph glyph-name="Gdotaccent" unicode="&#x120;" horiz-adv-x="598" 
d="M317 300l9 70h240l-12 -102c-23 -191 -101 -280 -265 -280c-165 0 -235 66 -235 245c0 37 3 80 9 128c32 264 98 363 297 363c170 0 222 -80 217 -236h-79c4 113 -31 160 -138 160c-139 0 -185 -64 -212 -287c-7 -57 -11 -103 -11 -142c0 -128 41 -165 150 -165
c121 0 169 61 188 214l4 32h-162zM334 805l11 94h80l-11 -94h-80z" />
    <glyph glyph-name="gdotaccent" unicode="&#x121;" horiz-adv-x="508" 
d="M204 -8c-113 0 -166 55 -166 182c0 23 2 50 6 79c21 181 86 259 219 259c61 0 103 -23 122 -75l9 67h77l-67 -543c-15 -119 -75 -177 -204 -177c-140 0 -179 64 -174 166h76c-5 -72 18 -100 97 -100c76 0 114 26 125 111l12 99c-29 -45 -73 -68 -132 -68zM217 58
c86 0 124 48 143 194c3 27 5 51 5 72c0 87 -31 115 -100 115c-86 0 -123 -44 -141 -187c-4 -29 -6 -55 -6 -76c0 -88 30 -118 99 -118zM239 597l11 94h80l-11 -94h-80z" />
    <glyph glyph-name="uni0122" unicode="&#x122;" horiz-adv-x="598" 
d="M317 300l9 70h240l-12 -102c-23 -191 -101 -280 -265 -280c-165 0 -235 66 -235 245c0 37 3 80 9 128c32 264 98 363 297 363c170 0 222 -80 217 -236h-79c4 113 -31 160 -138 160c-139 0 -185 -64 -212 -287c-7 -57 -11 -103 -11 -142c0 -128 41 -165 150 -165
c121 0 169 61 188 214l4 32h-162zM233 -56h80l-7 -52l-57 -100h-35z" />
    <glyph glyph-name="uni0123" unicode="&#x123;" horiz-adv-x="508" 
d="M204 -8c-113 0 -166 55 -166 182c0 23 2 50 6 79c21 181 86 259 219 259c61 0 103 -23 122 -75l9 67h77l-67 -543c-15 -119 -75 -177 -204 -177c-140 0 -179 64 -174 166h76c-5 -72 18 -100 97 -100c76 0 114 26 125 111l12 99c-29 -45 -73 -68 -132 -68zM217 58
c86 0 124 48 143 194c3 27 5 51 5 72c0 87 -31 115 -100 115c-86 0 -123 -44 -141 -187c-4 -29 -6 -55 -6 -76c0 -88 30 -118 99 -118zM238 560l6 52l56 100h36l-19 -152h-79z" />
    <glyph glyph-name="Hcircumflex" unicode="&#x124;" horiz-adv-x="638" 
d="M51 0l87 712h83l-38 -311h309l38 311h83l-87 -712h-83l40 330h-309l-40 -330h-83zM243 776l124 156h71l85 -156h-67l-56 110l-84 -110h-73z" />
    <glyph glyph-name="hcircumflex" unicode="&#x125;" horiz-adv-x="496" 
d="M37 0l87 712h80l-32 -263c25 42 67 63 126 63c108 0 158 -65 144 -178l-41 -334h-80l39 317c11 89 -13 122 -84 122c-72 0 -110 -30 -121 -122l-38 -317h-80zM32 776l124 156h71l85 -156h-67l-56 110l-84 -110h-73z" />
    <glyph glyph-name="Hbar" unicode="&#x126;" horiz-adv-x="639" 
d="M63 525l9 63h50l16 124h83l-16 -124h309l16 124h83l-16 -124h52l-8 -63h-51l-64 -525h-83l40 330h-309l-40 -330h-83l64 525h-52zM198 525l-15 -124h309l15 124h-309z" />
    <glyph glyph-name="hbar" unicode="&#x127;" horiz-adv-x="496" 
d="M47 581l7 58h61l9 73h80l-9 -73h121l-7 -58h-121l-16 -132c25 42 67 63 126 63c108 0 158 -65 144 -178l-41 -334h-80l39 317c11 89 -13 122 -84 122c-72 0 -110 -30 -121 -122l-38 -317h-80l71 581h-61z" />
    <glyph glyph-name="Itilde" unicode="&#x128;" horiz-adv-x="246" 
d="M51 0l87 712h83l-87 -712h-83zM61 792l6 51c7 51 32 70 72 70c51 0 72 -64 105 -64c11 0 18 8 20 25l4 39h56l-7 -51c-7 -51 -32 -70 -71 -70c-51 0 -75 63 -104 63c-12 0 -19 -8 -21 -25l-5 -38h-55z" />
    <glyph glyph-name="itilde" unicode="&#x129;" horiz-adv-x="216" 
d="M37 0l62 504h80l-62 -504h-80zM26 584l6 51c7 51 32 70 72 70c51 0 72 -64 105 -64c11 0 18 8 20 25l4 39h56l-7 -51c-7 -51 -32 -70 -71 -70c-51 0 -75 63 -104 63c-12 0 -19 -8 -21 -25l-5 -38h-55z" />
    <glyph glyph-name="Imacron" unicode="&#x12a;" horiz-adv-x="246" 
d="M51 0l87 712h83l-87 -712h-83zM58 825l7 58h262l-7 -58h-262z" />
    <glyph glyph-name="imacron" unicode="&#x12b;" horiz-adv-x="216" 
d="M37 0l62 504h80l-62 -504h-80zM23 617l7 58h262l-7 -58h-262z" />
    <glyph glyph-name="Ibreve" unicode="&#x12c;" horiz-adv-x="246" 
d="M51 0l87 712h83l-87 -712h-83zM186 769c-76 0 -122 46 -113 145h49c-7 -67 16 -93 67 -93s79 26 90 93h49c-15 -100 -61 -145 -142 -145z" />
    <glyph glyph-name="ibreve" unicode="&#x12d;" horiz-adv-x="216" 
d="M37 0l62 504h80l-62 -504h-80zM151 561c-76 0 -122 46 -113 145h49c-7 -67 16 -93 67 -93s79 26 90 93h49c-15 -100 -61 -145 -142 -145z" />
    <glyph glyph-name="Iogonek" unicode="&#x12e;" horiz-adv-x="246" 
d="M51 0l87 712h83l-87 -712c-45 -41 -88 -79 -88 -122c0 -29 17 -43 50 -43h38l-6 -51h-37c-68 0 -103 29 -103 77c0 62 57 98 103 139h-40z" />
    <glyph glyph-name="iogonek" unicode="&#x12f;" horiz-adv-x="216" 
d="M37 0l62 504h80l-62 -504c-45 -41 -87 -78 -87 -122c0 -29 16 -43 49 -43h38l-6 -51h-37c-68 0 -103 29 -103 77c0 61 56 99 104 139h-38zM113 618l11 94h80l-12 -94h-79z" />
    <glyph glyph-name="Idotaccent" unicode="&#x130;" horiz-adv-x="246" 
d="M51 0l87 712h83l-87 -712h-83zM146 805l11 94h80l-11 -94h-80z" />
    <glyph glyph-name="dotlessi" unicode="&#x131;" horiz-adv-x="216" 
d="M37 0l62 504h80l-62 -504h-80z" />
    <glyph glyph-name="IJ" unicode="&#x132;" horiz-adv-x="616" 
d="M51 0l87 712h83l-87 -712h-83zM226 66h79c91 0 133 37 144 124l64 522h83l-64 -520c-16 -131 -77 -192 -225 -192h-88z" />
    <glyph glyph-name="ij" unicode="&#x133;" horiz-adv-x="418" 
d="M113 618l11 94h80l-12 -94h-79zM37 0l62 504h80l-62 -504h-80zM315 618l11 94h80l-12 -94h-79zM229 -77l72 581h80l-71 -576c-11 -88 -54 -136 -143 -136h-43l9 66h25c44 0 65 17 71 65z" />
    <glyph glyph-name="Jcircumflex" unicode="&#x134;" horiz-adv-x="385" 
d="M-5 66h79c91 0 133 37 144 124l64 522h83l-64 -520c-16 -131 -77 -192 -225 -192h-88zM191 776l124 156h71l85 -156h-67l-56 110l-84 -110h-73z" />
    <glyph glyph-name="jcircumflex" unicode="&#x135;" horiz-adv-x="216" 
d="M27 -77l72 581h80l-71 -576c-11 -88 -55 -136 -144 -136h-42l9 66h26c44 0 63 17 70 65zM8 568l124 156h71l85 -156h-67l-56 110l-84 -110h-73z" />
    <glyph glyph-name="uni0136" unicode="&#x136;" horiz-adv-x="567" 
d="M51 0l87 712h83l-47 -385l348 385h95l-282 -311l193 -401h-89l-164 340l-115 -128l-26 -212h-83zM231 -56h80l-7 -52l-57 -100h-35z" />
    <glyph glyph-name="uni0137" unicode="&#x137;" horiz-adv-x="454" 
d="M37 0l87 712h80l-56 -453l233 245h94l-203 -213l141 -291h-86l-112 235l-79 -80l-19 -155h-80zM173 -56h80l-7 -52l-57 -100h-35z" />
    <glyph glyph-name="Lacute" unicode="&#x139;" horiz-adv-x="477" 
d="M51 0l87 712h83l-79 -646h298l-8 -66h-381zM143 776l100 156h91l-123 -156h-68z" />
    <glyph glyph-name="lacute" unicode="&#x13a;" horiz-adv-x="216" 
d="M37 0l87 712h80l-87 -712h-80zM124 776l100 156h91l-123 -156h-68z" />
    <glyph glyph-name="uni013B" unicode="&#x13b;" horiz-adv-x="477" 
d="M51 0l87 712h83l-79 -646h298l-8 -66h-381zM193 -56h80l-7 -52l-57 -100h-35z" />
    <glyph glyph-name="uni013C" unicode="&#x13c;" horiz-adv-x="216" 
d="M37 0l87 712h80l-87 -712h-80zM32 -56h80l-7 -52l-57 -100h-35z" />
    <glyph glyph-name="Lcaron" unicode="&#x13d;" horiz-adv-x="478" 
d="M51 0l87 712h83l-79 -646h298l-8 -66h-381zM369 712h80l-7 -52l-57 -100h-35z" />
    <glyph glyph-name="lcaron" unicode="&#x13e;" horiz-adv-x="220" 
d="M37 0l87 712h80l-87 -712h-80zM247 712h80l-7 -52l-57 -100h-35z" />
    <glyph glyph-name="Ldot" unicode="&#x13f;" horiz-adv-x="480" 
d="M51 0l87 712h83l-79 -646h298l-8 -66h-381zM340 327l11 94h80l-11 -94h-80z" />
    <glyph glyph-name="ldot" unicode="&#x140;" horiz-adv-x="251" 
d="M37 0l87 712h80l-87 -712h-80zM202 327l11 94h80l-11 -94h-80z" />
    <glyph glyph-name="Lslash" unicode="&#x141;" horiz-adv-x="487" 
d="M12 198l10 75l79 56l47 383h82l-39 -319l201 142l-10 -75l-200 -142l-31 -252h298l-7 -66h-381l31 254z" />
    <glyph glyph-name="lslash" unicode="&#x142;" horiz-adv-x="269" 
d="M23 256l7 66l81 57l41 333h80l-33 -272l82 58l-9 -66l-81 -58l-46 -374h-80l38 312z" />
    <glyph glyph-name="Nacute" unicode="&#x143;" horiz-adv-x="638" 
d="M51 0l87 712h73l251 -550l68 550h83l-87 -712h-73l-252 549l-67 -549h-83zM343 776l100 156h91l-123 -156h-68z" />
    <glyph glyph-name="nacute" unicode="&#x144;" horiz-adv-x="496" 
d="M37 0l62 504h77l-8 -61c25 46 68 69 130 69c108 0 158 -65 144 -178l-41 -334h-80l39 317c11 89 -13 122 -84 122c-72 0 -110 -31 -121 -122l-38 -317h-80zM237 568l100 156h91l-123 -156h-68z" />
    <glyph glyph-name="uni0145" unicode="&#x145;" horiz-adv-x="638" 
d="M51 0l87 712h73l251 -550l68 550h83l-87 -712h-73l-252 549l-67 -549h-83zM250 -56h80l-7 -52l-57 -100h-35z" />
    <glyph glyph-name="uni0146" unicode="&#x146;" horiz-adv-x="496" 
d="M37 0l62 504h77l-8 -61c25 46 68 69 130 69c108 0 158 -65 144 -178l-41 -334h-80l39 317c11 89 -13 122 -84 122c-72 0 -110 -31 -121 -122l-38 -317h-80zM172 -56h80l-7 -52l-57 -100h-35z" />
    <glyph glyph-name="Ncaron" unicode="&#x147;" horiz-adv-x="638" 
d="M51 0l87 712h73l251 -550l68 550h83l-87 -712h-73l-252 549l-67 -549h-83zM353 776l-85 156h67l56 -110l84 110h74l-125 -156h-71z" />
    <glyph glyph-name="ncaron" unicode="&#x148;" horiz-adv-x="496" 
d="M37 0l62 504h77l-8 -61c25 46 68 69 130 69c108 0 158 -65 144 -178l-41 -334h-80l39 317c11 89 -13 122 -84 122c-72 0 -110 -31 -121 -122l-38 -317h-80zM247 568l-85 156h67l56 -110l84 110h74l-125 -156h-71z" />
    <glyph glyph-name="napostrophe" unicode="&#x149;" horiz-adv-x="496" 
d="M37 0l62 504h77l-8 -61c25 46 68 69 130 69c108 0 158 -65 144 -178l-41 -334h-80l39 317c11 89 -13 122 -84 122c-72 0 -110 -31 -121 -122l-38 -317h-80zM111 560l19 152h80l-7 -52l-57 -100h-35z" />
    <glyph glyph-name="Eng" unicode="&#x14a;" horiz-adv-x="638" 
d="M51 0l87 712h73l251 -550l68 550h83l-90 -729c-16 -131 -78 -191 -221 -191h-51l9 66h50c84 0 119 34 130 122l4 38l-243 531l-67 -549h-83z" />
    <glyph glyph-name="eng" unicode="&#x14b;" horiz-adv-x="496" 
d="M214 -142h25c44 0 66 17 72 65l49 394c11 89 -13 122 -84 122c-68 0 -110 -31 -121 -122l-38 -317h-80l62 504h77l-8 -61c25 46 68 69 130 69c108 0 158 -65 144 -178l-50 -406c-11 -88 -54 -136 -145 -136h-42z" />
    <glyph glyph-name="Omacron" unicode="&#x14c;" horiz-adv-x="623" 
d="M288 -12c-164 0 -234 69 -234 248c0 37 3 80 9 128c32 264 99 360 297 360c165 0 235 -70 235 -245c0 -36 -3 -76 -8 -121c-33 -274 -98 -370 -299 -370zM287 54c141 0 182 62 214 307c6 49 10 90 10 125c0 123 -41 162 -151 162c-139 0 -185 -64 -212 -287
c-7 -57 -11 -103 -11 -142c0 -128 41 -165 150 -165zM252 825l7 58h262l-7 -58h-262z" />
    <glyph glyph-name="omacron" unicode="&#x14d;" horiz-adv-x="484" 
d="M214 -8c-123 0 -176 55 -176 184c0 25 2 52 6 79c24 181 81 257 225 257c123 0 176 -55 176 -186c0 -23 -2 -50 -5 -77c-24 -181 -83 -257 -226 -257zM217 58c86 0 124 48 143 194c3 27 5 51 5 72c0 87 -31 115 -100 115c-86 0 -123 -44 -141 -187c-4 -29 -6 -55 -6 -76
c0 -88 30 -118 99 -118zM151 617l7 58h262l-7 -58h-262z" />
    <glyph glyph-name="Obreve" unicode="&#x14e;" horiz-adv-x="623" 
d="M288 -12c-164 0 -234 69 -234 248c0 37 3 80 9 128c32 264 99 360 297 360c165 0 235 -70 235 -245c0 -36 -3 -76 -8 -121c-33 -274 -98 -370 -299 -370zM287 54c141 0 182 62 214 307c6 49 10 90 10 125c0 123 -41 162 -151 162c-139 0 -185 -64 -212 -287
c-7 -57 -11 -103 -11 -142c0 -128 41 -165 150 -165zM380 769c-76 0 -122 46 -113 145h49c-7 -67 16 -93 67 -93s79 26 90 93h49c-15 -100 -61 -145 -142 -145z" />
    <glyph glyph-name="obreve" unicode="&#x14f;" horiz-adv-x="484" 
d="M214 -8c-123 0 -176 55 -176 184c0 25 2 52 6 79c24 181 81 257 225 257c123 0 176 -55 176 -186c0 -23 -2 -50 -5 -77c-24 -181 -83 -257 -226 -257zM217 58c86 0 124 48 143 194c3 27 5 51 5 72c0 87 -31 115 -100 115c-86 0 -123 -44 -141 -187c-4 -29 -6 -55 -6 -76
c0 -88 30 -118 99 -118zM279 561c-76 0 -122 46 -113 145h49c-7 -67 16 -93 67 -93s79 26 90 93h49c-15 -100 -61 -145 -142 -145z" />
    <glyph glyph-name="Ohungarumlaut" unicode="&#x150;" horiz-adv-x="623" 
d="M288 -12c-164 0 -234 69 -234 248c0 37 3 80 9 128c32 264 99 360 297 360c165 0 235 -70 235 -245c0 -36 -3 -76 -8 -121c-33 -274 -98 -370 -299 -370zM287 54c141 0 182 62 214 307c6 49 10 90 10 125c0 123 -41 162 -151 162c-139 0 -185 -64 -212 -287
c-7 -57 -11 -103 -11 -142c0 -128 41 -165 150 -165zM405 776l100 156h91l-123 -156h-68zM255 776l100 156h91l-123 -156h-68z" />
    <glyph glyph-name="ohungarumlaut" unicode="&#x151;" horiz-adv-x="484" 
d="M214 -8c-123 0 -176 55 -176 184c0 25 2 52 6 79c24 181 81 257 225 257c123 0 176 -55 176 -186c0 -23 -2 -50 -5 -77c-24 -181 -83 -257 -226 -257zM217 58c86 0 124 48 143 194c3 27 5 51 5 72c0 87 -31 115 -100 115c-86 0 -123 -44 -141 -187c-4 -29 -6 -55 -6 -76
c0 -88 30 -118 99 -118zM304 568l100 156h91l-123 -156h-68zM154 568l100 156h91l-123 -156h-68z" />
    <glyph glyph-name="OE" unicode="&#x152;" horiz-adv-x="887" 
d="M809 0h-519c-166 0 -236 66 -236 239c0 35 3 75 9 119c32 256 97 354 295 354h538l-9 -76h-299l-28 -235h274l-9 -70h-274l-32 -265h298zM138 228c0 -125 41 -162 150 -162h148l69 570h-146c-141 0 -184 -64 -210 -275c-7 -53 -11 -97 -11 -133z" />
    <glyph glyph-name="oe" unicode="&#x153;" horiz-adv-x="783" 
d="M528 -8c-75 0 -124 26 -147 85c-35 -59 -87 -85 -165 -85c-121 0 -178 59 -178 187c0 24 2 49 6 77c22 181 79 256 222 256c77 0 127 -28 151 -86c34 59 88 86 162 86c138 0 182 -86 161 -251l-2 -16h-299c-3 -28 -4 -51 -4 -71c0 -93 30 -116 98 -116
c69 0 100 24 117 91h73c-23 -100 -76 -157 -195 -157zM217 58c86 0 125 48 143 194c3 27 5 51 5 72c0 87 -31 115 -100 115c-87 0 -124 -44 -141 -187c-4 -29 -6 -54 -6 -76c0 -87 30 -118 99 -118zM575 439c-69 0 -106 -29 -127 -132h221c8 102 -21 132 -94 132z" />
    <glyph glyph-name="Racute" unicode="&#x154;" horiz-adv-x="558" 
d="M51 0l87 712h214c127 0 189 -47 189 -169c0 -16 -1 -33 -3 -52c-16 -140 -69 -187 -167 -198l128 -293h-89l-121 283h-121l-34 -283h-83zM352 636h-141l-34 -284h139c89 0 126 28 139 142c2 19 4 34 4 48c0 73 -33 94 -107 94zM304 776l100 156h91l-123 -156h-68z" />
    <glyph glyph-name="racute" unicode="&#x155;" horiz-adv-x="310" 
d="M33 0l43 354c11 96 63 150 163 150h86l-9 -70h-76c-50 0 -78 -25 -84 -74l-43 -360h-80zM188 568l100 156h91l-123 -156h-68z" />
    <glyph glyph-name="uni0156" unicode="&#x156;" horiz-adv-x="558" 
d="M51 0l87 712h214c127 0 189 -47 189 -169c0 -16 -1 -33 -3 -52c-16 -140 -69 -187 -167 -198l128 -293h-89l-121 283h-121l-34 -283h-83zM352 636h-141l-34 -284h139c89 0 126 28 139 142c2 19 4 34 4 48c0 73 -33 94 -107 94zM225 -56h80l-7 -52l-57 -100h-35z" />
    <glyph glyph-name="uni0157" unicode="&#x157;" horiz-adv-x="310" 
d="M33 0l43 354c11 96 63 150 163 150h86l-9 -70h-76c-50 0 -78 -25 -84 -74l-43 -360h-80zM27 -56h80l-7 -52l-57 -100h-35z" />
    <glyph glyph-name="Rcaron" unicode="&#x158;" horiz-adv-x="558" 
d="M51 0l87 712h214c127 0 189 -47 189 -169c0 -16 -1 -33 -3 -52c-16 -140 -69 -187 -167 -198l128 -293h-89l-121 283h-121l-34 -283h-83zM352 636h-141l-34 -284h139c89 0 126 28 139 142c2 19 4 34 4 48c0 73 -33 94 -107 94zM314 776l-85 156h67l56 -110l84 110h74
l-125 -156h-71z" />
    <glyph glyph-name="rcaron" unicode="&#x159;" horiz-adv-x="310" 
d="M33 0l43 354c11 96 63 150 163 150h86l-9 -70h-76c-50 0 -78 -25 -84 -74l-43 -360h-80zM198 568l-85 156h67l56 -110l84 110h74l-125 -156h-71z" />
    <glyph glyph-name="Sacute" unicode="&#x15a;" horiz-adv-x="543" 
d="M36 216h79c-8 -116 31 -162 136 -162c91 0 158 43 158 149c0 65 -43 89 -114 109l-54 15c-92 26 -159 66 -159 171c0 138 87 226 235 226c169 0 215 -87 207 -236h-79c5 120 -34 160 -131 160c-85 0 -148 -45 -148 -140c0 -67 45 -89 112 -108l55 -15
c101 -29 159 -74 159 -173c0 -143 -88 -224 -243 -224c-160 0 -225 72 -213 228zM288 776l100 156h91l-123 -156h-68z" />
    <glyph glyph-name="sacute" unicode="&#x15b;" horiz-adv-x="428" 
d="M26 143h73c-3 -67 27 -87 91 -87c65 0 106 22 106 90c0 39 -20 51 -84 67l-51 13c-65 16 -103 51 -103 122c0 108 61 164 180 164c108 0 169 -40 156 -158h-73c5 71 -21 88 -85 88s-101 -21 -101 -85c0 -35 18 -52 73 -67l52 -13c80 -20 114 -60 114 -124
c0 -109 -66 -161 -187 -161c-128 0 -164 63 -161 151zM206 568l100 156h91l-123 -156h-68z" />
    <glyph glyph-name="Scircumflex" unicode="&#x15c;" horiz-adv-x="543" 
d="M36 216h79c-8 -116 31 -162 136 -162c91 0 158 43 158 149c0 65 -43 89 -114 109l-54 15c-92 26 -159 66 -159 171c0 138 87 226 235 226c169 0 215 -87 207 -236h-79c5 120 -34 160 -131 160c-85 0 -148 -45 -148 -140c0 -67 45 -89 112 -108l55 -15
c101 -29 159 -74 159 -173c0 -143 -88 -224 -243 -224c-160 0 -225 72 -213 228zM193 776l124 156h71l85 -156h-67l-56 110l-84 -110h-73z" />
    <glyph glyph-name="scircumflex" unicode="&#x15d;" horiz-adv-x="428" 
d="M26 143h73c-3 -67 27 -87 91 -87c65 0 106 22 106 90c0 39 -20 51 -84 67l-51 13c-65 16 -103 51 -103 122c0 108 61 164 180 164c108 0 169 -40 156 -158h-73c5 71 -21 88 -85 88s-101 -21 -101 -85c0 -35 18 -52 73 -67l52 -13c80 -20 114 -60 114 -124
c0 -109 -66 -161 -187 -161c-128 0 -164 63 -161 151zM111 568l124 156h71l85 -156h-67l-56 110l-84 -110h-73z" />
    <glyph glyph-name="uni015E" unicode="&#x15e;" horiz-adv-x="543" 
d="M192 -78l27 67c-138 9 -194 81 -183 227h79c-8 -116 31 -162 136 -162c91 0 158 43 158 149c0 65 -43 89 -114 109l-54 15c-92 26 -159 66 -159 171c0 138 87 226 235 226c169 0 215 -87 207 -236h-79c5 120 -34 160 -131 160c-85 0 -148 -45 -148 -140
c0 -67 45 -89 112 -108l55 -15c101 -29 159 -74 159 -173c0 -142 -87 -223 -240 -224l-3 -25c69 -4 98 -36 98 -80c0 -68 -57 -99 -126 -99h-76l6 46h57c37 0 73 10 73 54c0 25 -20 38 -61 38h-28z" />
    <glyph glyph-name="uni015F" unicode="&#x15f;" horiz-adv-x="428" 
d="M134 -78l29 71c-109 7 -140 67 -137 150h73c-3 -67 27 -87 91 -87c65 0 106 22 106 90c0 39 -20 51 -84 67l-51 13c-65 16 -103 51 -103 122c0 108 61 164 180 164c108 0 169 -40 156 -158h-73c5 71 -21 88 -85 88s-101 -21 -101 -85c0 -35 18 -52 73 -67l52 -13
c80 -20 114 -60 114 -124c0 -107 -63 -158 -179 -161l-4 -29c69 -4 98 -36 98 -80c0 -68 -57 -99 -126 -99h-76l6 46h57c37 0 73 10 73 54c0 25 -20 38 -61 38h-28z" />
    <glyph glyph-name="Scaron" unicode="&#x160;" horiz-adv-x="543" 
d="M36 216h79c-8 -116 31 -162 136 -162c91 0 158 43 158 149c0 65 -43 89 -114 109l-54 15c-92 26 -159 66 -159 171c0 138 87 226 235 226c169 0 215 -87 207 -236h-79c5 120 -34 160 -131 160c-85 0 -148 -45 -148 -140c0 -67 45 -89 112 -108l55 -15
c101 -29 159 -74 159 -173c0 -143 -88 -224 -243 -224c-160 0 -225 72 -213 228zM298 776l-85 156h67l56 -110l84 110h74l-125 -156h-71z" />
    <glyph glyph-name="scaron" unicode="&#x161;" horiz-adv-x="428" 
d="M26 143h73c-3 -67 27 -87 91 -87c65 0 106 22 106 90c0 39 -20 51 -84 67l-51 13c-65 16 -103 51 -103 122c0 108 61 164 180 164c108 0 169 -40 156 -158h-73c5 71 -21 88 -85 88s-101 -21 -101 -85c0 -35 18 -52 73 -67l52 -13c80 -20 114 -60 114 -124
c0 -109 -66 -161 -187 -161c-128 0 -164 63 -161 151zM216 568l-85 156h67l56 -110l84 110h74l-125 -156h-71z" />
    <glyph glyph-name="uni0162" unicode="&#x162;" horiz-adv-x="522" 
d="M183 -78l32 78h-26l77 636h-202l9 76h487l-9 -76h-203l-77 -636h-26l-5 -37c69 -4 98 -36 98 -80c0 -68 -57 -99 -126 -99h-76l6 46h57c37 0 73 10 73 54c0 25 -20 38 -61 38h-28z" />
    <glyph glyph-name="uni0163" unicode="&#x163;" horiz-adv-x="330" 
d="M123 -78l30 85c-63 19 -91 67 -81 148l34 279h-64l9 70h66l15 120h77l-15 -120h149l-10 -70h-147l-34 -276c-9 -68 10 -92 74 -92h62l-7 -66h-70c-11 0 -19 0 -27 1l-4 -38c69 -4 98 -36 98 -80c0 -68 -57 -99 -126 -99h-76l6 46h57c37 0 73 10 73 54c0 25 -20 38 -61 38
h-28z" />
    <glyph glyph-name="Tcaron" unicode="&#x164;" horiz-adv-x="522" 
d="M64 636l9 76h487l-9 -76h-203l-77 -636h-82l77 636h-202zM293 776l-85 156h67l56 -110l84 110h74l-125 -156h-71z" />
    <glyph glyph-name="tcaron" unicode="&#x165;" horiz-adv-x="330" 
d="M42 434l9 70h66l15 120h77l-15 -120h149l-10 -70h-147l-34 -276c-9 -68 10 -92 74 -92h62l-7 -66h-70c-101 0 -152 52 -139 155l34 279h-64zM280 712h80l-7 -52l-57 -100h-35z" />
    <glyph glyph-name="Tbar" unicode="&#x166;" horiz-adv-x="549" 
d="M77 636l10 76h487l-10 -76h-203l-29 -239h155l-8 -63h-154l-41 -334h-82l41 334h-155l8 63h154l29 239h-202z" />
    <glyph glyph-name="tbar" unicode="&#x167;" horiz-adv-x="338" 
d="M47 434l9 70h66l15 120h77l-15 -120h148l-9 -70h-147l-18 -142h147l-6 -58h-148l-9 -76c-9 -68 10 -92 73 -92h63l-8 -66h-69c-101 0 -152 52 -139 155l9 79h-64l7 58h64l17 142h-63z" />
    <glyph glyph-name="Utilde" unicode="&#x168;" horiz-adv-x="624" 
d="M73 235l59 477h83l-59 -477c-16 -133 23 -181 132 -181s160 48 176 181l58 477h83l-59 -477c-21 -167 -88 -247 -259 -247c-172 0 -234 79 -214 247zM257 792l6 51c7 51 32 70 72 70c51 0 72 -64 105 -64c11 0 18 8 20 25l4 39h56l-7 -51c-7 -51 -32 -70 -71 -70
c-51 0 -75 63 -104 63c-12 0 -19 -8 -21 -25l-5 -38h-55z" />
    <glyph glyph-name="utilde" unicode="&#x169;" horiz-adv-x="496" 
d="M95 504h80l-39 -318c-11 -89 11 -128 83 -128c68 0 108 33 120 128l40 318h80l-62 -504h-77l7 60c-25 -45 -69 -68 -130 -68c-108 0 -158 65 -144 178zM159 584l6 51c7 51 32 70 72 70c51 0 72 -64 105 -64c11 0 18 8 20 25l4 39h56l-7 -51c-7 -51 -32 -70 -71 -70
c-51 0 -75 63 -104 63c-12 0 -19 -8 -21 -25l-5 -38h-55z" />
    <glyph glyph-name="Umacron" unicode="&#x16a;" horiz-adv-x="624" 
d="M73 235l59 477h83l-59 -477c-16 -133 23 -181 132 -181s160 48 176 181l58 477h83l-59 -477c-21 -167 -88 -247 -259 -247c-172 0 -234 79 -214 247zM254 825l7 58h262l-7 -58h-262z" />
    <glyph glyph-name="umacron" unicode="&#x16b;" horiz-adv-x="496" 
d="M95 504h80l-39 -318c-11 -89 11 -128 83 -128c68 0 108 33 120 128l40 318h80l-62 -504h-77l7 60c-25 -45 -69 -68 -130 -68c-108 0 -158 65 -144 178zM156 617l7 58h262l-7 -58h-262z" />
    <glyph glyph-name="Ubreve" unicode="&#x16c;" horiz-adv-x="624" 
d="M73 235l59 477h83l-59 -477c-16 -133 23 -181 132 -181s160 48 176 181l58 477h83l-59 -477c-21 -167 -88 -247 -259 -247c-172 0 -234 79 -214 247zM382 769c-76 0 -122 46 -113 145h49c-7 -67 16 -93 67 -93s79 26 90 93h49c-15 -100 -61 -145 -142 -145z" />
    <glyph glyph-name="ubreve" unicode="&#x16d;" horiz-adv-x="496" 
d="M95 504h80l-39 -318c-11 -89 11 -128 83 -128c68 0 108 33 120 128l40 318h80l-62 -504h-77l7 60c-25 -45 -69 -68 -130 -68c-108 0 -158 65 -144 178zM284 561c-76 0 -122 46 -113 145h49c-7 -67 16 -93 67 -93s79 26 90 93h49c-15 -100 -61 -145 -142 -145z" />
    <glyph glyph-name="Uring" unicode="&#x16e;" horiz-adv-x="624" 
d="M73 235l59 477h83l-59 -477c-16 -133 23 -181 132 -181s160 48 176 181l58 477h83l-59 -477c-21 -167 -88 -247 -259 -247c-172 0 -234 79 -214 247zM383 808c44 0 59 28 59 71c0 24 -10 41 -45 41c-44 0 -59 -29 -59 -72c0 -24 10 -40 45 -40zM382 769
c-59 0 -88 28 -88 79c0 59 33 110 104 110c59 0 88 -28 88 -79c0 -59 -33 -110 -104 -110z" />
    <glyph glyph-name="uring" unicode="&#x16f;" horiz-adv-x="496" 
d="M95 504h80l-39 -318c-11 -89 11 -128 83 -128c68 0 108 33 120 128l40 318h80l-62 -504h-77l7 60c-25 -45 -69 -68 -130 -68c-108 0 -158 65 -144 178zM285 600c44 0 59 28 59 71c0 24 -10 41 -45 41c-44 0 -59 -29 -59 -72c0 -24 10 -40 45 -40zM284 561
c-59 0 -88 28 -88 79c0 59 33 110 104 110c59 0 88 -28 88 -79c0 -59 -33 -110 -104 -110z" />
    <glyph glyph-name="Uhungarumlaut" unicode="&#x170;" horiz-adv-x="624" 
d="M73 235l59 477h83l-59 -477c-16 -133 23 -181 132 -181s160 48 176 181l58 477h83l-59 -477c-21 -167 -88 -247 -259 -247c-172 0 -234 79 -214 247zM407 776l100 156h91l-123 -156h-68zM257 776l100 156h91l-123 -156h-68z" />
    <glyph glyph-name="uhungarumlaut" unicode="&#x171;" horiz-adv-x="496" 
d="M95 504h80l-39 -318c-11 -89 11 -128 83 -128c68 0 108 33 120 128l40 318h80l-62 -504h-77l7 60c-25 -45 -69 -68 -130 -68c-108 0 -158 65 -144 178zM309 568l100 156h91l-123 -156h-68zM159 568l100 156h91l-123 -156h-68z" />
    <glyph glyph-name="Uogonek" unicode="&#x172;" horiz-adv-x="624" 
d="M369 -216h-37c-68 0 -103 29 -103 77c0 56 46 91 90 128c-11 0 -21 -1 -32 -1c-172 0 -235 79 -214 247l59 477h83l-59 -477c-16 -133 23 -181 132 -181s160 48 176 181l58 477h83l-59 -477c-17 -137 -65 -215 -176 -239c-43 -39 -83 -75 -83 -118c0 -29 17 -43 50 -43
h38z" />
    <glyph glyph-name="uogonek" unicode="&#x173;" horiz-adv-x="496" 
d="M391 -216h-37c-68 0 -103 29 -103 77c0 62 57 98 103 139h-34l7 60c-25 -45 -69 -68 -130 -68c-108 0 -158 65 -144 178l42 334h80l-39 -318c-11 -89 11 -128 83 -128c68 0 108 33 120 128l40 318h80l-62 -504c-47 -41 -88 -78 -88 -122c0 -29 17 -43 50 -43h38z" />
    <glyph glyph-name="Wcircumflex" unicode="&#x174;" horiz-adv-x="886" 
d="M168 0l-96 712h82l75 -605l243 605h61l91 -602l224 602h79l-271 -712h-88l-84 555l-225 -555h-91zM367 776l124 156h71l85 -156h-67l-56 110l-84 -110h-73z" />
    <glyph glyph-name="wcircumflex" unicode="&#x175;" horiz-adv-x="694" 
d="M134 0l-90 504h82l62 -387l163 387h57l69 -387l157 387h78l-214 -504h-73l-65 358l-152 -358h-74zM244 568l124 156h71l85 -156h-67l-56 110l-84 -110h-73z" />
    <glyph glyph-name="Ycircumflex" unicode="&#x176;" horiz-adv-x="543" 
d="M199 0l36 298l-167 414h89l131 -334l214 334h86l-272 -418l-34 -294h-83zM200 776l124 156h71l85 -156h-67l-56 110l-84 -110h-73z" />
    <glyph glyph-name="ycircumflex" unicode="&#x177;" horiz-adv-x="440" 
d="M-9 -142h38c43 0 70 20 97 80l28 62l-108 504h81l80 -388l175 388h78l-263 -571c-42 -91 -74 -141 -169 -141h-45zM127 568l124 156h71l85 -156h-67l-56 110l-84 -110h-73z" />
    <glyph glyph-name="Ydieresis" unicode="&#x178;" horiz-adv-x="543" 
d="M199 0l36 298l-167 414h89l131 -334l214 334h86l-272 -418l-34 -294h-83zM387 805l11 94h80l-11 -94h-80zM219 805l12 94h79l-11 -94h-80z" />
    <glyph glyph-name="Zacute" unicode="&#x179;" horiz-adv-x="488" 
d="M76 636l9 76h431l-5 -50l-400 -596h318l-8 -66h-414l5 50l392 586h-328zM265 776l100 156h91l-123 -156h-68z" />
    <glyph glyph-name="zacute" unicode="&#x17a;" horiz-adv-x="399" 
d="M55 434l9 70h334l-6 -46l-280 -392h226l-7 -66h-324l5 46l275 388h-232zM197 568l100 156h91l-123 -156h-68z" />
    <glyph glyph-name="Zdotaccent" unicode="&#x17b;" horiz-adv-x="488" 
d="M76 636l9 76h431l-5 -50l-400 -596h318l-8 -66h-414l5 50l392 586h-328zM273 805l11 94h80l-11 -94h-80z" />
    <glyph glyph-name="zdotaccent" unicode="&#x17c;" horiz-adv-x="399" 
d="M55 434l9 70h334l-6 -46l-280 -392h226l-7 -66h-324l5 46l275 388h-232zM205 597l11 94h80l-11 -94h-80z" />
    <glyph glyph-name="Zcaron" unicode="&#x17d;" horiz-adv-x="488" 
d="M76 636l9 76h431l-5 -50l-400 -596h318l-8 -66h-414l5 50l392 586h-328zM275 776l-85 156h67l56 -110l84 110h74l-125 -156h-71z" />
    <glyph glyph-name="zcaron" unicode="&#x17e;" horiz-adv-x="399" 
d="M55 434l9 70h334l-6 -46l-280 -392h226l-7 -66h-324l5 46l275 388h-232zM207 568l-85 156h67l56 -110l84 110h74l-125 -156h-71z" />
    <glyph glyph-name="longs" unicode="&#x17f;" horiz-adv-x="254" 
d="M45 434l9 70h63l6 50c13 101 65 158 170 158h70l-9 -73h-60c-57 0 -84 -26 -91 -83l-67 -556h-80l52 434h-63z" />
    <glyph glyph-name="uni018F" unicode="&#x18f;" horiz-adv-x="607" 
d="M47 222c0 35 3 73 8 116l4 33h428c5 43 7 77 7 108c0 128 -43 169 -152 169s-159 -42 -186 -165h-80c32 162 100 241 269 241c165 0 233 -75 233 -250c0 -37 -3 -78 -8 -123c-33 -275 -102 -363 -299 -363c-156 0 -224 62 -224 234zM273 54c128 0 172 48 204 248h-342
c-4 -35 -6 -66 -6 -91c0 -124 44 -157 144 -157z" />
    <glyph glyph-name="florin" unicode="&#x192;" horiz-adv-x="560" 
d="M89 331l9 70h143l16 127c15 123 74 184 194 184h91l-9 -73h-74c-77 0 -109 -26 -120 -114l-15 -124h170l-9 -70h-170l-43 -355c-15 -123 -74 -184 -193 -184h-91l9 66h73c77 0 109 32 120 121l43 352h-144z" />
    <glyph glyph-name="AEacute" unicode="&#x1fc;" horiz-adv-x="815" 
d="M-21 0l352 712h492l-9 -79h-296l-29 -237h273l-8 -70h-273l-31 -254h295l-9 -72h-378l21 172h-232l-84 -172h-84zM374 633l-192 -391h205l48 391h-61zM450 776l100 156h91l-123 -156h-68z" />
    <glyph glyph-name="aeacute" unicode="&#x1fd;" horiz-adv-x="734" 
d="M159 -8c-86 0 -137 48 -137 121c0 123 107 156 218 174l76 12l4 35c9 72 -3 108 -76 108c-71 0 -98 -24 -109 -97h-73c16 108 59 167 190 167c68 0 109 -22 129 -58c36 40 85 58 152 58c137 0 180 -83 160 -248l-2 -19h-301c-4 -28 -5 -51 -5 -71c0 -93 33 -116 101 -116
c69 0 101 24 118 91h72c-22 -100 -77 -157 -195 -157c-86 0 -138 28 -162 90c-23 -53 -80 -90 -160 -90zM178 57c63 0 112 35 122 114l8 65l-70 -10c-54 -8 -135 -23 -135 -100c0 -44 25 -69 75 -69zM529 439c-69 0 -109 -29 -130 -132h224c7 102 -22 132 -94 132zM350 568
l100 156h91l-123 -156h-68z" />
    <glyph glyph-name="Oslashacute" unicode="&#x1fe;" horiz-adv-x="633" 
d="M11 0l10 85l48 48c-7 27 -10 62 -10 103c0 37 3 80 9 128c32 264 98 360 297 360c104 0 169 -27 204 -91l79 79l-10 -85l-49 -49c7 -29 10 -60 10 -99c0 -36 -3 -76 -8 -121c-32 -274 -98 -370 -298 -370c-104 0 -169 26 -204 90zM292 54c141 0 185 62 214 307
c6 49 9 90 9 125c0 7 -1 12 -1 17l-364 -364c17 -64 61 -85 142 -85zM142 219v-13l363 363c-19 59 -60 79 -140 79c-141 0 -185 -64 -212 -287c-7 -57 -11 -103 -11 -142zM337 776l100 156h91l-123 -156h-68z" />
    <glyph glyph-name="oslashacute" unicode="&#x1ff;" horiz-adv-x="494" 
d="M8 0l8 71l35 33c-5 19 -7 44 -7 73c0 23 2 51 5 79c21 181 82 256 225 256c73 0 123 -22 150 -66l63 58l-9 -71l-35 -33c5 -23 8 -48 8 -75c0 -25 -2 -50 -6 -77c-24 -181 -82 -256 -226 -256c-73 0 -122 22 -149 65zM223 58c86 0 123 48 142 194c4 27 6 51 6 72v10
l-240 -221c13 -40 41 -55 92 -55zM124 176v-6l238 219c-15 36 -44 50 -92 50c-86 0 -124 -44 -141 -187c-3 -29 -5 -53 -5 -76zM239 568l100 156h91l-123 -156h-68z" />
    <glyph glyph-name="uni0218" unicode="&#x218;" horiz-adv-x="543" 
d="M36 216h79c-8 -116 31 -162 136 -162c91 0 158 43 158 149c0 65 -43 89 -114 109l-54 15c-92 26 -159 66 -159 171c0 138 87 226 235 226c169 0 215 -87 207 -236h-79c5 120 -34 160 -131 160c-85 0 -148 -45 -148 -140c0 -67 45 -89 112 -108l55 -15
c101 -29 159 -74 159 -173c0 -143 -88 -224 -243 -224c-160 0 -225 72 -213 228zM192 -56h80l-7 -52l-57 -100h-35z" />
    <glyph glyph-name="uni0219" unicode="&#x219;" horiz-adv-x="428" 
d="M26 143h73c-3 -67 27 -87 91 -87c65 0 106 22 106 90c0 39 -20 51 -84 67l-51 13c-65 16 -103 51 -103 122c0 108 61 164 180 164c108 0 169 -40 156 -158h-73c5 71 -21 88 -85 88s-101 -21 -101 -85c0 -35 18 -52 73 -67l52 -13c80 -20 114 -60 114 -124
c0 -109 -66 -161 -187 -161c-128 0 -164 63 -161 151zM134 -56h80l-7 -52l-57 -100h-35z" />
    <glyph glyph-name="uni021A" unicode="&#x21a;" horiz-adv-x="522" 
d="M64 636l9 76h487l-9 -76h-203l-77 -636h-82l77 636h-202zM185 -56h80l-7 -52l-57 -100h-35z" />
    <glyph glyph-name="uni021B" unicode="&#x21b;" horiz-adv-x="330" 
d="M42 434l9 70h66l15 120h77l-15 -120h149l-10 -70h-147l-34 -276c-9 -68 10 -92 74 -92h62l-7 -66h-70c-101 0 -152 52 -139 155l34 279h-64zM123 -56h80l-7 -52l-57 -100h-35z" />
    <glyph glyph-name="dotlessj" unicode="&#x237;" horiz-adv-x="216" 
d="M27 -77l72 581h80l-71 -576c-11 -88 -55 -136 -144 -136h-42l9 66h26c44 0 63 17 70 65z" />
    <glyph glyph-name="uni0259" unicode="&#x259;" horiz-adv-x="467" 
d="M200 -8c-115 0 -164 60 -164 176c0 22 2 46 5 72l2 19h302c2 24 4 48 4 67c0 90 -34 113 -102 113c-66 0 -97 -26 -113 -90h-73c23 104 75 163 191 163c122 0 175 -55 175 -191c0 -21 -1 -44 -4 -70c-19 -183 -86 -259 -223 -259zM206 58c70 0 107 28 129 139h-223
c-1 -12 -1 -23 -1 -33c0 -81 30 -106 95 -106z" />
    <glyph glyph-name="circumflex" unicode="&#x2c6;" horiz-adv-x="468" 
d="M130 568l124 156h71l85 -156h-67l-56 110l-84 -110h-73z" />
    <glyph glyph-name="caron" unicode="&#x2c7;" horiz-adv-x="468" 
d="M235 568l-85 156h67l56 -110l84 110h74l-125 -156h-71z" />
    <glyph glyph-name="uni02C9" unicode="&#x2c9;" horiz-adv-x="468" 
d="M145 617l7 58h262l-7 -58h-262z" />
    <glyph glyph-name="breve" unicode="&#x2d8;" horiz-adv-x="468" 
d="M273 561c-76 0 -122 46 -113 145h49c-7 -67 16 -93 67 -93s79 26 90 93h49c-15 -100 -61 -145 -142 -145z" />
    <glyph glyph-name="dotaccent" unicode="&#x2d9;" horiz-adv-x="468" 
d="M233 597l11 94h80l-11 -94h-80z" />
    <glyph glyph-name="ring" unicode="&#x2da;" horiz-adv-x="468" 
d="M274 600c44 0 59 28 59 71c0 24 -10 41 -45 41c-44 0 -59 -29 -59 -72c0 -24 10 -40 45 -40zM273 561c-59 0 -88 28 -88 79c0 59 33 110 104 110c59 0 88 -28 88 -79c0 -59 -33 -110 -104 -110z" />
    <glyph glyph-name="ogonek" unicode="&#x2db;" horiz-adv-x="468" 
d="M233 -216h-38c-68 0 -102 29 -102 77c0 62 55 98 103 139h43c-48 -41 -88 -74 -88 -122c0 -29 17 -43 50 -43h38z" />
    <glyph glyph-name="tilde" unicode="&#x2dc;" horiz-adv-x="468" 
d="M148 584l6 51c7 51 32 70 72 70c51 0 72 -64 105 -64c11 0 18 8 20 25l4 39h56l-7 -51c-7 -51 -32 -70 -71 -70c-51 0 -75 63 -104 63c-12 0 -19 -8 -21 -25l-5 -38h-55z" />
    <glyph glyph-name="hungarumlaut" unicode="&#x2dd;" horiz-adv-x="468" 
d="M298 568l100 156h91l-123 -156h-68zM148 568l100 156h91l-123 -156h-68z" />
    <glyph glyph-name="uni0326" unicode="&#x326;" horiz-adv-x="0" 
d="M-316 -56h80l-7 -52l-57 -100h-35z" />
    <glyph glyph-name="uni037E" unicode="&#x37e;" horiz-adv-x="207" 
d="M77 370l12 102h84l-13 -102h-83zM43 102h84l-9 -75l-63 -155h-40z" />
    <glyph glyph-name="tonos" unicode="&#x384;" horiz-adv-x="470" 
d="M233 568l54 156h84l-77 -156h-61z" />
    <glyph glyph-name="dieresistonos" unicode="&#x385;" horiz-adv-x="473" 
d="M215 568l52 156h81l-74 -156h-59zM344 597l12 94h74l-11 -94h-75zM127 597l11 94h75l-12 -94h-74z" />
    <glyph glyph-name="Alphatonos" unicode="&#x386;" horiz-adv-x="562" 
d="M-17 0l309 712h90l136 -712h-82l-32 172h-270l-73 -172h-78zM324 614l-160 -372h228zM85 556l54 156h84l-77 -156h-61z" />
    <glyph glyph-name="uni0387" unicode="&#x387;" horiz-adv-x="192" 
d="M66 370l12 102h84l-13 -102h-83z" />
    <glyph glyph-name="Epsilontonos" unicode="&#x388;" horiz-adv-x="510" 
d="M51 0l87 712h381l-9 -76h-299l-28 -235h274l-9 -70h-274l-32 -265h298l-8 -66h-381zM-38 556l54 156h84l-77 -156h-61z" />
    <glyph glyph-name="Etatonos" unicode="&#x389;" horiz-adv-x="638" 
d="M51 0l87 712h83l-38 -311h309l38 311h83l-87 -712h-83l40 330h-309l-40 -330h-83zM-38 556l54 156h84l-77 -156h-61z" />
    <glyph glyph-name="Iotatonos" unicode="&#x38a;" horiz-adv-x="246" 
d="M51 0l87 712h83l-87 -712h-83zM-38 556l54 156h84l-77 -156h-61z" />
    <glyph glyph-name="Omicrontonos" unicode="&#x38c;" horiz-adv-x="623" 
d="M288 -12c-164 0 -234 69 -234 248c0 37 3 80 9 128c32 264 99 360 297 360c165 0 235 -70 235 -245c0 -36 -3 -76 -8 -121c-33 -274 -98 -370 -299 -370zM287 54c141 0 182 62 214 307c6 49 10 90 10 125c0 123 -41 162 -151 162c-139 0 -185 -64 -212 -287
c-7 -57 -11 -103 -11 -142c0 -128 41 -165 150 -165zM-15 556l54 156h84l-77 -156h-61z" />
    <glyph glyph-name="Upsilontonos" unicode="&#x38e;" horiz-adv-x="543" 
d="M199 0l36 298l-167 414h89l131 -334l214 334h86l-272 -418l-34 -294h-83zM-90 556l54 156h84l-77 -156h-61z" />
    <glyph glyph-name="Omegatonos" unicode="&#x38f;" horiz-adv-x="632" 
d="M29 0l7 66h149l5 33c-76 26 -127 84 -127 217c0 25 1 53 5 84c27 212 105 324 303 324c168 0 235 -83 235 -240c0 -27 -2 -57 -6 -89c-24 -195 -87 -267 -195 -296l-5 -33h149l-7 -66h-219l18 146c91 16 149 59 173 251c4 35 7 65 7 92c0 116 -44 159 -157 159
c-139 0 -190 -68 -211 -251c-4 -33 -6 -62 -6 -87c0 -119 46 -151 118 -164l-18 -146h-218zM-11 556l54 156h84l-77 -156h-61z" />
    <glyph glyph-name="iotadieresistonos" unicode="&#x390;" horiz-adv-x="227" 
d="M49 122l47 382h80l-47 -373c-6 -48 3 -65 47 -65h15l-8 -66h-29c-91 0 -114 46 -105 122zM95 568l52 156h81l-74 -156h-59zM224 597l12 94h74l-11 -94h-75zM7 597l11 94h75l-12 -94h-74z" />
    <glyph glyph-name="Alpha" unicode="&#x391;" horiz-adv-x="562" 
d="M-17 0l309 712h90l136 -712h-82l-32 172h-270l-73 -172h-78zM324 614l-160 -372h228z" />
    <glyph glyph-name="Beta" unicode="&#x392;" horiz-adv-x="577" 
d="M51 0l87 712h228c118 0 179 -59 179 -160c0 -10 -1 -22 -2 -31c-9 -85 -48 -132 -96 -149c55 -28 81 -80 81 -146c0 -10 -1 -19 -2 -30c-14 -133 -80 -196 -209 -196h-266zM343 330h-169l-32 -264h166c75 0 124 36 136 133c1 8 2 23 2 32c0 73 -38 99 -103 99zM363 636
h-152l-28 -235h154c85 0 113 41 123 120c1 11 2 22 2 31c0 57 -27 84 -99 84z" />
    <glyph glyph-name="Gamma" unicode="&#x393;" horiz-adv-x="470" 
d="M50 0l88 712h370l-10 -76h-287l-78 -636h-83z" />
    <glyph glyph-name="uni0394" unicode="&#x394;" horiz-adv-x="563" 
d="M-16 0l308 712h91l136 -712h-535zM325 615l-235 -549h335z" />
    <glyph glyph-name="Epsilon" unicode="&#x395;" horiz-adv-x="510" 
d="M51 0l87 712h381l-9 -76h-299l-28 -235h274l-9 -70h-274l-32 -265h298l-8 -66h-381z" />
    <glyph glyph-name="Zeta" unicode="&#x396;" horiz-adv-x="488" 
d="M76 636l9 76h431l-5 -50l-400 -596h318l-8 -66h-414l5 50l392 586h-328z" />
    <glyph glyph-name="Eta" unicode="&#x397;" horiz-adv-x="638" 
d="M51 0l87 712h83l-38 -311h309l38 311h83l-87 -712h-83l40 330h-309l-40 -330h-83z" />
    <glyph glyph-name="Theta" unicode="&#x398;" horiz-adv-x="623" 
d="M54 236c0 37 3 80 9 128c32 264 99 360 297 360c165 0 235 -70 235 -245c0 -36 -3 -76 -8 -121c-33 -274 -98 -370 -299 -370c-164 0 -234 69 -234 248zM137 219c0 -128 41 -165 150 -165c141 0 182 62 214 307c6 49 10 90 10 125c0 123 -41 162 -151 162
c-139 0 -185 -64 -212 -287c-7 -57 -11 -103 -11 -142zM207 330l9 69h224l-9 -69h-224z" />
    <glyph glyph-name="Iota" unicode="&#x399;" horiz-adv-x="246" 
d="M51 0l87 712h83l-87 -712h-83z" />
    <glyph glyph-name="Kappa" unicode="&#x39a;" horiz-adv-x="564" 
d="M206 362l317 350h91l-316 -350l230 -362h-90zM51 0l87 712h83l-88 -712h-82z" />
    <glyph glyph-name="Lambda" unicode="&#x39b;" horiz-adv-x="563" 
d="M-16 0l308 712h91l136 -712h-82l-112 615l-263 -615h-78z" />
    <glyph glyph-name="Mu" unicode="&#x39c;" horiz-adv-x="778" 
d="M117 0h-80l115 712h85l138 -576l277 576h85l-57 -712h-80l42 526l-256 -526h-54l-130 535z" />
    <glyph glyph-name="Nu" unicode="&#x39d;" horiz-adv-x="638" 
d="M51 0l87 712h73l251 -550l68 550h83l-87 -712h-73l-252 549l-67 -549h-83z" />
    <glyph glyph-name="Xi" unicode="&#x39e;" horiz-adv-x="503" 
d="M88 636l9 76h422l-9 -76h-422zM82 331l9 70h358l-9 -70h-358zM10 0l7 66h422l-7 -66h-422z" />
    <glyph glyph-name="Omicron" unicode="&#x39f;" horiz-adv-x="623" 
d="M288 -12c-164 0 -234 69 -234 248c0 37 3 80 9 128c32 264 99 360 297 360c165 0 235 -70 235 -245c0 -36 -3 -76 -8 -121c-33 -274 -98 -370 -299 -370zM287 54c141 0 182 62 214 307c6 49 10 90 10 125c0 123 -41 162 -151 162c-139 0 -185 -64 -212 -287
c-7 -57 -11 -103 -11 -142c0 -128 41 -165 150 -165z" />
    <glyph glyph-name="Pi" unicode="&#x3a0;" horiz-adv-x="635" 
d="M51 0l87 712h472l-87 -712h-83l77 636h-306l-77 -636h-83z" />
    <glyph glyph-name="Rho" unicode="&#x3a1;" horiz-adv-x="542" 
d="M51 0l87 712h214c128 0 189 -48 189 -170c0 -15 -1 -33 -3 -51c-18 -162 -90 -208 -221 -208h-149l-34 -283h-83zM352 636h-141l-34 -284h139c89 0 126 28 140 142c2 19 3 34 3 48c0 73 -33 94 -107 94z" />
    <glyph glyph-name="Sigma" unicode="&#x3a3;" horiz-adv-x="502" 
d="M0 0l7 56l293 307l-222 295l7 54h440l-10 -76h-325l195 -260l-4 -36l-267 -274h331l-7 -66h-438z" />
    <glyph glyph-name="Tau" unicode="&#x3a4;" horiz-adv-x="522" 
d="M64 636l9 76h487l-9 -76h-203l-77 -636h-82l77 636h-202z" />
    <glyph glyph-name="Upsilon" unicode="&#x3a5;" horiz-adv-x="543" 
d="M199 0l36 298l-167 414h89l131 -334l214 334h86l-272 -418l-34 -294h-83z" />
    <glyph glyph-name="Phi" unicode="&#x3a6;" horiz-adv-x="725" 
d="M44 293c0 19 1 39 4 62c27 219 129 290 322 295l11 86h81l-11 -87c165 -5 254 -70 254 -233c0 -23 -2 -45 -5 -70c-24 -204 -123 -275 -320 -278l-11 -92h-81l11 92c-168 5 -255 70 -255 225zM127 291c0 -125 65 -154 180 -157l54 439c-135 -3 -209 -41 -230 -221
c-3 -23 -4 -42 -4 -61zM622 416c0 125 -64 154 -180 157l-54 -439c131 3 208 38 229 218c3 24 5 45 5 64z" />
    <glyph glyph-name="Chi" unicode="&#x3a7;" horiz-adv-x="518" 
d="M-21 0l245 366l-151 346h87l122 -282l188 282h88l-238 -350l159 -362h-87l-128 297l-198 -297h-87z" />
    <glyph glyph-name="Psi" unicode="&#x3a8;" horiz-adv-x="706" 
d="M282 0l25 206c-159 3 -253 73 -232 243l32 263h83l-32 -263c-16 -131 37 -171 157 -174l54 437h82l-54 -437c121 3 184 45 200 174l32 263h82l-32 -263c-21 -175 -121 -243 -290 -243l-25 -206h-82z" />
    <glyph glyph-name="uni03A9" unicode="&#x3a9;" horiz-adv-x="632" 
d="M29 0l7 66h149l5 33c-76 26 -127 84 -127 217c0 25 1 53 5 84c27 212 105 324 303 324c168 0 235 -83 235 -240c0 -27 -2 -57 -6 -89c-24 -195 -87 -267 -195 -296l-5 -33h149l-7 -66h-219l18 146c91 16 149 59 173 251c4 35 7 65 7 92c0 116 -44 159 -157 159
c-139 0 -190 -68 -211 -251c-4 -33 -6 -62 -6 -87c0 -119 46 -151 118 -164l-18 -146h-218z" />
    <glyph glyph-name="Iotadieresis" unicode="&#x3aa;" horiz-adv-x="246" 
d="M51 0l87 712h83l-87 -712h-83zM230 805l11 94h80l-11 -94h-80zM62 805l12 94h79l-11 -94h-80z" />
    <glyph glyph-name="Upsilondieresis" unicode="&#x3ab;" horiz-adv-x="543" 
d="M199 0l36 298l-167 414h89l131 -334l214 334h86l-272 -418l-34 -294h-83zM387 805l11 94h80l-11 -94h-80zM219 805l12 94h79l-11 -94h-80z" />
    <glyph glyph-name="alphatonos" unicode="&#x3ac;" horiz-adv-x="521" 
d="M38 174c0 24 2 50 5 79c21 181 87 259 220 259c64 0 104 -24 123 -83l10 75h74l-46 -373c-6 -48 2 -65 47 -65h14l-7 -66h-30c-72 0 -98 27 -103 74c-28 -55 -72 -82 -141 -82c-113 0 -166 55 -166 182zM118 175c0 -87 30 -117 99 -117c86 0 124 48 143 194
c3 27 5 51 5 72c0 87 -32 115 -101 115c-85 0 -125 -44 -141 -187c-4 -31 -5 -54 -5 -77zM240 568l54 156h84l-77 -156h-61z" />
    <glyph glyph-name="epsilontonos" unicode="&#x3ad;" horiz-adv-x="451" 
d="M28 119c0 61 30 115 89 139c-35 17 -54 46 -54 89c0 105 74 165 194 165c123 0 167 -52 166 -165h-77c0 67 -21 92 -92 92c-66 0 -111 -24 -111 -92c0 -37 26 -60 77 -60h70l-8 -67h-70c-61 0 -104 -29 -104 -91c0 -43 28 -71 96 -71c79 0 110 31 123 100h77
c-24 -109 -72 -166 -204 -166c-120 0 -172 50 -172 127zM226 568l54 156h84l-77 -156h-61z" />
    <glyph glyph-name="etatonos" unicode="&#x3ae;" horiz-adv-x="511" 
d="M52 0l46 370c6 47 -4 64 -48 64h-14l9 70h29c64 0 94 -23 101 -68c27 51 69 76 138 76c108 0 158 -65 144 -178l-67 -542h-80l65 525c11 89 -13 122 -84 122s-110 -33 -121 -122l-38 -317h-80zM260 568l54 156h84l-77 -156h-61z" />
    <glyph glyph-name="iotatonos" unicode="&#x3af;" horiz-adv-x="227" 
d="M49 122l47 382h80l-47 -373c-6 -48 3 -65 47 -65h15l-8 -66h-29c-91 0 -114 46 -105 122zM104 568l54 156h84l-77 -156h-61z" />
    <glyph glyph-name="upsilondieresistonos" unicode="&#x3b0;" horiz-adv-x="499" 
d="M78 171l25 199c6 47 -4 64 -49 64h-14l10 70h26c92 0 118 -40 107 -128l-25 -202c-9 -76 6 -116 75 -116c80 0 114 55 133 213c6 51 9 98 9 143c0 32 -2 59 -3 90h78c3 -24 3 -45 3 -84c0 -35 -2 -96 -9 -157c-21 -176 -61 -271 -215 -271c-133 0 -164 70 -151 179z
M221 568l52 156h81l-74 -156h-59zM350 597l12 94h74l-11 -94h-75zM133 597l11 94h75l-12 -94h-74z" />
    <glyph glyph-name="alpha" unicode="&#x3b1;" horiz-adv-x="521" 
d="M38 174c0 24 2 50 5 79c21 181 87 259 220 259c64 0 104 -24 123 -83l10 75h74l-46 -373c-6 -48 2 -65 47 -65h14l-7 -66h-30c-72 0 -98 27 -103 74c-28 -55 -72 -82 -141 -82c-113 0 -166 55 -166 182zM118 175c0 -87 30 -117 99 -117c86 0 124 48 143 194
c3 27 5 51 5 72c0 87 -32 115 -101 115c-85 0 -125 -44 -141 -187c-4 -31 -5 -54 -5 -77z" />
    <glyph glyph-name="beta" unicode="&#x3b2;" horiz-adv-x="520" 
d="M11 -208l90 736c15 123 77 196 213 196c125 0 178 -52 178 -156c0 -12 -1 -25 -2 -37c-9 -83 -40 -125 -99 -149c61 -23 82 -73 82 -140c0 -9 -1 -32 -3 -49c-21 -143 -80 -201 -213 -201c-64 0 -111 24 -134 76l-33 -276h-79zM180 529l-33 -277
c-17 -146 16 -194 106 -194c84 0 121 31 137 136c3 17 4 31 4 46c0 76 -34 101 -110 101h-39l9 69h32c84 0 113 36 124 121c1 11 2 19 2 30c0 65 -35 90 -103 90c-80 0 -119 -38 -129 -122z" />
    <glyph glyph-name="gamma" unicode="&#x3b3;" horiz-adv-x="477" 
d="M161 91l-56 297c-6 33 -16 46 -51 46h-11l9 70h23c73 0 91 -28 103 -92l59 -320l181 412h77l-240 -529l-22 -183h-80l15 126c8 68 6 104 -7 173z" />
    <glyph glyph-name="delta" unicode="&#x3b4;" horiz-adv-x="481" 
d="M35 167c0 21 2 43 5 67c16 135 72 186 157 236c-59 35 -81 62 -81 110c0 107 88 138 197 138c72 0 106 -8 138 -16l-9 -73c-31 8 -64 17 -137 17c-71 0 -110 -10 -110 -57c0 -23 17 -37 48 -56l74 -44c74 -45 122 -83 122 -199c0 -17 -1 -36 -3 -56
c-16 -159 -81 -242 -224 -242c-125 0 -177 60 -177 175zM360 288c0 78 -32 104 -101 146l-15 -9c-73 -43 -111 -82 -125 -199c-3 -21 -4 -39 -4 -56c0 -80 29 -112 101 -112c87 0 127 49 140 170c3 23 4 43 4 60z" />
    <glyph glyph-name="epsilon" unicode="&#x3b5;" horiz-adv-x="451" 
d="M28 119c0 61 30 115 89 139c-35 17 -54 46 -54 89c0 105 74 165 194 165c123 0 167 -52 166 -165h-77c0 67 -21 92 -92 92c-66 0 -111 -24 -111 -92c0 -37 26 -60 77 -60h70l-8 -67h-70c-61 0 -104 -29 -104 -91c0 -43 28 -71 96 -71c79 0 110 31 123 100h77
c-24 -109 -72 -166 -204 -166c-120 0 -172 50 -172 127z" />
    <glyph glyph-name="zeta" unicode="&#x3b6;" horiz-adv-x="406" 
d="M211 2l-37 8c-92 21 -141 71 -141 159c0 11 0 22 4 53c21 159 175 318 291 418h-219l9 72h334l-6 -53c-135 -109 -307 -285 -329 -441c-3 -21 -3 -30 -3 -37c0 -64 38 -88 102 -104l36 -9c69 -17 107 -41 107 -104c0 -47 -11 -77 -28 -124h-76c12 29 26 65 26 101
c0 32 -19 50 -70 61z" />
    <glyph glyph-name="eta" unicode="&#x3b7;" horiz-adv-x="511" 
d="M52 0l46 370c6 47 -4 64 -48 64h-14l9 70h29c64 0 94 -23 101 -68c27 51 69 76 138 76c108 0 158 -65 144 -178l-67 -542h-80l65 525c11 89 -13 122 -84 122s-110 -33 -121 -122l-38 -317h-80z" />
    <glyph glyph-name="theta" unicode="&#x3b8;" horiz-adv-x="536" 
d="M56 215c0 43 3 92 10 152c35 285 109 356 256 356c120 0 182 -51 182 -223c0 -39 -3 -85 -9 -139c-37 -300 -105 -372 -257 -372c-122 0 -182 50 -182 226zM243 56c93 0 135 44 167 271h-269c-5 -51 -7 -89 -7 -124c0 -121 37 -147 109 -147zM316 650
c-93 0 -137 -41 -166 -253h269c4 43 6 79 6 108c0 119 -37 145 -109 145z" />
    <glyph glyph-name="iota" unicode="&#x3b9;" horiz-adv-x="227" 
d="M49 122l47 382h80l-47 -373c-6 -48 3 -65 47 -65h15l-8 -66h-29c-91 0 -114 46 -105 122z" />
    <glyph glyph-name="kappa" unicode="&#x3ba;" horiz-adv-x="464" 
d="M36 0l63 504h80l-32 -248l166 175c51 54 73 73 144 73h15l-10 -70h-10c-32 0 -54 -10 -87 -45l-93 -96l139 -293h-86l-112 237l-78 -79l-20 -158h-79z" />
    <glyph glyph-name="lambda" unicode="&#x3bb;" horiz-adv-x="442" 
d="M-18 0l233 515l-11 48c-13 60 -33 77 -84 77h-36l10 72h44c95 0 127 -53 144 -138l115 -574h-81l-77 404l-179 -404h-78z" />
    <glyph glyph-name="uni03BC" unicode="&#x3bc;" horiz-adv-x="513" 
d="M114 29l-29 -237h-74l87 712h80l-38 -319c-11 -91 11 -127 83 -127c69 0 108 33 120 128l39 318h80l-46 -373c-6 -48 2 -65 47 -65h14l-7 -66h-30c-59 0 -92 20 -101 61c-28 -47 -74 -69 -130 -69c-48 0 -78 13 -95 37z" />
    <glyph glyph-name="nu" unicode="&#x3bd;" horiz-adv-x="472" 
d="M180 0l-76 387c-6 32 -12 47 -47 47h-14l9 70h26c73 0 89 -28 101 -91l58 -309l175 400h77l-228 -504h-81z" />
    <glyph glyph-name="xi" unicode="&#x3be;" horiz-adv-x="446" 
d="M33 171c0 12 1 25 3 39c11 88 57 143 129 167c-47 23 -75 64 -75 124c0 9 1 20 2 31c16 124 79 192 216 192c124 0 173 -63 166 -178h-80c1 76 -23 105 -92 105c-76 0 -118 -35 -129 -119c-1 -11 -2 -18 -2 -26c0 -64 36 -96 109 -96h69l-9 -69h-57
c-101 0 -156 -44 -166 -131c-1 -11 -2 -19 -2 -26c0 -81 58 -95 118 -108l37 -8c71 -15 109 -42 109 -105c0 -41 -13 -84 -28 -123h-76c12 30 26 65 26 100c0 32 -22 51 -73 62l-37 7c-91 16 -158 54 -158 162z" />
    <glyph glyph-name="omicron" unicode="&#x3bf;" horiz-adv-x="484" 
d="M38 176c0 25 2 52 6 79c24 181 81 257 225 257c123 0 176 -55 176 -186c0 -23 -2 -50 -5 -77c-24 -181 -83 -257 -226 -257c-123 0 -176 55 -176 184zM118 176c0 -88 30 -118 99 -118c86 0 124 48 143 194c3 27 5 51 5 72c0 87 -31 115 -100 115
c-86 0 -123 -44 -141 -187c-4 -29 -6 -55 -6 -76z" />
    <glyph glyph-name="pi" unicode="&#x3c0;" horiz-adv-x="543" 
d="M43 434l10 70h493l-10 -70h-92l-37 -303c-6 -47 0 -65 45 -65h17l-6 -66h-33c-91 0 -115 40 -106 113l39 321h-149l-88 -434h-79l91 434h-95z" />
    <glyph glyph-name="rho" unicode="&#x3c1;" horiz-adv-x="501" 
d="M116 56l-33 -264h-79l57 463c23 183 89 257 222 257c124 0 179 -59 179 -190c0 -23 -2 -47 -5 -74c-24 -181 -82 -256 -218 -256c-57 0 -104 19 -123 64zM135 176c0 -88 30 -118 99 -118c86 0 124 48 143 194c3 27 4 51 4 72c0 87 -31 115 -100 115
c-86 0 -124 -44 -141 -187c-3 -29 -5 -53 -5 -76z" />
    <glyph glyph-name="sigma1" unicode="&#x3c2;" horiz-adv-x="446" 
d="M216 2l-37 8c-90 21 -141 63 -141 177c0 20 3 43 6 66c24 181 84 259 220 259c127 0 172 -67 165 -195h-77c0 93 -21 122 -93 122c-79 0 -116 -43 -135 -186c-2 -15 -5 -38 -5 -53c0 -90 42 -107 102 -123l37 -9c72 -17 109 -41 109 -105c0 -41 -13 -83 -28 -123h-76
c11 27 25 61 25 100c0 32 -21 51 -72 62z" />
    <glyph glyph-name="sigma" unicode="&#x3c3;" horiz-adv-x="517" 
d="M38 175c0 25 2 51 6 79c23 181 82 250 225 250h256l-9 -70h-105c24 -27 34 -67 34 -115c0 -23 -2 -47 -5 -74c-24 -181 -83 -253 -226 -253c-123 0 -176 54 -176 183zM264 434c-87 0 -122 -41 -140 -183c-4 -29 -6 -55 -6 -76c0 -88 30 -117 99 -117c86 0 124 43 143 190
c3 27 5 51 5 72c0 83 -28 114 -101 114z" />
    <glyph glyph-name="tau" unicode="&#x3c4;" horiz-adv-x="411" 
d="M36 434l10 70h375l-10 -70h-154l-36 -293c-7 -56 12 -75 63 -75h31l-7 -66h-46c-97 0 -133 45 -122 134l38 300h-142z" />
    <glyph glyph-name="upsilon" unicode="&#x3c5;" horiz-adv-x="499" 
d="M78 171l25 199c6 47 -4 64 -49 64h-14l10 70h26c92 0 118 -40 107 -128l-25 -202c-9 -76 6 -116 75 -116c80 0 114 55 133 213c6 51 9 98 9 143c0 32 -2 59 -3 90h78c3 -24 3 -45 3 -84c0 -35 -2 -96 -9 -157c-21 -176 -61 -271 -215 -271c-133 0 -164 70 -151 179z" />
    <glyph glyph-name="phi" unicode="&#x3c6;" horiz-adv-x="660" 
d="M38 190c0 11 1 36 4 59c24 190 109 255 211 255h20l-9 -70h-12c-64 0 -114 -46 -130 -185c-3 -23 -4 -41 -4 -60c0 -91 39 -128 147 -132l32 261c14 113 59 194 182 194c105 0 144 -73 144 -181c0 -21 -1 -44 -4 -67c-24 -192 -102 -271 -283 -274l-24 -198h-79l24 199
c-152 5 -219 68 -219 199zM377 318l-32 -261c128 5 176 59 195 213c3 25 4 48 4 68c0 64 -17 101 -70 101c-60 0 -87 -38 -97 -121z" />
    <glyph glyph-name="chi" unicode="&#x3c7;" horiz-adv-x="458" 
d="M205 69l-166 -277h-82l218 357l-70 243c-9 33 -24 42 -56 42h-10l9 70h29c71 0 85 -33 102 -94l52 -188l171 282h80l-222 -362l71 -238c10 -33 24 -45 56 -45h10l-7 -67h-24c-72 0 -93 32 -110 94z" />
    <glyph glyph-name="psi" unicode="&#x3c8;" horiz-adv-x="655" 
d="M58 224l35 280h80l-35 -280c-16 -122 33 -162 128 -167l78 627h79l-77 -627c100 8 156 50 177 215c6 52 9 103 9 153c0 24 -1 58 -2 79h78c1 -19 3 -48 3 -80c0 -39 -1 -93 -8 -152c-26 -203 -105 -274 -266 -282l-24 -198h-79l24 199c-152 9 -220 77 -200 233z" />
    <glyph glyph-name="omega" unicode="&#x3c9;" horiz-adv-x="670" 
d="M38 153c0 28 3 60 7 95c24 199 88 256 192 256h29l-9 -70h-18c-67 0 -96 -37 -115 -189c-4 -36 -7 -65 -7 -92c0 -64 16 -95 72 -95c64 0 89 52 97 120l15 124h78l-14 -124c-2 -13 -3 -25 -3 -36c0 -49 17 -84 69 -84c76 0 96 61 112 187c4 35 6 64 6 87
c0 80 -24 102 -75 102h-17l9 70h28c87 0 135 -44 135 -173c0 -25 -2 -55 -6 -89c-21 -177 -64 -250 -196 -250c-63 0 -98 29 -115 72c-28 -43 -70 -72 -131 -72c-104 0 -143 49 -143 161z" />
    <glyph glyph-name="iotadieresis" unicode="&#x3ca;" horiz-adv-x="227" 
d="M49 122l47 382h80l-47 -373c-6 -48 3 -65 47 -65h15l-8 -66h-29c-91 0 -114 46 -105 122zM188 597l11 94h80l-11 -94h-80zM20 597l12 94h79l-11 -94h-80z" />
    <glyph glyph-name="upsilondieresis" unicode="&#x3cb;" horiz-adv-x="499" 
d="M78 171l25 199c6 47 -4 64 -49 64h-14l10 70h26c92 0 118 -40 107 -128l-25 -202c-9 -76 6 -116 75 -116c80 0 114 55 133 213c6 51 9 98 9 143c0 32 -2 59 -3 90h78c3 -24 3 -45 3 -84c0 -35 -2 -96 -9 -157c-21 -176 -61 -271 -215 -271c-133 0 -164 70 -151 179z
M331 597l11 94h80l-11 -94h-80zM163 597l12 94h79l-11 -94h-80z" />
    <glyph glyph-name="omicrontonos" unicode="&#x3cc;" horiz-adv-x="484" 
d="M214 -8c-123 0 -176 55 -176 184c0 25 2 52 6 79c24 181 81 257 225 257c123 0 176 -55 176 -186c0 -23 -2 -50 -5 -77c-24 -181 -83 -257 -226 -257zM217 58c86 0 124 48 143 194c3 27 5 51 5 72c0 87 -31 115 -100 115c-86 0 -123 -44 -141 -187c-4 -29 -6 -55 -6 -76
c0 -88 30 -118 99 -118zM242 568l54 156h84l-77 -156h-61z" />
    <glyph glyph-name="upsilontonos" unicode="&#x3cd;" horiz-adv-x="499" 
d="M78 171l25 199c6 47 -4 64 -49 64h-14l10 70h26c92 0 118 -40 107 -128l-25 -202c-9 -76 6 -116 75 -116c80 0 114 55 133 213c6 51 9 98 9 143c0 32 -2 59 -3 90h78c3 -24 3 -45 3 -84c0 -35 -2 -96 -9 -157c-21 -176 -61 -271 -215 -271c-133 0 -164 70 -151 179z
M247 568l54 156h84l-77 -156h-61z" />
    <glyph glyph-name="omegatonos" unicode="&#x3ce;" horiz-adv-x="670" 
d="M38 153c0 28 3 60 7 95c24 199 88 256 192 256h29l-9 -70h-18c-67 0 -96 -37 -115 -189c-4 -36 -7 -65 -7 -92c0 -64 16 -95 72 -95c64 0 89 52 97 120l15 124h78l-14 -124c-2 -13 -3 -25 -3 -36c0 -49 17 -84 69 -84c76 0 96 61 112 187c4 35 6 64 6 87
c0 80 -24 102 -75 102h-17l9 70h28c87 0 135 -44 135 -173c0 -25 -2 -55 -6 -89c-21 -177 -64 -250 -196 -250c-63 0 -98 29 -115 72c-28 -43 -70 -72 -131 -72c-104 0 -143 49 -143 161zM336 568l54 156h84l-77 -156h-61z" />
    <glyph glyph-name="uni0400" unicode="&#x400;" horiz-adv-x="510" 
d="M51 0l87 712h381l-9 -76h-299l-28 -235h274l-9 -70h-274l-32 -265h298l-8 -66h-381zM316 776l-83 156h85l60 -156h-62z" />
    <glyph glyph-name="uni0401" unicode="&#x401;" horiz-adv-x="510" 
d="M51 0l87 712h381l-9 -76h-299l-28 -235h274l-9 -70h-274l-32 -265h298l-8 -66h-381zM388 805l11 94h80l-11 -94h-80zM220 805l12 94h79l-11 -94h-80z" />
    <glyph glyph-name="uni0402" unicode="&#x402;" horiz-adv-x="657" 
d="M65 636l9 76h489l-9 -76h-245l-29 -239c47 7 91 11 138 11c120 0 201 -31 201 -164c0 -15 0 -27 -2 -44c-19 -159 -86 -200 -218 -200h-47l7 66h42c84 0 119 27 132 135c2 15 3 27 3 38c0 84 -47 98 -131 98c-43 0 -88 -3 -133 -10l-40 -327h-83l77 636h-161z" />
    <glyph glyph-name="uni0403" unicode="&#x403;" horiz-adv-x="470" 
d="M50 0l88 712h370l-10 -76h-287l-78 -636h-83zM283 776l100 156h91l-123 -156h-68z" />
    <glyph glyph-name="uni0404" unicode="&#x404;" horiz-adv-x="578" 
d="M53 224c0 39 3 83 10 134c34 264 98 366 297 366c169 0 214 -77 209 -232h-79c3 113 -25 156 -133 156c-132 0 -176 -58 -203 -247h240l-10 -71h-239c-5 -45 -8 -84 -8 -116c0 -124 41 -160 148 -160c108 0 145 50 171 158h78c-32 -157 -100 -224 -252 -224
c-164 0 -229 63 -229 236z" />
    <glyph glyph-name="uni0405" unicode="&#x405;" horiz-adv-x="543" 
d="M36 216h79c-8 -116 31 -162 136 -162c91 0 158 43 158 149c0 65 -43 89 -114 109l-54 15c-92 26 -159 66 -159 171c0 138 87 226 235 226c169 0 215 -87 207 -236h-79c5 120 -34 160 -131 160c-85 0 -148 -45 -148 -140c0 -67 45 -89 112 -108l55 -15
c101 -29 159 -74 159 -173c0 -143 -88 -224 -243 -224c-160 0 -225 72 -213 228z" />
    <glyph glyph-name="uni0406" unicode="&#x406;" horiz-adv-x="246" 
d="M51 0l87 712h83l-87 -712h-83z" />
    <glyph glyph-name="uni0407" unicode="&#x407;" horiz-adv-x="246" 
d="M51 0l87 712h83l-87 -712h-83zM208 805l12 94h68l-11 -94h-69zM93 805l12 94h68l-11 -94h-69z" />
    <glyph glyph-name="uni0408" unicode="&#x408;" horiz-adv-x="385" 
d="M-5 66h79c91 0 133 37 144 124l64 522h83l-64 -520c-16 -131 -77 -192 -225 -192h-88z" />
    <glyph glyph-name="uni0409" unicode="&#x409;" horiz-adv-x="930" 
d="M-19 -6l10 72h26c70 0 82 26 95 110l81 536h407l-39 -311h156c120 0 176 -45 176 -157c0 -15 -1 -32 -3 -50c-19 -150 -91 -194 -217 -194h-243l77 636h-247l-72 -477c-16 -108 -44 -165 -156 -165h-51zM708 330h-156l-32 -264h156c83 0 118 29 131 130c2 17 3 31 3 43
c0 69 -31 91 -102 91z" />
    <glyph glyph-name="uni040A" unicode="&#x40a;" horiz-adv-x="932" 
d="M51 0l87 712h83l-38 -311h298l39 311h82l-39 -311h156c120 0 176 -45 176 -157c0 -15 -1 -32 -3 -50c-19 -150 -91 -194 -217 -194h-243l41 330h-299l-40 -330h-83zM710 330h-156l-32 -264h156c83 0 118 29 131 130c2 17 3 31 3 43c0 69 -31 91 -102 91z" />
    <glyph glyph-name="uni040B" unicode="&#x40b;" horiz-adv-x="655" 
d="M65 636l10 76h489l-10 -76h-244l-28 -229c44 7 86 11 142 11c104 0 181 -31 181 -149c0 -13 -1 -27 -3 -42l-27 -227h-83l26 216c2 14 3 27 3 38c0 77 -40 93 -123 93c-41 0 -82 -4 -125 -11l-41 -336h-83l78 636h-162z" />
    <glyph glyph-name="uni040C" unicode="&#x40c;" horiz-adv-x="560" 
d="M50 0l88 712h83l-39 -311h66l270 311h93l-299 -346l210 -366h-90l-190 330h-68l-41 -330h-83zM323 776l100 156h91l-123 -156h-68z" />
    <glyph glyph-name="uni040D" unicode="&#x40d;" horiz-adv-x="641" 
d="M50 0l88 712h80l-70 -568l390 568h78l-88 -712h-80l69 566l-389 -566h-78zM358 776l-83 156h85l60 -156h-62z" />
    <glyph glyph-name="uni040E" unicode="&#x40e;" horiz-adv-x="541" 
d="M55 -7l6 73h33c47 0 87 19 120 87l17 35l-167 524h81l137 -435l228 435h81l-310 -581c-45 -85 -86 -138 -186 -138h-40zM344 777c-85 0 -145 35 -134 128l1 8h64l-1 -8c-7 -59 26 -74 70 -74c43 0 79 16 87 74l1 8h65l-1 -8c-12 -95 -68 -128 -152 -128z" />
    <glyph glyph-name="uni040F" unicode="&#x40f;" horiz-adv-x="636" 
d="M51 0l87 712h83l-79 -646h306l79 646h83l-87 -712h-196l-20 -160h-76l20 160h-200z" />
    <glyph glyph-name="uni0410" unicode="&#x410;" horiz-adv-x="562" 
d="M-17 0l309 712h90l136 -712h-82l-32 172h-270l-73 -172h-78zM324 614l-160 -372h228z" />
    <glyph glyph-name="uni0411" unicode="&#x411;" horiz-adv-x="552" 
d="M51 0l87 712h396l-10 -76h-313l-29 -232h154c121 0 176 -44 176 -156c0 -16 -1 -33 -3 -51c-19 -152 -91 -197 -217 -197h-241zM328 334h-154l-33 -268h154c84 0 119 27 132 134c2 17 3 31 3 42c0 69 -33 92 -102 92z" />
    <glyph glyph-name="uni0412" unicode="&#x412;" horiz-adv-x="577" 
d="M51 0l87 712h228c118 0 179 -59 179 -160c0 -10 -1 -22 -2 -31c-9 -85 -48 -132 -96 -149c55 -28 81 -80 81 -146c0 -10 -1 -19 -2 -30c-14 -133 -80 -196 -209 -196h-266zM343 330h-169l-32 -264h166c75 0 124 36 136 133c1 8 2 23 2 32c0 73 -38 99 -103 99zM363 636
h-152l-28 -235h154c85 0 113 41 123 120c1 11 2 22 2 31c0 57 -27 84 -99 84z" />
    <glyph glyph-name="uni0413" unicode="&#x413;" horiz-adv-x="470" 
d="M50 0l88 712h370l-10 -76h-287l-78 -636h-83z" />
    <glyph glyph-name="uni0414" unicode="&#x414;" horiz-adv-x="631" 
d="M61 0l-20 -156h-76l28 222h57c20 19 38 58 46 113l83 533h406l-78 -646h79l-29 -222h-75l19 156h-440zM140 66h284l71 570h-248l-72 -457c-8 -51 -16 -88 -35 -113z" />
    <glyph glyph-name="uni0415" unicode="&#x415;" horiz-adv-x="510" 
d="M51 0l87 712h381l-9 -76h-299l-28 -235h274l-9 -70h-274l-32 -265h298l-8 -66h-381z" />
    <glyph glyph-name="uni0416" unicode="&#x416;" horiz-adv-x="836" 
d="M-23 0l285 366l-200 346h87l178 -311h68l39 311h80l-39 -311h63l258 311h90l-285 -344l195 -368h-88l-174 330h-67l-41 -330h-80l41 330h-60l-256 -330h-94z" />
    <glyph glyph-name="uni0417" unicode="&#x417;" horiz-adv-x="548" 
d="M33 212h79c-8 -110 23 -158 134 -158c101 0 154 42 165 137c1 11 2 22 2 31c0 68 -33 106 -132 106h-62l10 73h58c97 0 141 43 152 123c1 11 2 19 2 27c0 69 -40 97 -123 97c-91 0 -146 -32 -168 -148h-79c27 141 87 224 250 224c141 0 202 -64 202 -171
c0 -11 -1 -25 -2 -33c-8 -63 -44 -124 -119 -152c60 -21 95 -64 95 -143c0 -11 -1 -24 -3 -38c-15 -124 -93 -199 -250 -199c-166 0 -222 75 -211 224z" />
    <glyph glyph-name="uni0418" unicode="&#x418;" horiz-adv-x="641" 
d="M50 0l88 712h80l-70 -568l390 568h78l-88 -712h-80l69 566l-389 -566h-78z" />
    <glyph glyph-name="uni0419" unicode="&#x419;" horiz-adv-x="641" 
d="M50 0l88 712h80l-70 -568l390 568h78l-88 -712h-80l69 566l-389 -566h-78zM388 777c-85 0 -145 35 -134 128l1 8h64l-1 -8c-7 -59 26 -74 70 -74c43 0 79 16 87 74l1 8h65l-1 -8c-12 -95 -68 -128 -152 -128z" />
    <glyph glyph-name="uni041A" unicode="&#x41a;" horiz-adv-x="560" 
d="M50 0l88 712h83l-39 -311h66l270 311h93l-299 -346l210 -366h-90l-190 330h-68l-41 -330h-83z" />
    <glyph glyph-name="uni041B" unicode="&#x41b;" horiz-adv-x="625" 
d="M-19 -6l10 72h26c69 0 81 26 94 110l82 536h407l-88 -712h-82l77 636h-247l-73 -478c-16 -107 -42 -164 -155 -164h-51z" />
    <glyph glyph-name="uni041C" unicode="&#x41c;" horiz-adv-x="778" 
d="M117 0h-80l115 712h85l138 -576l277 576h85l-57 -712h-80l42 526l-256 -526h-54l-130 535z" />
    <glyph glyph-name="uni041D" unicode="&#x41d;" horiz-adv-x="638" 
d="M51 0l87 712h83l-38 -311h309l38 311h83l-87 -712h-83l40 330h-309l-40 -330h-83z" />
    <glyph glyph-name="uni041E" unicode="&#x41e;" horiz-adv-x="623" 
d="M288 -12c-164 0 -234 69 -234 248c0 37 3 80 9 128c32 264 99 360 297 360c165 0 235 -70 235 -245c0 -36 -3 -76 -8 -121c-33 -274 -98 -370 -299 -370zM287 54c141 0 182 62 214 307c6 49 10 90 10 125c0 123 -41 162 -151 162c-139 0 -185 -64 -212 -287
c-7 -57 -11 -103 -11 -142c0 -128 41 -165 150 -165z" />
    <glyph glyph-name="uni041F" unicode="&#x41f;" horiz-adv-x="635" 
d="M51 0l87 712h472l-87 -712h-83l77 636h-306l-77 -636h-83z" />
    <glyph glyph-name="uni0420" unicode="&#x420;" horiz-adv-x="542" 
d="M51 0l87 712h214c128 0 189 -48 189 -170c0 -15 -1 -33 -3 -51c-18 -162 -90 -208 -221 -208h-149l-34 -283h-83zM352 636h-141l-34 -284h139c89 0 126 28 140 142c2 19 3 34 3 48c0 73 -33 94 -107 94z" />
    <glyph glyph-name="uni0421" unicode="&#x421;" horiz-adv-x="590" 
d="M288 -12c-171 0 -234 66 -234 245c0 37 3 80 9 128c32 264 99 363 297 363c184 0 225 -88 212 -273h-78c8 148 -15 197 -134 197c-139 0 -185 -64 -212 -287c-7 -57 -11 -103 -11 -142c0 -128 41 -165 150 -165c119 0 155 56 184 205h79c-32 -195 -102 -271 -262 -271z
" />
    <glyph glyph-name="uni0422" unicode="&#x422;" horiz-adv-x="522" 
d="M64 636l9 76h487l-9 -76h-203l-77 -636h-82l77 636h-202z" />
    <glyph glyph-name="uni0423" unicode="&#x423;" horiz-adv-x="541" 
d="M55 -7l6 73h33c47 0 87 19 120 87l17 35l-167 524h81l137 -435l228 435h81l-310 -581c-45 -85 -86 -138 -186 -138h-40z" />
    <glyph glyph-name="uni0424" unicode="&#x424;" horiz-adv-x="725" 
d="M44 293c0 19 1 39 4 62c27 219 129 290 322 295l11 86h81l-11 -87c165 -5 254 -70 254 -233c0 -23 -2 -45 -5 -70c-24 -204 -123 -275 -320 -278l-11 -92h-81l11 92c-168 5 -255 70 -255 225zM127 291c0 -125 65 -154 180 -157l54 439c-135 -3 -209 -41 -230 -221
c-3 -23 -4 -42 -4 -61zM622 416c0 125 -64 154 -180 157l-54 -439c131 3 208 38 229 218c3 24 5 45 5 64z" />
    <glyph glyph-name="uni0425" unicode="&#x425;" horiz-adv-x="518" 
d="M-21 0l245 366l-151 346h87l122 -282l188 282h88l-238 -350l159 -362h-87l-128 297l-198 -297h-87z" />
    <glyph glyph-name="uni0426" unicode="&#x426;" horiz-adv-x="655" 
d="M51 0l87 712h83l-79 -646h306l79 646h83l-79 -646h76l-28 -222h-76l19 156h-471z" />
    <glyph glyph-name="uni0427" unicode="&#x427;" horiz-adv-x="557" 
d="M255 287c-104 0 -181 29 -181 148c0 13 1 28 3 43l29 234h82l-27 -223c-2 -14 -3 -27 -3 -38c0 -77 40 -93 123 -93c41 0 83 3 126 10l43 344h82l-88 -712h-82l37 298c-45 -7 -88 -11 -144 -11z" />
    <glyph glyph-name="uni0428" unicode="&#x428;" horiz-adv-x="899" 
d="M51 0l87 712h82l-79 -646h244l79 646h83l-79 -646h243l79 646h83l-87 -712h-735z" />
    <glyph glyph-name="uni0429" unicode="&#x429;" horiz-adv-x="918" 
d="M767 -156l19 156h-735l87 712h82l-79 -646h244l79 646h83l-79 -646h243l79 646h83l-79 -646h77l-28 -222h-76z" />
    <glyph glyph-name="uni042A" unicode="&#x42a;" horiz-adv-x="642" 
d="M64 636l9 76h245l-35 -283h137c128 0 185 -49 185 -170c0 -16 -1 -34 -3 -54c-19 -164 -96 -205 -227 -205h-227l78 636h-162zM417 355h-143l-35 -289h139c88 0 128 30 141 145c2 18 3 33 3 46c0 75 -32 98 -105 98z" />
    <glyph glyph-name="uni042B" unicode="&#x42b;" horiz-adv-x="734" 
d="M51 0l87 712h83l-35 -283h119c128 0 185 -49 185 -170c0 -16 -1 -34 -3 -54c-19 -164 -96 -205 -227 -205h-209zM302 355h-125l-36 -289h122c90 0 126 30 142 145c2 18 3 33 3 46c0 75 -33 98 -106 98zM538 0l88 712h82l-87 -712h-83z" />
    <glyph glyph-name="uni042C" unicode="&#x42c;" horiz-adv-x="545" 
d="M51 0l87 712h83l-35 -283h136c128 0 186 -49 186 -170c0 -16 -1 -34 -3 -54c-19 -164 -99 -205 -227 -205h-227zM319 355h-142l-36 -289h139c88 0 129 30 142 145c2 18 3 33 3 46c0 75 -33 98 -106 98z" />
    <glyph glyph-name="uni042D" unicode="&#x42d;" horiz-adv-x="579" 
d="M212 330l7 71h241c4 36 5 67 5 94c0 116 -36 153 -143 153c-109 0 -147 -43 -174 -156h-79c32 155 84 232 256 232c162 0 225 -69 225 -238c0 -39 -3 -79 -8 -128c-30 -274 -94 -370 -295 -370c-152 0 -218 67 -215 224h79c-3 -108 31 -158 139 -158
c132 0 173 57 202 276h-240z" />
    <glyph glyph-name="uni042E" unicode="&#x42e;" horiz-adv-x="843" 
d="M51 0l87 712h83l-38 -311h118c35 236 102 323 286 323c160 0 227 -69 227 -245c0 -36 -3 -76 -8 -121c-32 -274 -99 -370 -291 -370c-161 0 -228 69 -228 248c0 29 1 59 5 94h-118l-40 -330h-83zM370 219c0 -128 40 -165 144 -165c135 0 178 62 207 307c6 49 9 90 9 125
c0 123 -38 162 -143 162c-136 0 -179 -64 -206 -287c-7 -57 -11 -103 -11 -142z" />
    <glyph glyph-name="uni042F" unicode="&#x42f;" horiz-adv-x="559" 
d="M0 0l196 291c-76 15 -119 59 -119 156c0 16 1 33 3 51c19 159 85 214 228 214h226l-88 -712h-82l34 283h-117l-189 -283h-92zM160 446c0 -73 31 -94 107 -94h140l34 284h-139c-88 0 -126 -30 -139 -142c-2 -18 -3 -34 -3 -48z" />
    <glyph glyph-name="uni0430" unicode="&#x430;" horiz-adv-x="454" 
d="M161 -8c-88 0 -139 47 -139 124c0 124 101 155 218 174l76 12l4 32c8 71 -3 108 -76 108c-71 0 -98 -24 -109 -97h-73c16 108 59 167 190 167c123 0 161 -69 149 -168l-41 -344h-77l7 60c-23 -37 -64 -68 -129 -68zM179 57c67 0 112 41 121 109l9 73l-70 -10
c-61 -8 -136 -23 -136 -101c0 -47 25 -71 76 -71z" />
    <glyph glyph-name="uni0431" unicode="&#x431;" horiz-adv-x="501" 
d="M60 248l15 124c29 241 78 299 290 330l117 17l-10 -79l-101 -14c-155 -21 -188 -48 -212 -202c27 51 68 74 139 74c113 0 163 -55 163 -178c0 -23 -2 -48 -5 -75c-21 -174 -81 -253 -224 -253c-121 0 -178 56 -178 181c0 21 2 46 6 75zM134 175c0 -87 31 -117 100 -117
c86 0 123 48 142 189c3 25 5 48 5 68c0 85 -30 113 -101 113c-86 0 -121 -43 -140 -181c-4 -28 -6 -52 -6 -72z" />
    <glyph glyph-name="uni0432" unicode="&#x432;" horiz-adv-x="471" 
d="M37 0l62 504h193c95 0 135 -38 135 -113c0 -49 -18 -104 -71 -129c43 -17 61 -52 61 -99c0 -94 -48 -163 -163 -163h-217zM276 220h-132l-19 -154h131c58 0 81 40 81 97c0 43 -21 57 -61 57zM284 434h-114l-18 -147h114c62 0 80 38 80 95c0 36 -17 52 -62 52z" />
    <glyph glyph-name="uni0433" unicode="&#x433;" horiz-adv-x="372" 
d="M36 0l63 504h289l-10 -70h-208l-55 -434h-79z" />
    <glyph glyph-name="uni0434" unicode="&#x434;" horiz-adv-x="508" 
d="M60 0l-17 -132h-73l25 198h52c16 16 27 43 33 81l58 357h313l-54 -438h68l-25 -198h-73l16 132h-323zM128 66h189l44 368h-163l-45 -287c-5 -35 -14 -65 -25 -81z" />
    <glyph glyph-name="uni0435" unicode="&#x435;" horiz-adv-x="467" 
d="M213 -8c-119 0 -175 55 -175 185c0 24 2 48 6 76c22 182 85 259 222 259s180 -83 160 -248l-2 -19h-301c-4 -28 -5 -51 -5 -71c0 -93 33 -116 101 -116c69 0 101 24 118 91h72c-23 -100 -77 -157 -196 -157zM262 439c-69 0 -109 -29 -130 -132h224c7 102 -22 132 -94 132
z" />
    <glyph glyph-name="uni0436" unicode="&#x436;" horiz-adv-x="671" 
d="M-14 0l199 259l-140 245h87l117 -211h50l27 211h77l-27 -211h46l173 211h90l-202 -244l145 -260h-87l-122 223h-51l-28 -223h-77l28 223h-43l-171 -223h-91z" />
    <glyph glyph-name="uni0437" unicode="&#x437;" horiz-adv-x="440" 
d="M24 157h79c-5 -72 20 -101 91 -101c67 0 110 29 110 97c0 42 -29 68 -84 68h-53l8 66h52c60 0 94 33 94 92c0 41 -23 63 -82 63c-64 0 -93 -24 -109 -95h-79c25 115 78 165 196 165c104 0 154 -46 154 -123c0 -55 -25 -109 -79 -130c40 -18 63 -54 63 -103
c0 -110 -74 -164 -194 -164c-128 0 -174 54 -167 165z" />
    <glyph glyph-name="uni0438" unicode="&#x438;" horiz-adv-x="506" 
d="M36 0l63 504h74l-46 -375l269 375h74l-64 -504h-74l45 374l-268 -374h-73z" />
    <glyph glyph-name="uni0439" unicode="&#x439;" horiz-adv-x="506" 
d="M36 0l63 504h74l-46 -375l269 375h74l-64 -504h-74l45 374l-268 -374h-73zM298 568c-81 0 -134 35 -122 126l1 8h60l-1 -8c-7 -59 21 -75 62 -75c40 0 72 16 79 75l1 8h61l-1 -8c-11 -92 -60 -126 -140 -126z" />
    <glyph glyph-name="uni043A" unicode="&#x43a;" horiz-adv-x="456" 
d="M36 0l63 504h80l-27 -211h45l184 211h90l-213 -244l156 -260h-87l-133 223h-51l-28 -223h-79z" />
    <glyph glyph-name="uni043B" unicode="&#x43b;" horiz-adv-x="494" 
d="M-14 -4l9 70h24c41 0 59 15 67 67l58 371h314l-63 -504h-80l54 434h-165l-49 -312c-12 -76 -33 -126 -125 -126h-44z" />
    <glyph glyph-name="uni043C" unicode="&#x43c;" horiz-adv-x="643" 
d="M35 0l64 504h93l111 -393l208 393h96l-63 -504h-77l43 365l-192 -365h-55l-105 368l-43 -368h-80z" />
    <glyph glyph-name="uni043D" unicode="&#x43d;" horiz-adv-x="503" 
d="M37 0l62 504h80l-26 -211h207l26 211h80l-62 -504h-80l27 223h-207l-27 -223h-80z" />
    <glyph glyph-name="uni043E" unicode="&#x43e;" horiz-adv-x="484" 
d="M214 -8c-123 0 -176 55 -176 184c0 25 2 52 6 79c24 181 81 257 225 257c123 0 176 -55 176 -186c0 -23 -2 -50 -5 -77c-24 -181 -83 -257 -226 -257zM217 58c86 0 124 48 143 194c3 27 5 51 5 72c0 87 -31 115 -100 115c-86 0 -123 -44 -141 -187c-4 -29 -6 -55 -6 -76
c0 -88 30 -118 99 -118z" />
    <glyph glyph-name="uni043F" unicode="&#x43f;" horiz-adv-x="499" 
d="M37 0l62 504h363l-62 -504h-80l53 434h-203l-53 -434h-80z" />
    <glyph glyph-name="uni0440" unicode="&#x440;" horiz-adv-x="508" 
d="M11 -208l87 712h77l-8 -64c29 48 74 72 136 72c111 0 166 -59 166 -188c0 -24 -2 -49 -6 -76c-24 -181 -83 -256 -217 -256c-60 0 -103 21 -123 69l-33 -269h-79zM241 58c86 0 124 48 143 194c3 27 5 51 5 72c0 87 -32 115 -101 115c-86 0 -124 -44 -141 -187
c-3 -29 -5 -53 -5 -76c0 -88 28 -118 99 -118z" />
    <glyph glyph-name="uni0441" unicode="&#x441;" horiz-adv-x="459" 
d="M215 -8c-121 0 -177 52 -177 183c0 23 2 50 5 78c23 181 82 259 221 259c124 0 172 -67 165 -195h-76c1 94 -22 122 -93 122c-83 0 -119 -43 -137 -186c-4 -31 -6 -57 -6 -79c0 -89 30 -116 96 -116c71 0 106 33 125 133h76c-27 -144 -88 -199 -199 -199z" />
    <glyph glyph-name="uni0442" unicode="&#x442;" horiz-adv-x="404" 
d="M37 434l10 70h373l-10 -70h-148l-53 -434h-80l53 434h-145z" />
    <glyph glyph-name="uni0443" unicode="&#x443;" horiz-adv-x="440" 
d="M-9 -142h38c43 0 70 20 97 80l28 62l-108 504h81l80 -388l175 388h78l-263 -571c-42 -91 -74 -141 -169 -141h-45z" />
    <glyph glyph-name="uni0444" unicode="&#x444;" horiz-adv-x="648" 
d="M39 198c0 18 1 37 3 57c19 177 104 257 276 260l24 197h76l-24 -197c148 -5 215 -72 215 -212c0 -17 -1 -35 -3 -54c-19 -179 -104 -259 -277 -260l-24 -197h-76l24 197c-147 5 -214 72 -214 209zM530 308c0 93 -42 131 -145 134l-48 -386c124 3 170 58 189 196
c3 20 4 39 4 56zM118 195c0 -97 39 -136 143 -139l48 386c-123 -3 -171 -55 -187 -190c-3 -21 -4 -40 -4 -57z" />
    <glyph glyph-name="uni0445" unicode="&#x445;" horiz-adv-x="435" 
d="M-13 0l185 252l-124 252h85l91 -192l140 192h84l-187 -253l126 -251h-84l-94 192l-138 -192h-84z" />
    <glyph glyph-name="uni0446" unicode="&#x446;" horiz-adv-x="519" 
d="M37 0l62 504h80l-54 -438h203l54 438h80l-54 -438h68l-24 -198h-73l16 132h-358z" />
    <glyph glyph-name="uni0447" unicode="&#x447;" horiz-adv-x="461" 
d="M204 181c-110 0 -169 38 -153 167l20 156h80l-19 -152c-10 -77 15 -103 84 -103c27 0 65 4 98 9l31 246h80l-63 -504h-80l23 190c-32 -5 -69 -9 -101 -9z" />
    <glyph glyph-name="uni0448" unicode="&#x448;" horiz-adv-x="699" 
d="M37 0l62 504h80l-54 -438h162l54 438h79l-54 -438h162l54 438h80l-62 -504h-563z" />
    <glyph glyph-name="uni0449" unicode="&#x449;" horiz-adv-x="717" 
d="M37 0l62 504h80l-54 -438h162l54 438h79l-54 -438h162l54 438h80l-54 -438h65l-24 -198h-73l16 132h-555z" />
    <glyph glyph-name="uni044A" unicode="&#x44a;" horiz-adv-x="534" 
d="M37 434l9 70h216l-24 -190h111c91 0 146 -26 146 -122c0 -11 -1 -22 -2 -32c-12 -117 -65 -160 -174 -160h-199l53 434h-136zM345 245h-115l-22 -179h114c56 0 82 22 90 91c1 11 2 20 2 27c0 47 -22 61 -69 61z" />
    <glyph glyph-name="uni044B" unicode="&#x44b;" horiz-adv-x="619" 
d="M37 0l62 504h80l-24 -190h90c91 0 146 -26 146 -122c0 -11 -1 -22 -2 -32c-12 -117 -65 -160 -175 -160h-177zM441 0l62 504h79l-62 -504h-79zM240 245h-93l-22 -179h92c56 0 83 22 91 91c1 11 2 20 2 27c0 47 -22 61 -70 61z" />
    <glyph glyph-name="uni044C" unicode="&#x44c;" horiz-adv-x="451" 
d="M37 0l62 504h80l-24 -190h111c91 0 146 -26 146 -122c0 -11 -1 -22 -2 -32c-12 -117 -65 -160 -174 -160h-199zM262 245h-115l-22 -179h113c57 0 83 22 91 91c1 11 2 20 2 27c0 47 -22 61 -69 61z" />
    <glyph glyph-name="uni044D" unicode="&#x44d;" horiz-adv-x="458" 
d="M171 219l8 66h157c1 14 2 29 2 42c0 85 -30 113 -96 113c-65 0 -99 -29 -118 -95h-76c25 111 85 167 200 167c120 0 169 -61 169 -186c0 -24 -1 -48 -4 -76c-22 -188 -79 -258 -220 -258c-117 0 -168 48 -168 168h76c0 -76 27 -103 93 -103c75 0 115 36 134 162h-157z
" />
    <glyph glyph-name="uni044E" unicode="&#x44e;" horiz-adv-x="665" 
d="M36 0l63 504h80l-27 -209h86c24 152 82 217 213 217c123 0 175 -58 175 -189c0 -23 -2 -47 -5 -74c-24 -181 -75 -257 -219 -257c-123 0 -174 58 -174 187c0 15 0 30 2 47h-87l-28 -226h-79zM308 176c0 -87 25 -118 94 -118c89 0 118 48 139 194c4 27 6 51 6 72
c0 87 -28 115 -97 115c-84 0 -121 -44 -137 -187c-3 -29 -5 -53 -5 -76z" />
    <glyph glyph-name="uni044F" unicode="&#x44f;" horiz-adv-x="459" 
d="M-2 0l155 198c-64 11 -99 46 -99 122c0 111 42 184 181 184h187l-62 -504h-80l24 195h-67l-150 -195h-89zM135 324c0 -47 22 -63 70 -63h107l21 173h-108c-73 0 -87 -43 -90 -110z" />
    <glyph glyph-name="uni0450" unicode="&#x450;" horiz-adv-x="467" 
d="M213 -8c-119 0 -175 55 -175 185c0 24 2 48 6 76c22 182 85 259 222 259s180 -83 160 -248l-2 -19h-301c-4 -28 -5 -51 -5 -71c0 -93 33 -116 101 -116c69 0 101 24 118 91h72c-23 -100 -77 -157 -196 -157zM262 439c-69 0 -109 -29 -130 -132h224c7 102 -22 132 -94 132
zM254 568l-83 156h85l60 -156h-62z" />
    <glyph glyph-name="uni0451" unicode="&#x451;" horiz-adv-x="467" 
d="M213 -8c-119 0 -175 55 -175 185c0 24 2 48 6 76c22 182 85 259 222 259s180 -83 160 -248l-2 -19h-301c-4 -28 -5 -51 -5 -71c0 -93 33 -116 101 -116c69 0 101 24 118 91h72c-23 -100 -77 -157 -196 -157zM262 439c-69 0 -109 -29 -130 -132h224c7 102 -22 132 -94 132
zM319 597l11 94h80l-11 -94h-80zM151 597l12 94h79l-11 -94h-80z" />
    <glyph glyph-name="uni0452" unicode="&#x452;" horiz-adv-x="496" 
d="M47 581l8 58h60l9 73h80l-9 -73h122l-8 -58h-121l-16 -132c25 42 67 63 126 63c108 0 158 -65 144 -178l-50 -406c-11 -88 -54 -136 -145 -136h-41l8 66h25c45 0 67 17 73 65l48 394c11 89 -13 122 -84 122c-72 0 -109 -30 -120 -122l-39 -317h-80l71 581h-61z" />
    <glyph glyph-name="uni0453" unicode="&#x453;" horiz-adv-x="370" 
d="M36 0l63 504h289l-10 -70h-208l-55 -434h-79zM206 568l100 156h91l-123 -156h-68z" />
    <glyph glyph-name="uni0454" unicode="&#x454;" horiz-adv-x="456" 
d="M38 171c0 25 2 53 6 84c21 172 79 257 224 257c113 0 162 -59 162 -167h-76c-2 66 -27 95 -92 95c-77 0 -114 -38 -134 -155h156l-8 -66h-156c-2 -17 -2 -33 -2 -46c0 -89 30 -116 95 -116c66 0 100 27 118 103h76c-23 -118 -82 -168 -197 -168c-120 0 -172 52 -172 179z
" />
    <glyph glyph-name="uni0455" unicode="&#x455;" horiz-adv-x="428" 
d="M26 143h73c-3 -67 27 -87 91 -87c65 0 106 22 106 90c0 39 -20 51 -84 67l-51 13c-65 16 -103 51 -103 122c0 108 61 164 180 164c108 0 169 -40 156 -158h-73c5 71 -21 88 -85 88s-101 -21 -101 -85c0 -35 18 -52 73 -67l52 -13c80 -20 114 -60 114 -124
c0 -109 -66 -161 -187 -161c-128 0 -164 63 -161 151z" />
    <glyph glyph-name="uni0456" unicode="&#x456;" horiz-adv-x="216" 
d="M113 618l11 94h80l-12 -94h-79zM37 0l62 504h80l-62 -504h-80z" />
    <glyph glyph-name="uni0457" unicode="&#x457;" horiz-adv-x="216" 
d="M37 0l62 504h80l-62 -504h-80zM168 597l11 94h64l-12 -94h-63zM69 597l11 94h64l-12 -94h-63z" />
    <glyph glyph-name="uni0458" unicode="&#x458;" horiz-adv-x="216" 
d="M113 618l11 94h80l-12 -94h-79zM27 -77l72 581h80l-71 -576c-11 -88 -54 -136 -143 -136h-43l9 66h25c44 0 65 17 71 65z" />
    <glyph glyph-name="uni0459" unicode="&#x459;" horiz-adv-x="730" 
d="M-15 -3l10 70h23c41 0 60 15 68 66l58 371h316l-25 -201h114c88 0 143 -29 143 -122c0 -5 -1 -18 -2 -29c-13 -115 -62 -152 -170 -152h-202l53 434h-168l-49 -312c-12 -75 -34 -125 -125 -125h-44zM545 234h-119l-20 -168h117c53 0 78 21 86 85c1 9 2 22 2 25
c0 44 -21 58 -66 58z" />
    <glyph glyph-name="uni045A" unicode="&#x45a;" horiz-adv-x="730" 
d="M37 0l62 504h80l-26 -208h202l26 208h79l-26 -208h118c89 0 140 -30 140 -119c0 -5 -1 -18 -2 -29c-11 -111 -64 -148 -169 -148h-202l28 226h-202l-28 -226h-80zM547 226h-122l-19 -160h118c53 0 78 21 85 82c1 8 2 20 2 23c0 43 -19 55 -64 55z" />
    <glyph glyph-name="uni045B" unicode="&#x45b;" horiz-adv-x="496" 
d="M47 581l8 58h60l9 73h80l-9 -73h122l-8 -58h-121l-16 -132c25 42 67 63 126 63c108 0 158 -65 144 -178l-41 -334h-80l39 317c11 89 -13 122 -84 122c-72 0 -109 -30 -120 -122l-39 -317h-80l71 581h-61z" />
    <glyph glyph-name="uni045C" unicode="&#x45c;" horiz-adv-x="456" 
d="M36 0l63 504h80l-27 -211h45l184 211h90l-213 -244l156 -260h-87l-133 223h-51l-28 -223h-79zM242 568l100 156h91l-123 -156h-68z" />
    <glyph glyph-name="uni045D" unicode="&#x45d;" horiz-adv-x="506" 
d="M36 0l63 504h74l-46 -375l269 375h74l-64 -504h-74l45 374l-268 -374h-73zM268 568l-83 156h85l60 -156h-62z" />
    <glyph glyph-name="uni045E" unicode="&#x45e;" horiz-adv-x="440" 
d="M-9 -142h38c43 0 70 20 97 80l28 62l-108 504h81l80 -388l175 388h78l-263 -571c-42 -91 -74 -141 -169 -141h-45zM273 568c-81 0 -134 35 -122 126l1 8h60l-1 -8c-7 -59 21 -75 62 -75c40 0 72 16 79 75l1 8h61l-1 -8c-11 -92 -60 -126 -140 -126z" />
    <glyph glyph-name="uni045F" unicode="&#x45f;" horiz-adv-x="499" 
d="M37 0l62 504h80l-54 -438h203l54 438h80l-62 -504h-145l-17 -136h-73l17 136h-145z" />
    <glyph glyph-name="uni0472" unicode="&#x472;" horiz-adv-x="623" 
d="M54 236c0 37 3 80 9 128c32 264 100 360 298 360c164 0 234 -69 234 -245c0 -36 -3 -76 -8 -121c-33 -274 -98 -370 -298 -370c-165 0 -235 69 -235 248zM137 219c0 -128 43 -165 151 -165c135 0 178 57 210 276c-19 -15 -47 -29 -86 -29c-81 0 -105 45 -184 45
c-40 0 -68 -15 -85 -30c-4 -38 -6 -70 -6 -97zM360 648c-131 0 -181 -58 -208 -256c17 15 46 30 85 30c80 0 105 -44 185 -44c39 0 68 16 85 29c3 31 4 55 4 79c0 123 -41 162 -151 162z" />
    <glyph glyph-name="uni0473" unicode="&#x473;" horiz-adv-x="484" 
d="M38 179c0 23 2 49 6 76c24 181 78 257 222 257c123 0 179 -58 179 -189c0 -23 -2 -47 -5 -74c-24 -181 -80 -257 -224 -257c-121 0 -178 58 -178 187zM118 176c0 -88 30 -118 99 -118c81 0 118 42 139 167c-12 -9 -31 -19 -56 -19c-53 0 -72 31 -125 31
c-24 0 -43 -10 -55 -19c-2 -15 -2 -29 -2 -42zM265 439c-82 0 -118 -39 -137 -156c12 9 30 18 54 18c56 0 71 -30 127 -30c25 0 43 9 55 18c1 12 1 24 1 35c0 87 -31 115 -100 115z" />
    <glyph glyph-name="uni0474" unicode="&#x474;" horiz-adv-x="627" 
d="M207 0l-138 712h81l114 -616l207 485c42 98 71 131 172 131h20l-10 -76h-17c-51 0 -70 -18 -92 -69l-247 -567h-90z" />
    <glyph glyph-name="uni0475" unicode="&#x475;" horiz-adv-x="476" 
d="M151 0l-108 504h80l79 -396l136 304c28 63 57 92 129 92h19l-7 -70h-14c-35 0 -47 -14 -62 -46l-179 -388h-73z" />
    <glyph glyph-name="uni048C" unicode="&#x48c;" horiz-adv-x="650" 
d="M64 636l10 76h161l11 88h83l-11 -88h245l-10 -76h-244l-29 -232h154c121 0 176 -44 176 -156c0 -16 -1 -33 -3 -51c-19 -152 -91 -197 -217 -197h-242l78 636h-162zM426 334h-154l-33 -268h154c84 0 119 27 132 134c2 17 3 31 3 42c0 69 -33 92 -102 92z" />
    <glyph glyph-name="uni048D" unicode="&#x48d;" horiz-adv-x="517" 
d="M37 434l10 70h118l26 208h79l-26 -208h158l-9 -70h-157l-15 -122h111c91 0 146 -28 146 -123c0 -9 -1 -20 -2 -31c-12 -117 -66 -158 -175 -158h-197l53 434h-120zM328 242h-116l-21 -176h114c56 0 83 21 90 89c1 11 2 20 2 27c0 47 -22 60 -69 60z" />
    <glyph glyph-name="uni0490" unicode="&#x490;" horiz-adv-x="480" 
d="M50 0l88 712h303l16 124h76l-25 -200h-298l-77 -636h-83z" />
    <glyph glyph-name="uni0491" unicode="&#x491;" horiz-adv-x="375" 
d="M36 0l63 504h220l15 120h74l-24 -190h-214l-55 -434h-79z" />
    <glyph glyph-name="uni0492" unicode="&#x492;" horiz-adv-x="476" 
d="M33 329l8 64h59l40 319h370l-10 -76h-287l-30 -243h186l-8 -64h-186l-40 -329h-83l40 329h-59z" />
    <glyph glyph-name="uni0493" unicode="&#x493;" horiz-adv-x="379" 
d="M8 212l9 64h60l29 228h289l-10 -70h-208l-20 -158h121l-8 -64h-121l-27 -212h-79l26 212h-61z" />
    <glyph glyph-name="uni0496" unicode="&#x496;" horiz-adv-x="864" 
d="M-23 0l285 366l-200 346h87l178 -311h68l39 311h80l-39 -311h63l258 311h90l-285 -344l161 -302h71l-28 -222h-76l20 156h-41l-174 330h-67l-41 -330h-80l41 330h-60l-256 -330h-94z" />
    <glyph glyph-name="uni0497" unicode="&#x497;" horiz-adv-x="692" 
d="M-14 0l199 259l-140 245h87l117 -211h50l27 211h77l-27 -211h46l173 211h90l-202 -244l108 -194h60l-25 -198h-73l16 132h-28l-122 223h-51l-28 -223h-77l28 223h-43l-171 -223h-91z" />
    <glyph glyph-name="uni0498" unicode="&#x498;" horiz-adv-x="548" 
d="M200 -78l27 66c-153 5 -205 80 -194 224h79c-8 -110 23 -158 134 -158c101 0 154 42 165 137c1 11 2 22 2 31c0 68 -33 106 -132 106h-62l10 73h58c97 0 141 43 152 123c1 11 2 19 2 27c0 69 -40 97 -123 97c-91 0 -146 -32 -168 -148h-79c27 141 87 224 250 224
c141 0 202 -64 202 -171c0 -11 -1 -25 -2 -33c-8 -63 -44 -124 -119 -152c60 -21 95 -64 95 -143c0 -11 -1 -24 -3 -38c-15 -120 -88 -194 -234 -199l-3 -25c69 -4 98 -36 98 -80c0 -68 -57 -99 -126 -99h-76l6 46h57c37 0 73 10 73 54c0 25 -20 38 -61 38h-28z" />
    <glyph glyph-name="uni0499" unicode="&#x499;" horiz-adv-x="440" 
d="M143 -78l29 71c-114 5 -155 58 -148 164h79c-5 -72 20 -101 91 -101c67 0 110 29 110 97c0 42 -29 68 -84 68h-53l8 66h52c60 0 94 33 94 92c0 41 -23 63 -82 63c-64 0 -93 -24 -109 -95h-79c25 115 78 165 196 165c104 0 154 -46 154 -123c0 -55 -25 -109 -79 -130
c40 -18 63 -54 63 -103c0 -106 -69 -160 -181 -164l-4 -29c69 -4 98 -36 98 -80c0 -68 -57 -99 -126 -99h-76l6 46h57c37 0 73 10 73 54c0 25 -20 38 -61 38h-28z" />
    <glyph glyph-name="uni049A" unicode="&#x49a;" horiz-adv-x="586" 
d="M50 0l88 712h83l-39 -311h66l270 311h93l-299 -346l172 -300h70l-28 -222h-76l20 156h-38l-190 330h-68l-41 -330h-83z" />
    <glyph glyph-name="uni049B" unicode="&#x49b;" horiz-adv-x="475" 
d="M36 0l63 504h80l-27 -211h45l184 211h90l-213 -244l116 -194h60l-24 -198h-73l16 132h-26l-133 223h-51l-28 -223h-79z" />
    <glyph glyph-name="uni049C" unicode="&#x49c;" horiz-adv-x="565" 
d="M50 0l88 712h83l-39 -311h30l16 125h64l-16 -125h18l227 311h90l-252 -344l163 -368h-86l-148 330h-20l-16 -128h-64l16 128h-30l-41 -330h-83z" />
    <glyph glyph-name="uni049D" unicode="&#x49d;" horiz-adv-x="462" 
d="M36 0l63 504h80l-27 -211h22l12 105h59l-12 -105h10l144 211h84l-167 -245l110 -259h-84l-92 223h-13l-12 -103h-59l12 103h-23l-28 -223h-79z" />
    <glyph glyph-name="uni04A0" unicode="&#x4a0;" horiz-adv-x="657" 
d="M64 636l9 76h245l-39 -311h67l270 311h93l-300 -346l210 -366h-89l-191 330h-68l-41 -330h-83l78 636h-161z" />
    <glyph glyph-name="uni04A1" unicode="&#x4a1;" horiz-adv-x="539" 
d="M36 434l10 70h216l-27 -211h45l184 211h90l-213 -244l156 -260h-88l-132 223h-51l-28 -223h-79l54 434h-137z" />
    <glyph glyph-name="uni04A2" unicode="&#x4a2;" horiz-adv-x="658" 
d="M51 0l87 712h83l-38 -311h309l38 311h83l-79 -646h76l-28 -222h-76l19 156h-82l40 330h-309l-40 -330h-83z" />
    <glyph glyph-name="uni04A3" unicode="&#x4a3;" horiz-adv-x="521" 
d="M37 0l62 504h80l-26 -211h207l26 211h80l-54 -438h64l-24 -198h-73l16 132h-71l27 223h-207l-27 -223h-80z" />
    <glyph glyph-name="uni04A4" unicode="&#x4a4;" horiz-adv-x="862" 
d="M51 0l87 712h83l-38 -311h308l39 311h370l-10 -76h-288l-77 -636h-83l41 330h-309l-40 -330h-83z" />
    <glyph glyph-name="uni04A5" unicode="&#x4a5;" horiz-adv-x="658" 
d="M37 0l62 504h80l-26 -211h207l27 211h289l-10 -70h-208l-55 -434h-80l28 223h-207l-27 -223h-80z" />
    <glyph glyph-name="uni04AA" unicode="&#x4aa;" horiz-adv-x="590" 
d="M235 -78l27 67c-152 6 -208 74 -208 244c0 37 3 80 9 128c32 264 99 363 297 363c184 0 225 -88 212 -273h-78c8 148 -15 197 -134 197c-139 0 -185 -64 -212 -287c-7 -57 -11 -103 -11 -142c0 -128 41 -165 150 -165c119 0 155 56 184 205h79
c-32 -192 -100 -268 -255 -271l-3 -25c69 -4 98 -36 98 -80c0 -68 -57 -99 -126 -99h-76l6 46h57c37 0 73 10 73 54c0 25 -20 38 -61 38h-28z" />
    <glyph glyph-name="uni04AB" unicode="&#x4ab;" horiz-adv-x="459" 
d="M161 -78l29 71c-104 7 -152 60 -152 182c0 23 2 50 5 78c23 181 82 259 221 259c124 0 172 -67 165 -195h-76c1 94 -22 122 -93 122c-83 0 -119 -43 -137 -186c-4 -31 -6 -57 -6 -79c0 -89 30 -116 96 -116c71 0 106 33 125 133h76c-27 -141 -86 -196 -192 -199l-4 -29
c69 -4 98 -36 98 -80c0 -68 -57 -99 -126 -99h-76l6 46h57c37 0 73 10 73 54c0 25 -20 38 -61 38h-28z" />
    <glyph glyph-name="uni04AE" unicode="&#x4ae;" horiz-adv-x="543" 
d="M199 0l36 298l-167 414h89l131 -334l214 334h86l-272 -418l-34 -294h-83z" />
    <glyph glyph-name="uni04AF" unicode="&#x4af;" horiz-adv-x="441" 
d="M459 504l-228 -492l-27 -220h-80l26 216l-106 496h80l80 -394l176 394h79z" />
    <glyph glyph-name="uni04B0" unicode="&#x4b0;" horiz-adv-x="548" 
d="M62 249l8 70h159l-158 393h89l131 -333l214 333h86l-255 -393h158l-8 -70h-171l-30 -249h-83l30 249h-170z" />
    <glyph glyph-name="uni04B1" unicode="&#x4b1;" horiz-adv-x="441" 
d="M20 -22l8 64h115l-99 462h80l80 -394l176 394h79l-215 -462h113l-7 -64h-124l-22 -186h-80l22 186h-126z" />
    <glyph glyph-name="uni04B2" unicode="&#x4b2;" horiz-adv-x="551" 
d="M392 0l-128 297l-198 -297h-87l245 366l-151 346h87l122 -282l188 282h88l-238 -350l130 -296h70l-28 -222h-76l20 156h-44z" />
    <glyph glyph-name="uni04B3" unicode="&#x4b3;" horiz-adv-x="464" 
d="M325 -132l16 132h-38l-94 192l-138 -192h-84l185 252l-124 252h85l91 -192l140 192h84l-187 -253l93 -185h69l-25 -198h-73z" />
    <glyph glyph-name="uni04B6" unicode="&#x4b6;" horiz-adv-x="577" 
d="M362 0l37 298c-45 -7 -88 -11 -144 -11c-104 0 -181 29 -181 148c0 13 1 28 3 43l29 234h82l-27 -223c-2 -14 -3 -27 -3 -38c0 -77 40 -93 123 -93c41 0 83 3 126 10l43 344h82l-79 -646h77l-28 -222h-76l19 156h-83z" />
    <glyph glyph-name="uni04B7" unicode="&#x4b7;" horiz-adv-x="479" 
d="M282 0l23 190c-32 -5 -69 -9 -101 -9c-110 0 -169 38 -153 167l20 156h80l-19 -152c-10 -77 15 -103 84 -103c27 0 65 4 98 9l31 246h80l-55 -438h65l-25 -198h-73l16 132h-71z" />
    <glyph glyph-name="uni04B8" unicode="&#x4b8;" horiz-adv-x="557" 
d="M220 165l15 122c-93 3 -161 37 -161 148c0 13 1 28 3 43l29 234h82l-27 -223c-2 -14 -3 -27 -3 -38c0 -65 27 -85 86 -92l17 136h65l-17 -137c32 3 63 5 98 10l43 344h82l-88 -712h-82l37 298c-32 -5 -64 -7 -99 -10l-15 -123h-65z" />
    <glyph glyph-name="uni04B9" unicode="&#x4b9;" horiz-adv-x="461" 
d="M166 84l12 97c-93 5 -142 48 -127 167l20 156h80l-19 -152c-8 -65 8 -94 55 -101l14 111h59l-14 -112l68 8l31 246h80l-63 -504h-80l23 190c-23 -5 -45 -7 -68 -8l-12 -98h-59z" />
    <glyph glyph-name="uni04BA" unicode="&#x4ba;" horiz-adv-x="556" 
d="M50 0l88 712h83l-37 -294c45 7 87 11 142 11c105 0 182 -31 182 -149c0 -13 -1 -27 -3 -42l-29 -238h-83l28 227c2 14 3 27 3 38c0 77 -40 93 -123 93c-41 0 -82 -3 -125 -10l-43 -348h-83z" />
    <glyph glyph-name="uni04BB" unicode="&#x4bb;" horiz-adv-x="496" 
d="M37 0l87 712h80l-32 -263c25 42 67 63 126 63c108 0 158 -65 144 -178l-41 -334h-80l39 317c11 89 -13 122 -84 122c-72 0 -110 -30 -121 -122l-38 -317h-80z" />
    <glyph glyph-name="uni04C0" unicode="&#x4c0;" horiz-adv-x="246" 
d="M51 0l87 712h83l-87 -712h-83z" />
    <glyph glyph-name="uni04C9" unicode="&#x4c9;" horiz-adv-x="657" 
d="M51 0l87 712h83l-38 -311h309l38 311h83l-79 -646h73l-86 -222h-76l60 156h-62l40 330h-309l-40 -330h-83z" />
    <glyph glyph-name="uni04CA" unicode="&#x4ca;" horiz-adv-x="521" 
d="M37 0l62 504h80l-26 -211h207l26 211h80l-54 -438h66l-64 -198h-73l42 132h-59l27 223h-207l-27 -223h-80z" />
    <glyph glyph-name="uni04CF" unicode="&#x4cf;" horiz-adv-x="216" 
d="M37 0l87 712h80l-87 -712h-80z" />
    <glyph glyph-name="uni04D2" unicode="&#x4d2;" horiz-adv-x="562" 
d="M-17 0l309 712h90l136 -712h-82l-32 172h-270l-73 -172h-78zM324 614l-160 -372h228zM387 805l11 94h80l-11 -94h-80zM219 805l12 94h79l-11 -94h-80z" />
    <glyph glyph-name="uni04D3" unicode="&#x4d3;" horiz-adv-x="454" 
d="M161 -8c-88 0 -139 47 -139 124c0 124 101 155 218 174l76 12l4 32c8 71 -3 108 -76 108c-71 0 -98 -24 -109 -97h-73c16 108 59 167 190 167c123 0 161 -69 149 -168l-41 -344h-77l7 60c-23 -37 -64 -68 -129 -68zM179 57c67 0 112 41 121 109l9 73l-70 -10
c-61 -8 -136 -23 -136 -101c0 -47 25 -71 76 -71zM309 597l11 94h80l-11 -94h-80zM141 597l12 94h79l-11 -94h-80z" />
    <glyph glyph-name="uni04D8" unicode="&#x4d8;" horiz-adv-x="607" 
d="M47 222c0 35 3 73 8 116l4 33h428c5 43 7 77 7 108c0 128 -43 169 -152 169s-159 -42 -186 -165h-80c32 162 100 241 269 241c165 0 233 -75 233 -250c0 -37 -3 -78 -8 -123c-33 -275 -102 -363 -299 -363c-156 0 -224 62 -224 234zM273 54c128 0 172 48 204 248h-342
c-4 -35 -6 -66 -6 -91c0 -124 44 -157 144 -157z" />
    <glyph glyph-name="uni04D9" unicode="&#x4d9;" horiz-adv-x="467" 
d="M200 -8c-115 0 -164 60 -164 176c0 22 2 46 5 72l2 19h302c2 24 4 48 4 67c0 90 -34 113 -102 113c-66 0 -97 -26 -113 -90h-73c23 104 75 163 191 163c122 0 175 -55 175 -191c0 -21 -1 -44 -4 -70c-19 -183 -86 -259 -223 -259zM206 58c70 0 107 28 129 139h-223
c-1 -12 -1 -23 -1 -33c0 -81 30 -106 95 -106z" />
    <glyph glyph-name="uni04E2" unicode="&#x4e2;" horiz-adv-x="641" 
d="M50 0l88 712h80l-70 -568l390 568h78l-88 -712h-80l69 566l-389 -566h-78zM258 825l7 58h262l-7 -58h-262z" />
    <glyph glyph-name="uni04E3" unicode="&#x4e3;" horiz-adv-x="506" 
d="M36 0l63 504h74l-46 -375l269 375h74l-64 -504h-74l45 374l-268 -374h-73zM168 617l7 58h262l-7 -58h-262z" />
    <glyph glyph-name="uni04E6" unicode="&#x4e6;" horiz-adv-x="623" 
d="M288 -12c-164 0 -234 69 -234 248c0 37 3 80 9 128c32 264 99 360 297 360c165 0 235 -70 235 -245c0 -36 -3 -76 -8 -121c-33 -274 -98 -370 -299 -370zM287 54c141 0 182 62 214 307c6 49 10 90 10 125c0 123 -41 162 -151 162c-139 0 -185 -64 -212 -287
c-7 -57 -11 -103 -11 -142c0 -128 41 -165 150 -165zM424 805l11 94h80l-11 -94h-80zM256 805l12 94h79l-11 -94h-80z" />
    <glyph glyph-name="uni04E7" unicode="&#x4e7;" horiz-adv-x="484" 
d="M214 -8c-123 0 -176 55 -176 184c0 25 2 52 6 79c24 181 81 257 225 257c123 0 176 -55 176 -186c0 -23 -2 -50 -5 -77c-24 -181 -83 -257 -226 -257zM217 58c86 0 124 48 143 194c3 27 5 51 5 72c0 87 -31 115 -100 115c-86 0 -123 -44 -141 -187c-4 -29 -6 -55 -6 -76
c0 -88 30 -118 99 -118zM326 597l11 94h80l-11 -94h-80zM158 597l12 94h79l-11 -94h-80z" />
    <glyph glyph-name="uni04E8" unicode="&#x4e8;" horiz-adv-x="623" 
d="M54 236c0 37 3 80 9 128c32 264 100 360 298 360c164 0 234 -69 234 -245c0 -36 -3 -76 -8 -121c-33 -274 -98 -370 -298 -370c-165 0 -235 69 -235 248zM137 219c0 -128 43 -165 151 -165c135 0 178 57 210 276h-354c-5 -43 -7 -80 -7 -111zM360 648
c-132 0 -178 -58 -207 -247h353c3 32 5 60 5 85c0 123 -41 162 -151 162z" />
    <glyph glyph-name="uni04E9" unicode="&#x4e9;" horiz-adv-x="484" 
d="M38 179c0 23 2 49 6 76c24 181 78 257 222 257c123 0 179 -58 179 -189c0 -23 -2 -47 -5 -74c-24 -181 -80 -257 -224 -257c-121 0 -178 58 -178 187zM118 176c0 -88 30 -118 99 -118c81 0 117 42 138 162h-235c-2 -16 -2 -31 -2 -44zM265 439c-80 0 -118 -37 -137 -152
h235c1 13 2 25 2 37c0 87 -31 115 -100 115z" />
    <glyph glyph-name="uni04EE" unicode="&#x4ee;" horiz-adv-x="541" 
d="M55 -7l6 73h33c47 0 87 19 120 87l17 35l-167 524h81l137 -435l228 435h81l-310 -581c-45 -85 -86 -138 -186 -138h-40zM214 825l7 58h262l-7 -58h-262z" />
    <glyph glyph-name="uni04EF" unicode="&#x4ef;" horiz-adv-x="440" 
d="M-9 -142h38c43 0 70 20 97 80l28 62l-108 504h81l80 -388l175 388h78l-263 -571c-42 -91 -74 -141 -169 -141h-45zM130 617l7 58h262l-7 -58h-262z" />
    <glyph glyph-name="uni04F8" unicode="&#x4f8;" horiz-adv-x="734" 
d="M51 0l87 712h83l-35 -283h119c128 0 185 -49 185 -170c0 -16 -1 -34 -3 -54c-19 -164 -96 -205 -227 -205h-209zM302 355h-125l-36 -289h122c90 0 126 30 142 145c2 18 3 33 3 46c0 75 -33 98 -106 98zM538 0l88 712h82l-87 -712h-83zM476 805l11 94h80l-11 -94h-80z
M308 805l12 94h79l-11 -94h-80z" />
    <glyph glyph-name="uni04F9" unicode="&#x4f9;" horiz-adv-x="619" 
d="M37 0l62 504h80l-24 -190h90c91 0 146 -26 146 -122c0 -11 -1 -22 -2 -32c-12 -117 -65 -160 -175 -160h-177zM441 0l62 504h79l-62 -504h-79zM240 245h-93l-22 -179h92c56 0 83 22 91 91c1 11 2 20 2 27c0 47 -22 61 -70 61zM394 597l11 94h80l-11 -94h-80zM226 597
l12 94h79l-11 -94h-80z" />
    <glyph glyph-name="uni0E3F" unicode="&#xe3f;" horiz-adv-x="547" 
d="M25 0l87 712h162l13 104h80l-13 -105c108 -5 165 -63 165 -159c0 -10 -1 -21 -2 -32c-8 -85 -48 -131 -97 -148c55 -28 82 -80 82 -146c0 -10 -1 -19 -2 -30c-14 -133 -80 -196 -209 -196h-23l-12 -104h-80l12 104h-163zM317 330h-169l-32 -264h166c75 0 123 36 135 133
c2 12 2 23 2 32c0 73 -37 99 -102 99zM337 636h-152l-28 -235h154c85 0 113 41 123 120c1 11 2 22 2 31c0 57 -27 84 -99 84z" />
    <glyph glyph-name="Wgrave" unicode="&#x1e80;" horiz-adv-x="886" 
d="M168 0l-96 712h82l75 -605l243 605h61l91 -602l224 602h79l-271 -712h-88l-84 555l-225 -555h-91zM482 776l-83 156h85l60 -156h-62z" />
    <glyph glyph-name="wgrave" unicode="&#x1e81;" horiz-adv-x="694" 
d="M134 0l-90 504h82l62 -387l163 387h57l69 -387l157 387h78l-214 -504h-73l-65 358l-152 -358h-74zM359 568l-83 156h85l60 -156h-62z" />
    <glyph glyph-name="Wacute" unicode="&#x1e82;" horiz-adv-x="886" 
d="M168 0l-96 712h82l75 -605l243 605h61l91 -602l224 602h79l-271 -712h-88l-84 555l-225 -555h-91zM462 776l100 156h91l-123 -156h-68z" />
    <glyph glyph-name="wacute" unicode="&#x1e83;" horiz-adv-x="694" 
d="M134 0l-90 504h82l62 -387l163 387h57l69 -387l157 387h78l-214 -504h-73l-65 358l-152 -358h-74zM339 568l100 156h91l-123 -156h-68z" />
    <glyph glyph-name="Wdieresis" unicode="&#x1e84;" horiz-adv-x="886" 
d="M168 0l-96 712h82l75 -605l243 605h61l91 -602l224 602h79l-271 -712h-88l-84 555l-225 -555h-91zM554 805l11 94h80l-11 -94h-80zM386 805l12 94h79l-11 -94h-80z" />
    <glyph glyph-name="wdieresis" unicode="&#x1e85;" horiz-adv-x="694" 
d="M134 0l-90 504h82l62 -387l163 387h57l69 -387l157 387h78l-214 -504h-73l-65 358l-152 -358h-74zM431 597l11 94h80l-11 -94h-80zM263 597l12 94h79l-11 -94h-80z" />
    <glyph glyph-name="uni1E8A" unicode="&#x1e8a;" horiz-adv-x="518" 
d="M-21 0l245 366l-151 346h87l122 -282l188 282h88l-238 -350l159 -362h-87l-128 297l-198 -297h-87zM282 785l11 94h80l-11 -94h-80z" />
    <glyph glyph-name="uni1E8B" unicode="&#x1e8b;" horiz-adv-x="435" 
d="M-13 0l185 252l-124 252h85l91 -192l140 192h84l-187 -253l126 -251h-84l-94 192l-138 -192h-84zM220 597l11 94h80l-11 -94h-80z" />
    <glyph glyph-name="Ygrave" unicode="&#x1ef2;" horiz-adv-x="543" 
d="M199 0l36 298l-167 414h89l131 -334l214 334h86l-272 -418l-34 -294h-83zM315 776l-83 156h85l60 -156h-62z" />
    <glyph glyph-name="ygrave" unicode="&#x1ef3;" horiz-adv-x="440" 
d="M-9 -142h38c43 0 70 20 97 80l28 62l-108 504h81l80 -388l175 388h78l-263 -571c-42 -91 -74 -141 -169 -141h-45zM242 568l-83 156h85l60 -156h-62z" />
    <glyph glyph-name="uni2007" unicode="&#x2007;" horiz-adv-x="560" 
 />
    <glyph glyph-name="uni2008" unicode="&#x2008;" horiz-adv-x="207" 
 />
    <glyph glyph-name="uni200B" unicode="&#x200b;" horiz-adv-x="0" 
 />
    <glyph glyph-name="endash" unicode="&#x2013;" horiz-adv-x="619" 
d="M62 258l7 67h498l-8 -67h-497z" />
    <glyph glyph-name="emdash" unicode="&#x2014;" horiz-adv-x="886" 
d="M62 258l7 67h764l-7 -67h-764z" />
    <glyph glyph-name="uni2015" unicode="&#x2015;" horiz-adv-x="619" 
d="M62 258l7 67h498l-8 -67h-497z" />
    <glyph glyph-name="quoteleft" unicode="&#x2018;" horiz-adv-x="180" 
d="M76 493l8 70l60 149h36l-26 -219h-78z" />
    <glyph glyph-name="quoteright" unicode="&#x2019;" horiz-adv-x="174" 
d="M84 493l26 219h78l-8 -70l-59 -149h-37z" />
    <glyph glyph-name="quotesinglbase" unicode="&#x201a;" horiz-adv-x="186" 
d="M35 91h78l-8 -70l-60 -149h-36z" />
    <glyph glyph-name="quotedblleft" unicode="&#x201c;" horiz-adv-x="329" 
d="M225 493l8 70l59 149h37l-26 -219h-78zM76 493l8 70l60 149h36l-26 -219h-78z" />
    <glyph glyph-name="quotedblright" unicode="&#x201d;" horiz-adv-x="323" 
d="M233 493l26 219h78l-8 -70l-60 -149h-36zM84 493l26 219h78l-8 -70l-59 -149h-37z" />
    <glyph glyph-name="quotedblbase" unicode="&#x201e;" horiz-adv-x="334" 
d="M183 91h78l-8 -70l-60 -149h-36zM35 91h78l-8 -70l-60 -149h-36z" />
    <glyph glyph-name="dagger" unicode="&#x2020;" horiz-adv-x="490" 
d="M73 468l8 67h159l22 177h77l-22 -177h160l-8 -67h-160l-57 -468h-77l57 468h-159z" />
    <glyph glyph-name="daggerdbl" unicode="&#x2021;" horiz-adv-x="490" 
d="M74 467l8 67h159l22 178h77l-22 -178h160l-8 -67h-160l-28 -227h160l-9 -67h-159l-21 -173h-77l21 173h-160l9 67h159l28 227h-159z" />
    <glyph glyph-name="bullet" unicode="&#x2022;" horiz-adv-x="430" 
d="M89 172l29 232h230l-29 -232h-230z" />
    <glyph glyph-name="ellipsis" unicode="&#x2026;" horiz-adv-x="632" 
d="M480 0l11 102h84l-12 -102h-83zM250 0l12 102h84l-12 -102h-84zM10 0l12 102h84l-12 -102h-84z" />
    <glyph glyph-name="perthousand" unicode="&#x2030;" horiz-adv-x="1036" 
d="M187 348c-87 0 -123 35 -123 130c0 19 1 37 4 60c13 124 51 182 158 182c91 0 125 -41 125 -129c0 -17 -1 -36 -4 -57c-16 -136 -58 -186 -160 -186zM190 400c55 0 74 24 87 136c3 23 4 41 4 56c0 55 -18 69 -59 69c-52 0 -72 -25 -84 -125c-4 -29 -6 -53 -6 -70
c0 -52 17 -66 58 -66zM76 0l542 712h60l-542 -712h-60zM521 -8c-87 0 -123 35 -123 130c0 19 1 37 4 60c13 124 51 182 158 182c91 0 125 -41 125 -129c0 -17 -1 -36 -4 -57c-16 -136 -58 -186 -160 -186zM524 44c55 0 74 24 87 136c3 23 4 41 4 56c0 55 -18 69 -59 69
c-52 0 -72 -25 -84 -125c-4 -29 -6 -53 -6 -70c0 -52 17 -66 58 -66zM839 -8c-87 0 -123 35 -123 130c0 19 1 37 4 60c13 124 51 182 158 182c91 0 125 -41 125 -129c0 -17 -1 -36 -4 -57c-16 -136 -58 -186 -160 -186zM842 44c55 0 74 24 87 136c3 23 4 41 4 56
c0 55 -18 69 -59 69c-52 0 -72 -25 -84 -125c-4 -29 -6 -53 -6 -70c0 -52 17 -66 58 -66z" />
    <glyph glyph-name="guilsinglleft" unicode="&#x2039;" horiz-adv-x="246" 
d="M109 64l-71 192l119 192h66l-108 -192l60 -192h-66z" />
    <glyph glyph-name="guilsinglright" unicode="&#x203a;" horiz-adv-x="245" 
d="M23 64l108 192l-60 192h68l69 -192l-118 -192h-67z" />
    <glyph glyph-name="fraction" unicode="&#x2044;" horiz-adv-x="56" 
d="M-260 0l542 712h60l-542 -712h-60z" />
    <glyph glyph-name="uni2070" unicode="&#x2070;" 
d="M193 508c-87 0 -123 35 -123 130c0 19 1 37 4 60c13 124 51 182 158 182c91 0 125 -41 125 -129c0 -17 -1 -36 -4 -57c-16 -136 -58 -186 -160 -186zM196 560c55 0 74 24 87 136c3 23 4 41 4 56c0 55 -18 69 -59 69c-52 0 -72 -25 -84 -125c-4 -29 -6 -53 -6 -70
c0 -52 17 -66 58 -66z" />
    <glyph glyph-name="uni2071" unicode="&#x2071;" horiz-adv-x="160" 
d="M131 949l9 73h69l-9 -73h-69zM78 516l43 356h69l-43 -356h-69z" />
    <glyph glyph-name="uni2074" unicode="&#x2074;" 
d="M55 593l5 44l179 235h87l-28 -225h50l-6 -54h-50l-9 -77h-67l9 77h-170zM129 647h102l19 156z" />
    <glyph glyph-name="uni2075" unicode="&#x2075;" 
d="M69 624h66c-3 -48 15 -63 63 -63c49 0 68 22 75 71c1 7 1 12 1 17c0 35 -16 51 -59 51c-44 0 -63 -15 -76 -46h-60l4 24l43 194h227l-6 -59h-175l-19 -81c20 13 42 21 73 21c76 0 118 -33 118 -102c0 -7 0 -13 -1 -20c-9 -84 -60 -122 -148 -122c-91 0 -129 34 -126 115z
" />
    <glyph glyph-name="uni2076" unicode="&#x2076;" 
d="M71 634c7 49 26 77 57 112l108 126h80l-117 -129c9 3 20 4 31 4c76 0 118 -29 118 -97c0 -7 -1 -15 -2 -23c-11 -88 -65 -119 -149 -119c-76 0 -128 28 -128 101c0 8 1 17 2 25zM141 628c-1 -7 -1 -11 -1 -18c0 -35 16 -50 60 -50c49 0 69 21 76 68c1 7 1 11 1 18
c0 33 -17 48 -60 48c-51 0 -69 -19 -76 -66z" />
    <glyph glyph-name="uni2077" unicode="&#x2077;" 
d="M99 516l188 297h-193l7 59h269l-5 -44l-195 -312h-71z" />
    <glyph glyph-name="uni2078" unicode="&#x2078;" 
d="M65 599c0 44 18 76 65 94c-24 13 -39 37 -39 70c0 76 52 117 141 117c81 0 124 -37 124 -100c0 -37 -24 -71 -60 -87c31 -13 46 -36 46 -75c0 -76 -57 -110 -148 -110c-81 0 -129 28 -129 91zM216 720c44 0 69 20 69 63c0 27 -19 40 -56 40c-44 0 -69 -20 -69 -63
c0 -27 19 -40 56 -40zM197 560c46 0 75 20 75 64c0 29 -21 44 -62 44c-45 0 -75 -19 -75 -64c0 -29 21 -44 62 -44z" />
    <glyph glyph-name="uni2079" unicode="&#x2079;" 
d="M112 516l115 129c-10 -3 -20 -5 -30 -5c-76 0 -118 29 -118 97c0 7 0 15 1 23c11 88 66 120 150 120c79 0 127 -27 127 -103c0 -7 0 -13 -1 -21c-5 -45 -28 -81 -57 -114l-108 -126h-79zM209 687c51 0 69 21 76 66c1 7 1 13 1 18c0 35 -17 52 -60 52
c-51 0 -71 -23 -76 -70c-1 -7 -1 -12 -1 -17c0 -33 17 -49 60 -49z" />
    <glyph glyph-name="uni207A" unicode="&#x207a;" 
d="M176 579l12 94h-102l4 42h103l12 94h45l-12 -94h102l-4 -42h-102l-13 -94h-45z" />
    <glyph glyph-name="uni207B" unicode="&#x207b;" 
d="M86 673l4 42h250l-4 -42h-250z" />
    <glyph glyph-name="uni207C" unicode="&#x207c;" 
d="M94 738l4 42h250l-4 -42h-250zM78 608l4 42h250l-4 -42h-250z" />
    <glyph glyph-name="uni207D" unicode="&#x207d;" horiz-adv-x="157" 
d="M72 701c25 206 56 231 139 231h16l-6 -53h-6c-44 0 -57 -9 -79 -185c-7 -58 -11 -98 -11 -126c0 -54 15 -59 44 -59h6l-6 -53h-16c-62 0 -90 23 -90 121c0 33 3 73 9 124z" />
    <glyph glyph-name="uni207E" unicode="&#x207e;" horiz-adv-x="157" 
d="M190 687c-25 -206 -55 -231 -138 -231h-17l6 53h7c44 0 57 9 79 185c7 58 10 98 10 126c0 54 -14 59 -43 59h-7l6 53h17c61 0 89 -23 89 -121c0 -33 -3 -73 -9 -124z" />
    <glyph glyph-name="uni207F" unicode="&#x207f;" horiz-adv-x="355" 
d="M78 516l43 356h66l-6 -43c19 33 45 51 92 51c79 0 111 -47 101 -127l-29 -237h-69l27 220c7 61 -6 82 -53 82s-69 -21 -76 -82l-27 -220h-69z" />
    <glyph glyph-name="uni2080" unicode="&#x2080;" 
d="M110 -168c-87 0 -123 35 -123 130c0 19 1 37 4 60c13 124 51 182 158 182c91 0 125 -41 125 -129c0 -17 -1 -36 -4 -57c-16 -136 -58 -186 -160 -186zM113 -116c55 0 74 24 87 136c3 23 4 41 4 56c0 55 -18 69 -59 69c-52 0 -72 -25 -84 -125c-4 -29 -6 -53 -6 -70
c0 -52 17 -66 58 -66z" />
    <glyph glyph-name="uni2081" unicode="&#x2081;" 
d="M102 -160l35 289l-94 -30l7 59l113 38h52l-43 -356h-70z" />
    <glyph glyph-name="uni2082" unicode="&#x2082;" 
d="M-17 -160l4 39c7 60 47 94 99 119l46 23c35 17 70 34 70 80c0 32 -19 44 -54 44c-47 0 -66 -16 -78 -71h-66c16 84 56 130 147 130c83 0 122 -36 122 -100c0 -60 -43 -101 -100 -128l-50 -25c-45 -23 -61 -32 -66 -59h185l-6 -52h-253z" />
    <glyph glyph-name="uni2083" unicode="&#x2083;" 
d="M-16 -44h66c-3 -56 15 -72 63 -72c40 0 72 15 72 63c0 28 -14 42 -57 42h-37l7 54h37c37 0 66 19 66 60c0 28 -19 42 -58 42c-40 0 -67 -15 -76 -70h-66c15 83 57 129 146 129c84 0 123 -39 123 -95c0 -43 -18 -68 -55 -88c25 -11 41 -35 41 -71
c0 -80 -59 -118 -146 -118c-92 0 -131 35 -126 124z" />
    <glyph glyph-name="uni2084" unicode="&#x2084;" 
d="M-28 -83l5 44l179 235h87l-28 -225h50l-6 -54h-50l-9 -77h-67l9 77h-170zM46 -29h102l19 156z" />
    <glyph glyph-name="uni2085" unicode="&#x2085;" 
d="M-14 -52h66c-3 -48 15 -63 63 -63c49 0 68 22 75 71c1 7 1 12 1 17c0 35 -16 51 -59 51c-44 0 -63 -15 -76 -46h-60l4 24l43 194h227l-6 -59h-175l-19 -81c20 13 42 21 73 21c76 0 118 -33 118 -102c0 -7 0 -13 -1 -20c-9 -84 -60 -122 -148 -122c-91 0 -129 34 -126 115
z" />
    <glyph glyph-name="uni2086" unicode="&#x2086;" 
d="M-12 -42c7 49 26 77 57 112l108 126h80l-117 -129c9 3 20 4 31 4c76 0 118 -29 118 -97c0 -7 -1 -15 -2 -23c-11 -88 -65 -119 -149 -119c-76 0 -128 28 -128 101c0 8 1 17 2 25zM58 -48c-1 -7 -1 -11 -1 -18c0 -35 16 -50 60 -50c49 0 69 21 76 68c1 7 1 11 1 18
c0 33 -17 48 -60 48c-51 0 -69 -19 -76 -66z" />
    <glyph glyph-name="uni2087" unicode="&#x2087;" 
d="M16 -160l188 297h-193l7 59h269l-5 -44l-195 -312h-71z" />
    <glyph glyph-name="uni2088" unicode="&#x2088;" 
d="M-18 -77c0 44 18 76 65 94c-24 13 -39 37 -39 70c0 76 52 117 141 117c81 0 124 -37 124 -100c0 -37 -24 -71 -60 -87c31 -13 46 -36 46 -75c0 -76 -57 -110 -148 -110c-81 0 -129 28 -129 91zM133 44c44 0 69 20 69 63c0 27 -19 40 -56 40c-44 0 -69 -20 -69 -63
c0 -27 19 -40 56 -40zM114 -116c46 0 75 20 75 64c0 29 -21 44 -62 44c-45 0 -75 -19 -75 -64c0 -29 21 -44 62 -44z" />
    <glyph glyph-name="uni2089" unicode="&#x2089;" 
d="M29 -160l115 129c-10 -3 -20 -5 -30 -5c-76 0 -118 29 -118 97c0 7 0 15 1 23c11 88 66 120 150 120c79 0 127 -27 127 -103c0 -7 0 -13 -1 -21c-5 -45 -28 -81 -57 -114l-108 -126h-79zM126 11c51 0 69 21 76 66c1 7 1 13 1 18c0 35 -17 52 -60 52
c-51 0 -71 -23 -76 -70c-1 -7 -1 -12 -1 -17c0 -33 17 -49 60 -49z" />
    <glyph glyph-name="uni208A" unicode="&#x208a;" 
d="M93 -97l12 94h-102l4 42h103l12 94h45l-12 -94h102l-4 -42h-102l-13 -94h-45z" />
    <glyph glyph-name="uni208B" unicode="&#x208b;" 
d="M3 -3l4 42h250l-4 -42h-250z" />
    <glyph glyph-name="uni208C" unicode="&#x208c;" 
d="M11 62l4 42h250l-4 -42h-250zM-5 -68l4 42h250l-4 -42h-250z" />
    <glyph glyph-name="uni208D" unicode="&#x208d;" horiz-adv-x="157" 
d="M-11 25c25 206 56 231 139 231h16l-6 -53h-6c-44 0 -57 -9 -79 -185c-7 -58 -11 -98 -11 -126c0 -54 15 -59 44 -59h6l-6 -53h-16c-62 0 -90 23 -90 121c0 33 3 73 9 124z" />
    <glyph glyph-name="uni208E" unicode="&#x208e;" horiz-adv-x="157" 
d="M107 11c-25 -206 -55 -231 -138 -231h-17l6 53h7c44 0 57 9 79 185c7 58 10 98 10 126c0 54 -14 59 -43 59h-7l6 53h17c61 0 89 -23 89 -121c0 -33 -3 -73 -9 -124z" />
    <glyph glyph-name="uni2090" unicode="&#x2090;" horiz-adv-x="328" 
d="M82 -168c-60 0 -96 34 -96 86c0 92 75 114 154 127l52 9c3 23 4 32 4 41c0 35 -13 51 -50 51c-47 0 -64 -18 -71 -67h-62c11 77 44 125 139 125s119 -58 111 -126l-28 -238h-66l6 43c-17 -28 -46 -51 -93 -51zM186 4l-44 -7c-41 -6 -88 -18 -88 -69c0 -29 16 -43 48 -43
c39 0 73 21 78 68z" />
    <glyph glyph-name="uni2091" unicode="&#x2091;" horiz-adv-x="337" 
d="M129 -168c-89 0 -131 38 -131 134c0 16 1 33 4 52c18 133 61 186 161 186c103 0 133 -58 118 -180l-2 -14h-211c-2 -20 -3 -36 -3 -50c0 -61 21 -74 66 -74c46 0 66 15 78 60h60c-16 -72 -52 -114 -140 -114zM159 144c-44 0 -69 -17 -84 -86h145c5 68 -13 86 -61 86z" />
    <glyph glyph-name="uni2092" unicode="&#x2092;" horiz-adv-x="350" 
d="M128 -168c-91 0 -129 40 -129 133c0 17 1 35 3 55c16 131 55 184 162 184c92 0 130 -40 130 -132c0 -17 -1 -35 -3 -54c-16 -130 -55 -186 -163 -186zM130 -113c57 0 79 31 92 132c3 19 4 35 4 50c0 57 -18 74 -65 74c-55 0 -79 -25 -90 -124c-3 -23 -4 -40 -4 -55
c0 -59 19 -77 63 -77z" />
    <glyph glyph-name="uni2093" unicode="&#x2093;" horiz-adv-x="319" 
d="M-41 -160l134 178l-90 177h72l64 -128l92 128h71l-134 -177l91 -178h-72l-64 129l-93 -129h-71z" />
    <glyph glyph-name="uni2095" unicode="&#x2095;" horiz-adv-x="355" 
d="M-5 -160l62 506h69l-23 -187c19 31 44 45 87 45c79 0 110 -47 101 -123l-29 -241h-68l27 221c7 61 -7 81 -54 81s-69 -18 -76 -81l-27 -221h-69z" />
    <glyph glyph-name="uni2096" unicode="&#x2096;" horiz-adv-x="335" 
d="M-5 -160l62 506h69l-39 -312l155 162h79l-143 -147l100 -209h-73l-76 160l-53 -54l-12 -106h-69z" />
    <glyph glyph-name="uni2097" unicode="&#x2097;" horiz-adv-x="160" 
d="M-5 -160l62 506h69l-62 -506h-69z" />
    <glyph glyph-name="uni2098" unicode="&#x2098;" horiz-adv-x="554" 
d="M-5 -160l43 356h66l-5 -43c19 35 44 51 91 51c52 0 87 -20 98 -59c19 37 49 59 100 59c80 0 111 -47 102 -123l-29 -241h-68l27 221c7 61 -7 81 -54 81s-69 -18 -77 -81l-27 -221h-68l27 221c7 61 -7 81 -54 81s-69 -18 -76 -81l-27 -221h-69z" />
    <glyph glyph-name="uni2099" unicode="&#x2099;" horiz-adv-x="355" 
d="M-5 -160l43 356h66l-6 -43c19 33 45 51 92 51c79 0 111 -47 101 -127l-29 -237h-69l27 220c7 61 -6 82 -53 82s-69 -21 -76 -82l-27 -220h-69z" />
    <glyph glyph-name="uni209A" unicode="&#x209a;" horiz-adv-x="365" 
d="M68 -122l-23 -186h-68l61 503h66l-6 -48c21 40 49 57 96 57c79 0 115 -38 115 -131c0 -16 -1 -34 -3 -55c-16 -132 -59 -186 -155 -186c-39 0 -70 14 -83 46zM145 -113c56 0 78 31 91 132c3 19 4 35 4 50c0 57 -19 74 -64 74c-57 0 -79 -25 -90 -124
c-3 -23 -4 -40 -4 -56c0 -57 18 -76 63 -76z" />
    <glyph glyph-name="uni209B" unicode="&#x209b;" horiz-adv-x="310" 
d="M-10 -56h61c-3 -44 15 -60 58 -60c40 0 68 15 68 58c0 24 -13 33 -53 42l-38 9c-47 11 -76 38 -76 89c0 81 53 122 133 122c84 0 124 -34 113 -117h-61c4 45 -13 59 -56 59c-33 0 -63 -12 -63 -55c0 -24 11 -35 50 -44l38 -9c56 -13 80 -44 80 -89
c0 -83 -56 -117 -139 -117c-96 0 -118 48 -115 112z" />
    <glyph glyph-name="uni209C" unicode="&#x209c;" horiz-adv-x="242" 
d="M23 -45l22 183h-44l7 58h47l11 87h65l-11 -87h99l-7 -58h-99l-22 -185c-5 -44 8 -58 49 -58h43l-7 -55h-50c-77 0 -114 35 -103 115z" />
    <glyph glyph-name="colonmonetary" unicode="&#x20a1;" horiz-adv-x="512" 
d="M65 -104l48 144c-47 40 -71 106 -71 210c0 35 3 73 8 116c31 254 122 343 292 356l32 94h47l-31 -92c19 0 40 -2 61 -5l33 97h47l-36 -106c17 -5 32 -11 45 -17l-9 -78c-19 8 -39 16 -60 21l-195 -581c10 -1 22 -1 34 -1c55 0 107 13 156 34l-8 -69
c-44 -20 -99 -31 -153 -31c-18 0 -35 1 -51 2l-31 -94h-47l33 101c-20 4 -39 10 -56 18l-40 -119h-48zM127 246c0 -49 6 -86 17 -114l171 510c-98 -20 -155 -91 -179 -282c-5 -44 -9 -81 -9 -114zM177 87c15 -12 32 -21 54 -26l195 584c-14 2 -28 3 -43 3
c-7 0 -13 -1 -19 -1z" />
    <glyph glyph-name="uni20A2" unicode="&#x20a2;" horiz-adv-x="531" 
d="M305 -12c-174 0 -263 63 -263 262c0 35 3 73 8 116c34 276 138 358 339 358c51 0 113 -11 151 -31l-9 -78c-44 20 -92 33 -148 33c-141 0 -218 -57 -247 -288c-5 -44 -9 -81 -9 -114c0 -129 39 -175 119 -188l26 216c12 95 63 147 166 147h61l-10 -70h-56
c-51 0 -77 -24 -83 -74l-28 -223c50 1 98 14 144 34l-8 -69c-44 -20 -99 -31 -153 -31z" />
    <glyph glyph-name="uni20A5" unicode="&#x20a5;" horiz-adv-x="767" 
d="M139 0l218 397l4 32c11 89 -14 122 -84 122c-72 0 -109 -32 -120 -122l-39 -317h-79l62 504h77l-9 -60c25 46 68 68 130 68c72 0 119 -31 137 -84l94 172h44l-54 -98c19 6 40 10 63 10c107 0 158 -65 144 -178l-41 -334h-79l38 317c11 89 -14 122 -84 122
c-72 0 -109 -32 -120 -122l-39 -317h-79l22 183l-162 -295h-44z" />
    <glyph glyph-name="uni20A6" unicode="&#x20a6;" horiz-adv-x="661" 
d="M29 389l6 47h74l34 276h73l125 -276h159l34 276h83l-34 -276h73l-6 -47h-73l-8 -66h73l-6 -47h-73l-33 -276h-73l-127 276h-159l-33 -276h-82l33 276h-74l6 47h74l8 66h-74zM185 389l-8 -66h132l-31 66h-93zM363 389l30 -66h93l8 66h-131zM414 276l52 -114l14 114h-66z
M257 436l-52 113l-14 -113h66z" />
    <glyph glyph-name="uni20A9" unicode="&#x20a9;" horiz-adv-x="800" 
d="M30 389l7 47h68l-25 276h83l22 -276h135l97 276h61l31 -276h138l91 276h83l-94 -276h69l-6 -47h-79l-22 -66h93l-6 -47h-103l-94 -276h-90l-31 276h-125l-97 -276h-91l-25 276h-103l5 47h93l-6 66h-79zM515 389l7 -66h88l22 66h-117zM189 389l6 -66h85l23 66h-114z
M372 389l-23 -66h103l-7 66h-73zM595 276h-67l17 -153zM264 276h-65l12 -151zM427 544l-38 -108h50z" />
    <glyph glyph-name="uni20AA" unicode="&#x20aa;" horiz-adv-x="698" 
d="M214 194l44 354h82l-43 -353c-11 -83 21 -118 111 -118h120l78 635h83l-88 -712h-201c-147 0 -201 72 -186 194zM25 0l88 712h201c148 0 201 -72 186 -194l-44 -354h-82l44 353c10 83 -21 118 -112 118h-120l-78 -635h-83z" />
    <glyph glyph-name="dong" unicode="&#x20ab;" horiz-adv-x="496" 
d="M270 589l7 52h120l10 76h80l-10 -76h62l-7 -52h-61l-57 -457h-77l6 45c-31 -36 -76 -54 -134 -54c-114 0 -165 49 -165 154c0 16 2 34 4 52c17 141 79 199 210 199c57 0 98 -16 119 -53l14 114h-121zM226 190c85 0 120 34 132 135c2 15 3 28 3 40c0 68 -30 90 -102 90
c-84 0 -119 -30 -131 -130c-2 -15 -3 -28 -3 -41c0 -70 30 -94 101 -94zM29 0l7 57h371l-7 -57h-371z" />
    <glyph glyph-name="Euro" unicode="&#x20ac;" horiz-adv-x="560" 
d="M35 393l9 66h76c38 198 106 265 252 265c163 0 198 -94 188 -253h-81c9 131 -18 177 -108 177c-92 0 -138 -38 -168 -189h167l-9 -66h-169l-9 -76h168l-8 -66h-165v-35c0 -124 37 -159 120 -159c90 0 130 50 153 185h82c-29 -158 -82 -254 -238 -254
c-137 0 -200 61 -200 233v30h-78l8 66h75l9 76h-74z" />
    <glyph glyph-name="uni20AD" unicode="&#x20ad;" horiz-adv-x="582" 
d="M27 325l7 62h82l40 325h83l-41 -325h51l292 325h92l-293 -325h207l-8 -62h-201l208 -325h-90l-210 325h-55l-40 -325h-82l39 325h-81z" />
    <glyph glyph-name="uni20AE" unicode="&#x20ae;" horiz-adv-x="560" 
d="M96 636l9 76h469l-10 -76h-192l-22 -174l152 50l-9 -66l-151 -50l-10 -80l152 50l-9 -66l-151 -51l-31 -249h-83l27 221l-151 -50l8 67l151 50l10 79l-151 -50l8 67l152 50l25 202h-193z" />
    <glyph glyph-name="uni20B2" unicode="&#x20b2;" horiz-adv-x="583" 
d="M302 300l9 70h241l-13 -102c-22 -181 -93 -271 -241 -279l-11 -93h-80l11 95c-125 15 -179 85 -179 242c0 38 3 80 9 128c31 247 90 350 261 362l11 93h80l-12 -94c135 -13 179 -92 174 -234h-79c4 114 -30 160 -138 160c-140 0 -182 -64 -211 -287
c-7 -57 -12 -104 -12 -142c0 -128 43 -165 151 -165c120 0 170 61 188 214l4 32h-163z" />
    <glyph glyph-name="uni20B3" unicode="&#x20b3;" horiz-adv-x="594" 
d="M25 312l8 64h126l146 336h91l64 -336h128l-8 -64h-108l14 -74h85l-8 -64h-65l34 -174h-82l-32 174h-269l-74 -174h-78l75 174h-63l7 64h84l32 74h-107zM338 615l-102 -239h145zM208 312l-31 -74h229l-13 74h-185z" />
    <glyph glyph-name="uni20B4" unicode="&#x20b4;" horiz-adv-x="560" 
d="M48 393l8 66h340c20 28 33 66 33 106c0 56 -31 83 -95 83c-70 0 -109 -31 -136 -120h-79c32 125 87 196 225 196c116 0 170 -59 170 -150c0 -45 -13 -84 -30 -115h69l-8 -66h-497zM31 251l8 66h497l-9 -66h-350c-20 -26 -32 -65 -32 -106c0 -63 37 -91 111 -91
c78 0 117 37 140 128h79c-30 -132 -96 -194 -229 -194c-126 0 -184 59 -184 151c0 40 13 80 30 112h-61z" />
    <glyph glyph-name="uni20B5" unicode="&#x20b5;" horiz-adv-x="574" 
d="M208 -104l11 95c-130 13 -180 84 -180 242c0 38 3 80 9 128c31 247 91 350 262 362l11 93h80l-12 -94c147 -14 181 -102 169 -271h-79c9 149 -16 197 -134 197c-140 0 -184 -64 -211 -287c-8 -57 -12 -104 -12 -142c0 -128 43 -165 151 -165c118 0 156 56 184 205h78
c-31 -184 -94 -262 -236 -270l-11 -93h-80z" />
    <glyph glyph-name="uni20B8" unicode="&#x20b8;" horiz-adv-x="560" 
d="M77 495l9 76h468l-9 -76h-193l-60 -495h-83l61 495h-193zM96 646l8 66h468l-8 -66h-468z" />
    <glyph glyph-name="uni20B9" unicode="&#x20b9;" horiz-adv-x="548" 
d="M290 0l-248 320l4 32h156c79 0 116 22 133 107h-278l8 70h279v11c0 75 -32 96 -106 96h-160l10 76h480l-9 -70h-159c18 -22 28 -52 28 -94v-19h117l-8 -70h-118c-26 -137 -99 -170 -221 -170h-34l219 -289h-93z" />
    <glyph glyph-name="uni20BA" unicode="&#x20ba;" horiz-adv-x="574" 
d="M38 435l7 64l107 35l22 178h82l-19 -150l212 69l-7 -64l-213 -70l-9 -76l212 69l-7 -64l-213 -70l-36 -290h6c190 0 254 45 284 291h78c-35 -284 -124 -357 -374 -357h-84l40 328l-105 -34l7 64l106 35l10 76z" />
    <glyph glyph-name="uni20BC" unicode="&#x20bc;" horiz-adv-x="714" 
d="M20 0l31 254c29 241 116 321 301 329l16 129h80l-16 -130c175 -11 250 -92 221 -328l-31 -254h-83l32 254c25 195 -27 245 -149 253l-50 -411h-80l50 411c-122 -8 -184 -59 -208 -253l-32 -254h-82z" />
    <glyph glyph-name="uni20BD" unicode="&#x20bd;" horiz-adv-x="560" 
d="M51 283l8 69h86l45 360h179c126 0 184 -45 184 -164c0 -17 -1 -35 -3 -55c-19 -162 -97 -210 -226 -210h-105l-9 -74h181l-9 -69h-180l-17 -140h-83l17 140h-85l8 69h86l9 74h-86zM364 636h-102l-34 -284h99c89 0 126 28 139 142c2 19 4 34 4 48c0 73 -33 94 -106 94z
" />
    <glyph glyph-name="uni20BE" unicode="&#x20be;" horiz-adv-x="658" 
d="M52 361c29 240 100 331 231 355l13 100h66l-12 -93c9 1 18 1 28 1c14 0 28 0 41 -1l12 93h63l-13 -102c111 -25 158 -104 143 -290h-79c11 139 -15 193 -73 213l-26 -214h-64l28 224c-11 0 -23 1 -35 1s-23 0 -34 -1l-27 -224h-67l26 212c-72 -24 -115 -94 -138 -282
c-3 -28 -5 -54 -5 -77c0 -189 111 -210 230 -210h243l-9 -66h-603l8 66h132c-55 37 -85 100 -85 205c0 27 2 58 6 90z" />
    <glyph glyph-name="uni2113" unicode="&#x2113;" horiz-adv-x="331" 
d="M50 126l57 460c10 84 62 134 139 134c72 0 108 -36 108 -101c0 -117 -92 -232 -207 -329l-19 -158c-5 -39 12 -69 55 -69c31 0 65 12 92 35l-9 -75c-27 -19 -64 -31 -99 -31c-85 0 -127 54 -117 134zM184 588l-26 -212c68 68 119 148 119 227c0 33 -16 47 -40 47
c-27 0 -47 -15 -53 -62z" />
    <glyph glyph-name="uni2116" unicode="&#x2116;" horiz-adv-x="942" 
d="M51 0l87 712h73l251 -550l68 550h83l-87 -712h-73l-252 549l-67 -549h-83zM803 348c-91 0 -129 40 -129 133c0 17 1 35 3 55c16 131 55 184 162 184c92 0 130 -40 130 -132c0 -17 -1 -35 -3 -54c-16 -130 -55 -186 -163 -186zM805 403c57 0 79 31 92 132c3 19 4 35 4 50
c0 57 -18 74 -65 74c-55 0 -79 -25 -90 -124c-3 -23 -4 -40 -4 -55c0 -59 19 -77 63 -77z" />
    <glyph glyph-name="trademark" unicode="&#x2122;" horiz-adv-x="572" 
d="M302 439v273h66l62 -190l61 190h67v-273h-52v183l-60 -183h-36l-61 186v-186h-47zM62 666v46h191v-46h-69v-227h-53v227h-69z" />
    <glyph glyph-name="Omega" unicode="&#x2126;" horiz-adv-x="634" 
d="M30 0l7 66h149l5 33c-76 26 -127 84 -127 217c0 25 1 53 5 84c27 212 105 324 303 324c168 0 235 -83 235 -240c0 -27 -2 -57 -6 -89c-24 -195 -87 -267 -195 -296l-5 -33h149l-7 -66h-219l18 146c91 16 149 59 173 251c4 35 7 65 7 92c0 116 -44 159 -157 159
c-139 0 -190 -68 -211 -251c-4 -33 -6 -62 -6 -87c0 -119 46 -151 118 -164l-18 -146h-218z" />
    <glyph glyph-name="estimated" unicode="&#x212e;" horiz-adv-x="904" 
d="M202 238c0 -121 152 -167 254 -167c134 0 249 48 304 146h103c-79 -167 -241 -229 -407 -229c-233 0 -416 167 -416 366s183 366 416 366c241 0 416 -164 416 -366v-29h-670v-87zM202 396h499v83c0 122 -137 166 -245 166c-99 0 -254 -36 -254 -166v-83z" />
    <glyph glyph-name="onethird" unicode="&#x2153;" horiz-adv-x="692" 
d="M145 356l35 289l-94 -30l7 59l113 38h52l-43 -356h-70zM26 0l542 712h60l-542 -712h-60zM357 116h66c-3 -56 15 -72 63 -72c40 0 72 15 72 63c0 28 -14 42 -57 42h-37l7 54h37c37 0 66 19 66 60c0 28 -19 42 -58 42c-40 0 -67 -15 -76 -70h-66c15 83 57 129 146 129
c84 0 123 -39 123 -95c0 -43 -18 -68 -55 -88c25 -11 41 -35 41 -71c0 -80 -59 -118 -146 -118c-92 0 -131 35 -126 124z" />
    <glyph glyph-name="twothirds" unicode="&#x2154;" horiz-adv-x="692" 
d="M46 356l4 39c7 60 47 94 99 119l46 23c35 17 70 34 70 80c0 32 -19 44 -54 44c-47 0 -66 -16 -78 -71h-66c16 84 56 130 147 130c83 0 122 -36 122 -100c0 -60 -43 -101 -100 -128l-50 -25c-45 -23 -61 -32 -66 -59h185l-6 -52h-253zM70 0l542 712h60l-542 -712h-60z
M377 116h66c-3 -56 15 -72 63 -72c40 0 72 15 72 63c0 28 -14 42 -57 42h-37l7 54h37c37 0 66 19 66 60c0 28 -19 42 -58 42c-40 0 -67 -15 -76 -70h-66c15 83 57 129 146 129c84 0 123 -39 123 -95c0 -43 -18 -68 -55 -88c25 -11 41 -35 41 -71c0 -80 -59 -118 -146 -118
c-92 0 -131 35 -126 124z" />
    <glyph glyph-name="uni2155" unicode="&#x2155;" horiz-adv-x="692" 
d="M144 356l35 289l-94 -30l7 59l113 38h52l-43 -356h-70zM21 0l542 712h60l-542 -712h-60zM358 108h66c-3 -48 15 -63 63 -63c49 0 68 22 75 71c1 7 1 12 1 17c0 35 -16 51 -59 51c-44 0 -63 -15 -76 -46h-60l4 24l43 194h227l-6 -59h-175l-19 -81c20 13 42 21 73 21
c76 0 118 -33 118 -102c0 -7 0 -13 -1 -20c-9 -84 -60 -122 -148 -122c-91 0 -129 34 -126 115z" />
    <glyph glyph-name="uni2156" unicode="&#x2156;" horiz-adv-x="692" 
d="M45 356l4 39c7 60 47 94 99 119l46 23c35 17 70 34 70 80c0 32 -19 44 -54 44c-47 0 -66 -16 -78 -71h-66c16 84 56 130 147 130c83 0 122 -36 122 -100c0 -60 -43 -101 -100 -128l-50 -25c-45 -23 -61 -32 -66 -59h185l-6 -52h-253zM65 0l542 712h60l-542 -712h-60z
M378 108h66c-3 -48 15 -63 63 -63c49 0 68 22 75 71c1 7 1 12 1 17c0 35 -16 51 -59 51c-44 0 -63 -15 -76 -46h-60l4 24l43 194h227l-6 -59h-175l-19 -81c20 13 42 21 73 21c76 0 118 -33 118 -102c0 -7 0 -13 -1 -20c-9 -84 -60 -122 -148 -122c-91 0 -129 34 -126 115z
" />
    <glyph glyph-name="uni2157" unicode="&#x2157;" horiz-adv-x="692" 
d="M48 472h66c-3 -56 15 -72 63 -72c40 0 72 15 72 63c0 28 -14 42 -57 42h-37l7 54h37c37 0 66 19 66 60c0 28 -19 42 -58 42c-40 0 -67 -15 -76 -70h-66c15 83 57 129 146 129c84 0 123 -39 123 -95c0 -43 -18 -68 -55 -88c25 -11 41 -35 41 -71c0 -80 -59 -118 -146 -118
c-92 0 -131 35 -126 124zM55 0l542 712h60l-542 -712h-60zM380 108h66c-3 -48 15 -63 63 -63c49 0 68 22 75 71c1 7 1 12 1 17c0 35 -16 51 -59 51c-44 0 -63 -15 -76 -46h-60l4 24l43 194h227l-6 -59h-175l-19 -81c20 13 42 21 73 21c76 0 118 -33 118 -102
c0 -7 0 -13 -1 -20c-9 -84 -60 -122 -148 -122c-91 0 -129 34 -126 115z" />
    <glyph glyph-name="uni2158" unicode="&#x2158;" horiz-adv-x="692" 
d="M35 433l5 44l179 235h87l-28 -225h50l-6 -54h-50l-9 -77h-67l9 77h-170zM109 487h102l19 156zM51 0l542 712h60l-542 -712h-60zM380 108h66c-3 -48 15 -63 63 -63c49 0 68 22 75 71c1 7 1 12 1 17c0 35 -16 51 -59 51c-44 0 -63 -15 -76 -46h-60l4 24l43 194h227l-6 -59
h-175l-19 -81c20 13 42 21 73 21c76 0 118 -33 118 -102c0 -7 0 -13 -1 -20c-9 -84 -60 -122 -148 -122c-91 0 -129 34 -126 115z" />
    <glyph glyph-name="uni2159" unicode="&#x2159;" horiz-adv-x="692" 
d="M143 356l35 289l-94 -30l7 59l113 38h52l-43 -356h-70zM44 0l542 712h60l-542 -712h-60zM359 118c7 49 26 77 57 112l108 126h80l-117 -129c9 3 20 4 31 4c76 0 118 -29 118 -97c0 -7 -1 -15 -2 -23c-11 -88 -65 -119 -149 -119c-76 0 -128 28 -128 101c0 8 1 17 2 25z
M429 112c-1 -7 -1 -11 -1 -18c0 -35 16 -50 60 -50c49 0 69 21 76 68c1 7 1 11 1 18c0 33 -17 48 -60 48c-51 0 -69 -19 -76 -66z" />
    <glyph glyph-name="uni215A" unicode="&#x215a;" horiz-adv-x="692" 
d="M48 464h66c-3 -48 15 -63 63 -63c49 0 68 22 75 71c1 7 1 12 1 17c0 35 -16 51 -59 51c-44 0 -63 -15 -76 -46h-60l4 24l43 194h227l-6 -59h-175l-19 -81c20 13 42 21 73 21c76 0 118 -33 118 -102c0 -7 0 -13 -1 -20c-9 -84 -60 -122 -148 -122c-91 0 -129 34 -126 115z
M73 0l542 712h60l-542 -712h-60zM380 118c7 49 26 77 57 112l108 126h80l-117 -129c9 3 20 4 31 4c76 0 118 -29 118 -97c0 -7 -1 -15 -2 -23c-11 -88 -65 -119 -149 -119c-76 0 -128 28 -128 101c0 8 1 17 2 25zM450 112c-1 -7 -1 -11 -1 -18c0 -35 16 -50 60 -50
c49 0 69 21 76 68c1 7 1 11 1 18c0 33 -17 48 -60 48c-51 0 -69 -19 -76 -66z" />
    <glyph glyph-name="oneeighth" unicode="&#x215b;" horiz-adv-x="692" 
d="M143 356l35 289l-94 -30l7 59l113 38h52l-43 -356h-70zM24 0l542 712h60l-542 -712h-60zM353 83c0 44 18 76 65 94c-24 13 -39 37 -39 70c0 76 52 117 141 117c81 0 124 -37 124 -100c0 -37 -24 -71 -60 -87c31 -13 46 -36 46 -75c0 -76 -57 -110 -148 -110
c-81 0 -129 28 -129 91zM504 204c44 0 69 20 69 63c0 27 -19 40 -56 40c-44 0 -69 -20 -69 -63c0 -27 19 -40 56 -40zM485 44c46 0 75 20 75 64c0 29 -21 44 -62 44c-45 0 -75 -19 -75 -64c0 -29 21 -44 62 -44z" />
    <glyph glyph-name="threeeighths" unicode="&#x215c;" horiz-adv-x="692" 
d="M47 472h66c-3 -56 15 -72 63 -72c40 0 72 15 72 63c0 28 -14 42 -57 42h-37l7 54h37c37 0 66 19 66 60c0 28 -19 42 -58 42c-40 0 -67 -15 -76 -70h-66c15 83 57 129 146 129c84 0 123 -39 123 -95c0 -43 -18 -68 -55 -88c25 -11 41 -35 41 -71c0 -80 -59 -118 -146 -118
c-92 0 -131 35 -126 124zM62 0l542 712h60l-542 -712h-60zM375 83c0 44 18 76 65 94c-24 13 -39 37 -39 70c0 76 52 117 141 117c81 0 124 -37 124 -100c0 -37 -24 -71 -60 -87c31 -13 46 -36 46 -75c0 -76 -57 -110 -148 -110c-81 0 -129 28 -129 91zM526 204
c44 0 69 20 69 63c0 27 -19 40 -56 40c-44 0 -69 -20 -69 -63c0 -27 19 -40 56 -40zM507 44c46 0 75 20 75 64c0 29 -21 44 -62 44c-45 0 -75 -19 -75 -64c0 -29 21 -44 62 -44z" />
    <glyph glyph-name="fiveeighths" unicode="&#x215d;" horiz-adv-x="692" 
d="M47 464h66c-3 -48 15 -63 63 -63c49 0 68 22 75 71c1 7 1 12 1 17c0 35 -16 51 -59 51c-44 0 -63 -15 -76 -46h-60l4 24l43 194h227l-6 -59h-175l-19 -81c20 13 42 21 73 21c76 0 118 -33 118 -102c0 -7 0 -13 -1 -20c-9 -84 -60 -122 -148 -122c-91 0 -129 34 -126 115z
M60 0l542 712h60l-542 -712h-60zM373 83c0 44 18 76 65 94c-24 13 -39 37 -39 70c0 76 52 117 141 117c81 0 124 -37 124 -100c0 -37 -24 -71 -60 -87c31 -13 46 -36 46 -75c0 -76 -57 -110 -148 -110c-81 0 -129 28 -129 91zM524 204c44 0 69 20 69 63c0 27 -19 40 -56 40
c-44 0 -69 -20 -69 -63c0 -27 19 -40 56 -40zM505 44c46 0 75 20 75 64c0 29 -21 44 -62 44c-45 0 -75 -19 -75 -64c0 -29 21 -44 62 -44z" />
    <glyph glyph-name="seveneighths" unicode="&#x215e;" horiz-adv-x="692" 
d="M74 356l188 297h-193l7 59h269l-5 -44l-195 -312h-71zM33 0l542 712h60l-542 -712h-60zM370 83c0 44 18 76 65 94c-24 13 -39 37 -39 70c0 76 52 117 141 117c81 0 124 -37 124 -100c0 -37 -24 -71 -60 -87c31 -13 46 -36 46 -75c0 -76 -57 -110 -148 -110
c-81 0 -129 28 -129 91zM521 204c44 0 69 20 69 63c0 27 -19 40 -56 40c-44 0 -69 -20 -69 -63c0 -27 19 -40 56 -40zM502 44c46 0 75 20 75 64c0 29 -21 44 -62 44c-45 0 -75 -19 -75 -64c0 -29 21 -44 62 -44z" />
    <glyph glyph-name="arrowleft" unicode="&#x2190;" horiz-adv-x="661" 
d="M333 158l-52 -48l-247 246l247 246l52 -48l-167 -167c54 3 133 4 162 4h310v-69h-310c-29 0 -108 0 -162 3z" />
    <glyph glyph-name="arrowup" unicode="&#x2191;" horiz-adv-x="544" 
d="M79 363l-46 48l246 246l248 -246l-46 -48l-170 172c3 -53 4 -135 4 -162v-319h-70v319c0 26 0 109 4 162z" />
    <glyph glyph-name="arrowright" unicode="&#x2192;" horiz-adv-x="661" 
d="M396 110l-53 48l168 167c-53 -3 -134 -3 -162 -3h-310v69h310c28 0 108 -1 162 -4l-168 167l53 48l246 -246z" />
    <glyph glyph-name="arrowdown" unicode="&#x2193;" horiz-adv-x="543" 
d="M481 349l45 -48l-247 -246l-246 246l45 48l171 -172c-4 55 -4 135 -4 162v319h69v-319c0 -27 0 -106 -3 -162z" />
    <glyph glyph-name="uni2196" unicode="&#x2196;" horiz-adv-x="540" 
d="M68 588h352v-68h-239c42 -37 110 -106 130 -126l211 -212l-47 -51l-212 214c-19 20 -92 90 -127 131v-241h-68v353z" />
    <glyph glyph-name="uni2197" unicode="&#x2197;" horiz-adv-x="540" 
d="M136 588h352v-353h-69v241c-35 -40 -106 -111 -126 -131l-212 -214l-48 51l212 212c19 19 89 89 129 126h-238v68z" />
    <glyph glyph-name="uni2198" unicode="&#x2198;" horiz-adv-x="540" 
d="M488 131h-352v68h238c-41 35 -110 106 -129 125l-212 213l48 51l212 -214c20 -20 91 -90 126 -131v241h69v-353z" />
    <glyph glyph-name="uni2199" unicode="&#x2199;" horiz-adv-x="540" 
d="M420 131h-352v353h68v-241c36 42 106 110 127 131l212 214l47 -51l-211 -213c-19 -20 -86 -90 -130 -125h239v-68z" />
    <glyph glyph-name="partialdiff" unicode="&#x2202;" horiz-adv-x="501" 
d="M42 236c21 168 80 244 218 244c64 0 106 -20 125 -75l6 50c15 125 -31 189 -148 189h-109l8 68h104c180 0 237 -99 218 -260l-25 -210c-21 -173 -87 -250 -220 -250c-121 0 -182 54 -182 179c0 20 2 42 5 65zM121 230c-3 -24 -4 -45 -4 -64c0 -83 29 -108 100 -108
c86 0 124 40 140 172c3 27 5 50 5 69c0 85 -30 108 -101 108c-87 0 -124 -35 -140 -177z" />
    <glyph glyph-name="Delta" unicode="&#x2206;" horiz-adv-x="582" 
d="M-7 0l308 712h91l136 -712h-535zM334 615l-235 -549h335z" />
    <glyph glyph-name="product" unicode="&#x220f;" horiz-adv-x="637" 
d="M51 0l87 712h474l-87 -712h-82l78 642h-309l-78 -642h-83z" />
    <glyph glyph-name="summation" unicode="&#x2211;" horiz-adv-x="512" 
d="M4 0l7 56l293 307l-222 295l7 54h440l-10 -76h-325l195 -260l-4 -36l-267 -274h331l-7 -66h-438z" />
    <glyph glyph-name="minus" unicode="&#x2212;" horiz-adv-x="560" 
d="M56 257l8 66h448l-8 -66h-448z" />
    <glyph glyph-name="uni2215" unicode="&#x2215;" horiz-adv-x="56" 
d="M-260 0l542 712h60l-542 -712h-60z" />
    <glyph glyph-name="uni2219" unicode="&#x2219;" horiz-adv-x="206" 
d="M58 237l13 102h85l-13 -102h-85z" />
    <glyph glyph-name="radical" unicode="&#x221a;" horiz-adv-x="631" 
d="M246 0l-122 415l-89 -38l8 69l137 58l110 -394h4l311 602h71l-371 -712h-59z" />
    <glyph glyph-name="infinity" unicode="&#x221e;" horiz-adv-x="708" 
d="M177 174c-77 0 -126 35 -126 103c0 81 60 137 149 137c67 0 116 -42 163 -86c56 44 113 86 177 86c77 0 125 -43 125 -107c0 -89 -60 -133 -148 -133c-66 0 -116 41 -161 86c-56 -44 -115 -86 -179 -86zM180 226c47 0 94 31 141 68c-39 37 -77 68 -124 68
c-53 0 -92 -34 -92 -79c0 -37 28 -57 75 -57zM537 362c-47 0 -92 -31 -139 -68c39 -37 77 -68 122 -68c55 0 90 27 90 76c0 35 -26 60 -73 60z" />
    <glyph glyph-name="integral" unicode="&#x222b;" horiz-adv-x="355" 
d="M16 -138h64c72 0 111 26 111 106c0 160 -104 428 -104 568c0 132 83 176 188 176h64v-70h-64c-73 0 -111 -26 -111 -106c0 -148 104 -424 104 -568c0 -132 -85 -176 -188 -176h-64v70z" />
    <glyph glyph-name="approxequal" unicode="&#x2248;" horiz-adv-x="560" 
d="M69 358l9 67c21 18 55 56 120 56c100 0 127 -80 209 -80c63 0 102 37 123 56l-9 -67c-21 -18 -55 -56 -120 -56c-93 0 -118 80 -209 80c-63 0 -102 -37 -123 -56zM45 155l8 67c21 18 55 56 120 56c100 0 127 -80 209 -80c65 0 102 39 123 56l-8 -67
c-21 -20 -57 -56 -121 -56c-93 0 -118 80 -208 80c-65 0 -102 -39 -123 -56z" />
    <glyph glyph-name="notequal" unicode="&#x2260;" horiz-adv-x="560" 
d="M69 361l8 66h260l97 153h68l-97 -153h120l-8 -66h-154l-90 -142h226l-8 -66h-259l-97 -153h-68l97 153h-121l8 66h154l90 142h-226z" />
    <glyph glyph-name="lessequal" unicode="&#x2264;" horiz-adv-x="560" 
d="M65 373l8 66l471 181l-9 -70l-382 -147l346 -147l-8 -64zM20 0l7 66h448l-7 -66h-448z" />
    <glyph glyph-name="greaterequal" unicode="&#x2265;" horiz-adv-x="560" 
d="M101 556l8 64l426 -181l-8 -66l-471 -181l9 70l381 147zM33 0l8 66h448l-8 -66h-448z" />
    <glyph glyph-name="uni25A0" unicode="&#x25a0;" horiz-adv-x="743" 
d="M24 0v712h711v-712h-711z" />
    <glyph glyph-name="uni25A1" unicode="&#x25a1;" horiz-adv-x="743" 
d="M24 0v712h711v-712h-711zM94 67h570v578h-570v-578z" />
    <glyph glyph-name="uni25B6" unicode="&#x25b6;" horiz-adv-x="478" 
d="M24 -8v520l454 -260z" />
    <glyph glyph-name="uni25B7" unicode="&#x25b7;" horiz-adv-x="478" 
d="M24 -8v520l454 -260zM94 110l259 142l-259 143v-285z" />
    <glyph glyph-name="uni25C0" unicode="&#x25c0;" horiz-adv-x="478" 
d="M470 512v-520l-454 260z" />
    <glyph glyph-name="uni25C1" unicode="&#x25c1;" horiz-adv-x="478" 
d="M141 252l259 -142v285zM470 512v-520l-454 260z" />
    <glyph glyph-name="lozenge" unicode="&#x25ca;" horiz-adv-x="612" 
d="M278 0l-254 352l255 360h63l254 -360l-252 -352h-66zM308 72h4l202 280l-202 280h-4l-201 -280z" />
    <glyph glyph-name="circle" unicode="&#x25cb;" horiz-adv-x="552" 
d="M25 251c0 151 113 261 259 261c145 0 259 -105 259 -261c0 -152 -114 -263 -259 -263c-146 0 -259 107 -259 263zM95 251c0 -120 82 -201 189 -201s189 84 189 201c0 119 -82 199 -189 199s-189 -83 -189 -199z" />
    <glyph glyph-name="H18533" unicode="&#x25cf;" horiz-adv-x="552" 
d="M25 251c0 151 113 261 259 261c145 0 259 -105 259 -261c0 -152 -114 -263 -259 -263c-146 0 -259 107 -259 263z" />
    <glyph glyph-name="uni25FB" unicode="&#x25fb;" horiz-adv-x="535" 
d="M24 0v504h503v-504h-503zM93 64h365v377h-365v-377z" />
    <glyph glyph-name="uni25FC" unicode="&#x25fc;" horiz-adv-x="535" 
d="M24 0v504h503v-504h-503z" />
    <glyph glyph-name="uni2605" unicode="&#x2605;" horiz-adv-x="565" 
d="M121 13l68 183l-162 108l5 16l195 -9l53 189h16l52 -189l196 9l5 -16l-163 -108l69 -183l-14 -10l-153 121l-153 -121z" />
    <glyph glyph-name="uniFB00" unicode="&#xfb00;" horiz-adv-x="583" 
d="M45 434l9 70h63l6 50c13 101 65 158 170 158h70l-9 -73h-60c-57 0 -84 -26 -91 -83l-6 -52h191l6 50c13 101 65 158 169 158h71l-9 -73h-60c-57 0 -84 -26 -91 -83l-6 -52h130l-10 -70h-129l-52 -434h-80l52 434h-191l-52 -434h-80l52 434h-63z" />
    <glyph glyph-name="fi" unicode="&#xfb01;" horiz-adv-x="490" 
d="M311 0l53 434h-176l-52 -434h-80l52 434h-63l9 70h63l6 50c13 103 65 158 170 158h45l-9 -73h-35c-57 0 -84 -26 -91 -83l-6 -52h256l-62 -504h-80zM386 618l12 94h80l-12 -94h-80z" />
    <glyph glyph-name="fl" unicode="&#xfb02;" horiz-adv-x="490" 
d="M45 434l9 70h63l4 33c15 115 70 175 189 175h168l-87 -712h-80l78 639h-79c-71 0 -100 -28 -109 -99l-5 -36h96l-9 -70h-95l-52 -434h-80l52 434h-63z" />
    <glyph glyph-name="uniFB03" unicode="&#xfb03;" horiz-adv-x="761" 
d="M56 0l53 434h-64l9 70h63l6 50c13 101 65 158 170 158h70l-9 -73h-60c-57 0 -84 -26 -91 -83l-6 -52h191l6 50c13 103 65 158 170 158h45l-9 -73h-35c-57 0 -84 -26 -91 -83l-6 -52h256l-62 -504h-80l53 434h-176l-52 -434h-80l53 434h-192l-52 -434h-80zM657 618l12 94
h80l-12 -94h-80z" />
    <glyph glyph-name="uniFB04" unicode="&#xfb04;" horiz-adv-x="761" 
d="M56 0l53 434h-64l9 70h63l6 50c13 101 65 158 170 158h70l-9 -73h-60c-57 0 -84 -26 -91 -83l-6 -52h191l4 33c15 115 70 175 189 175h168l-87 -712h-80l78 639h-79c-71 0 -100 -28 -109 -99l-4 -36h95l-9 -70h-95l-52 -434h-80l53 434h-192l-52 -434h-80z" />
    <glyph glyph-name="uniFEFF" unicode="&#xfeff;" horiz-adv-x="0" 
 />
    <glyph glyph-name="i.latn_TRK" horiz-adv-x="216" 
d="M113 618l11 94h80l-12 -94h-79zM37 0l62 504h80l-62 -504h-80z" />
    <glyph glyph-name="Ldot.latn_CAT" horiz-adv-x="480" 
d="M51 0l87 712h83l-79 -646h298l-8 -66h-381zM340 327l11 94h80l-11 -94h-80z" />
    <glyph glyph-name="ldot.latn_CAT" horiz-adv-x="251" 
d="M37 0l87 712h80l-87 -712h-80zM202 327l11 94h80l-11 -94h-80z" />
    <glyph glyph-name="dollar.subs" 
d="M-11 -56h64c-1 -45 22 -59 65 -59c31 0 68 11 68 55c0 23 -16 31 -59 42l-34 9c-48 13 -84 37 -84 93c0 68 42 109 110 118l7 58h62l-7 -58c63 -7 94 -40 86 -115h-64c4 47 -17 58 -60 58c-31 0 -65 -11 -65 -53c0 -23 14 -36 52 -45l34 -8c59 -14 90 -40 90 -89
c0 -68 -44 -107 -113 -116l-8 -63h-62l8 63c-68 8 -93 49 -90 110z" />
    <glyph glyph-name="comma.subs" horiz-adv-x="156" 
d="M4 -82h67l-7 -57l-46 -112h-35z" />
    <glyph glyph-name="hyphen.subs" horiz-adv-x="276" 
d="M11 -3l4 42h193l-4 -42h-193z" />
    <glyph glyph-name="period.subs" horiz-adv-x="156" 
d="M-5 -160l9 78h67l-9 -78h-67z" />
    <glyph glyph-name="b.subs" horiz-adv-x="366" 
d="M-5 -160l62 506h69l-24 -192c23 35 47 50 92 50c79 0 116 -39 116 -132c0 -17 -1 -36 -4 -56c-17 -131 -60 -184 -155 -184c-40 0 -74 14 -86 55l-5 -47h-65zM145 -113c56 0 78 31 91 132c3 19 4 35 4 50c0 57 -19 74 -64 74c-57 0 -79 -25 -90 -124
c-3 -23 -4 -40 -4 -56c0 -57 18 -76 63 -76z" />
    <glyph glyph-name="c.subs" horiz-adv-x="332" 
d="M127 -168c-89 0 -129 38 -129 131c0 17 1 36 3 57c16 130 58 184 161 184c94 0 124 -50 119 -143h-63c1 63 -14 82 -60 82c-55 0 -76 -25 -88 -125c-3 -22 -4 -41 -4 -57c0 -58 19 -74 61 -74c47 0 67 23 80 90h64c-18 -102 -60 -145 -144 -145z" />
    <glyph glyph-name="d.subs" horiz-adv-x="365" 
d="M115 -168c-80 0 -116 37 -116 129c0 17 2 38 4 58c16 131 59 185 154 185c39 0 70 -13 82 -46l24 188h68l-62 -506h-65l5 48c-21 -37 -53 -56 -94 -56zM131 -113c56 0 79 31 92 132c2 19 3 35 3 50c0 57 -19 74 -64 74c-55 0 -79 -25 -90 -124c-3 -23 -4 -40 -4 -55
c0 -59 19 -77 63 -77z" />
    <glyph glyph-name="f.subs" horiz-adv-x="231" 
d="M14 -160l36 298h-44l7 58h44l5 35c11 76 50 115 126 115h52l-8 -61h-43c-35 0 -55 -18 -60 -55l-4 -34h88l-6 -58h-89l-36 -298h-68z" />
    <glyph glyph-name="g.subs" horiz-adv-x="365" 
d="M-9 -194h64c-3 -47 10 -65 62 -65c49 0 73 16 80 75l9 70c-23 -36 -50 -51 -91 -51c-80 0 -116 37 -116 128c0 19 1 38 4 57c18 131 59 184 154 184c41 0 74 -15 86 -54l5 45h64l-46 -377c-11 -91 -53 -131 -149 -131c-104 0 -129 44 -126 119zM131 -110
c56 0 79 29 92 130c2 20 3 37 3 50c0 56 -19 73 -64 73c-55 0 -79 -26 -90 -123c-3 -21 -4 -39 -4 -54c0 -57 19 -76 63 -76z" />
    <glyph glyph-name="i.subs" horiz-adv-x="160" 
d="M48 273l9 73h69l-9 -73h-69zM-5 -160l43 356h69l-43 -356h-69z" />
    <glyph glyph-name="j.subs" horiz-adv-x="159" 
d="M48 273l9 73h69l-9 -73h-69zM-11 -208l49 404h69l-49 -398c-8 -69 -42 -106 -113 -106h-33l7 55h19c31 0 47 12 51 45z" />
    <glyph glyph-name="q.subs" horiz-adv-x="364" 
d="M115 -168c-80 0 -116 37 -116 129c0 19 1 38 4 59c16 131 59 184 154 184c40 0 73 -15 85 -52l5 43h65l-62 -503h-68l23 191c-21 -36 -49 -51 -90 -51zM131 -113c56 0 79 31 92 132c2 19 3 35 3 50c0 57 -19 74 -64 74c-55 0 -79 -25 -90 -124c-3 -23 -4 -40 -4 -55
c0 -59 19 -77 63 -77z" />
    <glyph glyph-name="r.subs" horiz-adv-x="223" 
d="M-7 -160l30 244c9 75 45 112 121 112h62l-6 -58h-52c-34 0 -53 -17 -57 -51l-29 -247h-69z" />
    <glyph glyph-name="u.subs" horiz-adv-x="356" 
d="M6 -41l29 237h68l-27 -225c-7 -61 7 -84 54 -84s69 25 77 86l27 223h68l-43 -356h-65l5 44c-19 -33 -44 -52 -91 -52c-79 0 -113 47 -102 127z" />
    <glyph glyph-name="v.subs" horiz-adv-x="328" 
d="M82 -160l-78 356h68l54 -265l118 265h66l-165 -356h-63z" />
    <glyph glyph-name="w.subs" horiz-adv-x="505" 
d="M67 -160l-63 356h69l41 -262l110 262h52l45 -258l102 258h64l-149 -356h-60l-44 240l-101 -240h-66z" />
    <glyph glyph-name="y.subs" horiz-adv-x="328" 
d="M-29 -253h23c32 0 53 12 72 53l17 37l-79 359h68l54 -265l118 265h66l-185 -401c-31 -67 -56 -103 -127 -103h-34z" />
    <glyph glyph-name="z.subs" horiz-adv-x="290" 
d="M-22 -160l4 39l183 259h-154l7 58h240l-4 -39l-186 -262h150l-6 -55h-234z" />
    <glyph glyph-name="cent.subs" 
d="M92 -171l7 57c-61 7 -90 36 -90 99c0 9 1 19 2 31c11 84 41 123 113 130l7 58h53l-7 -57c63 -8 84 -46 81 -102h-62c0 39 -12 52 -48 52c-40 0 -60 -8 -71 -83c-1 -11 -2 -22 -2 -30c0 -47 20 -54 53 -54c36 0 51 13 60 52h62c-11 -55 -41 -88 -98 -95l-7 -58h-53z" />
    <glyph glyph-name="Euro.subs" 
d="M-30 -54l4 38h34c0 18 2 36 6 54h-33l4 40h36c21 95 66 126 149 126c94 0 119 -38 114 -128h-60c3 56 -9 74 -56 74c-43 0 -64 -13 -79 -72h83l-5 -40h-85c-3 -16 -5 -34 -6 -54h84l-4 -38h-81c3 -51 20 -63 60 -63c47 0 63 18 74 74h60c-15 -83 -47 -125 -136 -125
c-80 0 -123 29 -126 114h-37z" />
    <glyph glyph-name="dollar.sups" 
d="M72 620h64c-1 -45 22 -59 65 -59c31 0 68 11 68 55c0 23 -16 31 -59 42l-34 9c-48 13 -84 37 -84 93c0 68 42 109 110 118l7 58h62l-7 -58c63 -7 94 -40 86 -115h-64c4 47 -17 58 -60 58c-31 0 -65 -11 -65 -53c0 -23 14 -36 52 -45l34 -8c59 -14 90 -40 90 -89
c0 -68 -44 -107 -113 -116l-8 -63h-62l8 63c-68 8 -93 49 -90 110z" />
    </font>
</defs>
</svg>
