<svg version="1.1" id="Layer_1" xmlns="http://www.w3.org/2000/svg" x="0" y="0" viewBox="0 0 500 500" xml:space="preserve"><path d="M456 147.5h-30.2c-9.9-23.5-24.6-45.2-43.3-63.3-29.3-28.4-67.3-46.9-106.9-52.2-65.6-8.6-130 16.5-172.1 67.2-12.1 14.6-21.9 30.9-29.2 48.2H44C19.8 147.4.1 167.1.1 191.3V250c0 24.2 19.7 43.9 43.9 43.9h60l-6.3-19.2c-18.3-55.9-8-113 28.3-156.7 35.6-42.9 90.1-64.2 145.7-56.9 69.6 9.2 126 63.9 137.1 133 7.6 47.2-5.6 94.9-36.2 130.8-30.7 36-75.3 56.7-122.4 56.8-24.3 0-44.1 19.7-44.1 43.9s19.7 43.9 43.9 43.9 43.9-19.7 43.9-43.9v-19.8c39-9.3 74.5-30.7 101-62 12.9-15.2 23.2-31.9 30.7-50H456c24.2 0 43.9-19.7 43.9-43.9v-58.6c0-24.1-19.7-43.8-43.9-43.8h0zM64.6 264.6H44c-8.1 0-14.6-6.6-14.6-14.6v-58.6c0-8.1 6.6-14.6 14.6-14.6h20.7c-.5 2.2-1 4.4-1.4 6.6-5.3 26.8-4.9 54 1.3 81.2zm200 161.1c0 8.1-6.6 14.6-14.6 14.6s-14.6-6.6-14.6-14.6c0-8.1 6.7-14.6 14.9-14.6 4.8 0 9.6-.2 14.4-.6v15.2zm206-175.7c0 8.1-6.6 14.6-14.6 14.6h-20.7c5.8-24.5 6.7-49.7 2.6-75.2-.7-4.3-1.5-8.5-2.5-12.7H456c8.1 0 14.6 6.6 14.6 14.6V250z" fill="#3fc5af" stroke="#fff" stroke-width="7" stroke-miterlimit="10"/><path d="M176.8 206.1h29.3v29.3h-29.3v-29.3zm58.6 0h29.3v29.3h-29.3v-29.3zm58.5 0h29.3v29.3h-29.3v-29.3z" fill="#fe5d25" stroke="#fff" stroke-width="5" stroke-miterlimit="10"/><path d="M118.2 323.2v29.3H250c72.7 0 131.8-59.1 131.8-131.8S322.7 88.9 250 88.9 118.2 148 118.2 220.7c0 29.6 9.9 58.2 28.1 81.4-3.5 12.3-14.7 21.1-28.1 21.1zm131.8-205c56.5 0 102.5 46 102.5 102.5s-46 102.5-102.5 102.5h-81c4.2-7.3 6.8-15.4 7.6-23.9l.6-6.3-4.2-4.7c-16.4-18.7-25.5-42.7-25.5-67.6 0-56.5 46-102.5 102.5-102.5h0z" fill="#fe5d25" stroke="#fff" stroke-width="7" stroke-miterlimit="10"/></svg>