<svg version="1.1" id="Layer_1" xmlns="http://www.w3.org/2000/svg" x="0" y="0" viewBox="0 0 500 500" xml:space="preserve"><path d="M479.7 65.2H182.8c-8.2-24.2-31.1-41.8-58.1-41.8s-49.9 17.5-58 41.8H20.3C9.5 65.2.8 73.9.8 84.7s8.7 19.5 19.5 19.5h46.3c8.2 24.2 31.1 41.8 58.1 41.8s49.9-17.5 58.1-41.8h296.9c10.8 0 19.5-8.7 19.5-19.5s-8.8-19.5-19.5-19.5zm-355 41.7c-12.3 0-22.3-10-22.3-22.3s10-22.3 22.3-22.3 22.3 10 22.3 22.3-10 22.3-22.3 22.3zm355 125.3h-46.3c-8.2-24.2-31.1-41.8-58.1-41.8s-49.9 17.5-58.1 41.8H20.3C9.5 232.2.8 240.9.8 251.7s8.7 19.5 19.5 19.5h296.9c8.2 24.2 31.1 41.8 58.1 41.8s49.9-17.5 58.1-41.8h46.3c10.8 0 19.5-8.7 19.5-19.5s-8.8-19.5-19.5-19.5zM375.3 274c-12.3 0-22.3-10-22.3-22.3s10-22.3 22.3-22.3 22.3 10 22.3 22.3-10 22.3-22.3 22.3zm104.4 125.3H266.3c-8.2-24.2-31.1-41.8-58.1-41.8s-49.9 17.5-58.1 41.8H20.3C9.5 399.3.8 408 .8 418.8s8.7 19.5 19.5 19.5h129.9c8.2 24.2 31.1 41.8 58.1 41.8s49.9-17.5 58.1-41.8h213.4c10.8 0 19.5-8.7 19.5-19.5-.1-10.8-8.9-19.5-19.6-19.5zM208.2 441c-12.3 0-22.3-10-22.3-22.3s10-22.3 22.3-22.3 22.3 10 22.3 22.3-10 22.3-22.3 22.3z"/></svg>