<svg version="1.1" id="Layer_1" xmlns="http://www.w3.org/2000/svg" x="0" y="0" viewBox="0 0 500 500" xml:space="preserve"><style type="text/css">.st0{fill:#333}.st1{fill:#3fc5af}</style><path class="st0" d="M126 34.9h41v29.3h-41V34.9zm69 0h41v29.3h-41V34.9zm69 0h41v29.3h-41V34.9zm69 0h41v29.3h-41V34.9zM126 435.8h41v29.3h-41v-29.3zm69 0h41v29.3h-41v-29.3zm69 0h41v29.3h-41v-29.3zm69 0h41v29.3h-41v-29.3z"/><path class="st1" d="M435.8 126h29.3v41h-29.3v-41zm0 69h29.3v41h-29.3v-41zm0 69h29.3v41h-29.3v-41zm0 69h29.3v41h-29.3v-41zM34.9 126h29.3v41H34.9v-41zm0 69h29.3v41H34.9v-41zm0 69h29.3v41H34.9v-41zm0 69h29.3v41H34.9v-41z"/><path class="st0" d="M500 0h-99.1v91.1H99.1V0H0v99.1h91.1v301.8H0V500h99.1v-91.1h301.8V500H500v-99.1h-91.1V99.1H500V0zM378.9 181.8h-29.3v-25.4h-84.9v187.3h24.2V373h-77.6v-29.3h24.2V156.5h-84.9v25.4h-29.3v-54.7h257.8v54.6z"/><path class="st1" d="M400.9 0H500v99.1h-99.1zM0 400.9h99.1V500H0z"/></svg>