<svg version="1.1" id="Layer_1" xmlns="http://www.w3.org/2000/svg" x="0" y="0" viewBox="0 0 500 500" xml:space="preserve"><style type="text/css">.st0{fill:#223b4f}</style><path transform="rotate(-45.001 249.998 250.004)" class="st0" d="M73.2 73.2h353.6v353.6H73.2z"/><path d="M343.9 212.3l-36.8-.2v-24.7c0-3.7-1.5-7-3.9-9.4-2.4-2.4-5.7-3.9-9.4-3.9H155.5c-3.7 0-7 1.5-9.4 3.9-2.4 2.4-3.9 5.7-3.9 9.4 0 2 1.6 3.6 3.6 3.6s3.6-1.6 3.6-3.6c0-1.7.7-3.2 1.8-4.3 1.1-1.1 2.6-1.8 4.3-1.8h138.3c1.7 0 3.2.7 4.3 1.8 1.1 1.1 1.8 2.6 1.8 4.3v113.3h-28.6c-2 0-3.6 1.6-3.6 3.6s1.6 3.6 3.6 3.6h32.1c2 0 3.6-1.6 3.6-3.6v-4.2h22c1.7-37.7 55.7-42.9 61.2 0h11.9c1.6-8.4 1-18.1-1.2-28.9-2.5-12.5-1.8-10.1-13.5-14.6l-23.9-10.7-19.6-33.6zm-201 40.1c2 0 3.6 1.6 3.6 3.6s-1.6 3.6-3.6 3.6H117c-2 0-3.6-1.6-3.6-3.6s1.6-3.6 3.6-3.6h25.9zm0-23.9c2 0 3.6 1.6 3.6 3.6s-1.6 3.6-3.6 3.6h-32.7c-2 0-3.6-1.6-3.6-3.6s1.6-3.6 3.6-3.6h32.7zm0-23.8c2 0 3.6 1.6 3.6 3.6s-1.6 3.6-3.6 3.6h-42.2c-2 0-3.6-1.6-3.6-3.6s1.6-3.6 3.6-3.6h42.2zm116.1-.8h23.8v10.6h-9.5v10.1h8.9v10h-8.9v11.6h10.5v10.6H259v-52.9zm-30.1 0h23.8v10.6h-9.5v10.1h8.9v10h-8.9v11.6h10.5v10.6h-24.8v-52.9zm-38.6 0h10.1c6.7 0 11.3.2 13.7.7 2.4.5 4.3 1.8 5.9 3.8 1.5 2 2.3 5.3 2.3 9.8 0 4.1-.5 6.9-1.6 8.3-1 1.4-3.2 2.3-6.3 2.5 2.8.7 4.7 1.6 5.7 2.7s1.6 2.2 1.8 3.1c.2.9.3 3.6.3 7.8v14h-13.3V239c0-2.8-.2-4.6-.7-5.3-.4-.7-1.7-1-3.6-1v23.9h-14.3v-52.7zm14.3 9v11.8c1.6 0 2.7-.2 3.4-.6.6-.4 1-1.8 1-4.1v-3c0-1.7-.3-2.8-.9-3.3-.8-.5-1.9-.8-3.5-.8zm-43.2-9h24.2v10.6h-9.9v10.1h8.8v10h-8.8v22.2h-14.3v-52.9zm35.5 96.7c2 0 3.6 1.6 3.6 3.6s-1.6 3.6-3.6 3.6h-41.4c-3.7 0-7-1.6-9.4-4.1-2.4-2.5-3.9-5.9-3.9-9.6v-14.5c0-2 1.6-3.6 3.6-3.6s3.6 1.6 3.6 3.6v14.5c0 1.7.7 3.4 1.9 4.6 1.1 1.1 2.6 1.9 4.2 1.9h41.4zm36.8-23.6c-13.6 0-24.5 11-24.5 24.5 0 13.6 11 24.5 24.5 24.5 13.6 0 24.5-11 24.5-24.5 0-13.6-11-24.5-24.5-24.5zm0 15.1c-5.2 0-9.4 4.2-9.4 9.4s4.2 9.4 9.4 9.4 9.4-4.2 9.4-9.4-4.2-9.4-9.4-9.4zM359.6 277c-13.6 0-24.5 11-24.5 24.5 0 13.6 11 24.5 24.5 24.5 13.6 0 24.5-11 24.5-24.5 0-13.6-11-24.5-24.5-24.5zm0 15.1c-5.2 0-9.4 4.2-9.4 9.4s4.2 9.4 9.4 9.4 9.4-4.2 9.4-9.4-4.2-9.4-9.4-9.4zm-25.1-69.4l-18.2-.2V246h30.6l-12.4-23.3z" fill="#fff"/><circle class="st0" cx="233.7" cy="301.5" r="9.9"/><circle class="st0" cx="359.6" cy="301.5" r="9.9"/><path class="st0" d="M334.5 224.3l-18.3-.3v23.5h30.6l-12.3-23.2z"/></svg>