<svg version="1.1" id="Layer_1" xmlns="http://www.w3.org/2000/svg" x="0" y="0" viewBox="0 0 500 500" xml:space="preserve"><path d="M499.7 90.5s0-.1 0 0c-.2-1.1-.6-2-1.1-2.9-.5-.8-1.2-1.5-1.9-2.1-.2-.1-.3-.2-.5-.3-.6-.4-1.3-.7-2-1-.5-.2-.9-.2-1.4-.3-.4 0-.7-.2-1.1-.2h-1.2c-.2 0-.4.1-.7.1L6.6 183.6c-3.4.7-6.1 3.5-6.6 7s1.2 6.9 4.4 8.5l138.4 73 24.3 134.7v.3c-.1.7-.1 1.3 0 2 0 .3.1.6.2 1 .2.8.5 1.5.9 2.2.1.1.1.3.2.4l.1.1c.1.2.3.3.4.4.4.5.8.9 1.3 1.3l.2.2c.1.1.3.1.4.2.5.3 1 .6 1.6.8.2.1.4.2.7.2.7.2 1.5.4 2.3.4h.5c2.3 0 4.4-1 5.9-2.6l92.2-61.5 96.5 62.7c1.4.9 2.9 1.3 4.5 1.3.9 0 1.8-.1 2.6-.4 2.4-.8 4.3-2.6 5.2-5L498.8 96c.8-1.3 1.2-2.7 1.2-4.3 0-.3-.2-.8-.3-1.2zm-96.4 55.9L203.6 293.2c-.3.2-.6.5-.9.8l-.3.3c-.2.2-.3.4-.5.6-.1.2-.3.4-.4.6-.3.5-.6 1-.8 1.6 0 .1-.1.2-.1.3v.1l-22.9 74.4-18.1-100.6 243.7-124.9zM190.6 387.9l22.7-74.9 35.3 23 10.1 6.6-34.3 22.9-33.8 22.4z" fill="#3fc5af"/></svg>