<svg version="1.1" id="Layer_1" xmlns="http://www.w3.org/2000/svg" x="0" y="0" viewBox="0 0 500 500" xml:space="preserve"><circle cx="250" cy="250" r="249" fill="#223b4f"/><path d="M192.6 402.1c-78.7-78.7-78.6-206.2 0-284.8 3.5-3.5 8.8-4 12.9-1.5l39.3 24.5c4.3 2.7 6 8 4.2 12.7l-19.6 49.1c-1.7 4.3-6.1 7-10.7 6.5l-33.8-3.4c-12.8 35.3-12.5 74.2 0 108.8l33.8-3.4c4.6-.5 9 2.2 10.7 6.5l19.6 49.1c1.9 4.7.1 10-4.2 12.7l-39.3 24.5c-4.1 2.7-9.4 2.1-12.9-1.3zm90.8-249.4c7.2 12.1 7.2 27.3 0 39.4-2.4 4.1-7.9 4.8-11.3 1.6l-3.6-3.5c-2.4-2.3-2.9-5.8-1.4-8.7 3-5.7 3-12.5 0-18.1-1.5-2.9-1-6.5 1.4-8.7l3.6-3.5c3.4-3.3 8.9-2.5 11.3 1.5zM339 97.5c36.4 43.4 36.4 106.6 0 149.9-2.7 3.2-7.6 3.5-10.6.6l-3.5-3.4c-2.8-2.6-3-7-.6-9.9 30.1-36.1 30.1-88.4 0-124.5-2.5-2.9-2.2-7.3.6-9.9l3.5-3.4c3-2.9 7.9-2.7 10.6.6zm-27.8 27.2c21.8 28.1 21.9 67.4 0 95.5-2.7 3.4-7.7 3.8-10.8.8l-3.5-3.4c-2.7-2.6-3-6.7-.8-9.7 16.1-20.9 16.1-50 0-71-2.2-2.9-1.9-7.1.8-9.7l3.5-3.4c3.1-2.9 8.1-2.5 10.8.9z" fill="#fff"/></svg>