<svg version="1.1" id="Layer_1" xmlns="http://www.w3.org/2000/svg" x="0" y="0" viewBox="0 0 500 500" xml:space="preserve"><style type="text/css">.st0{fill:#223b4f}.st1{fill:#fff}</style><path transform="rotate(-45.001 249.998 250.004)" class="st0" d="M73.2 73.2h353.6v353.6H73.2z"/><path class="st1" d="M390.5 266.8l-1.6 9.1H399l2-9.1zm-230-92H115c-1.9 0-3.4 1.5-3.4 3.4v1.2c0 1.9 1.5 3.4 3.4 3.4h45.5c1.9 0 3.4-1.5 3.4-3.4v-1.2c0-1.9-1.5-3.4-3.4-3.4zm-14.8 22.9h-41.5c-1.9 0-3.4 1.5-3.4 3.4v1.2c0 1.9 1.5 3.4 3.4 3.4h41.5c1.9 0 3.4-1.5 3.4-3.4V201c0-1.8-1.5-3.3-3.4-3.3zm6.5 22.9h-41.5c-1.9 0-3.4 1.5-3.4 3.4v1.2c0 1.9 1.5 3.4 3.4 3.4h41.5c1.9 0 3.4-1.5 3.4-3.4V224c0-1.9-1.6-3.4-3.4-3.4zm-10.3 22.8h-41.5c-1.9 0-3.4 1.5-3.4 3.4v1.2c0 1.9 1.5 3.4 3.4 3.4h41.5c1.9 0 3.4-1.5 3.4-3.4v-1.2c0-1.9-1.5-3.4-3.4-3.4zm8.2 23h-41.5c-1.9 0-3.4 1.5-3.4 3.4v1.2c0 1.9 1.5 3.4 3.4 3.4h41.5c1.9 0 3.4-1.5 3.4-3.4v-1.2c0-1.9-1.5-3.4-3.4-3.4zm35.6-91.6l-8.6 101.1h138.4l9.5-101.1z"/><path class="st0" d="M190.7 248l4.9-46.6h19.6l-.6 6.4h-10.3l-1.3 12.7h8.5l-.7 6.5h-8.5l-2.2 21h-9.4zm21.1 0l14.1-46.6H236l4.2 46.6h-8.6l-.7-10.4h-7.5l-2.8 10.4h-8.8zm13.1-16.2h5.7l-.9-18.7-4.8 18.7zm31.8 16.9c-4.3 0-7.4-1.2-9.3-3.6-1.6-2-2.4-5-2.4-8.8 0-.7 0-1.4.1-2.1l8.2-1.5c-.1.8-.1 1.6-.1 2.4 0 4.3 1.3 6.5 3.9 6.5 1.1 0 2-.4 2.6-1.1s1-1.7 1.1-2.8c0-.4.1-.7.1-1 0-.9-.1-1.7-.4-2.5-.3-1-.8-1.9-1.4-2.7-.6-.7-1.4-1.6-2.5-2.6l-4.7-4.5c-1.7-1.6-3-3.3-3.8-5.1-.6-1.3-.9-2.8-.9-4.6 0-.6 0-1.3.1-2 .4-3.7 1.8-6.6 4.2-8.7 2.4-2.1 5.6-3.1 9.4-3.1h.2c1.7 0 3.2.2 4.5.7 1.3.5 2.3 1.2 3.1 2 .7.8 1.3 1.8 1.7 3 .4 1.2.7 2.3.8 3.4.1.7.1 1.5.1 2.4v1.4l-8.1 1.3c.1-1 .1-1.8.1-2.6v-1.1c0-1.1-.3-2-.8-2.6-.5-.6-1.2-.9-2.1-.9h-.3c-1.1.1-2 .5-2.7 1.2-.7.8-1.1 1.7-1.2 2.8 0 .3-.1.6-.1.8 0 .8.1 1.5.4 2.2.3.9.7 1.6 1.1 2.1.4.5 1 1.2 1.9 2l4.7 4.5c1 .9 1.8 1.8 2.4 2.7.7.9 1.3 1.9 1.9 3 .6 1.1 1 2.4 1.2 3.7.1.8.2 1.6.2 2.4 0 .6 0 1.3-.1 1.9-.4 3.4-1.7 6.2-4.2 8.3-2.4 2.1-5.3 3.2-8.9 3.2zm21.3-.7l4.2-39.7h-7.5l.7-6.9h24.2l-.7 6.9h-7.4l-4.2 39.7H278z"/><path class="st1" d="M203 286.7c-10.6 0-19.3 8.6-19.3 19.3 0 10.6 8.6 19.3 19.3 19.3 10.6 0 19.3-8.6 19.3-19.3-.1-10.7-8.7-19.3-19.3-19.3zm0 27.7c-4.7 0-8.4-3.8-8.4-8.4 0-4.7 3.8-8.4 8.4-8.4 4.7 0 8.4 3.8 8.4 8.4 0 4.6-3.8 8.4-8.4 8.4zm161.5-27.7c-10.6 0-19.3 8.6-19.3 19.3 0 10.6 8.6 19.3 19.3 19.3s19.3-8.6 19.3-19.3c-.1-10.7-8.7-19.3-19.3-19.3zm0 27.7c-4.7 0-8.4-3.8-8.4-8.4 0-4.7 3.8-8.4 8.4-8.4 4.7 0 8.4 3.8 8.4 8.4 0 4.6-3.8 8.4-8.4 8.4zm-174.2-29.2h-18.7c-1.1 0-2 .9-2 2v6.8c0 1.1.9 2 2 2h9.1c2.1-4.4 5.4-8.2 9.6-10.8z"/><path class="st1" d="M391.1 258.2l11.7-.2c1-6.8-5.8-17.4-5.8-17.4s-15.3-24.8-18.4-29.8c-3.1-4.9-5.8-4.1-5.8-4.1h-37.9c-4.4 0-4.6 3.7-4.6 3.7l-7.7 85.5H339c4.4-9.7 14.1-16.5 25.5-16.5 11.3 0 21.1 6.8 25.5 16.5h3.9l2.7-12.9-7.6.3c-7.3-.2-7.9-7.6-7.9-7.6s.2-1.2.9-9.1 9.1-8.4 9.1-8.4z"/><path class="st1" d="M345.2 249.5c-1.7 0-3.3-.7-4.4-1.9-1.1-1.2-1.7-2.9-1.6-4.6l1.8-21c.3-3.1 2.9-5.5 6-5.5h22.2c2.2 0 4.3 1.2 5.3 3.2l11.1 21c1 1.9.9 4.1-.2 5.9-1.1 1.8-3 2.9-5.1 2.9h-35.1z"/><path class="st0" d="M369.2 222.5l11.1 21h-35.2l1.8-21h22.3m0-12H347c-6.2 0-11.4 4.8-12 11l-1.8 21c-.3 3.3.8 6.7 3.1 9.1 2.3 2.5 5.5 3.9 8.8 3.9h35.2c4.2 0 8.1-2.2 10.3-5.8 2.2-3.6 2.3-8.1.3-11.8l-11.1-21c-2.1-3.9-6.1-6.4-10.6-6.4zm-12 50.9h-11.1c-1.9 0-3.4 1.5-3.4 3.4v1.2c0 1.9 1.5 3.4 3.4 3.4h11.1c1.9 0 3.4-1.5 3.4-3.4v-1.2c0-1.9-1.5-3.4-3.4-3.4z"/><path class="st1" d="M314.6 285.2h-99c4.2 2.6 7.5 6.4 9.6 10.9h88.4l1-10.9z"/></svg>