<svg version="1.1" id="Layer_1" xmlns="http://www.w3.org/2000/svg" x="0" y="0" viewBox="0 0 500 500" xml:space="preserve"><style type="text/css">.st0{fill:#4b5964}</style><path class="st0" d="M376.1 100.5c4 0 7.3-3.3 7.3-7.3v-9.8c0-4-3.3-7.3-7.3-7.3s-7.3 3.3-7.3 7.3v9.8c0 4 3.2 7.3 7.3 7.3zm79.6 65c-4 0-7.3 3.3-7.3 7.3s3.3 7.3 7.3 7.3h9.8c4 0 7.3-3.3 7.3-7.3s-3.3-7.3-7.3-7.3h-9.8zm-169.1 0c-4 0-7.3 3.3-7.3 7.3s3.3 7.3 7.3 7.3h9.8c4 0 7.3-3.3 7.3-7.3s-3.3-7.3-7.3-7.3h-9.8zm121.6 233.8c-13 0-23.6 10.6-23.6 23.6 0 13 10.6 23.6 23.6 23.6 13 0 23.6-10.6 23.6-23.6 0-13-10.6-23.6-23.6-23.6zm0 32.5c-4.9 0-8.9-4-8.9-8.9s4-8.9 8.9-8.9 8.9 4 8.9 8.9-4 8.9-8.9 8.9zm-267.3-8.9c0 13 10.6 23.6 23.6 23.6 13 0 23.6-10.6 23.6-23.6 0-13-10.6-23.6-23.6-23.6-13 0-23.6 10.6-23.6 23.6zm32.5 0c0 4.9-4 8.9-8.9 8.9s-8.9-4-8.9-8.9 4-8.9 8.9-8.9c4.9-.1 8.9 3.9 8.9 8.9zm40.8-112.4c8.3-8 9.2-22-.2-31.2l-30.4-29.6c-11-10.7-28.6-10.4-39.3.5l-5.7 5.9c-2.8 2.9-2.8 7.5.1 10.3l29.3 28.5-29.3 28.5c-1.4 1.4-2.2 3.2-2.2 5.1 0 1.9.7 3.8 2.1 5.2l5.7 5.9c10.7 11 28.3 11.2 39.3.5l30.6-29.6zm-59.4 19.1l-.6-.6 29.5-28.7c1.4-1.4 2.2-3.3 2.2-5.2s-.8-3.9-2.2-5.2l-29.5-28.7.6-.6c5.1-5.2 13.4-5.3 18.6-.3l30.4 29.6c3.2 3.2 2.8 7.6.2 10.2l-30.6 29.8c-5.2 4.9-13.5 4.9-18.6-.3zm214-156.8c0 4 3.3 7.3 7.3 7.3H401c4 0 7.3-3.3 7.3-7.3s-3.3-7.3-7.3-7.3h-17.6v-45.6c0-4-3.3-7.3-7.3-7.3s-7.3 3.3-7.3 7.3v52.9zM125 110.3h126c4 0 7.3-3.3 7.3-7.3s-3.3-7.3-7.3-7.3H125c-4 0-7.3 3.3-7.3 7.3s3.3 7.3 7.3 7.3zm-30.5 37.8h130.8c4 0 7.3-3.3 7.3-7.3s-3.3-7.3-7.3-7.3H94.5c-4 0-7.3 3.3-7.3 7.3s3.2 7.3 7.3 7.3zm74.8 19.1c-4 0-7.3 3.3-7.3 7.3s3.3 7.3 7.3 7.3h65.1c4 0 7.3-3.3 7.3-7.3s-3.3-7.3-7.3-7.3h-65.1zm-61.7 0c-4 0-7.3 3.3-7.3 7.3s3.3 7.3 7.3 7.3h32.5c4 0 7.3-3.3 7.3-7.3s-3.3-7.3-7.3-7.3h-32.5zM7.3 282.6h26.8c4 0 7.3-3.3 7.3-7.3s-3.3-7.3-7.3-7.3H7.3c-4 0-7.3 3.3-7.3 7.3s3.3 7.3 7.3 7.3zm19.5 64.5H7.3c-4 0-7.3 3.3-7.3 7.3s3.3 7.3 7.3 7.3h19.5c4 0 7.3-3.3 7.3-7.3.1-4.1-3.2-7.3-7.3-7.3zm86.1-62H86.8c-4 0-7.3 3.3-7.3 7.3s3.3 7.3 7.3 7.3h26.1c4 0 7.3-3.3 7.3-7.3.1-4-3.2-7.3-7.3-7.3z"/><path class="st0" d="M445 275.4c33.9-22.8 54.6-61.3 54.6-102.6 0-19.6-4.5-38.3-13.2-55.7-1.8-3.6-6.2-5.1-9.8-3.2-3.6 1.8-5.1 6.2-3.2 9.8 7.7 15.3 11.7 31.8 11.7 49.1 0 37.1-19 71.6-50 91.6l-42.6-46.6c-4.9-5.4-12-8.5-19.3-8.5h-99.6c-4.2-11.7-6.3-23.9-6.3-36.5 0-60.1 48.9-108.9 108.9-108.9 31.2 0 60.9 13.4 81.6 36.7 2.7 3 7.3 3.3 10.3.6 3-2.7 3.3-7.3.6-10.3-10.8-12.1-23.8-21.9-38-28.9V37.2c0-9-7.3-16.3-16.3-16.3h-76.6c-9 0-16.3 7.3-16.3 16.3V62c-40.8 20.2-68.9 62.3-68.9 110.8 0 12.5 1.8 24.7 5.5 36.5H71.4c-9.3 0-17 7.2-17.8 16.4H26.8c-4 0-7.3 3.3-7.3 7.3s3.3 7.3 7.3 7.3h26.7V311H7.3c-4 0-7.3 3.3-7.3 7.3s3.3 7.3 7.3 7.3h46.2V347c-4 0-7.3 3.3-7.3 7.3s3.2 7.3 7.3 7.3v51.8c0 7.7 6.3 13.9 13.9 13.9h19.7v5.1H64.3c-4 0-7.3 3.3-7.3 7.3s3.3 7.3 7.3 7.3h30.2c4 0 7.3-3.3 7.3-7.3v-12.4h6.7c2.3 28.9 26.6 51.7 56 51.7 9.7 0 19.3-2.5 27.8-7.3 3.5-2 4.7-6.5 2.7-10s-6.5-4.7-10-2.7c-6.2 3.5-13.3 5.4-20.5 5.4-22.9 0-41.6-18.7-41.6-41.6s18.7-41.6 41.6-41.6 41.6 18.7 41.6 41.6c0 6.3-1.4 12.3-4 17.9-1.7 3.6-.2 8 3.5 9.8 3.6 1.7 8 .2 9.8-3.5 3-6.2 4.7-12.8 5.3-19.6h131.6c2.3 28.9 26.6 51.7 56 51.7s53.7-22.8 56-51.7h15.1c11.2 0 20.4-9.1 20.4-20.4v-61.7c0-6.5-2.4-12.8-6.8-17.6l-48-52.3zM336.1 37.2c0-.9.8-1.7 1.7-1.7h76.6c.9 0 1.7.8 1.7 1.7v18.7c-12.7-4.4-26.2-6.7-40-6.7-14 0-27.4 2.3-40 6.6V37.2zm45.5 190.5l76.2 83.3h-54.6c-4 0-7.3 3.3-7.3 7.3s3.3 7.3 7.3 7.3h68l10.9 11.9c4.4 4.8 2.6 10.1 3 15.7h-5.6c-4 0-7.3 3.3-7.3 7.3s3.3 7.3 7.3 7.3h5.6v10.8H443c-9.6-7.6-21.6-12.1-34.8-12.1s-25.2 4.5-34.8 12.1h-79.7V223.9h31.6v87c0 8.1 6.6 14.7 14.7 14.7h33.9c4 0 7.3-3.3 7.3-7.3s-3.3-7.3-7.3-7.3H340c-.1 0-.1 0-.1-.1v-87h33.2c3.2 0 6.3 1.4 8.5 3.8zm-28.7 185.1h-59.2v-19.4h66.7c-3.7 5.8-6.2 12.4-7.5 19.4zm-140.5-19.4H279v19.4h-59.2c-1.3-7-3.8-13.6-7.4-19.4zm-144.2 0h48.5c-3.6 5.8-6.2 12.4-7.5 19.4h-41v-19.4zm61.6-14.7H68.2v-17h31.7c4 0 7.3-3.3 7.3-7.3s-3.3-7.3-7.3-7.3H68.2v-21.4h31.7c4 0 7.3-3.3 7.3-7.3s-3.3-7.3-7.3-7.3H68.2v-83.9c0-1.8 1.4-3.2 3.2-3.2H279v154.8h-79.8c-9.6-7.6-21.6-12.1-34.8-12.1s-25.1 4.5-34.6 12zm278.4 85.8c-22.9 0-41.6-18.7-41.6-41.6 0-22.9 18.7-41.6 41.6-41.6s41.6 18.7 41.6 41.6c0 22.9-18.7 41.6-41.6 41.6zm71.1-51.7h-15.8c-1.3-7-3.8-13.6-7.5-19.4h29v13.7c0 3.1-2.6 5.7-5.7 5.7z"/></svg>