<svg version="1.1" id="Layer_1" xmlns="http://www.w3.org/2000/svg" x="0" y="0" viewBox="0 0 500 500" xml:space="preserve"><style type="text/css">.st0{fill:#454545}</style><path class="st0" d="M500 113.7V0H386.3v42.2H113.7V0H0v113.7h113.7V71.5h272.7v42.2h42.2v272.7h-42.2v42.2H113.7v-42.2H0V500h113.7v-42.2h272.7V500H500V386.3h-42.2V113.7H500zM84.4 84.4H29.3V29.3h55.1v55.1zm0 386.3H29.3v-55.1h55.1v55.1zm386.3 0h-55.1v-55.1h55.1v55.1zM415.6 29.3h55.1v55.1h-55.1V29.3z"/><path class="st0" d="M42.2 315.9h29.3v43.9H42.2v-43.9zm0-87.9h29.3v44H42.2v-44zm0-87.9h29.3V184H42.2v-43.9zm251.9 234v-160h61v-88.2H144.9v88.2h61v160.1h88.2zM174.2 184.8v-29.6h151.5v29.6h-61v160.1h-29.6V184.8h-60.9z"/></svg>