<svg version="1.1" id="Layer_1" xmlns="http://www.w3.org/2000/svg" x="0" y="0" viewBox="0 0 500 500" xml:space="preserve"><path d="M9 274.9c-6.4 7.5-9.6 17.1-8.8 27 .8 9.9 5.3 18.9 12.9 25.3L170 461.9c6.8 5.8 15.3 8.9 24.1 8.9 1.1 0 2.2-.1 3.3-.1 10-.9 19.1-5.6 25.4-13.4l268.7-327c13-15.8 10.7-39.3-5.1-52.3l-49.2-40.4c-15.8-13-39.2-10.7-52.3 5.1L181.7 290.2l-79-67.7c-15.5-13.3-39-11.5-52.3 4L9 274.9zm73-28.2l91.3 78.2c3.2 2.8 7.4 4.2 11.8 3.8 4.3-.4 8.2-2.4 10.9-5.7L409.6 63c1.8-2.3 5.2-2.6 7.5-.7l49.2 40.4c2.3 1.9 2.6 5.2.7 7.5L198.3 437c-1.2 1.5-2.8 1.8-3.6 1.9-.8.1-2.4 0-3.9-1.3L33.7 303c-1.4-1.3-1.8-2.8-1.8-3.6-.1-.8 0-2.4 1.3-3.9l41.4-48.3c1.8-2.1 5.2-2.4 7.4-.5z"/></svg>