<svg version="1.1" id="Layer_1" xmlns="http://www.w3.org/2000/svg" x="0" y="0" viewBox="0 0 500 500" xml:space="preserve"><style type="text/css"/><path fill="#fe5d25" d="M426.8 323.2h-17.3c-6.1-17-22.2-29.3-41.2-29.3s-35.2 12.3-41.2 29.3h-32c-16.2 0-29.3-13.1-29.3-29.3 0-16.2 13.1-29.3 29.3-29.3h102.5c4.7 0 9.7-3.2 11.7-5.9l70.4-94.8c13.4-17.9 20.5-39.1 20.5-61.5C500 46 454 0 397.5 0S294.9 46 294.9 102.5c0 22.4 7.1 43.6 20.5 61.5l52.8 71.3H295c-32.3 0-58.6 26.3-58.6 58.6s26.3 58.6 58.6 58.6h32c6.1 17 22.2 29.3 41.2 29.3s35.2-12.3 41.2-29.3h17.3c24.2 0 43.9 19.7 43.9 43.9s-19.7 44.9-43.9 44.9H321.5c-6.1-17-22.2-29.3-41.2-29.3s-35.2 12.3-41.2 29.3H131.8l52.8-71.3c13.4-17.9 20.5-39.1 20.5-61.5 0-56.5-46-102.5-102.5-102.5S0 252.1 0 308.6c0 22.4 7.1 43.6 20.5 61.5 1.7 2.3 70.7 95.6 72.9 97.4 0 0 3.6 3.2 9.2 3.2H239c6.1 17 22.2 29.3 41.2 29.3s35.2-12.3 41.2-29.3h105.2c40.4 0 73.2-33.8 73.2-74.2s-32.7-73.3-73-73.3zm-73.3-220.7c0-24.2 19.7-43.9 43.9-43.9s43.9 19.7 43.9 43.9-19.7 43.9-43.9 43.9-43.9-19.6-43.9-43.9zm-251 250c-24.2 0-43.9-19.7-43.9-43.9s19.7-43.9 43.9-43.9 43.9 19.7 43.9 43.9c.1 24.2-19.6 43.9-43.9 43.9zM-210 297c-8.3 0-15 6.7-15 15s6.7 15 15 15 15-6.7 15-15-6.7-15-15-15z"/></svg>